<?xml version="1.0" encoding="utf-8" standalone="no"?>
<!DOCTYPE svg PUBLIC "-//W3C//DTD SVG 1.1//EN"
  "http://www.w3.org/Graphics/SVG/1.1/DTD/svg11.dtd">
<!-- Created with matplotlib (https://matplotlib.org/) -->
<svg height="288pt" version="1.1" viewBox="0 0 432 288" width="432pt" xmlns="http://www.w3.org/2000/svg" xmlns:xlink="http://www.w3.org/1999/xlink">
 <metadata>
  <rdf:RDF xmlns:cc="http://creativecommons.org/ns#" xmlns:dc="http://purl.org/dc/elements/1.1/" xmlns:rdf="http://www.w3.org/1999/02/22-rdf-syntax-ns#">
   <cc:Work>
    <dc:type rdf:resource="http://purl.org/dc/dcmitype/StillImage"/>
    <dc:date>2021-03-31T20:06:27.592457</dc:date>
    <dc:format>image/svg+xml</dc:format>
    <dc:creator>
     <cc:Agent>
      <dc:title>Matplotlib v3.3.4, https://matplotlib.org/</dc:title>
     </cc:Agent>
    </dc:creator>
   </cc:Work>
  </rdf:RDF>
 </metadata>
 <defs>
  <style type="text/css">*{stroke-linecap:butt;stroke-linejoin:round;}</style>
 </defs>
 <g id="figure_1">
  <g id="patch_1">
   <path d="M 0 288 
L 432 288 
L 432 0 
L 0 0 
z
" style="fill:none;opacity:0;"/>
  </g>
  <g id="axes_1">
   <g id="patch_2">
    <path d="M 64.8 230.4 
L 345.6 230.4 
L 345.6 57.6 
L 64.8 57.6 
z
" style="fill:none;opacity:0;"/>
   </g>
   <g id="PolyCollection_1">
    <defs>
     <path d="M 77.563636 -194.237104 
L 77.563636 -168.629864 
L 80.116364 -169.21629 
L 82.669091 -170.193665 
L 85.221818 -168.424615 
L 87.774545 -169.60724 
L 90.327273 -172.92543 
L 92.88 -172.92543 
L 95.432727 -169.015928 
L 97.985455 -166.083801 
L 100.538182 -170.379367 
L 103.090909 -167.061176 
L 105.643636 -171.557104 
L 108.196364 -169.99819 
L 110.749091 -173.011765 
L 113.301818 -168.988235 
L 115.854545 -170.682353 
L 118.407273 -172.371176 
L 120.96 -173.43 
L 123.512727 -175.129412 
L 126.065455 -170.682353 
L 128.618182 -166.441765 
L 131.170909 -173.853529 
L 133.723636 -170.894118 
L 136.276364 -174.282353 
L 138.829091 -170.894118 
L 141.381818 -165.6 
L 143.934545 -175.124118 
L 146.487273 -174.912353 
L 149.04 -170.047059 
L 151.592727 -169.2 
L 154.145455 -165.382941 
L 156.698182 -167.929412 
L 159.250909 -166.235294 
L 161.803636 -168.352941 
L 164.356364 -166.023529 
L 166.909091 -165.594706 
L 169.461818 -169.83 
L 172.014545 -172.371176 
L 174.567273 -176.818235 
L 177.12 -168.135882 
L 179.672727 -174.282353 
L 182.225455 -174.277059 
L 184.778182 -175.976471 
L 187.330909 -179.152941 
L 189.883636 -175.124118 
L 192.436364 -174.282353 
L 194.989091 -176.188235 
L 197.541818 -171.947647 
L 200.094545 -169.623529 
L 202.647273 -168.776471 
L 205.2 -175.976471 
L 207.752727 -175.759893 
L 210.305455 -175.596755 
L 212.858182 -178.941176 
L 215.410909 -179.114439 
L 217.963636 -174.719358 
L 220.516364 -178.646631 
L 223.069091 -179.114439 
L 225.621818 -173.339037 
L 228.174545 -179.576471 
L 230.727273 -177.497326 
L 233.28 -172.414973 
L 235.832727 -174.257326 
L 238.385455 -179.345455 
L 240.938182 -173.570053 
L 243.490909 -172.414973 
L 246.043636 -169.180749 
L 248.596364 -170.330053 
L 251.149091 -173.339037 
L 253.701818 -174.263102 
L 256.254545 -173.150924 
L 258.807273 -174.488342 
L 261.36 -144.687273 
L 263.912727 -176.774824 
L 266.465455 -171.184235 
L 269.018182 -170.167765 
L 271.570909 -173.217176 
L 274.123636 -171.952941 
L 276.676364 -172.461176 
L 279.229091 -165.741176 
L 281.781818 -168.564706 
L 284.334545 -168 
L 286.887273 -169.411765 
L 289.44 -172.517647 
L 291.992727 -171.105882 
L 294.545455 -171.670588 
L 297.098182 -170.541176 
L 299.650909 -167.145882 
L 302.203636 -169.411765 
L 304.756364 -168.855615 
L 307.309091 -167.530467 
L 309.861818 -158.851765 
L 312.414545 -174.494118 
L 314.967273 -170.821176 
L 317.52 -173.850882 
L 320.072727 -171.635294 
L 322.625455 -168.768529 
L 325.178182 -175.764706 
L 327.730909 -168.133235 
L 330.283636 -177.352941 
L 332.836364 -171.070027 
L 332.836364 -196.094118 
L 332.836364 -196.094118 
L 330.283636 -195.458824 
L 327.730909 -192.6 
L 325.178182 -196.411765 
L 322.625455 -185.611765 
L 320.072727 -191.647059 
L 317.52 -192.6 
L 314.967273 -186.261176 
L 312.414545 -189.74521 
L 309.861818 -184.941176 
L 307.309091 -192.282353 
L 304.756364 -191.733048 
L 302.203636 -190.595294 
L 299.650909 -189.741176 
L 297.098182 -193.694118 
L 294.545455 -190.305882 
L 291.992727 -190.023529 
L 289.44 -182.964706 
L 286.887273 -179.865882 
L 284.334545 -186.352941 
L 281.781818 -188.901176 
L 279.229091 -187.2 
L 276.676364 -198.133412 
L 274.123636 -193.416064 
L 271.570909 -191.889626 
L 269.018182 -192.741814 
L 266.465455 -190.916471 
L 263.912727 -196.856471 
L 261.36 -189.053904 
L 258.807273 -191.993583 
L 256.254545 -189.558839 
L 253.701818 -191.358289 
L 251.149091 -190.203209 
L 248.596364 -189.51016 
L 246.043636 -192.051337 
L 243.490909 -190.896257 
L 240.938182 -192.051337 
L 238.385455 -200.367914 
L 235.832727 -198.063529 
L 233.28 -196.677433 
L 230.727273 -195.984385 
L 228.174545 -200.604706 
L 225.621818 -195.516578 
L 223.069091 -194.592513 
L 220.516364 -194.823529 
L 217.963636 -194.130481 
L 215.410909 -197.364706 
L 212.858182 -196.324615 
L 210.305455 -193.77 
L 207.752727 -189.317647 
L 205.2 -193.552941 
L 202.647273 -185.929412 
L 200.094545 -188.047059 
L 197.541818 -189.317647 
L 194.989091 -190.805294 
L 192.436364 -188.894118 
L 189.883636 -192.494118 
L 187.330909 -193.976471 
L 184.778182 -193.976471 
L 182.225455 -193.134706 
L 179.672727 -189.746471 
L 177.12 -189.534706 
L 174.567273 -194.188235 
L 172.014545 -187.835294 
L 169.461818 -190.164706 
L 166.909091 -186.141176 
L 164.356364 -189.952941 
L 161.803636 -185.505882 
L 159.250909 -182.117647 
L 156.698182 -184.658824 
L 154.145455 -191.223529 
L 151.592727 -186.993529 
L 149.04 -191.223529 
L 146.487273 -192.282353 
L 143.934545 -194.188235 
L 141.381818 -186.988235 
L 138.829091 -191.864118 
L 136.276364 -194.188235 
L 133.723636 -189.529412 
L 131.170909 -195.035294 
L 128.618182 -191.435294 
L 126.065455 -188.682353 
L 123.512727 -189.105882 
L 120.96 -191.435294 
L 118.407273 -187.411765 
L 115.854545 -190.588235 
L 113.301818 -186.358235 
L 110.749091 -191.223529 
L 108.196364 -191.231674 
L 105.643636 -192.086878 
L 103.090909 -188.182262 
L 100.538182 -189.350226 
L 97.985455 -188.372851 
L 95.432727 -190.132127 
L 92.88 -190.523077 
L 90.327273 -190.137014 
L 87.774545 -186.813937 
L 85.221818 -189.741176 
L 82.669091 -192.477828 
L 80.116364 -190.914027 
L 77.563636 -194.237104 
z
" id="m3d9cf2b16c" style="stroke:#000000;stroke-opacity:0.2;"/>
    </defs>
    <g clip-path="url(#p751816c683)">
     <use style="fill-opacity:0.2;stroke:#000000;stroke-opacity:0.2;" x="0" xlink:href="#m3d9cf2b16c" y="288"/>
    </g>
   </g>
   <g id="PolyCollection_2">
    <defs>
     <path d="M 77.563636 -193.846154 
L 77.563636 -162.830769 
L 80.116364 -168.369231 
L 82.669091 -180.553846 
L 85.221818 -170.584615 
L 87.774545 -162.830769 
L 90.327273 -176.123077 
L 92.88 -177.230769 
L 95.432727 -184.984615 
L 97.985455 -170.584615 
L 100.538182 -157.292308 
L 103.090909 -161.723077 
L 105.643636 -177.203077 
L 108.196364 -172.8 
L 110.749091 -183.6 
L 113.301818 -175.2 
L 115.854545 -180 
L 118.407273 -170.4 
L 120.96 -170.4 
L 123.512727 -165.6 
L 126.065455 -170.4 
L 128.618182 -174 
L 131.170909 -168 
L 133.723636 -172.77 
L 136.276364 -171.6 
L 138.829091 -171.6 
L 141.381818 -154.8 
L 143.934545 -171.6 
L 146.487273 -176.4 
L 149.04 -158.4 
L 151.592727 -159.57 
L 154.145455 -171.6 
L 156.698182 -171.6 
L 159.250909 -164.37 
L 161.803636 -160.77 
L 164.356364 -163.2 
L 166.909091 -170.4 
L 169.461818 -166.8 
L 172.014545 -169.2 
L 174.567273 -171.6 
L 177.12 -170.4 
L 179.672727 -152.4 
L 182.225455 -171.6 
L 184.778182 -176.4 
L 187.330909 -165.6 
L 189.883636 -183.6 
L 192.436364 -171.6 
L 194.989091 -171.6 
L 197.541818 -176.4 
L 200.094545 -166.8 
L 202.647273 -160.8 
L 205.2 -170.4 
L 207.752727 -170.4 
L 210.305455 -171 
L 212.858182 -169.2 
L 215.410909 -187.2 
L 217.963636 -180.654545 
L 220.516364 -171.490909 
L 223.069091 -170.181818 
L 225.621818 -157.090909 
L 228.174545 -163.636364 
L 230.727273 -172.767273 
L 233.28 -175.418182 
L 235.832727 -179.345455 
L 238.385455 -180.654545 
L 240.938182 -180.654545 
L 243.490909 -181.963636 
L 246.043636 -176.727273 
L 248.596364 -175.418182 
L 251.149091 -172.8 
L 253.701818 -179.345455 
L 256.254545 -162.981818 
L 258.807273 -180.654545 
L 261.36 -168.84 
L 263.912727 -177.12 
L 266.465455 -177.12 
L 269.018182 -175.68 
L 271.570909 -169.92 
L 274.123636 -148.32 
L 276.676364 -159.84 
L 279.229091 -174.4 
L 281.781818 -166.4 
L 284.334545 -163.2 
L 286.887273 -166.4 
L 289.44 -177.6 
L 291.992727 -171.2 
L 294.545455 -169.6 
L 297.098182 -168 
L 299.650909 -174.4 
L 302.203636 -177.56 
L 304.756364 -185.6 
L 307.309091 -166.4 
L 309.861818 -144 
L 312.414545 -172.8 
L 314.967273 -178.2 
L 317.52 -174.6 
L 320.072727 -158.4 
L 322.625455 -183.6 
L 325.178182 -180 
L 327.730909 -183.6 
L 330.283636 -169.2 
L 332.836364 -163.8 
L 332.836364 -198 
L 332.836364 -198 
L 330.283636 -185.4 
L 327.730909 -214.2 
L 325.178182 -207 
L 322.625455 -210.6 
L 320.072727 -196.2 
L 317.52 -198 
L 314.967273 -210.6 
L 312.414545 -209.64 
L 309.861818 -188.84 
L 307.309091 -192 
L 304.756364 -201.6 
L 302.203636 -206.4 
L 299.650909 -201.6 
L 297.098182 -201.6 
L 294.545455 -193.64 
L 291.992727 -193.6 
L 289.44 -188.8 
L 286.887273 -195.2 
L 284.334545 -193.6 
L 281.781818 -201.6 
L 279.229091 -206.44 
L 276.676364 -184.32 
L 274.123636 -194.4 
L 271.570909 -198.72 
L 269.018182 -205.92 
L 266.465455 -207.396 
L 263.912727 -191.52 
L 261.36 -205.56 
L 258.807273 -200.290909 
L 256.254545 -198.327273 
L 253.701818 -200.290909 
L 251.149091 -201.632727 
L 248.596364 -205.527273 
L 246.043636 -197.705455 
L 243.490909 -212.072727 
L 240.938182 -209.454545 
L 238.385455 -206.836364 
L 235.832727 -205.527273 
L 233.28 -209.454545 
L 230.727273 -204.218182 
L 228.174545 -202.909091 
L 225.621818 -196.363636 
L 223.069091 -198.981818 
L 220.516364 -199.014545 
L 217.963636 -200.290909 
L 215.410909 -205.527273 
L 212.858182 -198 
L 210.305455 -205.8 
L 207.752727 -204.03 
L 205.2 -200.4 
L 202.647273 -194.4 
L 200.094545 -186.03 
L 197.541818 -199.2 
L 194.989091 -190.8 
L 192.436364 -193.23 
L 189.883636 -208.8 
L 187.330909 -190.8 
L 184.778182 -202.8 
L 182.225455 -196.8 
L 179.672727 -183.6 
L 177.12 -195.6 
L 174.567273 -192 
L 172.014545 -194.4 
L 169.461818 -190.8 
L 166.909091 -206.4 
L 164.356364 -195.6 
L 161.803636 -182.43 
L 159.250909 -190.8 
L 156.698182 -202.8 
L 154.145455 -195.6 
L 151.592727 -196.83 
L 149.04 -188.4 
L 146.487273 -189.6 
L 143.934545 -190.8 
L 141.381818 -186.03 
L 138.829091 -192 
L 136.276364 -199.2 
L 133.723636 -196.8 
L 131.170909 -196.8 
L 128.618182 -200.4 
L 126.065455 -195.6 
L 123.512727 -194.4 
L 120.96 -199.2 
L 118.407273 -198 
L 115.854545 -199.2 
L 113.301818 -205.2 
L 110.749091 -206.4 
L 108.196364 -200.492308 
L 105.643636 -200.492308 
L 103.090909 -188.307692 
L 100.538182 -187.2 
L 97.985455 -196.061538 
L 95.432727 -201.627692 
L 92.88 -196.061538 
L 90.327273 -203.815385 
L 87.774545 -198.276923 
L 85.221818 -200.492308 
L 82.669091 -198.276923 
L 80.116364 -198.304615 
L 77.563636 -193.846154 
z
" id="md69b597eb2" style="stroke:#ff0000;stroke-opacity:0.2;"/>
    </defs>
    <g clip-path="url(#p751816c683)">
     <use style="fill:#ff0000;fill-opacity:0.2;stroke:#ff0000;stroke-opacity:0.2;" x="0" xlink:href="#md69b597eb2" y="288"/>
    </g>
   </g>
   <g id="matplotlib.axis_1">
    <g id="xtick_1">
     <g id="line2d_1">
      <defs>
       <path d="M 0 0 
L 0 3.5 
" id="m4bd808b2f1" style="stroke:#000000;stroke-width:0.25;"/>
      </defs>
      <g>
       <use style="stroke:#000000;stroke-width:0.25;" x="77.563636" xlink:href="#m4bd808b2f1" y="234.4"/>
      </g>
     </g>
     <g id="text_1">
      <text style="font-family:DejaVu Sans;font-size:6px;font-stretch:normal;font-style:normal;font-weight:normal;text-anchor:middle;" transform="rotate(-0, 77.563636, 245.959063)" x="77.563636" y="245.959063">0</text>
     </g>
    </g>
    <g id="xtick_2">
     <g id="line2d_2">
      <g>
       <use style="stroke:#000000;stroke-width:0.25;" x="128.618182" xlink:href="#m4bd808b2f1" y="234.4"/>
      </g>
     </g>
     <g id="text_2">
      <text style="font-family:DejaVu Sans;font-size:6px;font-stretch:normal;font-style:normal;font-weight:normal;text-anchor:middle;" transform="rotate(-0, 128.618182, 245.959063)" x="128.618182" y="245.959063">20</text>
     </g>
    </g>
    <g id="xtick_3">
     <g id="line2d_3">
      <g>
       <use style="stroke:#000000;stroke-width:0.25;" x="179.672727" xlink:href="#m4bd808b2f1" y="234.4"/>
      </g>
     </g>
     <g id="text_3">
      <text style="font-family:DejaVu Sans;font-size:6px;font-stretch:normal;font-style:normal;font-weight:normal;text-anchor:middle;" transform="rotate(-0, 179.672727, 245.959063)" x="179.672727" y="245.959063">40</text>
     </g>
    </g>
    <g id="xtick_4">
     <g id="line2d_4">
      <g>
       <use style="stroke:#000000;stroke-width:0.25;" x="230.727273" xlink:href="#m4bd808b2f1" y="234.4"/>
      </g>
     </g>
     <g id="text_4">
      <text style="font-family:DejaVu Sans;font-size:6px;font-stretch:normal;font-style:normal;font-weight:normal;text-anchor:middle;" transform="rotate(-0, 230.727273, 245.959063)" x="230.727273" y="245.959063">60</text>
     </g>
    </g>
    <g id="xtick_5">
     <g id="line2d_5">
      <g>
       <use style="stroke:#000000;stroke-width:0.25;" x="281.781818" xlink:href="#m4bd808b2f1" y="234.4"/>
      </g>
     </g>
     <g id="text_5">
      <text style="font-family:DejaVu Sans;font-size:6px;font-stretch:normal;font-style:normal;font-weight:normal;text-anchor:middle;" transform="rotate(-0, 281.781818, 245.959063)" x="281.781818" y="245.959063">80</text>
     </g>
    </g>
    <g id="xtick_6">
     <g id="line2d_6">
      <g>
       <use style="stroke:#000000;stroke-width:0.25;" x="332.836364" xlink:href="#m4bd808b2f1" y="234.4"/>
      </g>
     </g>
     <g id="text_6">
      <text style="font-family:DejaVu Sans;font-size:6px;font-stretch:normal;font-style:normal;font-weight:normal;text-anchor:middle;" transform="rotate(-0, 332.836364, 245.959063)" x="332.836364" y="245.959063">100</text>
     </g>
    </g>
    <g id="text_7">
     <text style="font-family:DejaVu Sans;font-size:8px;font-stretch:normal;font-style:normal;font-weight:normal;text-anchor:middle;" transform="rotate(-0, 205.2, 257.285625)" x="205.2" y="257.285625">occurrence</text>
    </g>
   </g>
   <g id="matplotlib.axis_2">
    <g id="ytick_1">
     <g id="line2d_7">
      <defs>
       <path d="M 0 0 
L -3.5 0 
" id="m6323b0db67" style="stroke:#000000;stroke-width:0.25;"/>
      </defs>
      <g>
       <use style="stroke:#000000;stroke-width:0.25;" x="60.8" xlink:href="#m6323b0db67" y="230.4"/>
      </g>
     </g>
     <g id="text_8">
      <text style="font-family:DejaVu Sans;font-size:6px;font-stretch:normal;font-style:normal;font-weight:normal;text-anchor:end;" transform="rotate(-0, 53.8, 232.679531)" x="53.8" y="232.679531">0.0</text>
     </g>
    </g>
    <g id="ytick_2">
     <g id="line2d_8">
      <g>
       <use style="stroke:#000000;stroke-width:0.25;" x="60.8" xlink:href="#m6323b0db67" y="195.84"/>
      </g>
     </g>
     <g id="text_9">
      <text style="font-family:DejaVu Sans;font-size:6px;font-stretch:normal;font-style:normal;font-weight:normal;text-anchor:end;" transform="rotate(-0, 53.8, 198.119531)" x="53.8" y="198.119531">0.2</text>
     </g>
    </g>
    <g id="ytick_3">
     <g id="line2d_9">
      <g>
       <use style="stroke:#000000;stroke-width:0.25;" x="60.8" xlink:href="#m6323b0db67" y="161.28"/>
      </g>
     </g>
     <g id="text_10">
      <text style="font-family:DejaVu Sans;font-size:6px;font-stretch:normal;font-style:normal;font-weight:normal;text-anchor:end;" transform="rotate(-0, 53.8, 163.559531)" x="53.8" y="163.559531">0.4</text>
     </g>
    </g>
    <g id="ytick_4">
     <g id="line2d_10">
      <g>
       <use style="stroke:#000000;stroke-width:0.25;" x="60.8" xlink:href="#m6323b0db67" y="126.72"/>
      </g>
     </g>
     <g id="text_11">
      <text style="font-family:DejaVu Sans;font-size:6px;font-stretch:normal;font-style:normal;font-weight:normal;text-anchor:end;" transform="rotate(-0, 53.8, 128.999531)" x="53.8" y="128.999531">0.6</text>
     </g>
    </g>
    <g id="ytick_5">
     <g id="line2d_11">
      <g>
       <use style="stroke:#000000;stroke-width:0.25;" x="60.8" xlink:href="#m6323b0db67" y="92.16"/>
      </g>
     </g>
     <g id="text_12">
      <text style="font-family:DejaVu Sans;font-size:6px;font-stretch:normal;font-style:normal;font-weight:normal;text-anchor:end;" transform="rotate(-0, 53.8, 94.439531)" x="53.8" y="94.439531">0.8</text>
     </g>
    </g>
    <g id="ytick_6">
     <g id="line2d_12">
      <g>
       <use style="stroke:#000000;stroke-width:0.25;" x="60.8" xlink:href="#m6323b0db67" y="57.6"/>
      </g>
     </g>
     <g id="text_13">
      <text style="font-family:DejaVu Sans;font-size:6px;font-stretch:normal;font-style:normal;font-weight:normal;text-anchor:end;" transform="rotate(-0, 53.8, 59.879531)" x="53.8" y="59.879531">1.0</text>
     </g>
    </g>
    <g id="text_14">
     <text style="font-family:DejaVu Sans;font-size:8px;font-stretch:normal;font-style:normal;font-weight:normal;text-anchor:middle;" transform="rotate(-90, 38.594375, 144)" x="38.594375" y="144">accuracy</text>
    </g>
   </g>
   <g id="line2d_13">
    <path clip-path="url(#p751816c683)" d="M 77.563636 106.664253 
L 80.116364 106.859729 
L 82.669091 106.468778 
L 85.221818 107.641629 
L 87.774545 109.98733 
L 90.327273 106.468778 
L 92.88 106.273303 
L 95.432727 108.423529 
L 97.985455 110.769231 
L 100.538182 108.81448 
L 103.090909 111.160181 
L 105.643636 106.077828 
L 108.196364 107.678281 
L 110.749091 106.305882 
L 113.301818 110.117647 
L 115.854545 107.152941 
L 118.407273 107.576471 
L 120.96 105.247059 
L 123.512727 106.094118 
L 126.065455 108.211765 
L 128.618182 108.847059 
L 131.170909 103.341176 
L 133.723636 107.364706 
L 136.276364 103.976471 
L 138.829091 106.305882 
L 141.381818 112.235294 
L 143.934545 103.341176 
L 146.487273 104.611765 
L 149.04 106.941176 
L 151.592727 109.905882 
L 154.145455 109.058824 
L 156.698182 111.6 
L 159.250909 113.717647 
L 161.803636 110.964706 
L 164.356364 110.117647 
L 166.909091 112.023529 
L 169.461818 108.211765 
L 172.014545 107.364706 
L 174.567273 102.494118 
L 177.12 108.847059 
L 179.672727 105.882353 
L 182.225455 103.976471 
L 184.778182 102.282353 
L 187.330909 101.435294 
L 189.883636 103.764706 
L 192.436364 106.094118 
L 194.989091 104.4 
L 197.541818 107.152941 
L 200.094545 109.058824 
L 202.647273 109.905882 
L 205.2 103.552941 
L 207.752727 105.131551 
L 210.305455 103.297363 
L 212.858182 100.262443 
L 215.410909 99.875936 
L 217.963636 102.648128 
L 220.516364 100.337968 
L 223.069091 101.724064 
L 225.621818 103.341176 
L 228.174545 97.796791 
L 230.727273 101.262032 
L 233.28 102.648128 
L 235.832727 101.724064 
L 238.385455 97.796791 
L 240.938182 105.420321 
L 243.490909 105.420321 
L 246.043636 107.037433 
L 248.596364 107.499465 
L 251.149091 106.344385 
L 253.701818 105.651337 
L 256.254545 105.83835 
L 258.807273 104.900535 
L 261.36 116.971123 
L 263.912727 101.054118 
L 266.465455 107.327647 
L 269.018182 105.136395 
L 271.570909 104.750374 
L 274.123636 104.68107 
L 276.676364 103.087059 
L 279.229091 111.247059 
L 281.781818 109.552941 
L 284.334545 110.682353 
L 286.887273 112.941176 
L 289.44 110.4 
L 291.992727 107.294118 
L 294.545455 107.858824 
L 297.098182 106.729412 
L 299.650909 109.552941 
L 302.203636 107.294118 
L 304.756364 107.567914 
L 307.309091 107.479108 
L 309.861818 114.861176 
L 312.414545 106.285714 
L 314.967273 109.458824 
L 317.52 104.929412 
L 320.072727 106.835294 
L 322.625455 110.329412 
L 325.178182 102.705882 
L 327.730909 107.788235 
L 330.283636 101.117647 
L 332.836364 104.255615 
" style="fill:none;stroke:#000000;stroke-linecap:square;stroke-width:1.5;"/>
   </g>
   <g id="line2d_14">
    <path clip-path="url(#p751816c683)" d="M 77.563636 109.661538 
L 80.116364 105.230769 
L 82.669091 98.584615 
L 85.221818 101.907692 
L 87.774545 107.446154 
L 90.327273 97.476923 
L 92.88 100.8 
L 95.432727 94.153846 
L 97.985455 104.123077 
L 100.538182 116.307692 
L 103.090909 112.984615 
L 105.643636 99.692308 
L 108.196364 100.8 
L 110.749091 92.4 
L 113.301818 97.2 
L 115.854545 98.4 
L 118.407273 103.2 
L 120.96 102 
L 123.512727 108 
L 126.065455 104.4 
L 128.618182 100.8 
L 131.170909 105.6 
L 133.723636 103.2 
L 136.276364 102 
L 138.829091 106.8 
L 141.381818 116.4 
L 143.934545 106.8 
L 146.487273 104.4 
L 149.04 114 
L 151.592727 109.2 
L 154.145455 104.4 
L 156.698182 100.8 
L 159.250909 111.6 
L 161.803636 116.4 
L 164.356364 108 
L 166.909091 100.8 
L 169.461818 109.2 
L 172.014545 106.8 
L 174.567273 105.6 
L 177.12 104.4 
L 179.672727 120 
L 182.225455 104.4 
L 184.778182 98.4 
L 187.330909 109.2 
L 189.883636 92.4 
L 192.436364 105.6 
L 194.989091 106.8 
L 197.541818 100.8 
L 200.094545 110.4 
L 202.647273 110.4 
L 205.2 102 
L 207.752727 100.8 
L 210.305455 100.2 
L 212.858182 104.4 
L 215.410909 91.636364 
L 217.963636 96.872727 
L 220.516364 100.8 
L 223.069091 104.727273 
L 225.621818 109.963636 
L 228.174545 103.418182 
L 230.727273 99.490909 
L 233.28 95.563636 
L 235.832727 95.563636 
L 238.385455 94.254545 
L 240.938182 92.945455 
L 243.490909 90.327273 
L 246.043636 99.490909 
L 248.596364 96.872727 
L 251.149091 99.490909 
L 253.701818 98.181818 
L 256.254545 106.690909 
L 258.807273 96.872727 
L 261.36 99.490909 
L 263.912727 103.68 
L 266.465455 95.04 
L 269.018182 96.48 
L 271.570909 103.68 
L 274.123636 116.64 
L 276.676364 115.2 
L 279.229091 97.6 
L 281.781818 104 
L 284.334545 110.4 
L 286.887273 107.2 
L 289.44 105.6 
L 291.992727 105.6 
L 294.545455 105.6 
L 297.098182 104 
L 299.650909 100.8 
L 302.203636 96 
L 304.756364 94.4 
L 307.309091 107.2 
L 309.861818 120 
L 312.414545 94.4 
L 314.967273 93.6 
L 317.52 102.6 
L 320.072727 109.8 
L 322.625455 91.8 
L 325.178182 93.6 
L 327.730909 88.2 
L 330.283636 111.6 
L 332.836364 106.2 
" style="fill:none;stroke:#ff0000;stroke-linecap:square;stroke-width:1.5;"/>
   </g>
   <g id="line2d_15"/>
   <g id="line2d_16"/>
   <g id="line2d_17">
    <path clip-path="url(#p751816c683)" d="M 64.8 144 
L 345.6 144 
" style="fill:none;stroke:#000000;stroke-dasharray:1.5,2.475;stroke-dashoffset:0;stroke-width:1.5;"/>
   </g>
   <g id="patch_3">
    <path d="M 60.8 230.4 
L 60.8 57.6 
" style="fill:none;stroke:#000000;stroke-linecap:square;stroke-linejoin:miter;stroke-width:0.25;"/>
   </g>
   <g id="patch_4">
    <path d="M 77.563636 234.4 
L 332.836364 234.4 
" style="fill:none;stroke:#000000;stroke-linecap:square;stroke-linejoin:miter;stroke-width:0.25;"/>
   </g>
   <g id="text_15">
    <text style="font-family:DejaVu Sans;font-size:12px;font-stretch:normal;font-style:normal;font-weight:normal;text-anchor:start;" transform="rotate(-0, 64.8, 51.6)" x="64.8" y="51.6">Mean performance (n=13 rats)</text>
   </g>
   <g id="legend_1">
    <g id="patch_5">
     <path d="M 349.8 92.97 
L 415.596875 92.97 
Q 416.796875 92.97 416.796875 91.77 
L 416.796875 61.8 
Q 416.796875 60.6 415.596875 60.6 
L 349.8 60.6 
Q 348.6 60.6 348.6 61.8 
L 348.6 91.77 
Q 348.6 92.97 349.8 92.97 
z
" style="fill:#ffffff;opacity:0.8;stroke:#cccccc;stroke-linejoin:miter;"/>
    </g>
    <g id="text_16">
     <text style="font-family:DejaVu Sans;font-size:10px;font-stretch:normal;font-style:normal;font-weight:normal;text-anchor:start;" transform="rotate(-0, 351, 70.598437)" x="351" y="70.598437">no_feedback</text>
    </g>
    <g id="line2d_18">
     <path d="M 366.766094 78.415312 
L 378.766094 78.415312 
" style="fill:none;stroke:#000000;stroke-linecap:square;stroke-width:1.5;"/>
    </g>
    <g id="line2d_19"/>
    <g id="text_17">
     <text style="font-family:DejaVu Sans;font-size:6px;font-stretch:normal;font-style:normal;font-weight:normal;text-anchor:start;" transform="rotate(-0, 383.566094, 80.515312)" x="383.566094" y="80.515312">False</text>
    </g>
    <g id="line2d_20">
     <path d="M 366.766094 87.222187 
L 378.766094 87.222187 
" style="fill:none;stroke:#ff0000;stroke-linecap:square;stroke-width:1.5;"/>
    </g>
    <g id="line2d_21"/>
    <g id="text_18">
     <text style="font-family:DejaVu Sans;font-size:6px;font-stretch:normal;font-style:normal;font-weight:normal;text-anchor:start;" transform="rotate(-0, 383.566094, 89.322187)" x="383.566094" y="89.322187">True</text>
    </g>
   </g>
  </g>
  <g id="text_19">
   <text style="font-family:DejaVu Sans;font-size:6px;font-stretch:normal;font-style:normal;font-weight:normal;" transform="translate(0 7.482938)">phase1-2-3-4-5_cohorts_AG-AJ-AN</text>
   <text style="font-family:DejaVu Sans;font-size:6px;font-stretch:normal;font-style:normal;font-weight:normal;" transform="translate(0 14.4)">AG1-11 | AJ1-16 | AN1-8</text>
  </g>
 </g>
 <defs>
  <clipPath id="p751816c683">
   <rect height="172.8" width="280.8" x="64.8" y="57.6"/>
  </clipPath>
 </defs>
</svg>
