<?xml version="1.0" encoding="utf-8" standalone="no"?>
<!DOCTYPE svg PUBLIC "-//W3C//DTD SVG 1.1//EN"
  "http://www.w3.org/Graphics/SVG/1.1/DTD/svg11.dtd">
<!-- Created with matplotlib (https://matplotlib.org/) -->
<svg height="360pt" version="1.1" viewBox="0 0 432 360" width="432pt" xmlns="http://www.w3.org/2000/svg" xmlns:xlink="http://www.w3.org/1999/xlink">
 <metadata>
  <rdf:RDF xmlns:cc="http://creativecommons.org/ns#" xmlns:dc="http://purl.org/dc/elements/1.1/" xmlns:rdf="http://www.w3.org/1999/02/22-rdf-syntax-ns#">
   <cc:Work>
    <dc:type rdf:resource="http://purl.org/dc/dcmitype/StillImage"/>
    <dc:date>2021-03-31T18:51:51.241941</dc:date>
    <dc:format>image/svg+xml</dc:format>
    <dc:creator>
     <cc:Agent>
      <dc:title>Matplotlib v3.3.4, https://matplotlib.org/</dc:title>
     </cc:Agent>
    </dc:creator>
   </cc:Work>
  </rdf:RDF>
 </metadata>
 <defs>
  <style type="text/css">*{stroke-linecap:butt;stroke-linejoin:round;}</style>
 </defs>
 <g id="figure_1">
  <g id="patch_1">
   <path d="M 0 360 
L 432 360 
L 432 0 
L 0 0 
z
" style="fill:#ffffff;"/>
  </g>
  <g id="axes_1">
   <g id="patch_2">
    <path d="M 86.4 288 
L 345.6 288 
L 345.6 72 
L 86.4 72 
z
" style="fill:#ffffff;"/>
   </g>
   <g id="matplotlib.axis_1">
    <g id="xtick_1">
     <g id="line2d_1">
      <defs>
       <path d="M 0 0 
L 0 3.5 
" id="me306f2128d" style="stroke:#000000;stroke-width:0.25;"/>
      </defs>
      <g>
       <use style="stroke:#000000;stroke-width:0.25;" x="86.4" xlink:href="#me306f2128d" y="298"/>
      </g>
     </g>
     <g id="text_1">
      <text style="font-family:DejaVu Sans;font-size:10px;font-stretch:normal;font-style:normal;font-weight:normal;text-anchor:middle;" transform="rotate(-0, 86.4, 312.598438)" x="86.4" y="312.598438">0.0</text>
     </g>
    </g>
    <g id="xtick_2">
     <g id="line2d_2">
      <g>
       <use style="stroke:#000000;stroke-width:0.25;" x="216" xlink:href="#me306f2128d" y="298"/>
      </g>
     </g>
     <g id="text_2">
      <text style="font-family:DejaVu Sans;font-size:10px;font-stretch:normal;font-style:normal;font-weight:normal;text-anchor:middle;" transform="rotate(-0, 216, 312.598438)" x="216" y="312.598438">0.5</text>
     </g>
    </g>
    <g id="xtick_3">
     <g id="line2d_3">
      <g>
       <use style="stroke:#000000;stroke-width:0.25;" x="345.6" xlink:href="#me306f2128d" y="298"/>
      </g>
     </g>
     <g id="text_3">
      <text style="font-family:DejaVu Sans;font-size:10px;font-stretch:normal;font-style:normal;font-weight:normal;text-anchor:middle;" transform="rotate(-0, 345.6, 312.598438)" x="345.6" y="312.598438">1.0</text>
     </g>
    </g>
    <g id="text_4">
     <text style="font-family:DejaVu Sans;font-size:15px;font-stretch:normal;font-style:normal;font-weight:normal;text-anchor:middle;" transform="rotate(-0, 216, 330.075781)" x="216" y="330.075781">Stimulus Level</text>
    </g>
   </g>
   <g id="matplotlib.axis_2">
    <g id="ytick_1">
     <g id="line2d_4">
      <defs>
       <path d="M 0 0 
L -3.5 0 
" id="m61a1f3d892" style="stroke:#000000;stroke-width:0.25;"/>
      </defs>
      <g>
       <use style="stroke:#000000;stroke-width:0.25;" x="76.4" xlink:href="#m61a1f3d892" y="288"/>
      </g>
     </g>
     <g id="text_5">
      <text style="font-family:DejaVu Sans;font-size:10px;font-stretch:normal;font-style:normal;font-weight:normal;text-anchor:end;" transform="rotate(-0, 69.4, 291.799219)" x="69.4" y="291.799219">0.0</text>
     </g>
    </g>
    <g id="ytick_2">
     <g id="line2d_5">
      <g>
       <use style="stroke:#000000;stroke-width:0.25;" x="76.4" xlink:href="#m61a1f3d892" y="244.8"/>
      </g>
     </g>
     <g id="text_6">
      <text style="font-family:DejaVu Sans;font-size:10px;font-stretch:normal;font-style:normal;font-weight:normal;text-anchor:end;" transform="rotate(-0, 69.4, 248.599219)" x="69.4" y="248.599219">0.2</text>
     </g>
    </g>
    <g id="ytick_3">
     <g id="line2d_6">
      <g>
       <use style="stroke:#000000;stroke-width:0.25;" x="76.4" xlink:href="#m61a1f3d892" y="201.6"/>
      </g>
     </g>
     <g id="text_7">
      <text style="font-family:DejaVu Sans;font-size:10px;font-stretch:normal;font-style:normal;font-weight:normal;text-anchor:end;" transform="rotate(-0, 69.4, 205.399219)" x="69.4" y="205.399219">0.4</text>
     </g>
    </g>
    <g id="ytick_4">
     <g id="line2d_7">
      <g>
       <use style="stroke:#000000;stroke-width:0.25;" x="76.4" xlink:href="#m61a1f3d892" y="158.4"/>
      </g>
     </g>
     <g id="text_8">
      <text style="font-family:DejaVu Sans;font-size:10px;font-stretch:normal;font-style:normal;font-weight:normal;text-anchor:end;" transform="rotate(-0, 69.4, 162.199219)" x="69.4" y="162.199219">0.6</text>
     </g>
    </g>
    <g id="ytick_5">
     <g id="line2d_8">
      <g>
       <use style="stroke:#000000;stroke-width:0.25;" x="76.4" xlink:href="#m61a1f3d892" y="115.2"/>
      </g>
     </g>
     <g id="text_9">
      <text style="font-family:DejaVu Sans;font-size:10px;font-stretch:normal;font-style:normal;font-weight:normal;text-anchor:end;" transform="rotate(-0, 69.4, 118.999219)" x="69.4" y="118.999219">0.8</text>
     </g>
    </g>
    <g id="ytick_6">
     <g id="line2d_9">
      <g>
       <use style="stroke:#000000;stroke-width:0.25;" x="76.4" xlink:href="#m61a1f3d892" y="72"/>
      </g>
     </g>
     <g id="text_10">
      <text style="font-family:DejaVu Sans;font-size:10px;font-stretch:normal;font-style:normal;font-weight:normal;text-anchor:end;" transform="rotate(-0, 69.4, 75.799219)" x="69.4" y="75.799219">1.0</text>
     </g>
    </g>
    <g id="text_11">
     <text style="font-family:DejaVu Sans;font-size:15px;font-stretch:normal;font-style:normal;font-weight:normal;text-anchor:middle;" transform="rotate(-90, 46.377344, 180)" x="46.377344" y="180">P (choose 100%)</text>
    </g>
   </g>
   <g id="line2d_10">
    <path d="M 86.4 231.5956 
L 91.689796 231.586011 
L 96.979592 231.572291 
L 102.269388 231.552862 
L 107.559184 231.525634 
L 112.84898 231.487872 
L 118.138776 231.436042 
L 123.428571 231.365637 
L 128.718367 231.270989 
L 134.008163 231.145068 
L 139.297959 230.979273 
L 144.587755 230.763233 
L 149.877551 230.484635 
L 155.167347 230.129078 
L 160.457143 229.679995 
L 165.746939 229.118652 
L 171.036735 228.424243 
L 176.326531 227.574106 
L 181.616327 226.544083 
L 186.906122 225.309014 
L 192.195918 223.843397 
L 197.485714 222.122181 
L 202.77551 220.121695 
L 208.065306 217.820669 
L 213.355102 215.201324 
L 218.644898 212.250457 
L 223.934694 208.960489 
L 229.22449 205.330381 
L 234.514286 201.36639 
L 239.804082 197.082568 
L 245.093878 192.500985 
L 250.383673 187.651617 
L 255.673469 182.571891 
L 260.963265 177.305891 
L 266.253061 171.90324 
L 271.542857 166.417711 
L 276.832653 160.905631 
L 282.122449 155.424149 
L 287.412245 150.029465 
L 292.702041 144.77511 
L 297.991837 139.710355 
L 303.281633 134.878846 
L 308.571429 130.317503 
L 313.861224 126.055752 
L 319.15102 122.115092 
L 324.440816 118.509013 
L 329.730612 115.243231 
L 335.020408 112.31622 
L 340.310204 109.719966 
L 345.6 107.440908 
" style="fill:none;stroke:#000000;stroke-linecap:square;stroke-width:0.25;"/>
   </g>
   <g id="line2d_11">
    <path d="M 86.4 231.5956 
L 86.4 231.5956 
L 86.4 231.5956 
L 86.4 231.5956 
L 86.4 231.5956 
L 86.4 231.5956 
L 86.4 231.5956 
L 86.4 231.5956 
L 86.4 231.5956 
L 86.4 231.5956 
L 86.4 231.5956 
L 86.4 231.5956 
L 86.4 231.5956 
L 86.4 231.5956 
L 86.4 231.5956 
L 86.4 231.5956 
L 86.4 231.5956 
L 86.4 231.5956 
L 86.4 231.5956 
L 86.4 231.5956 
L 86.4 231.5956 
L 86.4 231.5956 
L 86.4 231.5956 
L 86.4 231.5956 
L 86.4 231.5956 
L 86.4 231.5956 
L 86.4 231.5956 
L 86.4 231.5956 
L 86.4 231.5956 
L 86.4 231.5956 
L 86.4 231.5956 
L 86.4 231.5956 
L 86.4 231.5956 
L 86.4 231.5956 
L 86.4 231.5956 
L 86.4 231.5956 
L 86.4 231.5956 
L 86.4 231.5956 
L 86.4 231.5956 
L 86.4 231.5956 
L 86.4 231.5956 
L 86.4 231.5956 
L 86.4 231.5956 
L 86.4 231.5956 
L 86.4 231.5956 
L 86.4 231.5956 
L 86.4 231.5956 
L 86.4 231.5956 
L 86.4 231.5956 
L 86.4 231.5956 
L 86.4 231.5956 
L 86.4 231.5956 
L 86.4 231.5956 
L 86.4 231.5956 
L 86.4 231.5956 
L 86.4 231.5956 
L 86.4 231.5956 
L 86.4 231.5956 
L 86.4 231.5956 
L 86.4 231.5956 
L 86.4 231.5956 
L 86.4 231.5956 
L 86.4 231.5956 
L 86.4 231.5956 
L 86.4 231.5956 
L 86.4 231.5956 
L 86.4 231.5956 
L 86.4 231.5956 
L 86.4 231.5956 
L 86.4 231.5956 
L 86.4 231.5956 
L 86.4 231.5956 
L 86.4 231.5956 
L 86.4 231.5956 
L 86.4 231.5956 
L 86.4 231.5956 
L 86.4 231.5956 
L 86.4 231.5956 
L 86.4 231.5956 
L 86.4 231.5956 
L 86.4 231.5956 
L 86.4 231.5956 
L 86.4 231.5956 
L 86.4 231.5956 
L 86.4 231.5956 
L 86.4 231.5956 
L 86.4 231.5956 
L 86.4 231.5956 
L 86.4 231.5956 
L 86.4 231.5956 
L 86.4 231.5956 
L 86.4 231.5956 
L 86.4 231.5956 
L 86.4 231.5956 
L 86.4 231.5956 
L 86.4 231.5956 
L 86.4 231.5956 
L 86.4 231.5956 
L 86.4 231.5956 
L 86.4 231.5956 
" style="fill:none;stroke:#000000;stroke-dasharray:0.925,0.4;stroke-dashoffset:0;stroke-width:0.25;"/>
   </g>
   <g id="line2d_12">
    <path d="M 345.6 107.440908 
L 345.6 107.440908 
L 345.6 107.440908 
L 345.6 107.440908 
L 345.6 107.440908 
L 345.6 107.440908 
L 345.6 107.440908 
L 345.6 107.440908 
L 345.6 107.440908 
L 345.6 107.440908 
L 345.6 107.440908 
L 345.6 107.440908 
L 345.6 107.440908 
L 345.6 107.440908 
L 345.6 107.440908 
L 345.6 107.440908 
L 345.6 107.440908 
L 345.6 107.440908 
L 345.6 107.440908 
L 345.6 107.440908 
L 345.6 107.440908 
L 345.6 107.440908 
L 345.6 107.440908 
L 345.6 107.440908 
L 345.6 107.440908 
L 345.6 107.440908 
L 345.6 107.440908 
L 345.6 107.440908 
L 345.6 107.440908 
L 345.6 107.440908 
L 345.6 107.440908 
L 345.6 107.440908 
L 345.6 107.440908 
L 345.6 107.440908 
L 345.6 107.440908 
L 345.6 107.440908 
L 345.6 107.440908 
L 345.6 107.440908 
L 345.6 107.440908 
L 345.6 107.440908 
L 345.6 107.440908 
L 345.6 107.440908 
L 345.6 107.440908 
L 345.6 107.440908 
L 345.6 107.440908 
L 345.6 107.440908 
L 345.6 107.440908 
L 345.6 107.440908 
L 345.6 107.440908 
L 345.6 107.440908 
L 345.6 107.440908 
L 345.6 107.440908 
L 345.6 107.440908 
L 345.6 107.440908 
L 345.6 107.440908 
L 345.6 107.440908 
L 345.6 107.440908 
L 345.6 107.440908 
L 345.6 107.440908 
L 345.6 107.440908 
L 345.6 107.440908 
L 345.6 107.440908 
L 345.6 107.440908 
L 345.6 107.440908 
L 345.6 107.440908 
L 345.6 107.440908 
L 345.6 107.440908 
L 345.6 107.440908 
L 345.6 107.440908 
L 345.6 107.440908 
L 345.6 107.440908 
L 345.6 107.440908 
L 345.6 107.440908 
L 345.6 107.440908 
L 345.6 107.440908 
L 345.6 107.440908 
L 345.6 107.440908 
L 345.6 107.440908 
L 345.6 107.440908 
L 345.6 107.440908 
L 345.6 107.440908 
L 345.6 107.440908 
L 345.6 107.440908 
L 345.6 107.440908 
L 345.6 107.440908 
L 345.6 107.440908 
L 345.6 107.440908 
L 345.6 107.440908 
L 345.6 107.440908 
L 345.6 107.440908 
L 345.6 107.440908 
L 345.6 107.440908 
L 345.6 107.440908 
L 345.6 107.440908 
L 345.6 107.440908 
L 345.6 107.440908 
L 345.6 107.440908 
L 345.6 107.440908 
L 345.6 107.440908 
L 345.6 107.440908 
" style="fill:none;stroke:#000000;stroke-dasharray:0.925,0.4;stroke-dashoffset:0;stroke-width:0.25;"/>
   </g>
   <g id="line2d_13">
    <path clip-path="url(#pa4cf46c5c0)" d="M 274.000004 288 
L 274.000004 266.4 
" style="fill:none;stroke:#000000;stroke-linecap:square;stroke-width:0.25;"/>
   </g>
   <g id="line2d_14">
    <path d="M 86.4 279.126391 
L 91.689796 279.126061 
L 96.979592 279.125378 
L 102.269388 279.124004 
L 107.559184 279.121306 
L 112.84898 279.11615 
L 118.138776 279.106548 
L 123.428571 279.089133 
L 128.718367 279.058361 
L 134.008163 279.005393 
L 139.297959 278.916577 
L 144.587755 278.771502 
L 149.877551 278.540657 
L 155.167347 278.182832 
L 160.457143 277.642517 
L 165.746939 276.847736 
L 171.036735 275.708871 
L 176.326531 274.119148 
L 181.616327 271.957449 
L 186.906122 269.093972 
L 192.195918 265.398954 
L 197.485714 260.754184 
L 202.77551 255.066488 
L 208.065306 248.281749 
L 213.355102 240.397604 
L 218.644898 231.472759 
L 223.934694 221.631029 
L 229.22449 211.058794 
L 234.514286 199.995438 
L 239.804082 188.71745 
L 245.093878 177.517888 
L 250.383673 166.683732 
L 255.673469 156.474011 
L 260.963265 147.101472 
L 266.253061 138.719904 
L 271.542857 131.418304 
L 276.832653 125.221962 
L 282.122449 120.099517 
L 287.412245 115.974327 
L 292.702041 112.738128 
L 297.991837 110.264975 
L 303.281633 108.423816 
L 308.571429 107.088585 
L 313.861224 106.145294 
L 319.15102 105.496123 
L 324.440816 105.060913 
L 329.730612 104.776689 
L 335.020408 104.595869 
L 340.310204 104.483806 
L 345.6 104.416152 
" style="fill:none;stroke:#000000;stroke-linecap:square;stroke-width:0.25;"/>
   </g>
   <g id="line2d_15">
    <path d="M 86.4 279.126391 
L 86.4 279.126391 
L 86.4 279.126391 
L 86.4 279.126391 
L 86.4 279.126391 
L 86.4 279.126391 
L 86.4 279.126391 
L 86.4 279.126391 
L 86.4 279.126391 
L 86.4 279.126391 
L 86.4 279.126391 
L 86.4 279.126391 
L 86.4 279.126391 
L 86.4 279.126391 
L 86.4 279.126391 
L 86.4 279.126391 
L 86.4 279.126391 
L 86.4 279.126391 
L 86.4 279.126391 
L 86.4 279.126391 
L 86.4 279.126391 
L 86.4 279.126391 
L 86.4 279.126391 
L 86.4 279.126391 
L 86.4 279.126391 
L 86.4 279.126391 
L 86.4 279.126391 
L 86.4 279.126391 
L 86.4 279.126391 
L 86.4 279.126391 
L 86.4 279.126391 
L 86.4 279.126391 
L 86.4 279.126391 
L 86.4 279.126391 
L 86.4 279.126391 
L 86.4 279.126391 
L 86.4 279.126391 
L 86.4 279.126391 
L 86.4 279.126391 
L 86.4 279.126391 
L 86.4 279.126391 
L 86.4 279.126391 
L 86.4 279.126391 
L 86.4 279.126391 
L 86.4 279.126391 
L 86.4 279.126391 
L 86.4 279.126391 
L 86.4 279.126391 
L 86.4 279.126391 
L 86.4 279.126391 
L 86.4 279.126391 
L 86.4 279.126391 
L 86.4 279.126391 
L 86.4 279.126391 
L 86.4 279.126391 
L 86.4 279.126391 
L 86.4 279.126391 
L 86.4 279.126391 
L 86.4 279.126391 
L 86.4 279.126391 
L 86.4 279.126391 
L 86.4 279.126391 
L 86.4 279.126391 
L 86.4 279.126391 
L 86.4 279.126391 
L 86.4 279.126391 
L 86.4 279.126391 
L 86.4 279.126391 
L 86.4 279.126391 
L 86.4 279.126391 
L 86.4 279.126391 
L 86.4 279.126391 
L 86.4 279.126391 
L 86.4 279.126391 
L 86.4 279.126391 
L 86.4 279.126391 
L 86.4 279.126391 
L 86.4 279.126391 
L 86.4 279.126391 
L 86.4 279.126391 
L 86.4 279.126391 
L 86.4 279.126391 
L 86.4 279.126391 
L 86.4 279.126391 
L 86.4 279.126391 
L 86.4 279.126391 
L 86.4 279.126391 
L 86.4 279.126391 
L 86.4 279.126391 
L 86.4 279.126391 
L 86.4 279.126391 
L 86.4 279.126391 
L 86.4 279.126391 
L 86.4 279.126391 
L 86.4 279.126391 
L 86.4 279.126391 
L 86.4 279.126391 
L 86.4 279.126391 
L 86.4 279.126391 
L 86.4 279.126391 
" style="fill:none;stroke:#000000;stroke-dasharray:0.925,0.4;stroke-dashoffset:0;stroke-width:0.25;"/>
   </g>
   <g id="line2d_16">
    <path d="M 345.6 104.416152 
L 345.6 104.416152 
L 345.6 104.416152 
L 345.6 104.416152 
L 345.6 104.416152 
L 345.6 104.416152 
L 345.6 104.416152 
L 345.6 104.416152 
L 345.6 104.416152 
L 345.6 104.416152 
L 345.6 104.416152 
L 345.6 104.416152 
L 345.6 104.416152 
L 345.6 104.416152 
L 345.6 104.416152 
L 345.6 104.416152 
L 345.6 104.416152 
L 345.6 104.416152 
L 345.6 104.416152 
L 345.6 104.416152 
L 345.6 104.416152 
L 345.6 104.416152 
L 345.6 104.416152 
L 345.6 104.416152 
L 345.6 104.416152 
L 345.6 104.416152 
L 345.6 104.416152 
L 345.6 104.416152 
L 345.6 104.416152 
L 345.6 104.416152 
L 345.6 104.416152 
L 345.6 104.416152 
L 345.6 104.416152 
L 345.6 104.416152 
L 345.6 104.416152 
L 345.6 104.416152 
L 345.6 104.416152 
L 345.6 104.416152 
L 345.6 104.416152 
L 345.6 104.416152 
L 345.6 104.416152 
L 345.6 104.416152 
L 345.6 104.416152 
L 345.6 104.416152 
L 345.6 104.416152 
L 345.6 104.416152 
L 345.6 104.416152 
L 345.6 104.416152 
L 345.6 104.416152 
L 345.6 104.416152 
L 345.6 104.416152 
L 345.6 104.416152 
L 345.6 104.416152 
L 345.6 104.416152 
L 345.6 104.416152 
L 345.6 104.416152 
L 345.6 104.416152 
L 345.6 104.416152 
L 345.6 104.416152 
L 345.6 104.416152 
L 345.6 104.416152 
L 345.6 104.416152 
L 345.6 104.416152 
L 345.6 104.416152 
L 345.6 104.416152 
L 345.6 104.416152 
L 345.6 104.416152 
L 345.6 104.416152 
L 345.6 104.416152 
L 345.6 104.416152 
L 345.6 104.416152 
L 345.6 104.416152 
L 345.6 104.416152 
L 345.6 104.416152 
L 345.6 104.416152 
L 345.6 104.416152 
L 345.6 104.416152 
L 345.6 104.416152 
L 345.6 104.416152 
L 345.6 104.416152 
L 345.6 104.416152 
L 345.6 104.416152 
L 345.6 104.416152 
L 345.6 104.416152 
L 345.6 104.416152 
L 345.6 104.416152 
L 345.6 104.416152 
L 345.6 104.416152 
L 345.6 104.416152 
L 345.6 104.416152 
L 345.6 104.416152 
L 345.6 104.416152 
L 345.6 104.416152 
L 345.6 104.416152 
L 345.6 104.416152 
L 345.6 104.416152 
L 345.6 104.416152 
L 345.6 104.416152 
L 345.6 104.416152 
L 345.6 104.416152 
" style="fill:none;stroke:#000000;stroke-dasharray:0.925,0.4;stroke-dashoffset:0;stroke-width:0.25;"/>
   </g>
   <g id="line2d_17">
    <path clip-path="url(#pa4cf46c5c0)" d="M 238.394783 288 
L 238.394783 266.4 
" style="fill:none;stroke:#000000;stroke-linecap:square;stroke-width:0.25;"/>
   </g>
   <g id="line2d_18">
    <path d="M 86.4 272.813041 
L 91.689796 272.689369 
L 96.979592 272.537531 
L 102.269388 272.35215 
L 107.559184 272.127072 
L 112.84898 271.855315 
L 118.138776 271.529023 
L 123.428571 271.139427 
L 128.718367 270.676832 
L 134.008163 270.13061 
L 139.297959 269.489228 
L 144.587755 268.740292 
L 149.877551 267.870625 
L 155.167347 266.866376 
L 160.457143 265.713163 
L 165.746939 264.396246 
L 171.036735 262.900744 
L 176.326531 261.211874 
L 181.616327 259.315232 
L 186.906122 257.197092 
L 192.195918 254.844729 
L 197.485714 252.246761 
L 202.77551 249.393485 
L 208.065306 246.277223 
L 213.355102 242.892649 
L 218.644898 239.237083 
L 223.934694 235.310769 
L 229.22449 231.117083 
L 234.514286 226.662707 
L 239.804082 221.957726 
L 245.093878 217.015651 
L 250.383673 211.853381 
L 255.673469 206.491065 
L 260.963265 200.951901 
L 266.253061 195.261849 
L 271.542857 189.449276 
L 276.832653 183.544536 
L 282.122449 177.579497 
L 287.412245 171.587024 
L 292.702041 165.600442 
L 297.991837 159.652976 
L 303.281633 153.777199 
L 308.571429 148.004503 
L 313.861224 142.364591 
L 319.15102 136.885026 
L 324.440816 131.590829 
L 329.730612 126.504152 
L 335.020408 121.644015 
L 340.310204 117.026131 
L 345.6 112.662805 
" style="fill:none;stroke:#000000;stroke-linecap:square;stroke-width:0.25;"/>
   </g>
   <g id="line2d_19">
    <path d="M 86.4 272.813041 
L 86.4 272.813041 
L 86.4 272.813041 
L 86.4 272.813041 
L 86.4 272.813041 
L 86.4 272.813041 
L 86.4 272.813041 
L 86.4 272.813041 
L 86.4 272.813041 
L 86.4 272.813041 
L 86.4 272.813041 
L 86.4 272.813041 
L 86.4 272.813041 
L 86.4 272.813041 
L 86.4 272.813041 
L 86.4 272.813041 
L 86.4 272.813041 
L 86.4 272.813041 
L 86.4 272.813041 
L 86.4 272.813041 
L 86.4 272.813041 
L 86.4 272.813041 
L 86.4 272.813041 
L 86.4 272.813041 
L 86.4 272.813041 
L 86.4 272.813041 
L 86.4 272.813041 
L 86.4 272.813041 
L 86.4 272.813041 
L 86.4 272.813041 
L 86.4 272.813041 
L 86.4 272.813041 
L 86.4 272.813041 
L 86.4 272.813041 
L 86.4 272.813041 
L 86.4 272.813041 
L 86.4 272.813041 
L 86.4 272.813041 
L 86.4 272.813041 
L 86.4 272.813041 
L 86.4 272.813041 
L 86.4 272.813041 
L 86.4 272.813041 
L 86.4 272.813041 
L 86.4 272.813041 
L 86.4 272.813041 
L 86.4 272.813041 
L 86.4 272.813041 
L 86.4 272.813041 
L 86.4 272.813041 
L 86.4 272.813041 
L 86.4 272.813041 
L 86.4 272.813041 
L 86.4 272.813041 
L 86.4 272.813041 
L 86.4 272.813041 
L 86.4 272.813041 
L 86.4 272.813041 
L 86.4 272.813041 
L 86.4 272.813041 
L 86.4 272.813041 
L 86.4 272.813041 
L 86.4 272.813041 
L 86.4 272.813041 
L 86.4 272.813041 
L 86.4 272.813041 
L 86.4 272.813041 
L 86.4 272.813041 
L 86.4 272.813041 
L 86.4 272.813041 
L 86.4 272.813041 
L 86.4 272.813041 
L 86.4 272.813041 
L 86.4 272.813041 
L 86.4 272.813041 
L 86.4 272.813041 
L 86.4 272.813041 
L 86.4 272.813041 
L 86.4 272.813041 
L 86.4 272.813041 
L 86.4 272.813041 
L 86.4 272.813041 
L 86.4 272.813041 
L 86.4 272.813041 
L 86.4 272.813041 
L 86.4 272.813041 
L 86.4 272.813041 
L 86.4 272.813041 
L 86.4 272.813041 
L 86.4 272.813041 
L 86.4 272.813041 
L 86.4 272.813041 
L 86.4 272.813041 
L 86.4 272.813041 
L 86.4 272.813041 
L 86.4 272.813041 
L 86.4 272.813041 
L 86.4 272.813041 
L 86.4 272.813041 
L 86.4 272.813041 
" style="fill:none;stroke:#000000;stroke-dasharray:0.925,0.4;stroke-dashoffset:0;stroke-width:0.25;"/>
   </g>
   <g id="line2d_20">
    <path d="M 345.6 112.662805 
L 345.6 112.662805 
L 345.6 112.662805 
L 345.6 112.662805 
L 345.6 112.662805 
L 345.6 112.662805 
L 345.6 112.662805 
L 345.6 112.662805 
L 345.6 112.662805 
L 345.6 112.662805 
L 345.6 112.662805 
L 345.6 112.662805 
L 345.6 112.662805 
L 345.6 112.662805 
L 345.6 112.662805 
L 345.6 112.662805 
L 345.6 112.662805 
L 345.6 112.662805 
L 345.6 112.662805 
L 345.6 112.662805 
L 345.6 112.662805 
L 345.6 112.662805 
L 345.6 112.662805 
L 345.6 112.662805 
L 345.6 112.662805 
L 345.6 112.662805 
L 345.6 112.662805 
L 345.6 112.662805 
L 345.6 112.662805 
L 345.6 112.662805 
L 345.6 112.662805 
L 345.6 112.662805 
L 345.6 112.662805 
L 345.6 112.662805 
L 345.6 112.662805 
L 345.6 112.662805 
L 345.6 112.662805 
L 345.6 112.662805 
L 345.6 112.662805 
L 345.6 112.662805 
L 345.6 112.662805 
L 345.6 112.662805 
L 345.6 112.662805 
L 345.6 112.662805 
L 345.6 112.662805 
L 345.6 112.662805 
L 345.6 112.662805 
L 345.6 112.662805 
L 345.6 112.662805 
L 345.6 112.662805 
L 345.6 112.662805 
L 345.6 112.662805 
L 345.6 112.662805 
L 345.6 112.662805 
L 345.6 112.662805 
L 345.6 112.662805 
L 345.6 112.662805 
L 345.6 112.662805 
L 345.6 112.662805 
L 345.6 112.662805 
L 345.6 112.662805 
L 345.6 112.662805 
L 345.6 112.662805 
L 345.6 112.662805 
L 345.6 112.662805 
L 345.6 112.662805 
L 345.6 112.662805 
L 345.6 112.662805 
L 345.6 112.662805 
L 345.6 112.662805 
L 345.6 112.662805 
L 345.6 112.662805 
L 345.6 112.662805 
L 345.6 112.662805 
L 345.6 112.662805 
L 345.6 112.662805 
L 345.6 112.662805 
L 345.6 112.662805 
L 345.6 112.662805 
L 345.6 112.662805 
L 345.6 112.662805 
L 345.6 112.662805 
L 345.6 112.662805 
L 345.6 112.662805 
L 345.6 112.662805 
L 345.6 112.662805 
L 345.6 112.662805 
L 345.6 112.662805 
L 345.6 112.662805 
L 345.6 112.662805 
L 345.6 112.662805 
L 345.6 112.662805 
L 345.6 112.662805 
L 345.6 112.662805 
L 345.6 112.662805 
L 345.6 112.662805 
L 345.6 112.662805 
L 345.6 112.662805 
L 345.6 112.662805 
L 345.6 112.662805 
" style="fill:none;stroke:#000000;stroke-dasharray:0.925,0.4;stroke-dashoffset:0;stroke-width:0.25;"/>
   </g>
   <g id="line2d_21">
    <path clip-path="url(#pa4cf46c5c0)" d="M 286.478587 288 
L 286.478587 266.4 
" style="fill:none;stroke:#000000;stroke-linecap:square;stroke-width:0.25;"/>
   </g>
   <g id="line2d_22">
    <path d="M 86.4 263.53503 
L 91.689796 263.405263 
L 96.979592 263.249729 
L 102.269388 263.064159 
L 107.559184 262.84376 
L 112.84898 262.583187 
L 118.138776 262.276521 
L 123.428571 261.917251 
L 128.718367 261.498268 
L 134.008163 261.011874 
L 139.297959 260.449793 
L 144.587755 259.803204 
L 149.877551 259.062787 
L 155.167347 258.218788 
L 160.457143 257.261096 
L 165.746939 256.179341 
L 171.036735 254.963016 
L 176.326531 253.601605 
L 181.616327 252.08474 
L 186.906122 250.402365 
L 192.195918 248.544915 
L 197.485714 246.503506 
L 202.77551 244.270134 
L 208.065306 241.837871 
L 213.355102 239.201065 
L 218.644898 236.355526 
L 223.934694 233.298712 
L 229.22449 230.029886 
L 234.514286 226.550256 
L 239.804082 222.863091 
L 245.093878 218.973799 
L 250.383673 214.889977 
L 255.673469 210.621417 
L 260.963265 206.180073 
L 266.253061 201.579989 
L 271.542857 196.837182 
L 276.832653 191.969486 
L 282.122449 186.996355 
L 287.412245 181.938637 
L 292.702041 176.81831 
L 297.991837 171.658198 
L 303.281633 166.481665 
L 308.571429 161.312301 
L 313.861224 156.173596 
L 319.15102 151.088625 
L 324.440816 146.079733 
L 329.730612 141.168242 
L 335.020408 136.374185 
L 340.310204 131.716056 
L 345.6 127.210607 
" style="fill:none;stroke:#000000;stroke-linecap:square;stroke-width:0.25;"/>
   </g>
   <g id="line2d_23">
    <path d="M 86.4 263.53503 
L 86.4 263.53503 
L 86.4 263.53503 
L 86.4 263.53503 
L 86.4 263.53503 
L 86.4 263.53503 
L 86.4 263.53503 
L 86.4 263.53503 
L 86.4 263.53503 
L 86.4 263.53503 
L 86.4 263.53503 
L 86.4 263.53503 
L 86.4 263.53503 
L 86.4 263.53503 
L 86.4 263.53503 
L 86.4 263.53503 
L 86.4 263.53503 
L 86.4 263.53503 
L 86.4 263.53503 
L 86.4 263.53503 
L 86.4 263.53503 
L 86.4 263.53503 
L 86.4 263.53503 
L 86.4 263.53503 
L 86.4 263.53503 
L 86.4 263.53503 
L 86.4 263.53503 
L 86.4 263.53503 
L 86.4 263.53503 
L 86.4 263.53503 
L 86.4 263.53503 
L 86.4 263.53503 
L 86.4 263.53503 
L 86.4 263.53503 
L 86.4 263.53503 
L 86.4 263.53503 
L 86.4 263.53503 
L 86.4 263.53503 
L 86.4 263.53503 
L 86.4 263.53503 
L 86.4 263.53503 
L 86.4 263.53503 
L 86.4 263.53503 
L 86.4 263.53503 
L 86.4 263.53503 
L 86.4 263.53503 
L 86.4 263.53503 
L 86.4 263.53503 
L 86.4 263.53503 
L 86.4 263.53503 
L 86.4 263.53503 
L 86.4 263.53503 
L 86.4 263.53503 
L 86.4 263.53503 
L 86.4 263.53503 
L 86.4 263.53503 
L 86.4 263.53503 
L 86.4 263.53503 
L 86.4 263.53503 
L 86.4 263.53503 
L 86.4 263.53503 
L 86.4 263.53503 
L 86.4 263.53503 
L 86.4 263.53503 
L 86.4 263.53503 
L 86.4 263.53503 
L 86.4 263.53503 
L 86.4 263.53503 
L 86.4 263.53503 
L 86.4 263.53503 
L 86.4 263.53503 
L 86.4 263.53503 
L 86.4 263.53503 
L 86.4 263.53503 
L 86.4 263.53503 
L 86.4 263.53503 
L 86.4 263.53503 
L 86.4 263.53503 
L 86.4 263.53503 
L 86.4 263.53503 
L 86.4 263.53503 
L 86.4 263.53503 
L 86.4 263.53503 
L 86.4 263.53503 
L 86.4 263.53503 
L 86.4 263.53503 
L 86.4 263.53503 
L 86.4 263.53503 
L 86.4 263.53503 
L 86.4 263.53503 
L 86.4 263.53503 
L 86.4 263.53503 
L 86.4 263.53503 
L 86.4 263.53503 
L 86.4 263.53503 
L 86.4 263.53503 
L 86.4 263.53503 
L 86.4 263.53503 
L 86.4 263.53503 
L 86.4 263.53503 
" style="fill:none;stroke:#000000;stroke-dasharray:0.925,0.4;stroke-dashoffset:0;stroke-width:0.25;"/>
   </g>
   <g id="line2d_24">
    <path d="M 345.6 127.210607 
L 345.6 127.210607 
L 345.6 127.210607 
L 345.6 127.210607 
L 345.6 127.210607 
L 345.6 127.210607 
L 345.6 127.210607 
L 345.6 127.210607 
L 345.6 127.210607 
L 345.6 127.210607 
L 345.6 127.210607 
L 345.6 127.210607 
L 345.6 127.210607 
L 345.6 127.210607 
L 345.6 127.210607 
L 345.6 127.210607 
L 345.6 127.210607 
L 345.6 127.210607 
L 345.6 127.210607 
L 345.6 127.210607 
L 345.6 127.210607 
L 345.6 127.210607 
L 345.6 127.210607 
L 345.6 127.210607 
L 345.6 127.210607 
L 345.6 127.210607 
L 345.6 127.210607 
L 345.6 127.210607 
L 345.6 127.210607 
L 345.6 127.210607 
L 345.6 127.210607 
L 345.6 127.210607 
L 345.6 127.210607 
L 345.6 127.210607 
L 345.6 127.210607 
L 345.6 127.210607 
L 345.6 127.210607 
L 345.6 127.210607 
L 345.6 127.210607 
L 345.6 127.210607 
L 345.6 127.210607 
L 345.6 127.210607 
L 345.6 127.210607 
L 345.6 127.210607 
L 345.6 127.210607 
L 345.6 127.210607 
L 345.6 127.210607 
L 345.6 127.210607 
L 345.6 127.210607 
L 345.6 127.210607 
L 345.6 127.210607 
L 345.6 127.210607 
L 345.6 127.210607 
L 345.6 127.210607 
L 345.6 127.210607 
L 345.6 127.210607 
L 345.6 127.210607 
L 345.6 127.210607 
L 345.6 127.210607 
L 345.6 127.210607 
L 345.6 127.210607 
L 345.6 127.210607 
L 345.6 127.210607 
L 345.6 127.210607 
L 345.6 127.210607 
L 345.6 127.210607 
L 345.6 127.210607 
L 345.6 127.210607 
L 345.6 127.210607 
L 345.6 127.210607 
L 345.6 127.210607 
L 345.6 127.210607 
L 345.6 127.210607 
L 345.6 127.210607 
L 345.6 127.210607 
L 345.6 127.210607 
L 345.6 127.210607 
L 345.6 127.210607 
L 345.6 127.210607 
L 345.6 127.210607 
L 345.6 127.210607 
L 345.6 127.210607 
L 345.6 127.210607 
L 345.6 127.210607 
L 345.6 127.210607 
L 345.6 127.210607 
L 345.6 127.210607 
L 345.6 127.210607 
L 345.6 127.210607 
L 345.6 127.210607 
L 345.6 127.210607 
L 345.6 127.210607 
L 345.6 127.210607 
L 345.6 127.210607 
L 345.6 127.210607 
L 345.6 127.210607 
L 345.6 127.210607 
L 345.6 127.210607 
L 345.6 127.210607 
L 345.6 127.210607 
" style="fill:none;stroke:#000000;stroke-dasharray:0.925,0.4;stroke-dashoffset:0;stroke-width:0.25;"/>
   </g>
   <g id="line2d_25">
    <path clip-path="url(#pa4cf46c5c0)" d="M 301.67508 288 
L 301.67508 266.4 
" style="fill:none;stroke:#000000;stroke-linecap:square;stroke-width:0.25;"/>
   </g>
   <g id="line2d_26">
    <path d="M 86.4 264.271136 
L 91.689796 264.262268 
L 96.979592 264.249168 
L 102.269388 264.230036 
L 107.559184 264.202416 
L 112.84898 264.162995 
L 118.138776 264.107374 
L 123.428571 264.02979 
L 128.718367 263.922804 
L 134.008163 263.776958 
L 139.297959 263.580403 
L 144.587755 263.318531 
L 149.877551 262.973616 
L 155.167347 262.524505 
L 160.457143 261.946391 
L 165.746939 261.210707 
L 171.036735 260.285186 
L 176.326531 259.13412 
L 181.616327 257.718875 
L 186.906122 255.998667 
L 192.195918 253.931628 
L 197.485714 251.476161 
L 202.77551 248.592543 
L 208.065306 245.244746 
L 213.355102 241.402381 
L 218.644898 237.042685 
L 223.934694 232.152429 
L 229.22449 226.72961 
L 234.514286 220.784819 
L 239.804082 214.342145 
L 245.093878 207.439531 
L 250.383673 200.128493 
L 255.673469 192.473186 
L 260.963265 184.548828 
L 266.253061 176.439525 
L 271.542857 168.235611 
L 276.832653 160.030649 
L 282.122449 151.918236 
L 287.412245 143.988813 
L 292.702041 136.326655 
L 297.991837 129.007203 
L 303.281633 122.094878 
L 308.571429 115.641493 
L 313.861224 109.685295 
L 319.15102 104.250681 
L 324.440816 99.348536 
L 329.730612 94.977125 
L 335.020408 91.123449 
L 340.310204 87.764939 
L 345.6 84.871355 
" style="fill:none;stroke:#000000;stroke-linecap:square;stroke-width:0.25;"/>
   </g>
   <g id="line2d_27">
    <path d="M 86.4 264.271136 
L 86.4 264.271136 
L 86.4 264.271136 
L 86.4 264.271136 
L 86.4 264.271136 
L 86.4 264.271136 
L 86.4 264.271136 
L 86.4 264.271136 
L 86.4 264.271136 
L 86.4 264.271136 
L 86.4 264.271136 
L 86.4 264.271136 
L 86.4 264.271136 
L 86.4 264.271136 
L 86.4 264.271136 
L 86.4 264.271136 
L 86.4 264.271136 
L 86.4 264.271136 
L 86.4 264.271136 
L 86.4 264.271136 
L 86.4 264.271136 
L 86.4 264.271136 
L 86.4 264.271136 
L 86.4 264.271136 
L 86.4 264.271136 
L 86.4 264.271136 
L 86.4 264.271136 
L 86.4 264.271136 
L 86.4 264.271136 
L 86.4 264.271136 
L 86.4 264.271136 
L 86.4 264.271136 
L 86.4 264.271136 
L 86.4 264.271136 
L 86.4 264.271136 
L 86.4 264.271136 
L 86.4 264.271136 
L 86.4 264.271136 
L 86.4 264.271136 
L 86.4 264.271136 
L 86.4 264.271136 
L 86.4 264.271136 
L 86.4 264.271136 
L 86.4 264.271136 
L 86.4 264.271136 
L 86.4 264.271136 
L 86.4 264.271136 
L 86.4 264.271136 
L 86.4 264.271136 
L 86.4 264.271136 
L 86.4 264.271136 
L 86.4 264.271136 
L 86.4 264.271136 
L 86.4 264.271136 
L 86.4 264.271136 
L 86.4 264.271136 
L 86.4 264.271136 
L 86.4 264.271136 
L 86.4 264.271136 
L 86.4 264.271136 
L 86.4 264.271136 
L 86.4 264.271136 
L 86.4 264.271136 
L 86.4 264.271136 
L 86.4 264.271136 
L 86.4 264.271136 
L 86.4 264.271136 
L 86.4 264.271136 
L 86.4 264.271136 
L 86.4 264.271136 
L 86.4 264.271136 
L 86.4 264.271136 
L 86.4 264.271136 
L 86.4 264.271136 
L 86.4 264.271136 
L 86.4 264.271136 
L 86.4 264.271136 
L 86.4 264.271136 
L 86.4 264.271136 
L 86.4 264.271136 
L 86.4 264.271136 
L 86.4 264.271136 
L 86.4 264.271136 
L 86.4 264.271136 
L 86.4 264.271136 
L 86.4 264.271136 
L 86.4 264.271136 
L 86.4 264.271136 
L 86.4 264.271136 
L 86.4 264.271136 
L 86.4 264.271136 
L 86.4 264.271136 
L 86.4 264.271136 
L 86.4 264.271136 
L 86.4 264.271136 
L 86.4 264.271136 
L 86.4 264.271136 
L 86.4 264.271136 
L 86.4 264.271136 
L 86.4 264.271136 
" style="fill:none;stroke:#000000;stroke-dasharray:0.925,0.4;stroke-dashoffset:0;stroke-width:0.25;"/>
   </g>
   <g id="line2d_28">
    <path d="M 345.6 84.871355 
L 345.6 84.871355 
L 345.6 84.871355 
L 345.6 84.871355 
L 345.6 84.871355 
L 345.6 84.871355 
L 345.6 84.871355 
L 345.6 84.871355 
L 345.6 84.871355 
L 345.6 84.871355 
L 345.6 84.871355 
L 345.6 84.871355 
L 345.6 84.871355 
L 345.6 84.871355 
L 345.6 84.871355 
L 345.6 84.871355 
L 345.6 84.871355 
L 345.6 84.871355 
L 345.6 84.871355 
L 345.6 84.871355 
L 345.6 84.871355 
L 345.6 84.871355 
L 345.6 84.871355 
L 345.6 84.871355 
L 345.6 84.871355 
L 345.6 84.871355 
L 345.6 84.871355 
L 345.6 84.871355 
L 345.6 84.871355 
L 345.6 84.871355 
L 345.6 84.871355 
L 345.6 84.871355 
L 345.6 84.871355 
L 345.6 84.871355 
L 345.6 84.871355 
L 345.6 84.871355 
L 345.6 84.871355 
L 345.6 84.871355 
L 345.6 84.871355 
L 345.6 84.871355 
L 345.6 84.871355 
L 345.6 84.871355 
L 345.6 84.871355 
L 345.6 84.871355 
L 345.6 84.871355 
L 345.6 84.871355 
L 345.6 84.871355 
L 345.6 84.871355 
L 345.6 84.871355 
L 345.6 84.871355 
L 345.6 84.871355 
L 345.6 84.871355 
L 345.6 84.871355 
L 345.6 84.871355 
L 345.6 84.871355 
L 345.6 84.871355 
L 345.6 84.871355 
L 345.6 84.871355 
L 345.6 84.871355 
L 345.6 84.871355 
L 345.6 84.871355 
L 345.6 84.871355 
L 345.6 84.871355 
L 345.6 84.871355 
L 345.6 84.871355 
L 345.6 84.871355 
L 345.6 84.871355 
L 345.6 84.871355 
L 345.6 84.871355 
L 345.6 84.871355 
L 345.6 84.871355 
L 345.6 84.871355 
L 345.6 84.871355 
L 345.6 84.871355 
L 345.6 84.871355 
L 345.6 84.871355 
L 345.6 84.871355 
L 345.6 84.871355 
L 345.6 84.871355 
L 345.6 84.871355 
L 345.6 84.871355 
L 345.6 84.871355 
L 345.6 84.871355 
L 345.6 84.871355 
L 345.6 84.871355 
L 345.6 84.871355 
L 345.6 84.871355 
L 345.6 84.871355 
L 345.6 84.871355 
L 345.6 84.871355 
L 345.6 84.871355 
L 345.6 84.871355 
L 345.6 84.871355 
L 345.6 84.871355 
L 345.6 84.871355 
L 345.6 84.871355 
L 345.6 84.871355 
L 345.6 84.871355 
L 345.6 84.871355 
L 345.6 84.871355 
" style="fill:none;stroke:#000000;stroke-dasharray:0.925,0.4;stroke-dashoffset:0;stroke-width:0.25;"/>
   </g>
   <g id="line2d_29">
    <path clip-path="url(#pa4cf46c5c0)" d="M 271.601787 288 
L 271.601787 266.4 
" style="fill:none;stroke:#000000;stroke-linecap:square;stroke-width:0.25;"/>
   </g>
   <g id="line2d_30">
    <path d="M 86.4 234.645509 
L 91.689796 234.29247 
L 96.979592 233.886493 
L 102.269388 233.421533 
L 107.559184 232.891179 
L 112.84898 232.288687 
L 118.138776 231.607021 
L 123.428571 230.838901 
L 128.718367 229.976873 
L 134.008163 229.013378 
L 139.297959 227.940838 
L 144.587755 226.751753 
L 149.877551 225.438804 
L 155.167347 223.994965 
L 160.457143 222.413624 
L 165.746939 220.688709 
L 171.036735 218.814813 
L 176.326531 216.787322 
L 181.616327 214.602539 
L 186.906122 212.257808 
L 192.195918 209.751619 
L 197.485714 207.083717 
L 202.77551 204.25518 
L 208.065306 201.268494 
L 213.355102 198.127604 
L 218.644898 194.837939 
L 223.934694 191.406421 
L 229.22449 187.841446 
L 234.514286 184.152837 
L 239.804082 180.351782 
L 245.093878 176.450732 
L 250.383673 172.463289 
L 255.673469 168.404064 
L 260.963265 164.288518 
L 266.253061 160.132786 
L 271.542857 155.95349 
L 276.832653 151.767535 
L 282.122449 147.591909 
L 287.412245 143.443474 
L 292.702041 139.338762 
L 297.991837 135.293779 
L 303.281633 131.323816 
L 308.571429 127.443278 
L 313.861224 123.665531 
L 319.15102 120.00276 
L 324.440816 116.465866 
L 329.730612 113.064368 
L 335.020408 109.806345 
L 340.310204 106.698399 
L 345.6 103.745636 
" style="fill:none;stroke:#000000;stroke-linecap:square;stroke-width:0.25;"/>
   </g>
   <g id="line2d_31">
    <path d="M 86.4 234.645509 
L 86.4 234.645509 
L 86.4 234.645509 
L 86.4 234.645509 
L 86.4 234.645509 
L 86.4 234.645509 
L 86.4 234.645509 
L 86.4 234.645509 
L 86.4 234.645509 
L 86.4 234.645509 
L 86.4 234.645509 
L 86.4 234.645509 
L 86.4 234.645509 
L 86.4 234.645509 
L 86.4 234.645509 
L 86.4 234.645509 
L 86.4 234.645509 
L 86.4 234.645509 
L 86.4 234.645509 
L 86.4 234.645509 
L 86.4 234.645509 
L 86.4 234.645509 
L 86.4 234.645509 
L 86.4 234.645509 
L 86.4 234.645509 
L 86.4 234.645509 
L 86.4 234.645509 
L 86.4 234.645509 
L 86.4 234.645509 
L 86.4 234.645509 
L 86.4 234.645509 
L 86.4 234.645509 
L 86.4 234.645509 
L 86.4 234.645509 
L 86.4 234.645509 
L 86.4 234.645509 
L 86.4 234.645509 
L 86.4 234.645509 
L 86.4 234.645509 
L 86.4 234.645509 
L 86.4 234.645509 
L 86.4 234.645509 
L 86.4 234.645509 
L 86.4 234.645509 
L 86.4 234.645509 
L 86.4 234.645509 
L 86.4 234.645509 
L 86.4 234.645509 
L 86.4 234.645509 
L 86.4 234.645509 
L 86.4 234.645509 
L 86.4 234.645509 
L 86.4 234.645509 
L 86.4 234.645509 
L 86.4 234.645509 
L 86.4 234.645509 
L 86.4 234.645509 
L 86.4 234.645509 
L 86.4 234.645509 
L 86.4 234.645509 
L 86.4 234.645509 
L 86.4 234.645509 
L 86.4 234.645509 
L 86.4 234.645509 
L 86.4 234.645509 
L 86.4 234.645509 
L 86.4 234.645509 
L 86.4 234.645509 
L 86.4 234.645509 
L 86.4 234.645509 
L 86.4 234.645509 
L 86.4 234.645509 
L 86.4 234.645509 
L 86.4 234.645509 
L 86.4 234.645509 
L 86.4 234.645509 
L 86.4 234.645509 
L 86.4 234.645509 
L 86.4 234.645509 
L 86.4 234.645509 
L 86.4 234.645509 
L 86.4 234.645509 
L 86.4 234.645509 
L 86.4 234.645509 
L 86.4 234.645509 
L 86.4 234.645509 
L 86.4 234.645509 
L 86.4 234.645509 
L 86.4 234.645509 
L 86.4 234.645509 
L 86.4 234.645509 
L 86.4 234.645509 
L 86.4 234.645509 
L 86.4 234.645509 
L 86.4 234.645509 
L 86.4 234.645509 
L 86.4 234.645509 
L 86.4 234.645509 
L 86.4 234.645509 
L 86.4 234.645509 
" style="fill:none;stroke:#000000;stroke-dasharray:0.925,0.4;stroke-dashoffset:0;stroke-width:0.25;"/>
   </g>
   <g id="line2d_32">
    <path d="M 345.6 103.745636 
L 345.6 103.745636 
L 345.6 103.745636 
L 345.6 103.745636 
L 345.6 103.745636 
L 345.6 103.745636 
L 345.6 103.745636 
L 345.6 103.745636 
L 345.6 103.745636 
L 345.6 103.745636 
L 345.6 103.745636 
L 345.6 103.745636 
L 345.6 103.745636 
L 345.6 103.745636 
L 345.6 103.745636 
L 345.6 103.745636 
L 345.6 103.745636 
L 345.6 103.745636 
L 345.6 103.745636 
L 345.6 103.745636 
L 345.6 103.745636 
L 345.6 103.745636 
L 345.6 103.745636 
L 345.6 103.745636 
L 345.6 103.745636 
L 345.6 103.745636 
L 345.6 103.745636 
L 345.6 103.745636 
L 345.6 103.745636 
L 345.6 103.745636 
L 345.6 103.745636 
L 345.6 103.745636 
L 345.6 103.745636 
L 345.6 103.745636 
L 345.6 103.745636 
L 345.6 103.745636 
L 345.6 103.745636 
L 345.6 103.745636 
L 345.6 103.745636 
L 345.6 103.745636 
L 345.6 103.745636 
L 345.6 103.745636 
L 345.6 103.745636 
L 345.6 103.745636 
L 345.6 103.745636 
L 345.6 103.745636 
L 345.6 103.745636 
L 345.6 103.745636 
L 345.6 103.745636 
L 345.6 103.745636 
L 345.6 103.745636 
L 345.6 103.745636 
L 345.6 103.745636 
L 345.6 103.745636 
L 345.6 103.745636 
L 345.6 103.745636 
L 345.6 103.745636 
L 345.6 103.745636 
L 345.6 103.745636 
L 345.6 103.745636 
L 345.6 103.745636 
L 345.6 103.745636 
L 345.6 103.745636 
L 345.6 103.745636 
L 345.6 103.745636 
L 345.6 103.745636 
L 345.6 103.745636 
L 345.6 103.745636 
L 345.6 103.745636 
L 345.6 103.745636 
L 345.6 103.745636 
L 345.6 103.745636 
L 345.6 103.745636 
L 345.6 103.745636 
L 345.6 103.745636 
L 345.6 103.745636 
L 345.6 103.745636 
L 345.6 103.745636 
L 345.6 103.745636 
L 345.6 103.745636 
L 345.6 103.745636 
L 345.6 103.745636 
L 345.6 103.745636 
L 345.6 103.745636 
L 345.6 103.745636 
L 345.6 103.745636 
L 345.6 103.745636 
L 345.6 103.745636 
L 345.6 103.745636 
L 345.6 103.745636 
L 345.6 103.745636 
L 345.6 103.745636 
L 345.6 103.745636 
L 345.6 103.745636 
L 345.6 103.745636 
L 345.6 103.745636 
L 345.6 103.745636 
L 345.6 103.745636 
L 345.6 103.745636 
L 345.6 103.745636 
" style="fill:none;stroke:#000000;stroke-dasharray:0.925,0.4;stroke-dashoffset:0;stroke-width:0.25;"/>
   </g>
   <g id="line2d_33">
    <path clip-path="url(#pa4cf46c5c0)" d="M 273.615691 288 
L 273.615691 266.4 
" style="fill:none;stroke:#000000;stroke-linecap:square;stroke-width:0.25;"/>
   </g>
   <g id="line2d_34">
    <path d="M 86.4 247.549611 
L 91.689796 246.014061 
L 96.979592 244.25147 
L 102.269388 242.243069 
L 107.559184 239.971316 
L 112.84898 237.420478 
L 118.138776 234.577221 
L 123.428571 231.431205 
L 128.718367 227.975657 
L 134.008163 224.207887 
L 139.297959 220.129736 
L 144.587755 215.747925 
L 149.877551 211.074284 
L 155.167347 206.125842 
L 160.457143 200.924769 
L 165.746939 195.498155 
L 171.036735 189.877638 
L 176.326531 184.098873 
L 181.616327 178.200867 
L 186.906122 172.225194 
L 192.195918 166.215121 
L 197.485714 160.214667 
L 202.77551 154.26764 
L 208.065306 148.41668 
L 213.355102 142.702344 
L 218.644898 137.162267 
L 223.934694 131.830426 
L 229.22449 126.736531 
L 234.514286 121.905561 
L 239.804082 117.357462 
L 245.093878 113.106992 
L 250.383673 109.163731 
L 255.673469 105.532237 
L 260.963265 102.212325 
L 266.253061 99.199463 
L 271.542857 96.485253 
L 276.832653 94.057978 
L 282.122449 91.903184 
L 287.412245 90.004275 
L 292.702041 88.343106 
L 297.991837 86.900542 
L 303.281633 85.65698 
L 308.571429 84.592809 
L 313.861224 83.688812 
L 319.15102 82.926499 
L 324.440816 82.288365 
L 329.730612 81.75809 
L 335.020408 81.320666 
L 340.310204 80.962475 
L 345.6 80.671311 
" style="fill:none;stroke:#000000;stroke-linecap:square;stroke-width:0.25;"/>
   </g>
   <g id="line2d_35">
    <path d="M 86.4 247.549611 
L 86.4 247.549611 
L 86.4 247.549611 
L 86.4 247.549611 
L 86.4 247.549611 
L 86.4 247.549611 
L 86.4 247.549611 
L 86.4 247.549611 
L 86.4 247.549611 
L 86.4 247.549611 
L 86.4 247.549611 
L 86.4 247.549611 
L 86.4 247.549611 
L 86.4 247.549611 
L 86.4 247.549611 
L 86.4 247.549611 
L 86.4 247.549611 
L 86.4 247.549611 
L 86.4 247.549611 
L 86.4 247.549611 
L 86.4 247.549611 
L 86.4 247.549611 
L 86.4 247.549611 
L 86.4 247.549611 
L 86.4 247.549611 
L 86.4 247.549611 
L 86.4 247.549611 
L 86.4 247.549611 
L 86.4 247.549611 
L 86.4 247.549611 
L 86.4 247.549611 
L 86.4 247.549611 
L 86.4 247.549611 
L 86.4 247.549611 
L 86.4 247.549611 
L 86.4 247.549611 
L 86.4 247.549611 
L 86.4 247.549611 
L 86.4 247.549611 
L 86.4 247.549611 
L 86.4 247.549611 
L 86.4 247.549611 
L 86.4 247.549611 
L 86.4 247.549611 
L 86.4 247.549611 
L 86.4 247.549611 
L 86.4 247.549611 
L 86.4 247.549611 
L 86.4 247.549611 
L 86.4 247.549611 
L 86.4 247.549611 
L 86.4 247.549611 
L 86.4 247.549611 
L 86.4 247.549611 
L 86.4 247.549611 
L 86.4 247.549611 
L 86.4 247.549611 
L 86.4 247.549611 
L 86.4 247.549611 
L 86.4 247.549611 
L 86.4 247.549611 
L 86.4 247.549611 
L 86.4 247.549611 
L 86.4 247.549611 
L 86.4 247.549611 
L 86.4 247.549611 
L 86.4 247.549611 
L 86.4 247.549611 
L 86.4 247.549611 
L 86.4 247.549611 
L 86.4 247.549611 
L 86.4 247.549611 
L 86.4 247.549611 
L 86.4 247.549611 
L 86.4 247.549611 
L 86.4 247.549611 
L 86.4 247.549611 
L 86.4 247.549611 
L 86.4 247.549611 
L 86.4 247.549611 
L 86.4 247.549611 
L 86.4 247.549611 
L 86.4 247.549611 
L 86.4 247.549611 
L 86.4 247.549611 
L 86.4 247.549611 
L 86.4 247.549611 
L 86.4 247.549611 
L 86.4 247.549611 
L 86.4 247.549611 
L 86.4 247.549611 
L 86.4 247.549611 
L 86.4 247.549611 
L 86.4 247.549611 
L 86.4 247.549611 
L 86.4 247.549611 
L 86.4 247.549611 
L 86.4 247.549611 
L 86.4 247.549611 
L 86.4 247.549611 
" style="fill:none;stroke:#000000;stroke-dasharray:0.925,0.4;stroke-dashoffset:0;stroke-width:0.25;"/>
   </g>
   <g id="line2d_36">
    <path d="M 345.6 80.671311 
L 345.6 80.671311 
L 345.6 80.671311 
L 345.6 80.671311 
L 345.6 80.671311 
L 345.6 80.671311 
L 345.6 80.671311 
L 345.6 80.671311 
L 345.6 80.671311 
L 345.6 80.671311 
L 345.6 80.671311 
L 345.6 80.671311 
L 345.6 80.671311 
L 345.6 80.671311 
L 345.6 80.671311 
L 345.6 80.671311 
L 345.6 80.671311 
L 345.6 80.671311 
L 345.6 80.671311 
L 345.6 80.671311 
L 345.6 80.671311 
L 345.6 80.671311 
L 345.6 80.671311 
L 345.6 80.671311 
L 345.6 80.671311 
L 345.6 80.671311 
L 345.6 80.671311 
L 345.6 80.671311 
L 345.6 80.671311 
L 345.6 80.671311 
L 345.6 80.671311 
L 345.6 80.671311 
L 345.6 80.671311 
L 345.6 80.671311 
L 345.6 80.671311 
L 345.6 80.671311 
L 345.6 80.671311 
L 345.6 80.671311 
L 345.6 80.671311 
L 345.6 80.671311 
L 345.6 80.671311 
L 345.6 80.671311 
L 345.6 80.671311 
L 345.6 80.671311 
L 345.6 80.671311 
L 345.6 80.671311 
L 345.6 80.671311 
L 345.6 80.671311 
L 345.6 80.671311 
L 345.6 80.671311 
L 345.6 80.671311 
L 345.6 80.671311 
L 345.6 80.671311 
L 345.6 80.671311 
L 345.6 80.671311 
L 345.6 80.671311 
L 345.6 80.671311 
L 345.6 80.671311 
L 345.6 80.671311 
L 345.6 80.671311 
L 345.6 80.671311 
L 345.6 80.671311 
L 345.6 80.671311 
L 345.6 80.671311 
L 345.6 80.671311 
L 345.6 80.671311 
L 345.6 80.671311 
L 345.6 80.671311 
L 345.6 80.671311 
L 345.6 80.671311 
L 345.6 80.671311 
L 345.6 80.671311 
L 345.6 80.671311 
L 345.6 80.671311 
L 345.6 80.671311 
L 345.6 80.671311 
L 345.6 80.671311 
L 345.6 80.671311 
L 345.6 80.671311 
L 345.6 80.671311 
L 345.6 80.671311 
L 345.6 80.671311 
L 345.6 80.671311 
L 345.6 80.671311 
L 345.6 80.671311 
L 345.6 80.671311 
L 345.6 80.671311 
L 345.6 80.671311 
L 345.6 80.671311 
L 345.6 80.671311 
L 345.6 80.671311 
L 345.6 80.671311 
L 345.6 80.671311 
L 345.6 80.671311 
L 345.6 80.671311 
L 345.6 80.671311 
L 345.6 80.671311 
L 345.6 80.671311 
L 345.6 80.671311 
L 345.6 80.671311 
" style="fill:none;stroke:#000000;stroke-dasharray:0.925,0.4;stroke-dashoffset:0;stroke-width:0.25;"/>
   </g>
   <g id="line2d_37">
    <path clip-path="url(#pa4cf46c5c0)" d="M 191.041915 288 
L 191.041915 266.4 
" style="fill:none;stroke:#000000;stroke-linecap:square;stroke-width:0.25;"/>
   </g>
   <g id="line2d_38">
    <path d="M 86.4 253.269562 
L 91.689796 252.127021 
L 96.979592 250.873 
L 102.269388 249.501207 
L 107.559184 248.005585 
L 112.84898 246.380388 
L 118.138776 244.620276 
L 123.428571 242.720402 
L 128.718367 240.676502 
L 134.008163 238.484985 
L 139.297959 236.14302 
L 144.587755 233.64862 
L 149.877551 231.000716 
L 155.167347 228.199229 
L 160.457143 225.245128 
L 165.746939 222.14048 
L 171.036735 218.888486 
L 176.326531 215.493506 
L 181.616327 211.961062 
L 186.906122 208.297839 
L 192.195918 204.511653 
L 197.485714 200.611418 
L 202.77551 196.607087 
L 208.065306 192.509583 
L 213.355102 188.330711 
L 218.644898 184.083057 
L 223.934694 179.779877 
L 229.22449 175.434973 
L 234.514286 171.062561 
L 239.804082 166.677129 
L 245.093878 162.293297 
L 250.383673 157.925667 
L 255.673469 153.588681 
L 260.963265 149.296476 
L 266.253061 145.062745 
L 271.542857 140.900608 
L 276.832653 136.82249 
L 282.122449 132.840012 
L 287.412245 128.96389 
L 292.702041 125.203856 
L 297.991837 121.568589 
L 303.281633 118.065661 
L 308.571429 114.701502 
L 313.861224 111.481382 
L 319.15102 108.409406 
L 324.440816 105.488525 
L 329.730612 102.720561 
L 335.020408 100.106251 
L 340.310204 97.645293 
L 345.6 95.336412 
" style="fill:none;stroke:#000000;stroke-linecap:square;stroke-width:0.25;"/>
   </g>
   <g id="line2d_39">
    <path d="M 86.4 253.269562 
L 86.4 253.269562 
L 86.4 253.269562 
L 86.4 253.269562 
L 86.4 253.269562 
L 86.4 253.269562 
L 86.4 253.269562 
L 86.4 253.269562 
L 86.4 253.269562 
L 86.4 253.269562 
L 86.4 253.269562 
L 86.4 253.269562 
L 86.4 253.269562 
L 86.4 253.269562 
L 86.4 253.269562 
L 86.4 253.269562 
L 86.4 253.269562 
L 86.4 253.269562 
L 86.4 253.269562 
L 86.4 253.269562 
L 86.4 253.269562 
L 86.4 253.269562 
L 86.4 253.269562 
L 86.4 253.269562 
L 86.4 253.269562 
L 86.4 253.269562 
L 86.4 253.269562 
L 86.4 253.269562 
L 86.4 253.269562 
L 86.4 253.269562 
L 86.4 253.269562 
L 86.4 253.269562 
L 86.4 253.269562 
L 86.4 253.269562 
L 86.4 253.269562 
L 86.4 253.269562 
L 86.4 253.269562 
L 86.4 253.269562 
L 86.4 253.269562 
L 86.4 253.269562 
L 86.4 253.269562 
L 86.4 253.269562 
L 86.4 253.269562 
L 86.4 253.269562 
L 86.4 253.269562 
L 86.4 253.269562 
L 86.4 253.269562 
L 86.4 253.269562 
L 86.4 253.269562 
L 86.4 253.269562 
L 86.4 253.269562 
L 86.4 253.269562 
L 86.4 253.269562 
L 86.4 253.269562 
L 86.4 253.269562 
L 86.4 253.269562 
L 86.4 253.269562 
L 86.4 253.269562 
L 86.4 253.269562 
L 86.4 253.269562 
L 86.4 253.269562 
L 86.4 253.269562 
L 86.4 253.269562 
L 86.4 253.269562 
L 86.4 253.269562 
L 86.4 253.269562 
L 86.4 253.269562 
L 86.4 253.269562 
L 86.4 253.269562 
L 86.4 253.269562 
L 86.4 253.269562 
L 86.4 253.269562 
L 86.4 253.269562 
L 86.4 253.269562 
L 86.4 253.269562 
L 86.4 253.269562 
L 86.4 253.269562 
L 86.4 253.269562 
L 86.4 253.269562 
L 86.4 253.269562 
L 86.4 253.269562 
L 86.4 253.269562 
L 86.4 253.269562 
L 86.4 253.269562 
L 86.4 253.269562 
L 86.4 253.269562 
L 86.4 253.269562 
L 86.4 253.269562 
L 86.4 253.269562 
L 86.4 253.269562 
L 86.4 253.269562 
L 86.4 253.269562 
L 86.4 253.269562 
L 86.4 253.269562 
L 86.4 253.269562 
L 86.4 253.269562 
L 86.4 253.269562 
L 86.4 253.269562 
L 86.4 253.269562 
L 86.4 253.269562 
" style="fill:none;stroke:#000000;stroke-dasharray:0.925,0.4;stroke-dashoffset:0;stroke-width:0.25;"/>
   </g>
   <g id="line2d_40">
    <path d="M 345.6 95.336412 
L 345.6 95.336412 
L 345.6 95.336412 
L 345.6 95.336412 
L 345.6 95.336412 
L 345.6 95.336412 
L 345.6 95.336412 
L 345.6 95.336412 
L 345.6 95.336412 
L 345.6 95.336412 
L 345.6 95.336412 
L 345.6 95.336412 
L 345.6 95.336412 
L 345.6 95.336412 
L 345.6 95.336412 
L 345.6 95.336412 
L 345.6 95.336412 
L 345.6 95.336412 
L 345.6 95.336412 
L 345.6 95.336412 
L 345.6 95.336412 
L 345.6 95.336412 
L 345.6 95.336412 
L 345.6 95.336412 
L 345.6 95.336412 
L 345.6 95.336412 
L 345.6 95.336412 
L 345.6 95.336412 
L 345.6 95.336412 
L 345.6 95.336412 
L 345.6 95.336412 
L 345.6 95.336412 
L 345.6 95.336412 
L 345.6 95.336412 
L 345.6 95.336412 
L 345.6 95.336412 
L 345.6 95.336412 
L 345.6 95.336412 
L 345.6 95.336412 
L 345.6 95.336412 
L 345.6 95.336412 
L 345.6 95.336412 
L 345.6 95.336412 
L 345.6 95.336412 
L 345.6 95.336412 
L 345.6 95.336412 
L 345.6 95.336412 
L 345.6 95.336412 
L 345.6 95.336412 
L 345.6 95.336412 
L 345.6 95.336412 
L 345.6 95.336412 
L 345.6 95.336412 
L 345.6 95.336412 
L 345.6 95.336412 
L 345.6 95.336412 
L 345.6 95.336412 
L 345.6 95.336412 
L 345.6 95.336412 
L 345.6 95.336412 
L 345.6 95.336412 
L 345.6 95.336412 
L 345.6 95.336412 
L 345.6 95.336412 
L 345.6 95.336412 
L 345.6 95.336412 
L 345.6 95.336412 
L 345.6 95.336412 
L 345.6 95.336412 
L 345.6 95.336412 
L 345.6 95.336412 
L 345.6 95.336412 
L 345.6 95.336412 
L 345.6 95.336412 
L 345.6 95.336412 
L 345.6 95.336412 
L 345.6 95.336412 
L 345.6 95.336412 
L 345.6 95.336412 
L 345.6 95.336412 
L 345.6 95.336412 
L 345.6 95.336412 
L 345.6 95.336412 
L 345.6 95.336412 
L 345.6 95.336412 
L 345.6 95.336412 
L 345.6 95.336412 
L 345.6 95.336412 
L 345.6 95.336412 
L 345.6 95.336412 
L 345.6 95.336412 
L 345.6 95.336412 
L 345.6 95.336412 
L 345.6 95.336412 
L 345.6 95.336412 
L 345.6 95.336412 
L 345.6 95.336412 
L 345.6 95.336412 
L 345.6 95.336412 
L 345.6 95.336412 
" style="fill:none;stroke:#000000;stroke-dasharray:0.925,0.4;stroke-dashoffset:0;stroke-width:0.25;"/>
   </g>
   <g id="line2d_41">
    <path clip-path="url(#pa4cf46c5c0)" d="M 239.225978 288 
L 239.225978 266.4 
" style="fill:none;stroke:#000000;stroke-linecap:square;stroke-width:0.25;"/>
   </g>
   <g id="line2d_42">
    <path d="M 86.4 257.729816 
L 91.689796 254.655916 
L 96.979592 251.385901 
L 102.269388 247.921022 
L 107.559184 244.264195 
L 112.84898 240.420057 
L 118.138776 236.395005 
L 123.428571 232.197199 
L 128.718367 227.836549 
L 134.008163 223.324661 
L 139.297959 218.674763 
L 144.587755 213.901595 
L 149.877551 209.021276 
L 155.167347 204.051145 
L 160.457143 199.009579 
L 165.746939 193.915786 
L 171.036735 188.789589 
L 176.326531 183.651195 
L 181.616327 178.520955 
L 186.906122 173.419124 
L 192.195918 168.365621 
L 197.485714 163.379795 
L 202.77551 158.480202 
L 208.065306 153.684404 
L 213.355102 149.008777 
L 218.644898 144.468346 
L 223.934694 140.076648 
L 229.22449 135.845621 
L 234.514286 131.785515 
L 239.804082 127.904841 
L 245.093878 124.210347 
L 250.383673 120.707018 
L 255.673469 117.398107 
L 260.963265 114.285191 
L 266.253061 111.36825 
L 271.542857 108.645761 
L 276.832653 106.114815 
L 282.122449 103.771247 
L 287.412245 101.60977 
L 292.702041 99.624125 
L 297.991837 97.807226 
L 303.281633 96.151311 
L 308.571429 94.648088 
L 313.861224 93.288876 
L 319.15102 92.064742 
L 324.440816 90.966625 
L 329.730612 89.98545 
L 335.020408 89.112232 
L 340.310204 88.338168 
L 345.6 87.654714 
" style="fill:none;stroke:#000000;stroke-linecap:square;stroke-width:0.25;"/>
   </g>
   <g id="line2d_43">
    <path d="M 86.4 257.729816 
L 86.4 257.729816 
L 86.4 257.729816 
L 86.4 257.729816 
L 86.4 257.729816 
L 86.4 257.729816 
L 86.4 257.729816 
L 86.4 257.729816 
L 86.4 257.729816 
L 86.4 257.729816 
L 86.4 257.729816 
L 86.4 257.729816 
L 86.4 257.729816 
L 86.4 257.729816 
L 86.4 257.729816 
L 86.4 257.729816 
L 86.4 257.729816 
L 86.4 257.729816 
L 86.4 257.729816 
L 86.4 257.729816 
L 86.4 257.729816 
L 86.4 257.729816 
L 86.4 257.729816 
L 86.4 257.729816 
L 86.4 257.729816 
L 86.4 257.729816 
L 86.4 257.729816 
L 86.4 257.729816 
L 86.4 257.729816 
L 86.4 257.729816 
L 86.4 257.729816 
L 86.4 257.729816 
L 86.4 257.729816 
L 86.4 257.729816 
L 86.4 257.729816 
L 86.4 257.729816 
L 86.4 257.729816 
L 86.4 257.729816 
L 86.4 257.729816 
L 86.4 257.729816 
L 86.4 257.729816 
L 86.4 257.729816 
L 86.4 257.729816 
L 86.4 257.729816 
L 86.4 257.729816 
L 86.4 257.729816 
L 86.4 257.729816 
L 86.4 257.729816 
L 86.4 257.729816 
L 86.4 257.729816 
L 86.4 257.729816 
L 86.4 257.729816 
L 86.4 257.729816 
L 86.4 257.729816 
L 86.4 257.729816 
L 86.4 257.729816 
L 86.4 257.729816 
L 86.4 257.729816 
L 86.4 257.729816 
L 86.4 257.729816 
L 86.4 257.729816 
L 86.4 257.729816 
L 86.4 257.729816 
L 86.4 257.729816 
L 86.4 257.729816 
L 86.4 257.729816 
L 86.4 257.729816 
L 86.4 257.729816 
L 86.4 257.729816 
L 86.4 257.729816 
L 86.4 257.729816 
L 86.4 257.729816 
L 86.4 257.729816 
L 86.4 257.729816 
L 86.4 257.729816 
L 86.4 257.729816 
L 86.4 257.729816 
L 86.4 257.729816 
L 86.4 257.729816 
L 86.4 257.729816 
L 86.4 257.729816 
L 86.4 257.729816 
L 86.4 257.729816 
L 86.4 257.729816 
L 86.4 257.729816 
L 86.4 257.729816 
L 86.4 257.729816 
L 86.4 257.729816 
L 86.4 257.729816 
L 86.4 257.729816 
L 86.4 257.729816 
L 86.4 257.729816 
L 86.4 257.729816 
L 86.4 257.729816 
L 86.4 257.729816 
L 86.4 257.729816 
L 86.4 257.729816 
L 86.4 257.729816 
L 86.4 257.729816 
L 86.4 257.729816 
" style="fill:none;stroke:#000000;stroke-dasharray:0.925,0.4;stroke-dashoffset:0;stroke-width:0.25;"/>
   </g>
   <g id="line2d_44">
    <path d="M 345.6 87.654714 
L 345.6 87.654714 
L 345.6 87.654714 
L 345.6 87.654714 
L 345.6 87.654714 
L 345.6 87.654714 
L 345.6 87.654714 
L 345.6 87.654714 
L 345.6 87.654714 
L 345.6 87.654714 
L 345.6 87.654714 
L 345.6 87.654714 
L 345.6 87.654714 
L 345.6 87.654714 
L 345.6 87.654714 
L 345.6 87.654714 
L 345.6 87.654714 
L 345.6 87.654714 
L 345.6 87.654714 
L 345.6 87.654714 
L 345.6 87.654714 
L 345.6 87.654714 
L 345.6 87.654714 
L 345.6 87.654714 
L 345.6 87.654714 
L 345.6 87.654714 
L 345.6 87.654714 
L 345.6 87.654714 
L 345.6 87.654714 
L 345.6 87.654714 
L 345.6 87.654714 
L 345.6 87.654714 
L 345.6 87.654714 
L 345.6 87.654714 
L 345.6 87.654714 
L 345.6 87.654714 
L 345.6 87.654714 
L 345.6 87.654714 
L 345.6 87.654714 
L 345.6 87.654714 
L 345.6 87.654714 
L 345.6 87.654714 
L 345.6 87.654714 
L 345.6 87.654714 
L 345.6 87.654714 
L 345.6 87.654714 
L 345.6 87.654714 
L 345.6 87.654714 
L 345.6 87.654714 
L 345.6 87.654714 
L 345.6 87.654714 
L 345.6 87.654714 
L 345.6 87.654714 
L 345.6 87.654714 
L 345.6 87.654714 
L 345.6 87.654714 
L 345.6 87.654714 
L 345.6 87.654714 
L 345.6 87.654714 
L 345.6 87.654714 
L 345.6 87.654714 
L 345.6 87.654714 
L 345.6 87.654714 
L 345.6 87.654714 
L 345.6 87.654714 
L 345.6 87.654714 
L 345.6 87.654714 
L 345.6 87.654714 
L 345.6 87.654714 
L 345.6 87.654714 
L 345.6 87.654714 
L 345.6 87.654714 
L 345.6 87.654714 
L 345.6 87.654714 
L 345.6 87.654714 
L 345.6 87.654714 
L 345.6 87.654714 
L 345.6 87.654714 
L 345.6 87.654714 
L 345.6 87.654714 
L 345.6 87.654714 
L 345.6 87.654714 
L 345.6 87.654714 
L 345.6 87.654714 
L 345.6 87.654714 
L 345.6 87.654714 
L 345.6 87.654714 
L 345.6 87.654714 
L 345.6 87.654714 
L 345.6 87.654714 
L 345.6 87.654714 
L 345.6 87.654714 
L 345.6 87.654714 
L 345.6 87.654714 
L 345.6 87.654714 
L 345.6 87.654714 
L 345.6 87.654714 
L 345.6 87.654714 
L 345.6 87.654714 
L 345.6 87.654714 
" style="fill:none;stroke:#000000;stroke-dasharray:0.925,0.4;stroke-dashoffset:0;stroke-width:0.25;"/>
   </g>
   <g id="line2d_45">
    <path clip-path="url(#pa4cf46c5c0)" d="M 174.207506 288 
L 174.207506 266.4 
" style="fill:none;stroke:#000000;stroke-linecap:square;stroke-width:0.25;"/>
   </g>
   <g id="line2d_46">
    <path d="M 86.4 281.004911 
L 91.689796 280.482744 
L 96.979592 279.822909 
L 102.269388 278.997756 
L 107.559184 277.976567 
L 112.84898 276.725873 
L 118.138776 275.209982 
L 123.428571 273.391712 
L 128.718367 271.233367 
L 134.008163 268.697908 
L 139.297959 265.750334 
L 144.587755 262.359194 
L 149.877551 258.498196 
L 155.167347 254.147828 
L 160.457143 249.296895 
L 165.746939 243.943895 
L 171.036735 238.098122 
L 176.326531 231.780415 
L 181.616327 225.02348 
L 186.906122 217.871724 
L 192.195918 210.380575 
L 197.485714 202.615299 
L 202.77551 194.649338 
L 208.065306 186.562251 
L 213.355102 178.437336 
L 218.644898 170.359066 
L 223.934694 162.410468 
L 229.22449 154.670565 
L 234.514286 147.212035 
L 239.804082 140.099184 
L 245.093878 133.386334 
L 250.383673 127.116689 
L 255.673469 121.321714 
L 260.963265 116.021015 
L 266.253061 111.222717 
L 271.542857 106.924243 
L 276.832653 103.113462 
L 282.122449 99.770077 
L 287.412245 96.867181 
L 292.702041 94.372876 
L 297.991837 92.251878 
L 303.281633 90.46702 
L 308.571429 88.980606 
L 313.861224 87.75557 
L 319.15102 86.756421 
L 324.440816 85.949958 
L 329.730612 85.305771 
L 335.020408 84.796543 
L 340.310204 84.398175 
L 345.6 84.089764 
" style="fill:none;stroke:#000000;stroke-linecap:square;stroke-width:0.25;"/>
   </g>
   <g id="line2d_47">
    <path d="M 86.4 281.004911 
L 86.4 281.004911 
L 86.4 281.004911 
L 86.4 281.004911 
L 86.4 281.004911 
L 86.4 281.004911 
L 86.4 281.004911 
L 86.4 281.004911 
L 86.4 281.004911 
L 86.4 281.004911 
L 86.4 281.004911 
L 86.4 281.004911 
L 86.4 281.004911 
L 86.4 281.004911 
L 86.4 281.004911 
L 86.4 281.004911 
L 86.4 281.004911 
L 86.4 281.004911 
L 86.4 281.004911 
L 86.4 281.004911 
L 86.4 281.004911 
L 86.4 281.004911 
L 86.4 281.004911 
L 86.4 281.004911 
L 86.4 281.004911 
L 86.4 281.004911 
L 86.4 281.004911 
L 86.4 281.004911 
L 86.4 281.004911 
L 86.4 281.004911 
L 86.4 281.004911 
L 86.4 281.004911 
L 86.4 281.004911 
L 86.4 281.004911 
L 86.4 281.004911 
L 86.4 281.004911 
L 86.4 281.004911 
L 86.4 281.004911 
L 86.4 281.004911 
L 86.4 281.004911 
L 86.4 281.004911 
L 86.4 281.004911 
L 86.4 281.004911 
L 86.4 281.004911 
L 86.4 281.004911 
L 86.4 281.004911 
L 86.4 281.004911 
L 86.4 281.004911 
L 86.4 281.004911 
L 86.4 281.004911 
L 86.4 281.004911 
L 86.4 281.004911 
L 86.4 281.004911 
L 86.4 281.004911 
L 86.4 281.004911 
L 86.4 281.004911 
L 86.4 281.004911 
L 86.4 281.004911 
L 86.4 281.004911 
L 86.4 281.004911 
L 86.4 281.004911 
L 86.4 281.004911 
L 86.4 281.004911 
L 86.4 281.004911 
L 86.4 281.004911 
L 86.4 281.004911 
L 86.4 281.004911 
L 86.4 281.004911 
L 86.4 281.004911 
L 86.4 281.004911 
L 86.4 281.004911 
L 86.4 281.004911 
L 86.4 281.004911 
L 86.4 281.004911 
L 86.4 281.004911 
L 86.4 281.004911 
L 86.4 281.004911 
L 86.4 281.004911 
L 86.4 281.004911 
L 86.4 281.004911 
L 86.4 281.004911 
L 86.4 281.004911 
L 86.4 281.004911 
L 86.4 281.004911 
L 86.4 281.004911 
L 86.4 281.004911 
L 86.4 281.004911 
L 86.4 281.004911 
L 86.4 281.004911 
L 86.4 281.004911 
L 86.4 281.004911 
L 86.4 281.004911 
L 86.4 281.004911 
L 86.4 281.004911 
L 86.4 281.004911 
L 86.4 281.004911 
L 86.4 281.004911 
L 86.4 281.004911 
L 86.4 281.004911 
L 86.4 281.004911 
" style="fill:none;stroke:#000000;stroke-dasharray:0.925,0.4;stroke-dashoffset:0;stroke-width:0.25;"/>
   </g>
   <g id="line2d_48">
    <path d="M 345.6 84.089764 
L 345.6 84.089764 
L 345.6 84.089764 
L 345.6 84.089764 
L 345.6 84.089764 
L 345.6 84.089764 
L 345.6 84.089764 
L 345.6 84.089764 
L 345.6 84.089764 
L 345.6 84.089764 
L 345.6 84.089764 
L 345.6 84.089764 
L 345.6 84.089764 
L 345.6 84.089764 
L 345.6 84.089764 
L 345.6 84.089764 
L 345.6 84.089764 
L 345.6 84.089764 
L 345.6 84.089764 
L 345.6 84.089764 
L 345.6 84.089764 
L 345.6 84.089764 
L 345.6 84.089764 
L 345.6 84.089764 
L 345.6 84.089764 
L 345.6 84.089764 
L 345.6 84.089764 
L 345.6 84.089764 
L 345.6 84.089764 
L 345.6 84.089764 
L 345.6 84.089764 
L 345.6 84.089764 
L 345.6 84.089764 
L 345.6 84.089764 
L 345.6 84.089764 
L 345.6 84.089764 
L 345.6 84.089764 
L 345.6 84.089764 
L 345.6 84.089764 
L 345.6 84.089764 
L 345.6 84.089764 
L 345.6 84.089764 
L 345.6 84.089764 
L 345.6 84.089764 
L 345.6 84.089764 
L 345.6 84.089764 
L 345.6 84.089764 
L 345.6 84.089764 
L 345.6 84.089764 
L 345.6 84.089764 
L 345.6 84.089764 
L 345.6 84.089764 
L 345.6 84.089764 
L 345.6 84.089764 
L 345.6 84.089764 
L 345.6 84.089764 
L 345.6 84.089764 
L 345.6 84.089764 
L 345.6 84.089764 
L 345.6 84.089764 
L 345.6 84.089764 
L 345.6 84.089764 
L 345.6 84.089764 
L 345.6 84.089764 
L 345.6 84.089764 
L 345.6 84.089764 
L 345.6 84.089764 
L 345.6 84.089764 
L 345.6 84.089764 
L 345.6 84.089764 
L 345.6 84.089764 
L 345.6 84.089764 
L 345.6 84.089764 
L 345.6 84.089764 
L 345.6 84.089764 
L 345.6 84.089764 
L 345.6 84.089764 
L 345.6 84.089764 
L 345.6 84.089764 
L 345.6 84.089764 
L 345.6 84.089764 
L 345.6 84.089764 
L 345.6 84.089764 
L 345.6 84.089764 
L 345.6 84.089764 
L 345.6 84.089764 
L 345.6 84.089764 
L 345.6 84.089764 
L 345.6 84.089764 
L 345.6 84.089764 
L 345.6 84.089764 
L 345.6 84.089764 
L 345.6 84.089764 
L 345.6 84.089764 
L 345.6 84.089764 
L 345.6 84.089764 
L 345.6 84.089764 
L 345.6 84.089764 
L 345.6 84.089764 
L 345.6 84.089764 
" style="fill:none;stroke:#000000;stroke-dasharray:0.925,0.4;stroke-dashoffset:0;stroke-width:0.25;"/>
   </g>
   <g id="line2d_49">
    <path clip-path="url(#pa4cf46c5c0)" d="M 210.433404 288 
L 210.433404 266.4 
" style="fill:none;stroke:#000000;stroke-linecap:square;stroke-width:0.25;"/>
   </g>
   <g id="line2d_50">
    <path clip-path="url(#pa4cf46c5c0)" d="M 86.4 258.554061 
L 91.689796 257.864118 
L 96.979592 257.095387 
L 102.269388 256.24078 
L 107.559184 255.292903 
L 112.84898 254.2441 
L 118.138776 253.086501 
L 123.428571 251.812066 
L 128.718367 250.41262 
L 134.008163 248.879872 
L 139.297959 247.205397 
L 144.587755 245.380585 
L 149.877551 243.39656 
L 155.167347 241.244059 
L 160.457143 238.913316 
L 165.746939 236.393971 
L 171.036735 233.675071 
L 176.326531 230.745216 
L 181.616327 227.592928 
L 186.906122 224.20728 
L 192.195918 220.578821 
L 197.485714 216.700769 
L 202.77551 212.570379 
L 208.065306 208.190367 
L 213.355102 203.570179 
L 218.644898 198.726919 
L 223.934694 193.685727 
L 229.22449 188.479489 
L 234.514286 183.147812 
L 239.804082 177.735338 
L 245.093878 172.289556 
L 250.383673 166.858359 
L 255.673469 161.487637 
L 260.963265 156.219169 
L 266.253061 151.089047 
L 271.542857 146.126744 
L 276.832653 141.354855 
L 282.122449 136.789418 
L 287.412245 132.440686 
L 292.702041 128.314137 
L 297.991837 124.411572 
L 303.281633 120.732119 
L 308.571429 117.273067 
L 313.861224 114.03047 
L 319.15102 110.999538 
L 324.440816 108.174836 
L 329.730612 105.550368 
L 335.020408 103.119578 
L 340.310204 100.875341 
L 345.6 98.809966 
" style="fill:none;stroke:#000000;stroke-linecap:square;stroke-width:2;"/>
   </g>
   <g id="line2d_51">
    <path clip-path="url(#pa4cf46c5c0)" d="M 246.067474 288 
L 246.067474 266.4 
" style="fill:none;stroke:#000000;stroke-linecap:square;stroke-width:2;"/>
   </g>
   <g id="patch_3">
    <path d="M 76.4 288 
L 76.4 72 
" style="fill:none;stroke:#000000;stroke-linecap:square;stroke-linejoin:miter;stroke-width:0.25;"/>
   </g>
   <g id="patch_4">
    <path d="M 86.4 298 
L 345.6 298 
" style="fill:none;stroke:#000000;stroke-linecap:square;stroke-linejoin:miter;stroke-width:0.25;"/>
   </g>
  </g>
  <g id="text_12">
   <text style="font-family:DejaVu Sans;font-size:16px;font-stretch:normal;font-style:normal;font-weight:normal;text-anchor:start;" transform="rotate(-0, 4.32, 18)" x="4.32" y="18">Fit gauss (criterion=0.70)</text>
  </g>
 </g>
 <defs>
  <clipPath id="pa4cf46c5c0">
   <rect height="216" width="259.2" x="86.4" y="72"/>
  </clipPath>
 </defs>
</svg>
