<?xml version="1.0" encoding="utf-8"?>
<!-- Generator: Adobe Illustrator 26.5.1, SVG Export Plug-In . SVG Version: 6.00 Build 0)  -->
<svg version="1.1" id="Layer_1" xmlns="http://www.w3.org/2000/svg" xmlns:xlink="http://www.w3.org/1999/xlink" x="0px" y="0px"
	 viewBox="0 0 288 288" style="enable-background:new 0 0 288 288;" xml:space="preserve">
<style type="text/css">
	.st0{fill:#FFFFFF;}
	.st1{clip-path:url(#SVGID_00000065770223958360870340000012200440009529735829_);fill:#CCCCCC;}
	.st2{clip-path:url(#SVGID_00000154414638299678390570000015011709889202153132_);fill:#CCCCCC;}
	.st3{clip-path:url(#SVGID_00000075158287300262410530000002844520993532587930_);fill:#CCCCCC;}
	.st4{font-family:'ArialMT';}
	.st5{font-size:8px;}
	.st6{stroke:#000000;stroke-width:0.25;stroke-linejoin:round;}
	.st7{font-size:6px;}
	.st8{fill:none;stroke:#000000;stroke-width:0.25;stroke-linecap:square;}
	.st9{clip-path:url(#SVGID_00000153671823608656274310000016277844972875463829_);}
	.st10{fill:#666666;}
	.st11{clip-path:url(#SVGID_00000098188507610049089110000001985153444395937701_);}
	.st12{clip-path:url(#SVGID_00000164509883380999912830000008855528557869220238_);}
	.st13{clip-path:url(#SVGID_00000163785223001926010610000014761143244945641102_);}
	.st14{clip-path:url(#SVGID_00000093898467382182253410000013369288419980102034_);}
	.st15{clip-path:url(#SVGID_00000030457363468529406950000003707783768578595737_);}
	.st16{clip-path:url(#SVGID_00000108304296290927281120000003071376199466888580_);}
	.st17{clip-path:url(#SVGID_00000030475557424732033440000017057406428648854171_);}
	.st18{clip-path:url(#SVGID_00000068672880570122903290000008749891755236708017_);}
	.st19{clip-path:url(#SVGID_00000041271559722172470170000004020359868650268553_);}
	.st20{clip-path:url(#SVGID_00000119837927895289527580000016376173371966165936_);}
	.st21{clip-path:url(#SVGID_00000003081031933145485370000000568327972372474024_);}
	.st22{clip-path:url(#SVGID_00000012438549139894492220000004908048855537856942_);}
	.st23{clip-path:url(#SVGID_00000039816400995036512670000003463856675372773816_);}
	.st24{fill:#800080;}
	.st25{clip-path:url(#SVGID_00000085224583603987433920000001616412283218789803_);}
	.st26{clip-path:url(#SVGID_00000167394329749149397870000007106760691376165805_);}
	.st27{clip-path:url(#SVGID_00000090279358722269852120000013034847629230986900_);}
	.st28{clip-path:url(#SVGID_00000170991983185451829560000003898858583500134314_);}
	.st29{clip-path:url(#SVGID_00000022558553255003480270000009072881478233855119_);}
	.st30{clip-path:url(#SVGID_00000078744890134955366390000014277730451960151987_);}
	.st31{clip-path:url(#SVGID_00000032647132337221053780000000276856043076065966_);}
	.st32{clip-path:url(#SVGID_00000085959054317692033620000014577245178899294593_);}
	.st33{clip-path:url(#SVGID_00000136396425640142139200000014625216440796560784_);}
	.st34{clip-path:url(#SVGID_00000072264337497456954450000012347210961848538548_);}
	.st35{clip-path:url(#SVGID_00000069359643570675605680000005631261660504994730_);}
	.st36{clip-path:url(#SVGID_00000142156550517402973730000006565049007834385081_);}
	.st37{clip-path:url(#SVGID_00000162336678255971812190000009170068680261659779_);}
	.st38{fill:#006400;}
	.st39{clip-path:url(#SVGID_00000183932754710701100630000014633085976221617827_);}
	.st40{clip-path:url(#SVGID_00000151543231454887473530000003370828901616753560_);}
	.st41{clip-path:url(#SVGID_00000043417535734387441780000007855056735119800497_);}
	.st42{clip-path:url(#SVGID_00000070822599772805363150000016346070186357826491_);}
	.st43{clip-path:url(#SVGID_00000029033868358456455750000005942043449661357219_);}
	.st44{clip-path:url(#SVGID_00000175284202724700048750000018129542348449762723_);}
	.st45{clip-path:url(#SVGID_00000159459941876816188690000008762113499960180404_);}
	.st46{clip-path:url(#SVGID_00000076595296650790059050000001705820622241666493_);}
	.st47{clip-path:url(#SVGID_00000134241871538461740210000001428498162033909686_);}
	.st48{clip-path:url(#SVGID_00000018202607601960066000000006481375560831504003_);}
	.st49{clip-path:url(#SVGID_00000034804573112602311990000008469383123553006004_);}
	.st50{clip-path:url(#SVGID_00000084506075782062449030000012053146914612584343_);}
	.st51{fill:#666666;stroke:#666666;stroke-linejoin:round;}
	.st52{fill:#800080;stroke:#800080;stroke-linejoin:round;}
	.st53{fill:#006400;stroke:#006400;stroke-linejoin:round;}
	.st54{font-size:10px;}
</style>
<g id="figure_1">
	<g id="axes_1">
		<g id="patch_2">
			<path class="st0" d="M115.7,256.3h63.7V86.4h-63.7V256.3z"/>
		</g>
		<g id="patch_3">
			<g>
				<defs>
					<rect id="SVGID_1_" x="115.7" y="86.4" width="63.7" height="169.9"/>
				</defs>
				<clipPath id="SVGID_00000032617004994023195900000013228681931231636408_">
					<use xlink:href="#SVGID_1_"  style="overflow:visible;"/>
				</clipPath>
				<path style="clip-path:url(#SVGID_00000032617004994023195900000013228681931231636408_);fill:#CCCCCC;" d="M117.9,256.3h17V124
					h-17V256.3z"/>
			</g>
		</g>
		<g id="patch_4">
			<g>
				<defs>
					<rect id="SVGID_00000051360428221724458540000004576792671961421972_" x="115.7" y="86.4" width="63.7" height="169.9"/>
				</defs>
				<clipPath id="SVGID_00000155840762958208453250000014554333454358512544_">
					<use xlink:href="#SVGID_00000051360428221724458540000004576792671961421972_"  style="overflow:visible;"/>
				</clipPath>
				<path style="clip-path:url(#SVGID_00000155840762958208453250000014554333454358512544_);fill:#CCCCCC;" d="M139.1,256.3h17
					V130.5h-17V256.3z"/>
			</g>
		</g>
		<g id="patch_5">
			<g>
				<defs>
					<rect id="SVGID_00000126300998023596047030000002041877374522137491_" x="115.7" y="86.4" width="63.7" height="169.9"/>
				</defs>
				<clipPath id="SVGID_00000160166765644284820880000014573041115980136323_">
					<use xlink:href="#SVGID_00000126300998023596047030000002041877374522137491_"  style="overflow:visible;"/>
				</clipPath>
				<path style="clip-path:url(#SVGID_00000160166765644284820880000014573041115980136323_);fill:#CCCCCC;" d="M160.3,256.3h17
					V130.1h-17V256.3z"/>
			</g>
		</g>
		<g id="PathCollection_1">
		</g>
		<g id="PathCollection_2">
		</g>
		<g id="PathCollection_3">
		</g>
		<g id="matplotlib.axis_1">
			<g id="xtick_1">
				<g id="line2d_1">
				</g>
			</g>
			<g id="xtick_2">
				<g id="line2d_2">
				</g>
			</g>
			<g id="xtick_3">
				<g id="line2d_3">
				</g>
			</g>
			<g id="text_1">
				<text transform="matrix(1 0 0 1 114.2426 269.8987)" class="st4 st5">feedback condition</text>
			</g>
		</g>
		<g id="matplotlib.axis_2">
			<g id="ytick_1">
				<g id="line2d_4">
					<g>
						<g>
							<path id="mfcdc338006" class="st6" d="M115.7,256.3h-3.5"/>
						</g>
					</g>
				</g>
				<g id="text_2">
					<text transform="matrix(1 0 0 1 100.3992 258.5995)" class="st4 st7">0.0</text>
				</g>
			</g>
			<g id="ytick_2">
				<g id="line2d_5">
					<g>
						<g>
							<path id="mfcdc338006_00000013906222546191829040000005460145601410778768_" class="st6" d="M115.7,222.3h-3.5"/>
						</g>
					</g>
				</g>
				<g id="text_3">
					<text transform="matrix(1 0 0 1 100.3992 224.6155)" class="st4 st7">0.2</text>
				</g>
			</g>
			<g id="ytick_3">
				<g id="line2d_6">
					<g>
						<g>
							<path id="mfcdc338006_00000145753845584565670860000007603296688786524803_" class="st6" d="M115.7,188.4h-3.5"/>
						</g>
					</g>
				</g>
				<g id="text_4">
					<text transform="matrix(1 0 0 1 100.3992 190.6315)" class="st4 st7">0.4</text>
				</g>
			</g>
			<g id="ytick_4">
				<g id="line2d_7">
					<g>
						<g>
							<path id="mfcdc338006_00000047767789698852443120000003666662424395545787_" class="st6" d="M115.7,154.4h-3.5"/>
						</g>
					</g>
				</g>
				<g id="text_5">
					<text transform="matrix(1 0 0 1 100.3992 156.6475)" class="st4 st7">0.6</text>
				</g>
			</g>
			<g id="ytick_5">
				<g id="line2d_8">
					<g>
						<g>
							<path id="mfcdc338006_00000029006857087100766190000003798076551035270040_" class="st6" d="M115.7,120.4h-3.5"/>
						</g>
					</g>
				</g>
				<g id="text_6">
					<text transform="matrix(1 0 0 1 100.3992 122.6635)" class="st4 st7">0.8</text>
				</g>
			</g>
			<g id="ytick_6">
				<g id="line2d_9">
					<g>
						<g>
							<path id="mfcdc338006_00000115513065042918283340000008546106734268889489_" class="st6" d="M115.7,86.4h-3.5"/>
						</g>
					</g>
				</g>
				<g id="text_7">
					<text transform="matrix(1 0 0 1 100.3992 88.6795)" class="st4 st7">1.0</text>
				</g>
			</g>
			<g id="text_8">
				<text transform="matrix(6.123234e-17 -1 1 6.123234e-17 93.5344 198.0381)" class="st4 st5">percent correct</text>
			</g>
		</g>
		<g id="patch_6">
			<path class="st8" d="M115.7,256.3V86.4"/>
		</g>
		<g id="PathCollection_4">
			<g>
				<defs>
					<rect id="SVGID_00000137838251372664493680000013410549361417085106_" x="115.7" y="86.4" width="63.7" height="169.9"/>
				</defs>
				<clipPath id="SVGID_00000050636715317484565550000004443163587558696594_">
					<use xlink:href="#SVGID_00000137838251372664493680000013410549361417085106_"  style="overflow:visible;"/>
				</clipPath>
				<g style="clip-path:url(#SVGID_00000050636715317484565550000004443163587558696594_);">
					<g>
						<path id="C0_0_0c0cceb0b3" class="st10" d="M126.4,126.3c0.7,0,1.3-0.3,1.8-0.7c0.5-0.5,0.7-1.1,0.7-1.8s-0.3-1.3-0.7-1.8
							c-0.5-0.5-1.1-0.7-1.8-0.7s-1.3,0.3-1.8,0.7s-0.7,1.1-0.7,1.8s0.3,1.3,0.7,1.8S125.7,126.3,126.4,126.3z"/>
					</g>
				</g>
			</g>
			<g>
				<defs>
					<rect id="SVGID_00000084515276803306334160000016689775740036890502_" x="115.7" y="86.4" width="63.7" height="169.9"/>
				</defs>
				<clipPath id="SVGID_00000035521723769135456620000012693988278053848481_">
					<use xlink:href="#SVGID_00000084515276803306334160000016689775740036890502_"  style="overflow:visible;"/>
				</clipPath>
				<g style="clip-path:url(#SVGID_00000035521723769135456620000012693988278053848481_);">
					<g>
						<path id="C0_0_0c0cceb0b3_00000170971811070436448990000010604001866233554877_" class="st10" d="M126.4,122.7
							c0.7,0,1.3-0.3,1.8-0.7c0.5-0.5,0.7-1.1,0.7-1.8s-0.3-1.3-0.7-1.8c-0.5-0.5-1.1-0.7-1.8-0.7s-1.3,0.3-1.8,0.7
							s-0.7,1.1-0.7,1.8s0.3,1.3,0.7,1.8S125.7,122.7,126.4,122.7z"/>
					</g>
				</g>
			</g>
			<g>
				<defs>
					<rect id="SVGID_00000137843419275405430690000010815930194088908942_" x="115.7" y="86.4" width="63.7" height="169.9"/>
				</defs>
				<clipPath id="SVGID_00000006694724416529867150000005826623587576729240_">
					<use xlink:href="#SVGID_00000137843419275405430690000010815930194088908942_"  style="overflow:visible;"/>
				</clipPath>
				<g style="clip-path:url(#SVGID_00000006694724416529867150000005826623587576729240_);">
					<g>
						<path id="C0_0_0c0cceb0b3_00000150806438535422116430000006451948073273621934_" class="st10" d="M126.4,130.9
							c0.7,0,1.3-0.3,1.8-0.7c0.5-0.5,0.7-1.1,0.7-1.8s-0.3-1.3-0.7-1.8c-0.5-0.5-1.1-0.7-1.8-0.7s-1.3,0.3-1.8,0.7
							s-0.7,1.1-0.7,1.8s0.3,1.3,0.7,1.8C125.1,130.7,125.7,130.9,126.4,130.9z"/>
					</g>
				</g>
			</g>
			<g>
				<defs>
					<rect id="SVGID_00000093146663312803968630000013985282298081228957_" x="115.7" y="86.4" width="63.7" height="169.9"/>
				</defs>
				<clipPath id="SVGID_00000090980484073847990320000001050867002994912145_">
					<use xlink:href="#SVGID_00000093146663312803968630000013985282298081228957_"  style="overflow:visible;"/>
				</clipPath>
				<g style="clip-path:url(#SVGID_00000090980484073847990320000001050867002994912145_);">
					<g>
						<path id="C0_0_0c0cceb0b3_00000125585042247276559240000012798288273584157108_" class="st10" d="M126.4,123.4
							c0.7,0,1.3-0.3,1.8-0.7c0.5-0.5,0.7-1.1,0.7-1.8s-0.3-1.3-0.7-1.8c-0.5-0.5-1.1-0.7-1.8-0.7s-1.3,0.3-1.8,0.7
							s-0.7,1.1-0.7,1.8s0.3,1.3,0.7,1.8S125.7,123.4,126.4,123.4z"/>
					</g>
				</g>
			</g>
			<g>
				<defs>
					<rect id="SVGID_00000149349415267392965900000016810098759796506778_" x="115.7" y="86.4" width="63.7" height="169.9"/>
				</defs>
				<clipPath id="SVGID_00000093891610541905695290000005850721391242431916_">
					<use xlink:href="#SVGID_00000149349415267392965900000016810098759796506778_"  style="overflow:visible;"/>
				</clipPath>
				<g style="clip-path:url(#SVGID_00000093891610541905695290000005850721391242431916_);">
					<g>
						<path id="C0_0_0c0cceb0b3_00000153688856730443860690000004729189134631253430_" class="st10" d="M126.4,145.8
							c0.7,0,1.3-0.3,1.8-0.7c0.5-0.5,0.7-1.1,0.7-1.8s-0.3-1.3-0.7-1.8c-0.5-0.5-1.1-0.7-1.8-0.7s-1.3,0.3-1.8,0.7
							c-0.5,0.5-0.7,1.1-0.7,1.8s0.3,1.3,0.7,1.8C125.1,145.6,125.7,145.8,126.4,145.8z"/>
					</g>
				</g>
			</g>
			<g>
				<defs>
					<rect id="SVGID_00000087370813288179095420000009420386473110323628_" x="115.7" y="86.4" width="63.7" height="169.9"/>
				</defs>
				<clipPath id="SVGID_00000143602097306339176740000011980327828125570234_">
					<use xlink:href="#SVGID_00000087370813288179095420000009420386473110323628_"  style="overflow:visible;"/>
				</clipPath>
				<g style="clip-path:url(#SVGID_00000143602097306339176740000011980327828125570234_);">
					<g>
						<path id="C0_0_0c0cceb0b3_00000111153441715345770830000000032655898271969676_" class="st10" d="M126.4,111.3
							c0.7,0,1.3-0.3,1.8-0.7c0.5-0.5,0.7-1.1,0.7-1.8s-0.3-1.3-0.7-1.8c-0.5-0.5-1.1-0.7-1.8-0.7s-1.3,0.3-1.8,0.7
							s-0.7,1.1-0.7,1.8s0.3,1.3,0.7,1.8S125.7,111.3,126.4,111.3z"/>
					</g>
				</g>
			</g>
			<g>
				<defs>
					<rect id="SVGID_00000049909773836777520470000015663257575561993663_" x="115.7" y="86.4" width="63.7" height="169.9"/>
				</defs>
				<clipPath id="SVGID_00000015339140961568059810000012875147519053646244_">
					<use xlink:href="#SVGID_00000049909773836777520470000015663257575561993663_"  style="overflow:visible;"/>
				</clipPath>
				<g style="clip-path:url(#SVGID_00000015339140961568059810000012875147519053646244_);">
					<g>
						<path id="C0_0_0c0cceb0b3_00000071538955894487961290000013480283227136228750_" class="st10" d="M126.4,125.4
							c0.7,0,1.3-0.3,1.8-0.7c0.5-0.5,0.7-1.1,0.7-1.8s-0.3-1.3-0.7-1.8c-0.5-0.5-1.1-0.7-1.8-0.7s-1.3,0.3-1.8,0.7
							s-0.7,1.1-0.7,1.8s0.3,1.3,0.7,1.8S125.7,125.4,126.4,125.4z"/>
					</g>
				</g>
			</g>
			<g>
				<defs>
					<rect id="SVGID_00000108308166016557749580000009570509741285328772_" x="115.7" y="86.4" width="63.7" height="169.9"/>
				</defs>
				<clipPath id="SVGID_00000013162175950288420550000013921624888208301243_">
					<use xlink:href="#SVGID_00000108308166016557749580000009570509741285328772_"  style="overflow:visible;"/>
				</clipPath>
				<g style="clip-path:url(#SVGID_00000013162175950288420550000013921624888208301243_);">
					<g>
						<path id="C0_0_0c0cceb0b3_00000060750792351542121780000000004801600224696237_" class="st10" d="M126.4,142.8
							c0.7,0,1.3-0.3,1.8-0.7c0.5-0.5,0.7-1.1,0.7-1.8s-0.3-1.3-0.7-1.8c-0.5-0.5-1.1-0.7-1.8-0.7s-1.3,0.3-1.8,0.7
							c-0.5,0.5-0.7,1.1-0.7,1.8s0.3,1.3,0.7,1.8C125.1,142.5,125.7,142.8,126.4,142.8z"/>
					</g>
				</g>
			</g>
			<g>
				<defs>
					<rect id="SVGID_00000086652082290249641000000014196291304583369644_" x="115.7" y="86.4" width="63.7" height="169.9"/>
				</defs>
				<clipPath id="SVGID_00000035506864549598064110000000347153312686794412_">
					<use xlink:href="#SVGID_00000086652082290249641000000014196291304583369644_"  style="overflow:visible;"/>
				</clipPath>
				<g style="clip-path:url(#SVGID_00000035506864549598064110000000347153312686794412_);">
					<g>
						<path id="C0_0_0c0cceb0b3_00000058578132296631835830000017769719055121330065_" class="st10" d="M126.4,148.5
							c0.7,0,1.3-0.3,1.8-0.7c0.5-0.5,0.7-1.1,0.7-1.8s-0.3-1.3-0.7-1.8c-0.5-0.5-1.1-0.7-1.8-0.7s-1.3,0.3-1.8,0.7
							c-0.5,0.5-0.7,1.1-0.7,1.8s0.3,1.3,0.7,1.8C125.1,148.2,125.7,148.5,126.4,148.5z"/>
					</g>
				</g>
			</g>
			<g>
				<defs>
					<rect id="SVGID_00000140003460252164491740000016539826703878042797_" x="115.7" y="86.4" width="63.7" height="169.9"/>
				</defs>
				<clipPath id="SVGID_00000003092994336782027640000006472567070812925586_">
					<use xlink:href="#SVGID_00000140003460252164491740000016539826703878042797_"  style="overflow:visible;"/>
				</clipPath>
				<g style="clip-path:url(#SVGID_00000003092994336782027640000006472567070812925586_);">
					<g>
						<path id="C0_0_0c0cceb0b3_00000060023427637522657990000009996593228581000097_" class="st10" d="M126.4,112.6
							c0.7,0,1.3-0.3,1.8-0.7c0.5-0.5,0.7-1.1,0.7-1.8s-0.3-1.3-0.7-1.8c-0.5-0.5-1.1-0.7-1.8-0.7s-1.3,0.3-1.8,0.7
							s-0.7,1.1-0.7,1.8s0.3,1.3,0.7,1.8S125.7,112.6,126.4,112.6z"/>
					</g>
				</g>
			</g>
			<g>
				<defs>
					<rect id="SVGID_00000008150515406816898250000017432738528040410553_" x="115.7" y="86.4" width="63.7" height="169.9"/>
				</defs>
				<clipPath id="SVGID_00000011017733829800952510000012185304715573902723_">
					<use xlink:href="#SVGID_00000008150515406816898250000017432738528040410553_"  style="overflow:visible;"/>
				</clipPath>
				<g style="clip-path:url(#SVGID_00000011017733829800952510000012185304715573902723_);">
					<g>
						<path id="C0_0_0c0cceb0b3_00000024680771267720624500000015894481837802626480_" class="st10" d="M126.4,126.4
							c0.7,0,1.3-0.3,1.8-0.7c0.5-0.5,0.7-1.1,0.7-1.8s-0.3-1.3-0.7-1.8c-0.5-0.5-1.1-0.7-1.8-0.7s-1.3,0.3-1.8,0.7
							s-0.7,1.1-0.7,1.8s0.3,1.3,0.7,1.8S125.7,126.4,126.4,126.4z"/>
					</g>
				</g>
			</g>
			<g>
				<defs>
					<rect id="SVGID_00000098208799043064406230000004298916623164895671_" x="115.7" y="86.4" width="63.7" height="169.9"/>
				</defs>
				<clipPath id="SVGID_00000125598843250695547340000006093774443274459576_">
					<use xlink:href="#SVGID_00000098208799043064406230000004298916623164895671_"  style="overflow:visible;"/>
				</clipPath>
				<g style="clip-path:url(#SVGID_00000125598843250695547340000006093774443274459576_);">
					<g>
						<path id="C0_0_0c0cceb0b3_00000070091379428824023950000016007648199705433016_" class="st10" d="M126.4,117.6
							c0.7,0,1.3-0.3,1.8-0.7c0.5-0.5,0.7-1.1,0.7-1.8s-0.3-1.3-0.7-1.8c-0.5-0.5-1.1-0.7-1.8-0.7s-1.3,0.3-1.8,0.7
							s-0.7,1.1-0.7,1.8s0.3,1.3,0.7,1.8S125.7,117.6,126.4,117.6z"/>
					</g>
				</g>
			</g>
			<g>
				<defs>
					<rect id="SVGID_00000124860768346537572390000010124685694002804136_" x="115.7" y="86.4" width="63.7" height="169.9"/>
				</defs>
				<clipPath id="SVGID_00000074407837860499210960000012714832257293118633_">
					<use xlink:href="#SVGID_00000124860768346537572390000010124685694002804136_"  style="overflow:visible;"/>
				</clipPath>
				<g style="clip-path:url(#SVGID_00000074407837860499210960000012714832257293118633_);">
					<g>
						<path id="C0_0_0c0cceb0b3_00000117674730663065833580000007171636746008089786_" class="st10" d="M126.4,110.8
							c0.7,0,1.3-0.3,1.8-0.7c0.5-0.5,0.7-1.1,0.7-1.8s-0.3-1.3-0.7-1.8c-0.5-0.5-1.1-0.7-1.8-0.7s-1.3,0.3-1.8,0.7
							s-0.7,1.1-0.7,1.8s0.3,1.3,0.7,1.8S125.7,110.8,126.4,110.8z"/>
					</g>
				</g>
			</g>
		</g>
		<g id="PathCollection_5">
			<g>
				<defs>
					<rect id="SVGID_00000052796007578069886430000010125571033922898560_" x="115.7" y="86.4" width="63.7" height="169.9"/>
				</defs>
				<clipPath id="SVGID_00000039126755099922792230000015359453106092007586_">
					<use xlink:href="#SVGID_00000052796007578069886430000010125571033922898560_"  style="overflow:visible;"/>
				</clipPath>
				<g style="clip-path:url(#SVGID_00000039126755099922792230000015359453106092007586_);">
					<g>
						<path id="C1_0_447bda65b5" class="st24" d="M147.6,139.3c0.7,0,1.3-0.3,1.8-0.7c0.5-0.5,0.7-1.1,0.7-1.8s-0.3-1.3-0.7-1.8
							c-0.5-0.5-1.1-0.7-1.8-0.7s-1.3,0.3-1.8,0.7c-0.5,0.5-0.7,1.1-0.7,1.8s0.3,1.3,0.7,1.8C146.3,139,146.9,139.3,147.6,139.3z"/>
					</g>
				</g>
			</g>
			<g>
				<defs>
					<rect id="SVGID_00000131340189729405205980000012730822448977011132_" x="115.7" y="86.4" width="63.7" height="169.9"/>
				</defs>
				<clipPath id="SVGID_00000084515048390603340040000011863038528265819050_">
					<use xlink:href="#SVGID_00000131340189729405205980000012730822448977011132_"  style="overflow:visible;"/>
				</clipPath>
				<g style="clip-path:url(#SVGID_00000084515048390603340040000011863038528265819050_);">
					<g>
						<path id="C1_0_447bda65b5_00000173878503762295170360000012397922157278314668_" class="st24" d="M147.6,124.8
							c0.7,0,1.3-0.3,1.8-0.7c0.5-0.5,0.7-1.1,0.7-1.8s-0.3-1.3-0.7-1.8c-0.5-0.5-1.1-0.7-1.8-0.7s-1.3,0.3-1.8,0.7
							c-0.5,0.5-0.7,1.1-0.7,1.8s0.3,1.3,0.7,1.8C146.3,124.5,146.9,124.8,147.6,124.8z"/>
					</g>
				</g>
			</g>
			<g>
				<defs>
					<rect id="SVGID_00000135673207936361357630000001862877123360345479_" x="115.7" y="86.4" width="63.7" height="169.9"/>
				</defs>
				<clipPath id="SVGID_00000183943745435977348840000002328025341306781620_">
					<use xlink:href="#SVGID_00000135673207936361357630000001862877123360345479_"  style="overflow:visible;"/>
				</clipPath>
				<g style="clip-path:url(#SVGID_00000183943745435977348840000002328025341306781620_);">
					<g>
						<path id="C1_0_447bda65b5_00000064333904643933332980000006397466098008152508_" class="st24" d="M147.6,133.7
							c0.7,0,1.3-0.3,1.8-0.7c0.5-0.5,0.7-1.1,0.7-1.8s-0.3-1.3-0.7-1.8c-0.5-0.5-1.1-0.7-1.8-0.7s-1.3,0.3-1.8,0.7
							c-0.5,0.5-0.7,1.1-0.7,1.8s0.3,1.3,0.7,1.8C146.3,133.5,146.9,133.7,147.6,133.7z"/>
					</g>
				</g>
			</g>
			<g>
				<defs>
					<rect id="SVGID_00000110444684068681863000000011207989496247780782_" x="115.7" y="86.4" width="63.7" height="169.9"/>
				</defs>
				<clipPath id="SVGID_00000021799058984653930060000009108078064362983064_">
					<use xlink:href="#SVGID_00000110444684068681863000000011207989496247780782_"  style="overflow:visible;"/>
				</clipPath>
				<g style="clip-path:url(#SVGID_00000021799058984653930060000009108078064362983064_);">
					<g>
						<path id="C1_0_447bda65b5_00000087382826971875018350000005948225174863237050_" class="st24" d="M147.6,130.7
							c0.7,0,1.3-0.3,1.8-0.7c0.5-0.5,0.7-1.1,0.7-1.8s-0.3-1.3-0.7-1.8c-0.5-0.5-1.1-0.7-1.8-0.7s-1.3,0.3-1.8,0.7
							c-0.5,0.5-0.7,1.1-0.7,1.8s0.3,1.3,0.7,1.8C146.3,130.4,146.9,130.7,147.6,130.7z"/>
					</g>
				</g>
			</g>
			<g>
				<defs>
					<rect id="SVGID_00000065045511400860044390000008881201993349050294_" x="115.7" y="86.4" width="63.7" height="169.9"/>
				</defs>
				<clipPath id="SVGID_00000165197002567864870730000011138991441852380827_">
					<use xlink:href="#SVGID_00000065045511400860044390000008881201993349050294_"  style="overflow:visible;"/>
				</clipPath>
				<g style="clip-path:url(#SVGID_00000165197002567864870730000011138991441852380827_);">
					<g>
						<path id="C1_0_447bda65b5_00000097470202534560905160000006194148041233729727_" class="st24" d="M147.6,148.6
							c0.7,0,1.3-0.3,1.8-0.7c0.5-0.5,0.7-1.1,0.7-1.8s-0.3-1.3-0.7-1.8c-0.5-0.5-1.1-0.7-1.8-0.7s-1.3,0.3-1.8,0.7
							c-0.5,0.5-0.7,1.1-0.7,1.8s0.3,1.3,0.7,1.8C146.3,148.3,146.9,148.6,147.6,148.6z"/>
					</g>
				</g>
			</g>
			<g>
				<defs>
					<rect id="SVGID_00000007403898601385501030000008369486107005393041_" x="115.7" y="86.4" width="63.7" height="169.9"/>
				</defs>
				<clipPath id="SVGID_00000133516592593764538860000000022737185530582707_">
					<use xlink:href="#SVGID_00000007403898601385501030000008369486107005393041_"  style="overflow:visible;"/>
				</clipPath>
				<g style="clip-path:url(#SVGID_00000133516592593764538860000000022737185530582707_);">
					<g>
						<path id="C1_0_447bda65b5_00000160156702458149281910000013944568896696443013_" class="st24" d="M147.6,115.5
							c0.7,0,1.3-0.3,1.8-0.7c0.5-0.5,0.7-1.1,0.7-1.8s-0.3-1.3-0.7-1.8c-0.5-0.5-1.1-0.7-1.8-0.7s-1.3,0.3-1.8,0.7
							c-0.5,0.5-0.7,1.1-0.7,1.8s0.3,1.3,0.7,1.8C146.3,115.3,146.9,115.5,147.6,115.5z"/>
					</g>
				</g>
			</g>
			<g>
				<defs>
					<rect id="SVGID_00000113337658285970918410000004084948108429338264_" x="115.7" y="86.4" width="63.7" height="169.9"/>
				</defs>
				<clipPath id="SVGID_00000054253777801192732500000006868967907449995151_">
					<use xlink:href="#SVGID_00000113337658285970918410000004084948108429338264_"  style="overflow:visible;"/>
				</clipPath>
				<g style="clip-path:url(#SVGID_00000054253777801192732500000006868967907449995151_);">
					<g>
						<path id="C1_0_447bda65b5_00000165217347632770654410000006035487729413128590_" class="st24" d="M147.6,137.5
							c0.7,0,1.3-0.3,1.8-0.7c0.5-0.5,0.7-1.1,0.7-1.8s-0.3-1.3-0.7-1.8c-0.5-0.5-1.1-0.7-1.8-0.7s-1.3,0.3-1.8,0.7
							c-0.5,0.5-0.7,1.1-0.7,1.8s0.3,1.3,0.7,1.8C146.3,137.3,146.9,137.5,147.6,137.5z"/>
					</g>
				</g>
			</g>
			<g>
				<defs>
					<rect id="SVGID_00000042708933294475113540000002873839877023695274_" x="115.7" y="86.4" width="63.7" height="169.9"/>
				</defs>
				<clipPath id="SVGID_00000008112426324682051260000017056581882273925025_">
					<use xlink:href="#SVGID_00000042708933294475113540000002873839877023695274_"  style="overflow:visible;"/>
				</clipPath>
				<g style="clip-path:url(#SVGID_00000008112426324682051260000017056581882273925025_);">
					<g>
						<path id="C1_0_447bda65b5_00000015337395217056135630000008079622815103106698_" class="st24" d="M147.6,145
							c0.7,0,1.3-0.3,1.8-0.7c0.5-0.5,0.7-1.1,0.7-1.8s-0.3-1.3-0.7-1.8c-0.5-0.5-1.1-0.7-1.8-0.7s-1.3,0.3-1.8,0.7
							c-0.5,0.5-0.7,1.1-0.7,1.8s0.3,1.3,0.7,1.8C146.3,144.8,146.9,145,147.6,145z"/>
					</g>
				</g>
			</g>
			<g>
				<defs>
					<rect id="SVGID_00000040576199137047645280000012471354102181572736_" x="115.7" y="86.4" width="63.7" height="169.9"/>
				</defs>
				<clipPath id="SVGID_00000032650174460180752320000005737798600473631410_">
					<use xlink:href="#SVGID_00000040576199137047645280000012471354102181572736_"  style="overflow:visible;"/>
				</clipPath>
				<g style="clip-path:url(#SVGID_00000032650174460180752320000005737798600473631410_);">
					<g>
						<path id="C1_0_447bda65b5_00000168797928291219819460000013655070156663288741_" class="st24" d="M147.6,151.3
							c0.7,0,1.3-0.3,1.8-0.7c0.5-0.5,0.7-1.1,0.7-1.8s-0.3-1.3-0.7-1.8c-0.5-0.5-1.1-0.7-1.8-0.7s-1.3,0.3-1.8,0.7
							c-0.5,0.5-0.7,1.1-0.7,1.8s0.3,1.3,0.7,1.8C146.3,151,146.9,151.3,147.6,151.3z"/>
					</g>
				</g>
			</g>
			<g>
				<defs>
					<rect id="SVGID_00000176028886287887158850000013776114959156852386_" x="115.7" y="86.4" width="63.7" height="169.9"/>
				</defs>
				<clipPath id="SVGID_00000163064677756752743450000000517794693869666214_">
					<use xlink:href="#SVGID_00000176028886287887158850000013776114959156852386_"  style="overflow:visible;"/>
				</clipPath>
				<g style="clip-path:url(#SVGID_00000163064677756752743450000000517794693869666214_);">
					<g>
						<path id="C1_0_447bda65b5_00000096755607567319093910000001912839180990349222_" class="st24" d="M147.6,121.4
							c0.7,0,1.3-0.3,1.8-0.7c0.5-0.5,0.7-1.1,0.7-1.8s-0.3-1.3-0.7-1.8c-0.5-0.5-1.1-0.7-1.8-0.7s-1.3,0.3-1.8,0.7
							c-0.5,0.5-0.7,1.1-0.7,1.8s0.3,1.3,0.7,1.8C146.3,121.1,146.9,121.4,147.6,121.4z"/>
					</g>
				</g>
			</g>
			<g>
				<defs>
					<rect id="SVGID_00000070110345616172363090000001536583158826583183_" x="115.7" y="86.4" width="63.7" height="169.9"/>
				</defs>
				<clipPath id="SVGID_00000010297174410857181830000004106734174985573016_">
					<use xlink:href="#SVGID_00000070110345616172363090000001536583158826583183_"  style="overflow:visible;"/>
				</clipPath>
				<g style="clip-path:url(#SVGID_00000010297174410857181830000004106734174985573016_);">
					<g>
						<path id="C1_0_447bda65b5_00000065074217682865782650000015081196093439680957_" class="st24" d="M147.6,125
							c0.7,0,1.3-0.3,1.8-0.7c0.5-0.5,0.7-1.1,0.7-1.8s-0.3-1.3-0.7-1.8c-0.5-0.5-1.1-0.7-1.8-0.7s-1.3,0.3-1.8,0.7
							c-0.5,0.5-0.7,1.1-0.7,1.8s0.3,1.3,0.7,1.8C146.3,124.7,146.9,125,147.6,125z"/>
					</g>
				</g>
			</g>
			<g>
				<defs>
					<rect id="SVGID_00000037682852953364893490000005129191663364619693_" x="115.7" y="86.4" width="63.7" height="169.9"/>
				</defs>
				<clipPath id="SVGID_00000065060699802625346640000005374591629328233372_">
					<use xlink:href="#SVGID_00000037682852953364893490000005129191663364619693_"  style="overflow:visible;"/>
				</clipPath>
				<g style="clip-path:url(#SVGID_00000065060699802625346640000005374591629328233372_);">
					<g>
						<path id="C1_0_447bda65b5_00000171679924251274349810000003758426608711511943_" class="st24" d="M147.6,130.9
							c0.7,0,1.3-0.3,1.8-0.7c0.5-0.5,0.7-1.1,0.7-1.8s-0.3-1.3-0.7-1.8c-0.5-0.5-1.1-0.7-1.8-0.7s-1.3,0.3-1.8,0.7
							c-0.5,0.5-0.7,1.1-0.7,1.8s0.3,1.3,0.7,1.8C146.3,130.6,146.9,130.9,147.6,130.9z"/>
					</g>
				</g>
			</g>
			<g>
				<defs>
					<rect id="SVGID_00000039100336820930262270000003527427039348550022_" x="115.7" y="86.4" width="63.7" height="169.9"/>
				</defs>
				<clipPath id="SVGID_00000057148590921203056740000016315940826106503313_">
					<use xlink:href="#SVGID_00000039100336820930262270000003527427039348550022_"  style="overflow:visible;"/>
				</clipPath>
				<g style="clip-path:url(#SVGID_00000057148590921203056740000016315940826106503313_);">
					<g>
						<path id="C1_0_447bda65b5_00000070835683875887934670000005272970720112427453_" class="st24" d="M147.6,126
							c0.7,0,1.3-0.3,1.8-0.7c0.5-0.5,0.7-1.1,0.7-1.8s-0.3-1.3-0.7-1.8c-0.5-0.5-1.1-0.7-1.8-0.7s-1.3,0.3-1.8,0.7
							c-0.5,0.5-0.7,1.1-0.7,1.8s0.3,1.3,0.7,1.8C146.3,125.7,146.9,126,147.6,126z"/>
					</g>
				</g>
			</g>
		</g>
		<g id="PathCollection_6">
			<g>
				<defs>
					<rect id="SVGID_00000178925333359095825990000001649063740130481794_" x="115.7" y="86.4" width="63.7" height="169.9"/>
				</defs>
				<clipPath id="SVGID_00000182488793524760585300000009554424467568933256_">
					<use xlink:href="#SVGID_00000178925333359095825990000001649063740130481794_"  style="overflow:visible;"/>
				</clipPath>
				<g style="clip-path:url(#SVGID_00000182488793524760585300000009554424467568933256_);">
					<g>
						<path id="C2_0_fc518120b7" class="st38" d="M168.8,138c0.7,0,1.3-0.3,1.8-0.7c0.5-0.5,0.7-1.1,0.7-1.8s-0.3-1.3-0.7-1.8
							c-0.5-0.5-1.1-0.7-1.8-0.7s-1.3,0.3-1.8,0.7c-0.5,0.5-0.7,1.1-0.7,1.8s0.3,1.3,0.7,1.8C167.5,137.7,168.2,138,168.8,138z"/>
					</g>
				</g>
			</g>
			<g>
				<defs>
					<rect id="SVGID_00000047739136349732913550000000640875257726919071_" x="115.7" y="86.4" width="63.7" height="169.9"/>
				</defs>
				<clipPath id="SVGID_00000047028440507565691800000009189175353516775058_">
					<use xlink:href="#SVGID_00000047739136349732913550000000640875257726919071_"  style="overflow:visible;"/>
				</clipPath>
				<g style="clip-path:url(#SVGID_00000047028440507565691800000009189175353516775058_);">
					<g>
						<path id="C2_0_fc518120b7_00000043442550544991380580000015650055787080161461_" class="st38" d="M168.8,130.7
							c0.7,0,1.3-0.3,1.8-0.7c0.5-0.5,0.7-1.1,0.7-1.8s-0.3-1.3-0.7-1.8c-0.5-0.5-1.1-0.7-1.8-0.7s-1.3,0.3-1.8,0.7
							c-0.5,0.5-0.7,1.1-0.7,1.8s0.3,1.3,0.7,1.8C167.5,130.4,168.2,130.7,168.8,130.7z"/>
					</g>
				</g>
			</g>
			<g>
				<defs>
					<rect id="SVGID_00000104704717145051486820000014677969328412018816_" x="115.7" y="86.4" width="63.7" height="169.9"/>
				</defs>
				<clipPath id="SVGID_00000004540117337513137190000004411805180156511111_">
					<use xlink:href="#SVGID_00000104704717145051486820000014677969328412018816_"  style="overflow:visible;"/>
				</clipPath>
				<g style="clip-path:url(#SVGID_00000004540117337513137190000004411805180156511111_);">
					<g>
						<path id="C2_0_fc518120b7_00000073694119045627959450000016321286987145630909_" class="st38" d="M168.8,129.5
							c0.7,0,1.3-0.3,1.8-0.7c0.5-0.5,0.7-1.1,0.7-1.8s-0.3-1.3-0.7-1.8c-0.5-0.5-1.1-0.7-1.8-0.7s-1.3,0.3-1.8,0.7
							c-0.5,0.5-0.7,1.1-0.7,1.8s0.3,1.3,0.7,1.8C167.5,129.2,168.2,129.5,168.8,129.5z"/>
					</g>
				</g>
			</g>
			<g>
				<defs>
					<rect id="SVGID_00000084491587511378880660000015812750084220842893_" x="115.7" y="86.4" width="63.7" height="169.9"/>
				</defs>
				<clipPath id="SVGID_00000181798067163505979760000007932820075808853658_">
					<use xlink:href="#SVGID_00000084491587511378880660000015812750084220842893_"  style="overflow:visible;"/>
				</clipPath>
				<g style="clip-path:url(#SVGID_00000181798067163505979760000007932820075808853658_);">
					<g>
						<path id="C2_0_fc518120b7_00000076561898626687603770000013310372754364884111_" class="st38" d="M168.8,135.1
							c0.7,0,1.3-0.3,1.8-0.7c0.5-0.5,0.7-1.1,0.7-1.8s-0.3-1.3-0.7-1.8c-0.5-0.5-1.1-0.7-1.8-0.7s-1.3,0.3-1.8,0.7
							c-0.5,0.5-0.7,1.1-0.7,1.8s0.3,1.3,0.7,1.8C167.5,134.8,168.2,135.1,168.8,135.1z"/>
					</g>
				</g>
			</g>
			<g>
				<defs>
					<rect id="SVGID_00000127746648656209343930000018054792926640490405_" x="115.7" y="86.4" width="63.7" height="169.9"/>
				</defs>
				<clipPath id="SVGID_00000039096225707977157630000010178361881583863735_">
					<use xlink:href="#SVGID_00000127746648656209343930000018054792926640490405_"  style="overflow:visible;"/>
				</clipPath>
				<g style="clip-path:url(#SVGID_00000039096225707977157630000010178361881583863735_);">
					<g>
						<path id="C2_0_fc518120b7_00000031890917266276700450000002121932720551093896_" class="st38" d="M168.8,150.8
							c0.7,0,1.3-0.3,1.8-0.7c0.5-0.5,0.7-1.1,0.7-1.8s-0.3-1.3-0.7-1.8c-0.5-0.5-1.1-0.7-1.8-0.7s-1.3,0.3-1.8,0.7
							c-0.5,0.5-0.7,1.1-0.7,1.8s0.3,1.3,0.7,1.8C167.5,150.6,168.2,150.8,168.8,150.8z"/>
					</g>
				</g>
			</g>
			<g>
				<defs>
					<rect id="SVGID_00000150821296144936731940000018357138636693096320_" x="115.7" y="86.4" width="63.7" height="169.9"/>
				</defs>
				<clipPath id="SVGID_00000145023626796128322560000004885071657363457722_">
					<use xlink:href="#SVGID_00000150821296144936731940000018357138636693096320_"  style="overflow:visible;"/>
				</clipPath>
				<g style="clip-path:url(#SVGID_00000145023626796128322560000004885071657363457722_);">
					<g>
						<path id="C2_0_fc518120b7_00000123425523802421348460000005090495170053715354_" class="st38" d="M168.8,112.2
							c0.7,0,1.3-0.3,1.8-0.7c0.5-0.5,0.7-1.1,0.7-1.8s-0.3-1.3-0.7-1.8c-0.5-0.5-1.1-0.7-1.8-0.7s-1.3,0.3-1.8,0.7
							c-0.5,0.5-0.7,1.1-0.7,1.8s0.3,1.3,0.7,1.8C167.5,112,168.2,112.2,168.8,112.2z"/>
					</g>
				</g>
			</g>
			<g>
				<defs>
					<rect id="SVGID_00000135687231684389085760000002275237825018364824_" x="115.7" y="86.4" width="63.7" height="169.9"/>
				</defs>
				<clipPath id="SVGID_00000180336312248095809620000001569405981419005576_">
					<use xlink:href="#SVGID_00000135687231684389085760000002275237825018364824_"  style="overflow:visible;"/>
				</clipPath>
				<g style="clip-path:url(#SVGID_00000180336312248095809620000001569405981419005576_);">
					<g>
						<path id="C2_0_fc518120b7_00000030476822245745340100000006576766307648051366_" class="st38" d="M168.8,136.9
							c0.7,0,1.3-0.3,1.8-0.7c0.5-0.5,0.7-1.1,0.7-1.8s-0.3-1.3-0.7-1.8c-0.5-0.5-1.1-0.7-1.8-0.7s-1.3,0.3-1.8,0.7
							c-0.5,0.5-0.7,1.1-0.7,1.8s0.3,1.3,0.7,1.8C167.5,136.6,168.2,136.9,168.8,136.9z"/>
					</g>
				</g>
			</g>
			<g>
				<defs>
					<rect id="SVGID_00000054951961211469081830000009685022639309629581_" x="115.7" y="86.4" width="63.7" height="169.9"/>
				</defs>
				<clipPath id="SVGID_00000065766352024553098420000017803132853455516817_">
					<use xlink:href="#SVGID_00000054951961211469081830000009685022639309629581_"  style="overflow:visible;"/>
				</clipPath>
				<g style="clip-path:url(#SVGID_00000065766352024553098420000017803132853455516817_);">
					<g>
						<path id="C2_0_fc518120b7_00000105405475456057588630000000154612997887088519_" class="st38" d="M168.8,152.8
							c0.7,0,1.3-0.3,1.8-0.7c0.5-0.5,0.7-1.1,0.7-1.8s-0.3-1.3-0.7-1.8c-0.5-0.5-1.1-0.7-1.8-0.7s-1.3,0.3-1.8,0.7
							c-0.5,0.5-0.7,1.1-0.7,1.8s0.3,1.3,0.7,1.8C167.5,152.6,168.2,152.8,168.8,152.8z"/>
					</g>
				</g>
			</g>
			<g>
				<defs>
					<rect id="SVGID_00000138554971814069210960000014079033613990815624_" x="115.7" y="86.4" width="63.7" height="169.9"/>
				</defs>
				<clipPath id="SVGID_00000124128937472422778390000006601751200805929095_">
					<use xlink:href="#SVGID_00000138554971814069210960000014079033613990815624_"  style="overflow:visible;"/>
				</clipPath>
				<g style="clip-path:url(#SVGID_00000124128937472422778390000006601751200805929095_);">
					<g>
						<path id="C2_0_fc518120b7_00000128472773699088512000000003813403472657901952_" class="st38" d="M168.8,151.8
							c0.7,0,1.3-0.3,1.8-0.7c0.5-0.5,0.7-1.1,0.7-1.8s-0.3-1.3-0.7-1.8c-0.5-0.5-1.1-0.7-1.8-0.7s-1.3,0.3-1.8,0.7
							c-0.5,0.5-0.7,1.1-0.7,1.8s0.3,1.3,0.7,1.8C167.5,151.6,168.2,151.8,168.8,151.8z"/>
					</g>
				</g>
			</g>
			<g>
				<defs>
					<rect id="SVGID_00000049189823234538855180000009480022341410631079_" x="115.7" y="86.4" width="63.7" height="169.9"/>
				</defs>
				<clipPath id="SVGID_00000087409551279909379910000003680875031895259012_">
					<use xlink:href="#SVGID_00000049189823234538855180000009480022341410631079_"  style="overflow:visible;"/>
				</clipPath>
				<g style="clip-path:url(#SVGID_00000087409551279909379910000003680875031895259012_);">
					<g>
						<path id="C2_0_fc518120b7_00000106861438613005196340000018008512681406503559_" class="st38" d="M168.8,121.5
							c0.7,0,1.3-0.3,1.8-0.7c0.5-0.5,0.7-1.1,0.7-1.8s-0.3-1.3-0.7-1.8c-0.5-0.5-1.1-0.7-1.8-0.7s-1.3,0.3-1.8,0.7
							c-0.5,0.5-0.7,1.1-0.7,1.8s0.3,1.3,0.7,1.8C167.5,121.3,168.2,121.5,168.8,121.5z"/>
					</g>
				</g>
			</g>
			<g>
				<defs>
					<rect id="SVGID_00000157298891438613338210000001012381899883844266_" x="115.7" y="86.4" width="63.7" height="169.9"/>
				</defs>
				<clipPath id="SVGID_00000029728817998800156540000002034725327549060257_">
					<use xlink:href="#SVGID_00000157298891438613338210000001012381899883844266_"  style="overflow:visible;"/>
				</clipPath>
				<g style="clip-path:url(#SVGID_00000029728817998800156540000002034725327549060257_);">
					<g>
						<path id="C2_0_fc518120b7_00000146496774067968337650000011279900845760829843_" class="st38" d="M168.8,119.5
							c0.7,0,1.3-0.3,1.8-0.7c0.5-0.5,0.7-1.1,0.7-1.8s-0.3-1.3-0.7-1.8c-0.5-0.5-1.1-0.7-1.8-0.7s-1.3,0.3-1.8,0.7
							c-0.5,0.5-0.7,1.1-0.7,1.8s0.3,1.3,0.7,1.8C167.5,119.3,168.2,119.5,168.8,119.5z"/>
					</g>
				</g>
			</g>
			<g>
				<defs>
					<rect id="SVGID_00000090981365516641229030000008633512153519708061_" x="115.7" y="86.4" width="63.7" height="169.9"/>
				</defs>
				<clipPath id="SVGID_00000035512320915871455600000001194507928397917851_">
					<use xlink:href="#SVGID_00000090981365516641229030000008633512153519708061_"  style="overflow:visible;"/>
				</clipPath>
				<g style="clip-path:url(#SVGID_00000035512320915871455600000001194507928397917851_);">
					<g>
						<path id="C2_0_fc518120b7_00000099626589388375411210000013080191487227093923_" class="st38" d="M168.8,125.1
							c0.7,0,1.3-0.3,1.8-0.7c0.5-0.5,0.7-1.1,0.7-1.8s-0.3-1.3-0.7-1.8c-0.5-0.5-1.1-0.7-1.8-0.7s-1.3,0.3-1.8,0.7
							c-0.5,0.5-0.7,1.1-0.7,1.8s0.3,1.3,0.7,1.8C167.5,124.8,168.2,125.1,168.8,125.1z"/>
					</g>
				</g>
			</g>
			<g>
				<defs>
					<rect id="SVGID_00000109013142315379894200000018385588062446977706_" x="115.7" y="86.4" width="63.7" height="169.9"/>
				</defs>
				<clipPath id="SVGID_00000059306103068101628940000006797886700335524015_">
					<use xlink:href="#SVGID_00000109013142315379894200000018385588062446977706_"  style="overflow:visible;"/>
				</clipPath>
				<g style="clip-path:url(#SVGID_00000059306103068101628940000006797886700335524015_);">
					<g>
						<path id="C2_0_fc518120b7_00000137837154205401368800000007287625614200161953_" class="st38" d="M168.8,119.3
							c0.7,0,1.3-0.3,1.8-0.7c0.5-0.5,0.7-1.1,0.7-1.8s-0.3-1.3-0.7-1.8c-0.5-0.5-1.1-0.7-1.8-0.7s-1.3,0.3-1.8,0.7
							c-0.5,0.5-0.7,1.1-0.7,1.8s0.3,1.3,0.7,1.8C167.5,119.1,168.2,119.3,168.8,119.3z"/>
					</g>
				</g>
			</g>
		</g>
		<g id="legend_1">
			<g id="PathCollection_7">
				<g>
					<g>
						<path id="m0ab999f977" class="st51" d="M190.9,96.7c0.5,0,1-0.2,1.4-0.6s0.6-0.9,0.6-1.4s-0.2-1-0.6-1.4s-0.9-0.6-1.4-0.6
							s-1,0.2-1.4,0.6s-0.6,0.9-0.6,1.4s0.2,1,0.6,1.4S190.3,96.7,190.9,96.7z"/>
					</g>
				</g>
			</g>
			<g id="text_9">
				<text transform="matrix(1 0 0 1 201.66 96.3591)" class="st4 st7">cross_view</text>
			</g>
			<g id="PathCollection_8">
				<g>
					<g>
						<path id="m56924cb8ac" class="st52" d="M190.9,105.7c0.5,0,1-0.2,1.4-0.6s0.6-0.9,0.6-1.4s-0.2-1-0.6-1.4s-0.9-0.6-1.4-0.6
							s-1,0.2-1.4,0.6s-0.6,0.9-0.6,1.4s0.2,1,0.6,1.4S190.3,105.7,190.9,105.7z"/>
					</g>
				</g>
			</g>
			<g id="text_10">
				<text transform="matrix(1 0 0 1 201.66 105.3328)" class="st4 st7">no_feedback</text>
			</g>
			<g id="PathCollection_9">
				<g>
					<g>
						<path id="mee6e93a684" class="st53" d="M190.9,114.7c0.5,0,1-0.2,1.4-0.6s0.6-0.9,0.6-1.4s-0.2-1-0.6-1.4s-0.9-0.6-1.4-0.6
							s-1,0.2-1.4,0.6s-0.6,0.9-0.6,1.4s0.2,1,0.6,1.4S190.3,114.7,190.9,114.7z"/>
					</g>
				</g>
			</g>
			<g id="text_11">
				<text transform="matrix(1 0 0 1 201.66 114.3066)" class="st4 st7">size_matched</text>
			</g>
		</g>
	</g>
	<g id="text_12">
		<text transform="matrix(1 0 0 1 0 2.8716)" class="st4 st54">phase1-2-3-4-5_cohorts_AG-AJ-AN</text>
		<text transform="matrix(1 0 0 1 0 14.4)" class="st4 st54">AG1-11 | AJ1-16 | AN1-8</text>
	</g>
	<g id="text_13">
		<text transform="matrix(1 0 0 1 0 43.2)" class="st4 st5">No feedback controls, N=13 (of 25) rats</text>
	</g>
</g>
</svg>
