<?xml version="1.0" encoding="utf-8"?>
<!-- Generator: Adobe Illustrator 24.0.3, SVG Export Plug-In . SVG Version: 6.00 Build 0)  -->
<svg version="1.1" id="Layer_1" xmlns="http://www.w3.org/2000/svg" xmlns:xlink="http://www.w3.org/1999/xlink" x="0px" y="0px"
	 viewBox="0 0 504 432" style="enable-background:new 0 0 504 432;" xml:space="preserve">
<style type="text/css">
	.st0{fill:#E6E6E6;stroke:#E6E6E6;stroke-width:2;stroke-linejoin:round;}
	.st1{fill:#E6E6E6;}
	
		.st2{clip-path:url(#SVGID_2_);fill:none;stroke:#0173B2;stroke-width:2;stroke-linecap:square;stroke-linejoin:round;stroke-opacity:0.7;}
	.st3{clip-path:url(#SVGID_4_);}
	.st4{fill:#0173B2;fill-opacity:0.7;stroke:#0173B2;stroke-linejoin:round;stroke-opacity:0.7;}
	.st5{clip-path:url(#SVGID_6_);fill:none;stroke:#000000;stroke-width:1.5;stroke-linejoin:round;stroke-dasharray:1.5,2.475;}
	
		.st6{clip-path:url(#SVGID_8_);fill:none;stroke:#ED1C24;stroke-width:2;stroke-linecap:square;stroke-linejoin:round;stroke-opacity:0.7;}
	.st7{clip-path:url(#SVGID_10_);}
	.st8{fill:#ED1C24;fill-opacity:0.7;stroke:#ED1C24;stroke-linejoin:round;stroke-opacity:0.7;}
	.st9{fill:none;stroke:#CCCCCC;stroke-width:2;stroke-linejoin:round;stroke-dasharray:1.5,2.475;}
	.st10{fill:#E6E6E6;stroke:#E6E6E6;stroke-width:2;stroke-linecap:square;}
	.st11{fill:none;stroke:#E6E6E6;stroke-width:2;stroke-linecap:square;}
</style>
<g id="matplotlib.axis_1">
	<g id="line2d_1">
		<g>
			<g>
				<path id="m4d257d07aa" class="st0" d="M114.5,349.6v3.5"/>
			</g>
		</g>
	</g>
	<g id="text_1">
		<g transform="translate(108.182955 371.796875)scale(0.2 -0.2)">
			<g>
				<path id="DejaVuSans-30" class="st1" d="M31.8,66.4c-5.1,0-8.9-2.5-11.5-7.5c-2.6-5-3.8-12.5-3.8-22.5c0-10,1.3-17.5,3.8-22.5
					c2.6-5,6.4-7.5,11.5-7.5c5.1,0,8.9,2.5,11.5,7.5c2.6,5,3.8,12.5,3.8,22.5c0,10-1.3,17.5-3.8,22.5C40.7,63.9,36.9,66.4,31.8,66.4
					z M31.8,74.2c8.2,0,14.4-3.2,18.7-9.7c4.3-6.5,6.5-15.8,6.5-28.1c0-12.3-2.2-21.6-6.5-28.1C46.2,1.8,40-1.4,31.8-1.4
					c-8.2,0-14.4,3.2-18.7,9.7c-4.3,6.5-6.5,15.8-6.5,28.1c0,12.3,2.2,21.7,6.5,28.1C17.4,71,23.6,74.2,31.8,74.2z"/>
			</g>
		</g>
	</g>
	<g id="line2d_2">
		<g>
			<g>
				<path id="m4d257d07aa_1_" class="st0" d="M158.9,349.6v3.5"/>
			</g>
		</g>
	</g>
	<g id="text_2">
		<g transform="translate(146.16063 371.796875)scale(0.2 -0.2)">
			<g>
				<path id="DejaVuSans-31" class="st1" d="M12.4,8.3h16.1v55.6L11,60.4v9l17.4,3.5h9.9V8.3h16.1V0h-42V8.3z"/>
			</g>
			<g>
				<path id="DejaVuSans-30_1_" class="st1" d="M95.4,66.4c-5.1,0-8.9-2.5-11.5-7.5c-2.6-5-3.8-12.5-3.8-22.5
					c0-10,1.3-17.5,3.8-22.5c2.6-5,6.4-7.5,11.5-7.5c5.1,0,8.9,2.5,11.5,7.5c2.6,5,3.8,12.5,3.8,22.5c0,10-1.3,17.5-3.8,22.5
					C104.4,63.9,100.5,66.4,95.4,66.4z M95.4,74.2c8.2,0,14.4-3.2,18.7-9.7c4.3-6.5,6.5-15.8,6.5-28.1c0-12.3-2.2-21.6-6.5-28.1
					c-4.3-6.5-10.6-9.7-18.7-9.7c-8.2,0-14.4,3.2-18.7,9.7c-4.3,6.5-6.5,15.8-6.5,28.1c0,12.3,2.2,21.7,6.5,28.1
					C81,71,87.2,74.2,95.4,74.2z"/>
			</g>
		</g>
	</g>
	<g id="line2d_3">
		<g>
			<g>
				<path id="m4d257d07aa_2_" class="st0" d="M203.2,349.6v3.5"/>
			</g>
		</g>
	</g>
	<g id="text_3">
		<g transform="translate(190.500806 371.796875)scale(0.2 -0.2)">
			<g>
				<path id="DejaVuSans-32" class="st1" d="M19.2,8.3h34.4V0H7.3v8.3c3.7,3.9,8.8,9.1,15.3,15.6c6.5,6.5,10.5,10.7,12.2,12.6
					c3.2,3.5,5.4,6.5,6.6,9c1.3,2.5,1.9,4.9,1.9,7.2c0,3.9-1.4,7-4.1,9.5c-2.7,2.4-6.3,3.7-10.6,3.7c-3.1,0-6.4-0.5-9.8-1.6
					c-3.4-1.1-7.1-2.7-11-4.9v10c4,1.6,7.7,2.8,11.1,3.6c3.5,0.8,6.6,1.2,9.5,1.2c7.6,0,13.6-1.9,18.1-5.7c4.5-3.8,6.7-8.8,6.7-15.1
					c0-3-0.6-5.8-1.7-8.5c-1.1-2.7-3.2-5.8-6.1-9.5c-0.8-0.9-3.4-3.7-7.8-8.2C33.3,22.7,27.1,16.4,19.2,8.3z"/>
			</g>
			<g>
				<path id="DejaVuSans-30_2_" class="st1" d="M95.4,66.4c-5.1,0-8.9-2.5-11.5-7.5c-2.6-5-3.8-12.5-3.8-22.5
					c0-10,1.3-17.5,3.8-22.5c2.6-5,6.4-7.5,11.5-7.5c5.1,0,8.9,2.5,11.5,7.5c2.6,5,3.8,12.5,3.8,22.5c0,10-1.3,17.5-3.8,22.5
					C104.4,63.9,100.5,66.4,95.4,66.4z M95.4,74.2c8.2,0,14.4-3.2,18.7-9.7c4.3-6.5,6.5-15.8,6.5-28.1c0-12.3-2.2-21.6-6.5-28.1
					c-4.3-6.5-10.6-9.7-18.7-9.7c-8.2,0-14.4,3.2-18.7,9.7c-4.3,6.5-6.5,15.8-6.5,28.1c0,12.3,2.2,21.7,6.5,28.1
					C81,71,87.2,74.2,95.4,74.2z"/>
			</g>
		</g>
	</g>
	<g id="line2d_4">
		<g>
			<g>
				<path id="m4d257d07aa_3_" class="st0" d="M247.6,349.6v3.5"/>
			</g>
		</g>
	</g>
	<g id="text_4">
		<g transform="translate(234.840982 371.796875)scale(0.2 -0.2)">
			<g>
				<path id="DejaVuSans-33" class="st1" d="M40.6,39.3c4.7-1,8.4-3.1,11-6.3c2.7-3.2,4-7.1,4-11.8c0-7.2-2.5-12.8-7.4-16.7
					c-4.9-3.9-12-5.9-21.1-5.9c-3.1,0-6.2,0.3-9.4,0.9S11.1,1,7.6,2.2v9.5c2.7-1.6,5.7-2.8,9-3.6c3.3-0.8,6.7-1.2,10.2-1.2
					c6.2,0,10.9,1.2,14.1,3.7s4.9,6,4.9,10.6c0,4.3-1.5,7.7-4.5,10.1c-3,2.4-7.2,3.6-12.6,3.6h-8.5V43h8.9c4.8,0,8.6,1,11.1,2.9
					s3.9,4.7,3.9,8.4c0,3.7-1.3,6.6-4,8.6c-2.6,2-6.4,3-11.4,3c-2.7,0-5.6-0.3-8.7-0.9c-3.1-0.6-6.5-1.5-10.2-2.7v8.8
					c3.8,1,7.3,1.8,10.5,2.3s6.4,0.8,9.2,0.8c7.5,0,13.4-1.7,17.8-5.1c4.4-3.4,6.5-8,6.5-13.8c0-4-1.2-7.5-3.5-10.2
					S44.8,40.4,40.6,39.3z"/>
			</g>
			<g>
				<path id="DejaVuSans-30_3_" class="st1" d="M95.4,66.4c-5.1,0-8.9-2.5-11.5-7.5c-2.6-5-3.8-12.5-3.8-22.5
					c0-10,1.3-17.5,3.8-22.5c2.6-5,6.4-7.5,11.5-7.5c5.1,0,8.9,2.5,11.5,7.5c2.6,5,3.8,12.5,3.8,22.5c0,10-1.3,17.5-3.8,22.5
					C104.4,63.9,100.5,66.4,95.4,66.4z M95.4,74.2c8.2,0,14.4-3.2,18.7-9.7c4.3-6.5,6.5-15.8,6.5-28.1c0-12.3-2.2-21.6-6.5-28.1
					c-4.3-6.5-10.6-9.7-18.7-9.7c-8.2,0-14.4,3.2-18.7,9.7c-4.3,6.5-6.5,15.8-6.5,28.1c0,12.3,2.2,21.7,6.5,28.1
					C81,71,87.2,74.2,95.4,74.2z"/>
			</g>
		</g>
	</g>
	<g id="line2d_5">
		<g>
			<g>
				<path id="m4d257d07aa_4_" class="st0" d="M291.9,349.6v3.5"/>
			</g>
		</g>
	</g>
	<g id="text_5">
		<g transform="translate(279.181158 371.796875)scale(0.2 -0.2)">
			<g>
				<path id="DejaVuSans-34" class="st1" d="M37.8,64.3L12.9,25.4h24.9V64.3z M35.2,72.9h12.4V25.4H58v-8.2H47.6V0h-9.8v17.2H4.9
					v9.5L35.2,72.9z"/>
			</g>
			<g>
				<path id="DejaVuSans-30_4_" class="st1" d="M95.4,66.4c-5.1,0-8.9-2.5-11.5-7.5c-2.6-5-3.8-12.5-3.8-22.5
					c0-10,1.3-17.5,3.8-22.5c2.6-5,6.4-7.5,11.5-7.5c5.1,0,8.9,2.5,11.5,7.5c2.6,5,3.8,12.5,3.8,22.5c0,10-1.3,17.5-3.8,22.5
					C104.4,63.9,100.5,66.4,95.4,66.4z M95.4,74.2c8.2,0,14.4-3.2,18.7-9.7c4.3-6.5,6.5-15.8,6.5-28.1c0-12.3-2.2-21.6-6.5-28.1
					c-4.3-6.5-10.6-9.7-18.7-9.7c-8.2,0-14.4,3.2-18.7,9.7c-4.3,6.5-6.5,15.8-6.5,28.1c0,12.3,2.2,21.7,6.5,28.1
					C81,71,87.2,74.2,95.4,74.2z"/>
			</g>
		</g>
	</g>
	<g id="line2d_6">
		<g>
			<g>
				<path id="m4d257d07aa_5_" class="st0" d="M336.2,349.6v3.5"/>
			</g>
		</g>
	</g>
	<g id="text_6">
		<g transform="translate(323.521334 371.796875)scale(0.2 -0.2)">
			<g>
				<path id="DejaVuSans-35" class="st1" d="M10.8,72.9h38.7v-8.3H19.8V46.7c1.4,0.5,2.9,0.9,4.3,1.1c1.4,0.2,2.9,0.4,4.3,0.4
					c8.1,0,14.6-2.2,19.3-6.7c4.8-4.5,7.1-10.5,7.1-18.1c0-7.8-2.4-13.9-7.3-18.3c-4.9-4.3-11.8-6.5-20.7-6.5
					c-3.1,0-6.2,0.3-9.4,0.8c-3.2,0.5-6.4,1.3-9.8,2.3v9.9c2.9-1.6,6-2.8,9.1-3.6s6.4-1.2,9.9-1.2c5.6,0,10.1,1.5,13.4,4.4
					c3.3,3,4.9,7,4.9,12.1c0,5.1-1.6,9.1-4.9,12c-3.3,3-7.7,4.5-13.4,4.5c-2.6,0-5.3-0.3-7.9-0.9c-2.6-0.6-5.3-1.5-8-2.7V72.9z"/>
			</g>
			<g>
				<path id="DejaVuSans-30_5_" class="st1" d="M95.4,66.4c-5.1,0-8.9-2.5-11.5-7.5c-2.6-5-3.8-12.5-3.8-22.5
					c0-10,1.3-17.5,3.8-22.5c2.6-5,6.4-7.5,11.5-7.5c5.1,0,8.9,2.5,11.5,7.5c2.6,5,3.8,12.5,3.8,22.5c0,10-1.3,17.5-3.8,22.5
					C104.4,63.9,100.5,66.4,95.4,66.4z M95.4,74.2c8.2,0,14.4-3.2,18.7-9.7c4.3-6.5,6.5-15.8,6.5-28.1c0-12.3-2.2-21.6-6.5-28.1
					c-4.3-6.5-10.6-9.7-18.7-9.7c-8.2,0-14.4,3.2-18.7,9.7c-4.3,6.5-6.5,15.8-6.5,28.1c0,12.3,2.2,21.7,6.5,28.1
					C81,71,87.2,74.2,95.4,74.2z"/>
			</g>
		</g>
	</g>
	<g id="line2d_7">
		<g>
			<g>
				<path id="m4d257d07aa_6_" class="st0" d="M380.6,349.6v3.5"/>
			</g>
		</g>
	</g>
	<g id="text_7">
		<g transform="translate(367.86151 371.796875)scale(0.2 -0.2)">
			<g>
				<path id="DejaVuSans-36" class="st1" d="M33,40.4c-4.4,0-7.9-1.5-10.5-4.5c-2.6-3-3.9-7.2-3.9-12.4c0-5.2,1.3-9.4,3.9-12.4
					c2.6-3,6.1-4.6,10.5-4.6s7.9,1.5,10.5,4.6c2.6,3.1,3.9,7.2,3.9,12.4c0,5.3-1.3,9.4-3.9,12.4C40.9,38.9,37.4,40.4,33,40.4z
					 M52.6,71.3v-9c-2.5,1.2-5,2.1-7.5,2.7c-2.5,0.6-5,0.9-7.5,0.9c-6.5,0-11.5-2.2-14.9-6.6c-3.4-4.4-5.4-11-5.9-19.9
					c1.9,2.8,4.3,5,7.2,6.5c2.9,1.5,6.1,2.3,9.6,2.3c7.3,0,13.1-2.2,17.4-6.7c4.2-4.4,6.4-10.5,6.4-18.1c0-7.5-2.2-13.5-6.6-18
					C46.3,0.8,40.4-1.4,33-1.4c-8.4,0-14.9,3.2-19.3,9.7C9.2,14.7,7,24.1,7,36.4c0,11.5,2.7,20.7,8.2,27.6s12.8,10.3,22,10.3
					c2.5,0,5-0.2,7.5-0.7S49.9,72.3,52.6,71.3z"/>
			</g>
			<g>
				<path id="DejaVuSans-30_6_" class="st1" d="M95.4,66.4c-5.1,0-8.9-2.5-11.5-7.5c-2.6-5-3.8-12.5-3.8-22.5
					c0-10,1.3-17.5,3.8-22.5c2.6-5,6.4-7.5,11.5-7.5c5.1,0,8.9,2.5,11.5,7.5c2.6,5,3.8,12.5,3.8,22.5c0,10-1.3,17.5-3.8,22.5
					C104.4,63.9,100.5,66.4,95.4,66.4z M95.4,74.2c8.2,0,14.4-3.2,18.7-9.7c4.3-6.5,6.5-15.8,6.5-28.1c0-12.3-2.2-21.6-6.5-28.1
					c-4.3-6.5-10.6-9.7-18.7-9.7c-8.2,0-14.4,3.2-18.7,9.7c-4.3,6.5-6.5,15.8-6.5,28.1c0,12.3,2.2,21.7,6.5,28.1
					C81,71,87.2,74.2,95.4,74.2z"/>
			</g>
		</g>
	</g>
	<g id="text_8">
		<g transform="translate(207.58125 398.1925)scale(0.24 -0.24)">
			<g>
				<path id="DejaVuSans-73" class="st1" d="M44.3,53.1v-8.5c-2.5,1.3-5.2,2.3-7.9,2.9c-2.7,0.7-5.6,1-8.5,1c-4.5,0-7.8-0.7-10-2
					s-3.3-3.4-3.3-6.2c0-2.1,0.8-3.7,2.4-4.9s4.8-2.3,9.6-3.4l3.1-0.7c6.4-1.4,10.9-3.3,13.6-5.8s4-6,4-10.4c0-5.1-2-9.1-6-12.1
					c-4-3-9.5-4.4-16.6-4.4c-2.9,0-6,0.3-9.2,0.9S8.9,0.9,5.4,2v9.3c3.3-1.7,6.6-3,9.8-3.9c3.2-0.9,6.4-1.3,9.6-1.3
					c4.2,0,7.5,0.7,9.8,2.2c2.3,1.4,3.4,3.5,3.4,6.1c0,2.4-0.8,4.3-2.5,5.6c-1.6,1.3-5.2,2.6-10.8,3.8l-3.1,0.7
					c-5.6,1.2-9.6,3-12.1,5.4c-2.5,2.4-3.7,5.8-3.7,10c0,5.1,1.8,9.1,5.5,11.9c3.6,2.8,8.8,4.2,15.5,4.2c3.3,0,6.4-0.2,9.4-0.7
					C39.1,54.8,41.8,54.1,44.3,53.1z"/>
			</g>
			<g>
				<path id="DejaVuSans-65" class="st1" d="M108.3,29.6v-4.4H67c0.4-6.2,2.3-10.9,5.6-14.1s8-4.9,13.9-4.9c3.4,0,6.8,0.4,10,1.3
					c3.2,0.8,6.5,2.1,9.7,3.8V2.8c-3.2-1.4-6.5-2.4-9.9-3.1C92.9-1.1,89.5-1.4,86-1.4c-8.7,0-15.6,2.5-20.7,7.6
					c-5.1,5.1-7.6,12-7.6,20.6c0,8.9,2.4,16,7.2,21.3c4.8,5.3,11.4,7.9,19.6,7.9c7.4,0,13.2-2.4,17.5-7.1
					C106.2,44.2,108.3,37.7,108.3,29.6z M99.3,32.2c-0.1,4.9-1.4,8.8-4.1,11.8c-2.7,2.9-6.2,4.4-10.7,4.4c-5,0-9-1.4-12-4.2
					s-4.7-6.8-5.2-12L99.3,32.2z"/>
			</g>
			<g>
				<path id="DejaVuSans-73_1_" class="st1" d="M157.9,53.1v-8.5c-2.5,1.3-5.2,2.3-7.9,2.9c-2.7,0.7-5.6,1-8.5,1
					c-4.5,0-7.8-0.7-10-2c-2.2-1.4-3.3-3.4-3.3-6.2c0-2.1,0.8-3.7,2.4-4.9s4.8-2.3,9.6-3.4l3.1-0.7c6.4-1.4,10.9-3.3,13.6-5.8
					s4-6,4-10.4c0-5.1-2-9.1-6-12.1c-4-3-9.5-4.4-16.6-4.4c-2.9,0-6,0.3-9.2,0.9c-3.2,0.6-6.5,1.4-10,2.6v9.3c3.3-1.7,6.6-3,9.8-3.9
					c3.2-0.9,6.4-1.3,9.6-1.3c4.2,0,7.5,0.7,9.8,2.2c2.3,1.4,3.4,3.5,3.4,6.1c0,2.4-0.8,4.3-2.5,5.6c-1.6,1.3-5.2,2.6-10.8,3.8
					l-3.1,0.7c-5.6,1.2-9.6,3-12.1,5.4c-2.5,2.4-3.7,5.8-3.7,10c0,5.1,1.8,9.1,5.5,11.9c3.6,2.8,8.8,4.2,15.5,4.2
					c3.3,0,6.4-0.2,9.4-0.7C152.7,54.8,155.4,54.1,157.9,53.1z"/>
			</g>
			<g>
				<path id="DejaVuSans-73_2_" class="st1" d="M210,53.1v-8.5c-2.5,1.3-5.2,2.3-7.9,2.9c-2.7,0.7-5.6,1-8.5,1c-4.5,0-7.8-0.7-10-2
					c-2.2-1.4-3.3-3.4-3.3-6.2c0-2.1,0.8-3.7,2.4-4.9s4.8-2.3,9.6-3.4l3.1-0.7c6.4-1.4,10.9-3.3,13.6-5.8s4-6,4-10.4
					c0-5.1-2-9.1-6-12.1c-4-3-9.5-4.4-16.6-4.4c-2.9,0-6,0.3-9.2,0.9c-3.2,0.6-6.5,1.4-10,2.6v9.3c3.3-1.7,6.6-3,9.8-3.9
					c3.2-0.9,6.4-1.3,9.6-1.3c4.2,0,7.5,0.7,9.8,2.2c2.3,1.4,3.4,3.5,3.4,6.1c0,2.4-0.8,4.3-2.5,5.6c-1.6,1.3-5.2,2.6-10.8,3.8
					l-3.1,0.7c-5.6,1.2-9.6,3-12.1,5.4c-2.5,2.4-3.7,5.8-3.7,10c0,5.1,1.8,9.1,5.5,11.9c3.6,2.8,8.8,4.2,15.5,4.2
					c3.3,0,6.4-0.2,9.4-0.7C204.8,54.8,207.5,54.1,210,53.1z"/>
			</g>
			<g>
				<path id="DejaVuSans-69" class="st1" d="M227.2,54.7h9V0h-9V54.7z M227.2,76h9V64.6h-9V76z"/>
			</g>
			<g>
				<path id="DejaVuSans-6f" class="st1" d="M276.2,48.4c-4.8,0-8.6-1.9-11.4-5.6c-2.8-3.8-4.2-8.9-4.2-15.5s1.4-11.7,4.2-15.5
					c2.8-3.8,6.6-5.6,11.5-5.6c4.8,0,8.6,1.9,11.4,5.7c2.8,3.8,4.2,8.9,4.2,15.4c0,6.5-1.4,11.6-4.2,15.4
					C284.8,46.5,281,48.4,276.2,48.4z M276.2,56c7.8,0,13.9-2.5,18.4-7.6c4.5-5.1,6.7-12.1,6.7-21.1c0-8.9-2.2-16-6.7-21.1
					c-4.5-5.1-10.6-7.6-18.4-7.6c-7.8,0-14,2.5-18.4,7.6c-4.4,5.1-6.7,12.1-6.7,21.1c0,9,2.2,16,6.7,21.1
					C262.2,53.5,268.4,56,276.2,56z"/>
			</g>
			<g>
				<path id="DejaVuSans-6e" class="st1" d="M361.7,33V0h-9v32.7c0,5.2-1,9-3,11.6c-2,2.6-5,3.9-9.1,3.9c-4.9,0-8.7-1.5-11.5-4.6
					c-2.8-3.1-4.2-7.3-4.2-12.6V0h-9v54.7h9v-8.5c2.2,3.3,4.7,5.8,7.6,7.4c2.9,1.6,6.3,2.4,10.1,2.4c6.3,0,11-1.9,14.2-5.8
					C360.1,46.3,361.7,40.6,361.7,33z"/>
			</g>
		</g>
	</g>
</g>
<g id="matplotlib.axis_2">
	<g id="text_9">
		<g transform="translate(57.99375 326.733573)scale(0.2 -0.2)">
			<g>
				<path id="DejaVuSans-30_7_" class="st1" d="M31.8,66.4c-5.1,0-8.9-2.5-11.5-7.5c-2.6-5-3.8-12.5-3.8-22.5
					c0-10,1.3-17.5,3.8-22.5c2.6-5,6.4-7.5,11.5-7.5c5.1,0,8.9,2.5,11.5,7.5c2.6,5,3.8,12.5,3.8,22.5c0,10-1.3,17.5-3.8,22.5
					C40.7,63.9,36.9,66.4,31.8,66.4z M31.8,74.2c8.2,0,14.4-3.2,18.7-9.7c4.3-6.5,6.5-15.8,6.5-28.1c0-12.3-2.2-21.6-6.5-28.1
					C46.2,1.8,40-1.4,31.8-1.4c-8.2,0-14.4,3.2-18.7,9.7c-4.3,6.5-6.5,15.8-6.5,28.1c0,12.3,2.2,21.7,6.5,28.1
					C17.4,71,23.6,74.2,31.8,74.2z"/>
			</g>
			<g>
				<path id="DejaVuSans-2e" class="st1" d="M74.3,12.4h10.3V0H74.3V12.4z"/>
			</g>
			<g>
				<path id="DejaVuSans-30_8_" class="st1" d="M127.2,66.4c-5.1,0-8.9-2.5-11.5-7.5c-2.6-5-3.8-12.5-3.8-22.5
					c0-10,1.3-17.5,3.8-22.5c2.6-5,6.4-7.5,11.5-7.5c5.1,0,8.9,2.5,11.5,7.5c2.6,5,3.8,12.5,3.8,22.5c0,10-1.3,17.5-3.8,22.5
					C136.1,63.9,132.3,66.4,127.2,66.4z M127.2,74.2c8.2,0,14.4-3.2,18.7-9.7c4.3-6.5,6.5-15.8,6.5-28.1c0-12.3-2.2-21.6-6.5-28.1
					c-4.3-6.5-10.6-9.7-18.7-9.7c-8.2,0-14.4,3.2-18.7,9.7c-4.3,6.5-6.5,15.8-6.5,28.1c0,12.3,2.2,21.7,6.5,28.1
					C112.8,71,119,74.2,127.2,74.2z"/>
			</g>
		</g>
	</g>
	<g id="text_10">
		<g transform="translate(57.99375 273.803843)scale(0.2 -0.2)">
			<g>
				<path id="DejaVuSans-30_9_" class="st1" d="M31.8,66.4c-5.1,0-8.9-2.5-11.5-7.5c-2.6-5-3.8-12.5-3.8-22.5
					c0-10,1.3-17.5,3.8-22.5c2.6-5,6.4-7.5,11.5-7.5c5.1,0,8.9,2.5,11.5,7.5c2.6,5,3.8,12.5,3.8,22.5c0,10-1.3,17.5-3.8,22.5
					C40.7,63.9,36.9,66.4,31.8,66.4z M31.8,74.2c8.2,0,14.4-3.2,18.7-9.7c4.3-6.5,6.5-15.8,6.5-28.1c0-12.3-2.2-21.6-6.5-28.1
					C46.2,1.8,40-1.4,31.8-1.4c-8.2,0-14.4,3.2-18.7,9.7c-4.3,6.5-6.5,15.8-6.5,28.1c0,12.3,2.2,21.7,6.5,28.1
					C17.4,71,23.6,74.2,31.8,74.2z"/>
			</g>
			<g>
				<path id="DejaVuSans-2e_1_" class="st1" d="M74.3,12.4h10.3V0H74.3V12.4z"/>
			</g>
			<g>
				<path id="DejaVuSans-32_1_" class="st1" d="M114.6,8.3H149V0h-46.3v8.3c3.7,3.9,8.8,9.1,15.3,15.6c6.5,6.5,10.5,10.7,12.2,12.6
					c3.2,3.5,5.4,6.5,6.6,9c1.3,2.5,1.9,4.9,1.9,7.2c0,3.9-1.4,7-4.1,9.5c-2.7,2.4-6.3,3.7-10.6,3.7c-3.1,0-6.4-0.5-9.8-1.6
					c-3.4-1.1-7.1-2.7-11-4.9v10c4,1.6,7.7,2.8,11.1,3.6c3.5,0.8,6.6,1.2,9.5,1.2c7.6,0,13.6-1.9,18.1-5.7c4.5-3.8,6.7-8.8,6.7-15.1
					c0-3-0.6-5.8-1.7-8.5c-1.1-2.7-3.2-5.8-6.1-9.5c-0.8-0.9-3.4-3.7-7.8-8.2C128.7,22.7,122.5,16.4,114.6,8.3z"/>
			</g>
		</g>
	</g>
	<g id="text_11">
		<g transform="translate(57.99375 220.874113)scale(0.2 -0.2)">
			<g>
				<path id="DejaVuSans-30_10_" class="st1" d="M31.8,66.4c-5.1,0-8.9-2.5-11.5-7.5c-2.6-5-3.8-12.5-3.8-22.5
					c0-10,1.3-17.5,3.8-22.5c2.6-5,6.4-7.5,11.5-7.5c5.1,0,8.9,2.5,11.5,7.5c2.6,5,3.8,12.5,3.8,22.5c0,10-1.3,17.5-3.8,22.5
					C40.7,63.9,36.9,66.4,31.8,66.4z M31.8,74.2c8.2,0,14.4-3.2,18.7-9.7c4.3-6.5,6.5-15.8,6.5-28.1c0-12.3-2.2-21.6-6.5-28.1
					C46.2,1.8,40-1.4,31.8-1.4c-8.2,0-14.4,3.2-18.7,9.7c-4.3,6.5-6.5,15.8-6.5,28.1c0,12.3,2.2,21.7,6.5,28.1
					C17.4,71,23.6,74.2,31.8,74.2z"/>
			</g>
			<g>
				<path id="DejaVuSans-2e_2_" class="st1" d="M74.3,12.4h10.3V0H74.3V12.4z"/>
			</g>
			<g>
				<path id="DejaVuSans-34_1_" class="st1" d="M133.2,64.3l-24.9-38.9h24.9V64.3z M130.6,72.9H143V25.4h10.4v-8.2H143V0h-9.8v17.2
					h-32.9v9.5L130.6,72.9z"/>
			</g>
		</g>
	</g>
	<g id="text_12">
		<g transform="translate(57.99375 167.944383)scale(0.2 -0.2)">
			<g>
				<path id="DejaVuSans-30_11_" class="st1" d="M31.8,66.4c-5.1,0-8.9-2.5-11.5-7.5c-2.6-5-3.8-12.5-3.8-22.5
					c0-10,1.3-17.5,3.8-22.5c2.6-5,6.4-7.5,11.5-7.5c5.1,0,8.9,2.5,11.5,7.5c2.6,5,3.8,12.5,3.8,22.5c0,10-1.3,17.5-3.8,22.5
					C40.7,63.9,36.9,66.4,31.8,66.4z M31.8,74.2c8.2,0,14.4-3.2,18.7-9.7c4.3-6.5,6.5-15.8,6.5-28.1c0-12.3-2.2-21.6-6.5-28.1
					C46.2,1.8,40-1.4,31.8-1.4c-8.2,0-14.4,3.2-18.7,9.7c-4.3,6.5-6.5,15.8-6.5,28.1c0,12.3,2.2,21.7,6.5,28.1
					C17.4,71,23.6,74.2,31.8,74.2z"/>
			</g>
			<g>
				<path id="DejaVuSans-2e_3_" class="st1" d="M74.3,12.4h10.3V0H74.3V12.4z"/>
			</g>
			<g>
				<path id="DejaVuSans-36_1_" class="st1" d="M128.4,40.4c-4.4,0-7.9-1.5-10.5-4.5c-2.6-3-3.9-7.2-3.9-12.4
					c0-5.2,1.3-9.4,3.9-12.4c2.6-3,6.1-4.6,10.5-4.6c4.4,0,7.9,1.5,10.5,4.6c2.6,3.1,3.9,7.2,3.9,12.4c0,5.3-1.3,9.4-3.9,12.4
					C136.4,38.9,132.9,40.4,128.4,40.4z M148,71.3v-9c-2.5,1.2-5,2.1-7.5,2.7c-2.5,0.6-5,0.9-7.5,0.9c-6.5,0-11.5-2.2-14.9-6.6
					c-3.4-4.4-5.4-11-5.9-19.9c1.9,2.8,4.3,5,7.2,6.5c2.9,1.5,6.1,2.3,9.6,2.3c7.3,0,13.1-2.2,17.4-6.7c4.2-4.4,6.4-10.5,6.4-18.1
					c0-7.5-2.2-13.5-6.6-18c-4.4-4.5-10.3-6.8-17.7-6.8c-8.4,0-14.9,3.2-19.3,9.7c-4.5,6.5-6.7,15.8-6.7,28.1
					c0,11.5,2.7,20.7,8.2,27.6c5.5,6.9,12.8,10.3,22,10.3c2.5,0,5-0.2,7.5-0.7S145.3,72.3,148,71.3z"/>
			</g>
		</g>
	</g>
	<g id="text_13">
		<g transform="translate(57.99375 115.014654)scale(0.2 -0.2)">
			<g>
				<path id="DejaVuSans-30_12_" class="st1" d="M31.8,66.4c-5.1,0-8.9-2.5-11.5-7.5c-2.6-5-3.8-12.5-3.8-22.5
					c0-10,1.3-17.5,3.8-22.5c2.6-5,6.4-7.5,11.5-7.5c5.1,0,8.9,2.5,11.5,7.5c2.6,5,3.8,12.5,3.8,22.5c0,10-1.3,17.5-3.8,22.5
					C40.7,63.9,36.9,66.4,31.8,66.4z M31.8,74.2c8.2,0,14.4-3.2,18.7-9.7c4.3-6.5,6.5-15.8,6.5-28.1c0-12.3-2.2-21.6-6.5-28.1
					C46.2,1.8,40-1.4,31.8-1.4c-8.2,0-14.4,3.2-18.7,9.7c-4.3,6.5-6.5,15.8-6.5,28.1c0,12.3,2.2,21.7,6.5,28.1
					C17.4,71,23.6,74.2,31.8,74.2z"/>
			</g>
			<g>
				<path id="DejaVuSans-2e_4_" class="st1" d="M74.3,12.4h10.3V0H74.3V12.4z"/>
			</g>
			<g>
				<path id="DejaVuSans-38" class="st1" d="M127.2,34.6c-4.7,0-8.4-1.3-11.1-3.8c-2.7-2.5-4-6-4-10.3c0-4.4,1.3-7.8,4-10.4
					c2.7-2.5,6.4-3.8,11.1-3.8s8.4,1.3,11.1,3.8c2.7,2.5,4.1,6,4.1,10.3c0,4.4-1.3,7.8-4,10.3C135.6,33.4,131.9,34.6,127.2,34.6z
					 M117.3,38.8c-4.2,1-7.5,3-9.9,5.9c-2.4,2.9-3.5,6.4-3.5,10.6c0,5.8,2.1,10.4,6.2,13.8c4.2,3.4,9.8,5.1,17.1,5.1
					c7.3,0,13-1.7,17.1-5.1s6.2-8,6.2-13.8c0-4.2-1.2-7.7-3.5-10.6c-2.4-2.9-5.6-4.9-9.8-5.9c4.8-1.1,8.4-3.3,11.1-6.5
					c2.7-3.2,4-7.2,4-11.8c0-7.1-2.2-12.5-6.5-16.3c-4.3-3.8-10.5-5.7-18.5-5.7c-8,0-14.2,1.9-18.5,5.7c-4.3,3.8-6.5,9.2-6.5,16.3
					c0,4.6,1.3,8.6,4,11.8C108.9,35.5,112.6,37.7,117.3,38.8z M113.7,54.4c0-3.8,1.2-6.7,3.5-8.8c2.4-2.1,5.7-3.2,9.9-3.2
					c4.2,0,7.6,1.1,9.9,3.2c2.4,2.1,3.6,5.1,3.6,8.8c0,3.8-1.2,6.7-3.6,8.8c-2.4,2.1-5.7,3.2-9.9,3.2c-4.3,0-7.6-1.1-9.9-3.2
					C114.9,61.1,113.7,58.2,113.7,54.4z"/>
			</g>
		</g>
	</g>
	<g>
		<g id="line2d_8">
			<g>
				<g>
					<path id="m7d0ad52772" class="st0" d="M96.8,319.1h-3.5"/>
				</g>
			</g>
		</g>
		<g id="line2d_9">
			<g>
				<g>
					<path id="m7d0ad52772_1_" class="st0" d="M96.8,266.2h-3.5"/>
				</g>
			</g>
		</g>
		<g id="line2d_10">
			<g>
				<g>
					<path id="m7d0ad52772_2_" class="st0" d="M96.8,213.3h-3.5"/>
				</g>
			</g>
		</g>
		<g id="line2d_11">
			<g>
				<g>
					<path id="m7d0ad52772_3_" class="st0" d="M96.8,160.3h-3.5"/>
				</g>
			</g>
		</g>
		<g id="line2d_12">
			<g>
				<g>
					<path id="m7d0ad52772_4_" class="st0" d="M96.8,107.4h-3.5"/>
				</g>
			</g>
		</g>
		<g id="line2d_13">
			<g>
				<g>
					<path id="m7d0ad52772_5_" class="st0" d="M96.8,54.5h-3.5"/>
				</g>
			</g>
		</g>
	</g>
	<g id="text_14">
		<g transform="translate(57.99375 62.084924)scale(0.2 -0.2)">
			<g>
				<path id="DejaVuSans-31_1_" class="st1" d="M12.4,8.3h16.1v55.6L11,60.4v9l17.4,3.5h9.9V8.3h16.1V0h-42V8.3z"/>
			</g>
			<g>
				<path id="DejaVuSans-2e_5_" class="st1" d="M74.3,12.4h10.3V0H74.3V12.4z"/>
			</g>
			<g>
				<path id="DejaVuSans-30_13_" class="st1" d="M127.2,66.4c-5.1,0-8.9-2.5-11.5-7.5c-2.6-5-3.8-12.5-3.8-22.5
					c0-10,1.3-17.5,3.8-22.5c2.6-5,6.4-7.5,11.5-7.5c5.1,0,8.9,2.5,11.5,7.5c2.6,5,3.8,12.5,3.8,22.5c0,10-1.3,17.5-3.8,22.5
					C136.1,63.9,132.3,66.4,127.2,66.4z M127.2,74.2c8.2,0,14.4-3.2,18.7-9.7c4.3-6.5,6.5-15.8,6.5-28.1c0-12.3-2.2-21.6-6.5-28.1
					c-4.3-6.5-10.6-9.7-18.7-9.7c-8.2,0-14.4,3.2-18.7,9.7c-4.3,6.5-6.5,15.8-6.5,28.1c0,12.3,2.2,21.7,6.5,28.1
					C112.8,71,119,74.2,127.2,74.2z"/>
			</g>
		</g>
	</g>
	<g id="text_15">
		<g transform="translate(49.0025 252.8625)rotate(-90)scale(0.24 -0.24)">
			<g>
				<path id="DejaVuSans-61" class="st1" d="M34.3,27.5C27,27.5,22,26.7,19.2,25S15,20.5,15,16.5c0-3.2,1.1-5.7,3.2-7.6
					c2.1-1.9,5-2.8,8.6-2.8c5,0,9,1.8,12,5.3s4.5,8.2,4.5,14.1v2H34.3z M52.2,31.2V0h-9v8.3C41.2,5,38.6,2.5,35.5,1
					s-6.8-2.4-11.2-2.4c-5.6,0-10,1.6-13.4,4.7c-3.3,3.1-5,7.4-5,12.6c0,6.1,2.1,10.8,6.2,13.9c4.1,3.1,10.3,4.7,18.4,4.7h12.6v0.9
					c0,4.1-1.4,7.3-4.1,9.6s-6.5,3.4-11.5,3.4c-3.1,0-6.2-0.4-9.1-1.1c-3-0.8-5.8-1.9-8.5-3.4v8.3c3.3,1.3,6.5,2.2,9.6,2.8
					c3.1,0.6,6.1,1,9,1c7.9,0,13.8-2.1,17.7-6.2C50.2,45.8,52.2,39.5,52.2,31.2z"/>
			</g>
			<g>
				<path id="DejaVuSans-63" class="st1" d="M110.1,52.6v-8.4c-2.5,1.4-5.1,2.5-7.6,3.2c-2.6,0.7-5.1,1-7.7,1
					c-5.8,0-10.4-1.8-13.6-5.5c-3.2-3.7-4.8-8.9-4.8-15.5s1.6-11.9,4.8-15.6c3.2-3.7,7.8-5.5,13.6-5.5c2.6,0,5.2,0.3,7.7,1
					c2.6,0.7,5.1,1.7,7.6,3.2V2.1c-2.5-1.2-5.1-2-7.8-2.6c-2.7-0.6-5.5-0.9-8.6-0.9c-8.2,0-14.8,2.6-19.6,7.8
					c-4.8,5.2-7.3,12.2-7.3,21c0,8.9,2.4,15.9,7.3,21C79,53.4,85.8,56,94.3,56c2.8,0,5.5-0.3,8.1-0.9
					C105,54.6,107.6,53.7,110.1,52.6z"/>
			</g>
			<g>
				<path id="DejaVuSans-63_1_" class="st1" d="M165,52.6v-8.4c-2.5,1.4-5.1,2.5-7.6,3.2s-5.1,1-7.7,1c-5.8,0-10.4-1.8-13.6-5.5
					c-3.2-3.7-4.8-8.9-4.8-15.5s1.6-11.9,4.8-15.6c3.2-3.7,7.8-5.5,13.6-5.5c2.6,0,5.2,0.3,7.7,1s5.1,1.7,7.6,3.2V2.1
					c-2.5-1.2-5.1-2-7.8-2.6c-2.7-0.6-5.5-0.9-8.6-0.9c-8.2,0-14.8,2.6-19.6,7.8c-4.8,5.2-7.3,12.2-7.3,21c0,8.9,2.4,15.9,7.3,21
					c4.9,5.1,11.6,7.7,20.2,7.7c2.8,0,5.5-0.3,8.1-0.9C160,54.6,162.6,53.7,165,52.6z"/>
			</g>
			<g>
				<path id="DejaVuSans-75" class="st1" d="M179.7,21.6v33.1h9V21.9c0-5.2,1-9.1,3-11.7c2-2.6,5.1-3.9,9.1-3.9
					c4.8,0,8.7,1.5,11.5,4.6c2.8,3.1,4.2,7.3,4.2,12.7v31h9V0h-9v8.4c-2.2-3.3-4.7-5.8-7.6-7.4c-2.9-1.6-6.2-2.4-10-2.4
					c-6.3,0-11.1,2-14.3,5.9C181.4,8.3,179.7,14.1,179.7,21.6z"/>
			</g>
			<g>
				<path id="DejaVuSans-72" class="st1" d="M275.7,46.3c-1,0.6-2.1,1-3.3,1.3c-1.2,0.3-2.5,0.4-3.9,0.4c-5.1,0-9-1.7-11.7-5
					s-4.1-8-4.1-14.2V0h-9v54.7h9v-8.5c1.9,3.3,4.4,5.8,7.4,7.4c3,1.6,6.7,2.4,11,2.4c0.6,0,1.3,0,2-0.1c0.8-0.1,1.6-0.2,2.5-0.4
					L275.7,46.3z"/>
			</g>
			<g>
				<path id="DejaVuSans-61_1_" class="st1" d="M310,27.5c-7.3,0-12.3-0.8-15.1-2.5c-2.8-1.7-4.2-4.5-4.2-8.5c0-3.2,1.1-5.7,3.2-7.6
					c2.1-1.9,5-2.8,8.6-2.8c5,0,9,1.8,12,5.3c3,3.5,4.5,8.2,4.5,14.1v2H310z M327.9,31.2V0h-9v8.3c-2.1-3.3-4.6-5.8-7.7-7.3
					s-6.8-2.4-11.2-2.4c-5.6,0-10,1.6-13.4,4.7c-3.3,3.1-5,7.4-5,12.6c0,6.1,2.1,10.8,6.2,13.9c4.1,3.1,10.3,4.7,18.4,4.7H319v0.9
					c0,4.1-1.4,7.3-4.1,9.6s-6.5,3.4-11.5,3.4c-3.1,0-6.2-0.4-9.1-1.1c-3-0.8-5.8-1.9-8.5-3.4v8.3c3.3,1.3,6.5,2.2,9.6,2.8
					c3.1,0.6,6.1,1,9,1c7.9,0,13.8-2.1,17.7-6.2C326,45.8,327.9,39.5,327.9,31.2z"/>
			</g>
			<g>
				<path id="DejaVuSans-63_2_" class="st1" d="M385.8,52.6v-8.4c-2.5,1.4-5.1,2.5-7.6,3.2c-2.6,0.7-5.1,1-7.7,1
					c-5.8,0-10.4-1.8-13.6-5.5c-3.2-3.7-4.8-8.9-4.8-15.5s1.6-11.9,4.8-15.6c3.2-3.7,7.8-5.5,13.6-5.5c2.6,0,5.2,0.3,7.7,1
					c2.6,0.7,5.1,1.7,7.6,3.2V2.1c-2.5-1.2-5.1-2-7.8-2.6c-2.7-0.6-5.5-0.9-8.6-0.9c-8.2,0-14.8,2.6-19.6,7.8
					c-4.8,5.2-7.3,12.2-7.3,21c0,8.9,2.4,15.9,7.3,21c4.9,5.1,11.6,7.7,20.2,7.7c2.8,0,5.5-0.3,8.1-0.9
					C380.8,54.6,383.3,53.7,385.8,52.6z"/>
			</g>
			<g>
				<path id="DejaVuSans-79" class="st1" d="M424.2-5.1c-2.5-6.5-5-10.8-7.4-12.7c-2.4-2-5.6-3-9.7-3h-7.2v7.5h5.3
					c2.5,0,4.4,0.6,5.8,1.8c1.4,1.2,2.9,3.9,4.5,8.3l1.6,4.1L395,54.7h9.5l17.1-42.8l17.1,42.8h9.5L424.2-5.1z"/>
			</g>
		</g>
	</g>
</g>
<g id="line2d_14">
	<g>
		<defs>
			<rect id="SVGID_1_" x="100.8" y="51.8" width="302.4" height="293.8"/>
		</defs>
		<clipPath id="SVGID_2_">
			<use xlink:href="#SVGID_1_"  style="overflow:visible;"/>
		</clipPath>
		<path class="st2" d="M114.5,169.5l4.4,17.7l4.4,13.7l4.4,20.4l4.4-22.6l4.4-44.5l4.4-39.8l4.4,32.9l4.4-14l4.4-20.1l4.4,50.2
			l4.4-26.3l4.4-28.9l4.4,14.9l4.4,1.6l4.4,7.4l4.4-10.8l4.4-6.3l4.4-3.5l4.4-7.6l4.4,5.4l4.4-3.8l4.4-16.7l4.4,12.1l4.4,17
			l4.4-17.8l4.4,0.5l4.4,2.6l4.4,16.7l4.4-18l4.4-17.7l4.4,3.8l4.4-1.2l4.4,3.8l4.4-10.9l4.4,0.3l4.4-6.4l4.4,9.2l4.4-9.9l4.4-2.1
			l4.4,27.8l4.4-4.2l4.4,11.6l4.4-19.5l4.4,3l4.4,1.4l4.4-5.7l4.4,6.3l4.4-7.4l4.4-4.3l4.4-0.9l4.4,7.3l4.4-7.3l4.4,30.7l4.4-16.1
			l4.4,10.4l4.4-0.7l4.4-18.9l4.4-4.8l4.4,6.8l4.4,9.1l4.4,24.9l4.4-43"/>
	</g>
	<g>
		<defs>
			<rect id="SVGID_3_" x="100.8" y="51.8" width="302.4" height="293.8"/>
		</defs>
		<clipPath id="SVGID_4_">
			<use xlink:href="#SVGID_3_"  style="overflow:visible;"/>
		</clipPath>
		<g class="st3">
			<g>
				<path id="mf94b4df502" class="st4" d="M114.5,172c0.7,0,1.3-0.3,1.8-0.7c0.5-0.5,0.7-1.1,0.7-1.8s-0.3-1.3-0.7-1.8
					c-0.5-0.5-1.1-0.7-1.8-0.7s-1.3,0.3-1.8,0.7c-0.5,0.5-0.7,1.1-0.7,1.8s0.3,1.3,0.7,1.8C113.2,171.7,113.9,172,114.5,172z"/>
			</g>
			<g>
				<path id="mf94b4df502_1_" class="st4" d="M119,189.7c0.7,0,1.3-0.3,1.8-0.7c0.5-0.5,0.7-1.1,0.7-1.8s-0.3-1.3-0.7-1.8
					c-0.5-0.5-1.1-0.7-1.8-0.7s-1.3,0.3-1.8,0.7c-0.5,0.5-0.7,1.1-0.7,1.8s0.3,1.3,0.7,1.8C117.7,189.4,118.3,189.7,119,189.7z"/>
			</g>
			<g>
				<path id="mf94b4df502_2_" class="st4" d="M123.4,203.4c0.7,0,1.3-0.3,1.8-0.7c0.5-0.5,0.7-1.1,0.7-1.8s-0.3-1.3-0.7-1.8
					c-0.5-0.5-1.1-0.7-1.8-0.7s-1.3,0.3-1.8,0.7c-0.5,0.5-0.7,1.1-0.7,1.8s0.3,1.3,0.7,1.8C122.1,203.1,122.8,203.4,123.4,203.4z"/>
			</g>
			<g>
				<path id="mf94b4df502_3_" class="st4" d="M127.8,223.8c0.7,0,1.3-0.3,1.8-0.7c0.5-0.5,0.7-1.1,0.7-1.8s-0.3-1.3-0.7-1.8
					c-0.5-0.5-1.1-0.7-1.8-0.7s-1.3,0.3-1.8,0.7c-0.5,0.5-0.7,1.1-0.7,1.8s0.3,1.3,0.7,1.8C126.5,223.5,127.2,223.8,127.8,223.8z"/>
			</g>
			<g>
				<path id="mf94b4df502_4_" class="st4" d="M132.3,201.2c0.7,0,1.3-0.3,1.8-0.7c0.5-0.5,0.7-1.1,0.7-1.8s-0.3-1.3-0.7-1.8
					c-0.5-0.5-1.1-0.7-1.8-0.7s-1.3,0.3-1.8,0.7c-0.5,0.5-0.7,1.1-0.7,1.8s0.3,1.3,0.7,1.8C131,201,131.6,201.2,132.3,201.2z"/>
			</g>
			<g>
				<path id="mf94b4df502_5_" class="st4" d="M136.7,156.8c0.7,0,1.3-0.3,1.8-0.7c0.5-0.5,0.7-1.1,0.7-1.8s-0.3-1.3-0.7-1.8
					c-0.5-0.5-1.1-0.7-1.8-0.7s-1.3,0.3-1.8,0.7c-0.5,0.5-0.7,1.1-0.7,1.8s0.3,1.3,0.7,1.8C135.4,156.5,136.1,156.8,136.7,156.8z"/>
			</g>
			<g>
				<path id="mf94b4df502_6_" class="st4" d="M141.1,117c0.7,0,1.3-0.3,1.8-0.7c0.5-0.5,0.7-1.1,0.7-1.8s-0.3-1.3-0.7-1.8
					c-0.5-0.5-1.1-0.7-1.8-0.7s-1.3,0.3-1.8,0.7c-0.5,0.5-0.7,1.1-0.7,1.8s0.3,1.3,0.7,1.8C139.9,116.7,140.5,117,141.1,117z"/>
			</g>
			<g>
				<path id="mf94b4df502_7_" class="st4" d="M145.6,149.9c0.7,0,1.3-0.3,1.8-0.7c0.5-0.5,0.7-1.1,0.7-1.8s-0.3-1.3-0.7-1.8
					c-0.5-0.5-1.1-0.7-1.8-0.7s-1.3,0.3-1.8,0.7c-0.5,0.5-0.7,1.1-0.7,1.8s0.3,1.3,0.7,1.8C144.3,149.6,144.9,149.9,145.6,149.9z"/>
			</g>
			<g>
				<path id="mf94b4df502_8_" class="st4" d="M150,135.9c0.7,0,1.3-0.3,1.8-0.7c0.5-0.5,0.7-1.1,0.7-1.8s-0.3-1.3-0.7-1.8
					c-0.5-0.5-1.1-0.7-1.8-0.7s-1.3,0.3-1.8,0.7c-0.5,0.5-0.7,1.1-0.7,1.8s0.3,1.3,0.7,1.8C148.7,135.6,149.4,135.9,150,135.9z"/>
			</g>
			<g>
				<path id="mf94b4df502_9_" class="st4" d="M154.5,115.8c0.7,0,1.3-0.3,1.8-0.7c0.5-0.5,0.7-1.1,0.7-1.8s-0.3-1.3-0.7-1.8
					c-0.5-0.5-1.1-0.7-1.8-0.7s-1.3,0.3-1.8,0.7c-0.5,0.5-0.7,1.1-0.7,1.8s0.3,1.3,0.7,1.8C153.2,115.5,153.8,115.8,154.5,115.8z"/>
			</g>
			<g>
				<path id="mf94b4df502_10_" class="st4" d="M158.9,166c0.7,0,1.3-0.3,1.8-0.7c0.5-0.5,0.7-1.1,0.7-1.8s-0.3-1.3-0.7-1.8
					c-0.5-0.5-1.1-0.7-1.8-0.7s-1.3,0.3-1.8,0.7c-0.5,0.5-0.7,1.1-0.7,1.8s0.3,1.3,0.7,1.8C157.6,165.7,158.2,166,158.9,166z"/>
			</g>
			<g>
				<path id="mf94b4df502_11_" class="st4" d="M163.3,139.7c0.7,0,1.3-0.3,1.8-0.7c0.5-0.5,0.7-1.1,0.7-1.8s-0.3-1.3-0.7-1.8
					c-0.5-0.5-1.1-0.7-1.8-0.7s-1.3,0.3-1.8,0.7c-0.5,0.5-0.7,1.1-0.7,1.8s0.3,1.3,0.7,1.8C162,139.4,162.7,139.7,163.3,139.7z"/>
			</g>
			<g>
				<path id="mf94b4df502_12_" class="st4" d="M167.8,110.8c0.7,0,1.3-0.3,1.8-0.7c0.5-0.5,0.7-1.1,0.7-1.8s-0.3-1.3-0.7-1.8
					c-0.5-0.5-1.1-0.7-1.8-0.7s-1.3,0.3-1.8,0.7c-0.5,0.5-0.7,1.1-0.7,1.8s0.3,1.3,0.7,1.8C166.5,110.6,167.1,110.8,167.8,110.8z"/>
			</g>
			<g>
				<path id="mf94b4df502_13_" class="st4" d="M172.2,125.7c0.7,0,1.3-0.3,1.8-0.7c0.5-0.5,0.7-1.1,0.7-1.8s-0.3-1.3-0.7-1.8
					c-0.5-0.5-1.1-0.7-1.8-0.7s-1.3,0.3-1.8,0.7c-0.5,0.5-0.7,1.1-0.7,1.8s0.3,1.3,0.7,1.8C170.9,125.4,171.5,125.7,172.2,125.7z"/>
			</g>
			<g>
				<path id="mf94b4df502_14_" class="st4" d="M176.6,127.3c0.7,0,1.3-0.3,1.8-0.7c0.5-0.5,0.7-1.1,0.7-1.8s-0.3-1.3-0.7-1.8
					c-0.5-0.5-1.1-0.7-1.8-0.7s-1.3,0.3-1.8,0.7c-0.5,0.5-0.7,1.1-0.7,1.8s0.3,1.3,0.7,1.8C175.3,127,176,127.3,176.6,127.3z"/>
			</g>
			<g>
				<path id="mf94b4df502_15_" class="st4" d="M181.1,134.7c0.7,0,1.3-0.3,1.8-0.7c0.5-0.5,0.7-1.1,0.7-1.8s-0.3-1.3-0.7-1.8
					c-0.5-0.5-1.1-0.7-1.8-0.7s-1.3,0.3-1.8,0.7c-0.5,0.5-0.7,1.1-0.7,1.8s0.3,1.3,0.7,1.8C179.8,134.4,180.4,134.7,181.1,134.7z"/>
			</g>
			<g>
				<path id="mf94b4df502_16_" class="st4" d="M185.5,123.8c0.7,0,1.3-0.3,1.8-0.7c0.5-0.5,0.7-1.1,0.7-1.8s-0.3-1.3-0.7-1.8
					c-0.5-0.5-1.1-0.7-1.8-0.7s-1.3,0.3-1.8,0.7c-0.5,0.5-0.7,1.1-0.7,1.8s0.3,1.3,0.7,1.8C184.2,123.6,184.8,123.8,185.5,123.8z"/>
			</g>
			<g>
				<path id="mf94b4df502_17_" class="st4" d="M189.9,117.5c0.7,0,1.3-0.3,1.8-0.7c0.5-0.5,0.7-1.1,0.7-1.8s-0.3-1.3-0.7-1.8
					c-0.5-0.5-1.1-0.7-1.8-0.7s-1.3,0.3-1.8,0.7c-0.5,0.5-0.7,1.1-0.7,1.8s0.3,1.3,0.7,1.8C188.6,117.3,189.3,117.5,189.9,117.5z"/>
			</g>
			<g>
				<path id="mf94b4df502_18_" class="st4" d="M194.4,114c0.7,0,1.3-0.3,1.8-0.7c0.5-0.5,0.7-1.1,0.7-1.8s-0.3-1.3-0.7-1.8
					c-0.5-0.5-1.1-0.7-1.8-0.7s-1.3,0.3-1.8,0.7c-0.5,0.5-0.7,1.1-0.7,1.8s0.3,1.3,0.7,1.8C193.1,113.7,193.7,114,194.4,114z"/>
			</g>
			<g>
				<path id="mf94b4df502_19_" class="st4" d="M198.8,106.4c0.7,0,1.3-0.3,1.8-0.7c0.5-0.5,0.7-1.1,0.7-1.8s-0.3-1.3-0.7-1.8
					c-0.5-0.5-1.1-0.7-1.8-0.7s-1.3,0.3-1.8,0.7c-0.5,0.5-0.7,1.1-0.7,1.8s0.3,1.3,0.7,1.8C197.5,106.1,198.1,106.4,198.8,106.4z"/>
			</g>
			<g>
				<path id="mf94b4df502_20_" class="st4" d="M203.2,111.8c0.7,0,1.3-0.3,1.8-0.7c0.5-0.5,0.7-1.1,0.7-1.8s-0.3-1.3-0.7-1.8
					c-0.5-0.5-1.1-0.7-1.8-0.7s-1.3,0.3-1.8,0.7c-0.5,0.5-0.7,1.1-0.7,1.8s0.3,1.3,0.7,1.8C201.9,111.5,202.6,111.8,203.2,111.8z"/>
			</g>
			<g>
				<path id="mf94b4df502_21_" class="st4" d="M207.7,108c0.7,0,1.3-0.3,1.8-0.7c0.5-0.5,0.7-1.1,0.7-1.8s-0.3-1.3-0.7-1.8
					c-0.5-0.5-1.1-0.7-1.8-0.7s-1.3,0.3-1.8,0.7c-0.5,0.5-0.7,1.1-0.7,1.8s0.3,1.3,0.7,1.8C206.4,107.7,207,108,207.7,108z"/>
			</g>
			<g>
				<path id="mf94b4df502_22_" class="st4" d="M212.1,91.3c0.7,0,1.3-0.3,1.8-0.7c0.5-0.5,0.7-1.1,0.7-1.8s-0.3-1.3-0.7-1.8
					c-0.5-0.5-1.1-0.7-1.8-0.7s-1.3,0.3-1.8,0.7c-0.5,0.5-0.7,1.1-0.7,1.8s0.3,1.3,0.7,1.8C210.8,91,211.4,91.3,212.1,91.3z"/>
			</g>
			<g>
				<path id="mf94b4df502_23_" class="st4" d="M216.5,103.4c0.7,0,1.3-0.3,1.8-0.7c0.5-0.5,0.7-1.1,0.7-1.8s-0.3-1.3-0.7-1.8
					c-0.5-0.5-1.1-0.7-1.8-0.7s-1.3,0.3-1.8,0.7c-0.5,0.5-0.7,1.1-0.7,1.8s0.3,1.3,0.7,1.8C215.2,103.2,215.9,103.4,216.5,103.4z"/>
			</g>
			<g>
				<path id="mf94b4df502_24_" class="st4" d="M221,120.5c0.7,0,1.3-0.3,1.8-0.7c0.5-0.5,0.7-1.1,0.7-1.8s-0.3-1.3-0.7-1.8
					c-0.5-0.5-1.1-0.7-1.8-0.7s-1.3,0.3-1.8,0.7c-0.5,0.5-0.7,1.1-0.7,1.8s0.3,1.3,0.7,1.8C219.7,120.2,220.3,120.5,221,120.5z"/>
			</g>
			<g>
				<path id="mf94b4df502_25_" class="st4" d="M225.4,102.7c0.7,0,1.3-0.3,1.8-0.7c0.5-0.5,0.7-1.1,0.7-1.8s-0.3-1.3-0.7-1.8
					c-0.5-0.5-1.1-0.7-1.8-0.7s-1.3,0.3-1.8,0.7c-0.5,0.5-0.7,1.1-0.7,1.8s0.3,1.3,0.7,1.8C224.1,102.4,224.7,102.7,225.4,102.7z"/>
			</g>
			<g>
				<path id="mf94b4df502_26_" class="st4" d="M229.8,103.1c0.7,0,1.3-0.3,1.8-0.7c0.5-0.5,0.7-1.1,0.7-1.8s-0.3-1.3-0.7-1.8
					c-0.5-0.5-1.1-0.7-1.8-0.7s-1.3,0.3-1.8,0.7c-0.5,0.5-0.7,1.1-0.7,1.8s0.3,1.3,0.7,1.8C228.5,102.9,229.2,103.1,229.8,103.1z"/>
			</g>
			<g>
				<path id="mf94b4df502_27_" class="st4" d="M234.3,105.8c0.7,0,1.3-0.3,1.8-0.7c0.5-0.5,0.7-1.1,0.7-1.8s-0.3-1.3-0.7-1.8
					c-0.5-0.5-1.1-0.7-1.8-0.7s-1.3,0.3-1.8,0.7c-0.5,0.5-0.7,1.1-0.7,1.8s0.3,1.3,0.7,1.8C233,105.5,233.6,105.8,234.3,105.8z"/>
			</g>
			<g>
				<path id="mf94b4df502_28_" class="st4" d="M238.7,122.4c0.7,0,1.3-0.3,1.8-0.7c0.5-0.5,0.7-1.1,0.7-1.8s-0.3-1.3-0.7-1.8
					c-0.5-0.5-1.1-0.7-1.8-0.7s-1.3,0.3-1.8,0.7c-0.5,0.5-0.7,1.1-0.7,1.8s0.3,1.3,0.7,1.8C237.4,122.2,238,122.4,238.7,122.4z"/>
			</g>
			<g>
				<path id="mf94b4df502_29_" class="st4" d="M243.1,104.5c0.7,0,1.3-0.3,1.8-0.7c0.5-0.5,0.7-1.1,0.7-1.8s-0.3-1.3-0.7-1.8
					c-0.5-0.5-1.1-0.7-1.8-0.7s-1.3,0.3-1.8,0.7c-0.5,0.5-0.7,1.1-0.7,1.8s0.3,1.3,0.7,1.8C241.8,104.2,242.5,104.5,243.1,104.5z"/>
			</g>
			<g>
				<path id="mf94b4df502_30_" class="st4" d="M247.6,86.7c0.7,0,1.3-0.3,1.8-0.7c0.5-0.5,0.7-1.1,0.7-1.8s-0.3-1.3-0.7-1.8
					c-0.5-0.5-1.1-0.7-1.8-0.7s-1.3,0.3-1.8,0.7c-0.5,0.5-0.7,1.1-0.7,1.8s0.3,1.3,0.7,1.8C246.3,86.5,246.9,86.7,247.6,86.7z"/>
			</g>
			<g>
				<path id="mf94b4df502_31_" class="st4" d="M252,90.6c0.7,0,1.3-0.3,1.8-0.7c0.5-0.5,0.7-1.1,0.7-1.8s-0.3-1.3-0.7-1.8
					c-0.5-0.5-1.1-0.7-1.8-0.7s-1.3,0.3-1.8,0.7c-0.5,0.5-0.7,1.1-0.7,1.8s0.3,1.3,0.7,1.8C250.7,90.3,251.3,90.6,252,90.6z"/>
			</g>
			<g>
				<path id="mf94b4df502_32_" class="st4" d="M256.4,89.4c0.7,0,1.3-0.3,1.8-0.7s0.7-1.1,0.7-1.8s-0.3-1.3-0.7-1.8
					s-1.1-0.7-1.8-0.7c-0.7,0-1.3,0.3-1.8,0.7c-0.5,0.5-0.7,1.1-0.7,1.8s0.3,1.3,0.7,1.8C255.1,89.1,255.8,89.4,256.4,89.4z"/>
			</g>
			<g>
				<path id="mf94b4df502_33_" class="st4" d="M260.9,93.2c0.7,0,1.3-0.3,1.8-0.7s0.7-1.1,0.7-1.8s-0.3-1.3-0.7-1.8
					s-1.1-0.7-1.8-0.7s-1.3,0.3-1.8,0.7s-0.7,1.1-0.7,1.8s0.3,1.3,0.7,1.8S260.2,93.2,260.9,93.2z"/>
			</g>
			<g>
				<path id="mf94b4df502_34_" class="st4" d="M265.3,82.3c0.7,0,1.3-0.3,1.8-0.7s0.7-1.1,0.7-1.8s-0.3-1.3-0.7-1.8
					s-1.1-0.7-1.8-0.7s-1.3,0.3-1.8,0.7s-0.7,1.1-0.7,1.8s0.3,1.3,0.7,1.8S264.6,82.3,265.3,82.3z"/>
			</g>
			<g>
				<path id="mf94b4df502_35_" class="st4" d="M269.7,82.6c0.7,0,1.3-0.3,1.8-0.7s0.7-1.1,0.7-1.8s-0.3-1.3-0.7-1.8
					s-1.1-0.7-1.8-0.7s-1.3,0.3-1.8,0.7s-0.7,1.1-0.7,1.8s0.3,1.3,0.7,1.8S269.1,82.6,269.7,82.6z"/>
			</g>
			<g>
				<path id="mf94b4df502_36_" class="st4" d="M274.2,76.3c0.7,0,1.3-0.3,1.8-0.7s0.7-1.1,0.7-1.8s-0.3-1.3-0.7-1.8
					s-1.1-0.7-1.8-0.7s-1.3,0.3-1.8,0.7s-0.7,1.1-0.7,1.8s0.3,1.3,0.7,1.8S273.5,76.3,274.2,76.3z"/>
			</g>
			<g>
				<path id="mf94b4df502_37_" class="st4" d="M278.6,85.5c0.7,0,1.3-0.3,1.8-0.7s0.7-1.1,0.7-1.8s-0.3-1.3-0.7-1.8
					s-1.1-0.7-1.8-0.7s-1.3,0.3-1.8,0.7s-0.7,1.1-0.7,1.8s0.3,1.3,0.7,1.8S277.9,85.5,278.6,85.5z"/>
			</g>
			<g>
				<path id="mf94b4df502_38_" class="st4" d="M283,75.6c0.7,0,1.3-0.3,1.8-0.7s0.7-1.1,0.7-1.8s-0.3-1.3-0.7-1.8s-1.1-0.7-1.8-0.7
					s-1.3,0.3-1.8,0.7s-0.7,1.1-0.7,1.8s0.3,1.3,0.7,1.8S282.4,75.6,283,75.6z"/>
			</g>
			<g>
				<path id="mf94b4df502_39_" class="st4" d="M287.5,73.5c0.7,0,1.3-0.3,1.8-0.7s0.7-1.1,0.7-1.8s-0.3-1.3-0.7-1.8
					s-1.1-0.7-1.8-0.7s-1.3,0.3-1.8,0.7S285,70.4,285,71s0.3,1.3,0.7,1.8S286.8,73.5,287.5,73.5z"/>
			</g>
			<g>
				<path id="mf94b4df502_40_" class="st4" d="M291.9,101.4c0.7,0,1.3-0.3,1.8-0.7s0.7-1.1,0.7-1.8s-0.3-1.3-0.7-1.8
					s-1.1-0.7-1.8-0.7s-1.3,0.3-1.8,0.7s-0.7,1.1-0.7,1.8s0.3,1.3,0.7,1.8S291.2,101.4,291.9,101.4z"/>
			</g>
			<g>
				<path id="mf94b4df502_41_" class="st4" d="M296.3,97.1c0.7,0,1.3-0.3,1.8-0.7s0.7-1.1,0.7-1.8s-0.3-1.3-0.7-1.8
					s-1.1-0.7-1.8-0.7s-1.3,0.3-1.8,0.7s-0.7,1.1-0.7,1.8s0.3,1.3,0.7,1.8S295.7,97.1,296.3,97.1z"/>
			</g>
			<g>
				<path id="mf94b4df502_42_" class="st4" d="M300.8,108.7c0.7,0,1.3-0.3,1.8-0.7s0.7-1.1,0.7-1.8s-0.3-1.3-0.7-1.8
					s-1.1-0.7-1.8-0.7s-1.3,0.3-1.8,0.7s-0.7,1.1-0.7,1.8s0.3,1.3,0.7,1.8S300.1,108.7,300.8,108.7z"/>
			</g>
			<g>
				<path id="mf94b4df502_43_" class="st4" d="M305.2,89.2c0.7,0,1.3-0.3,1.8-0.7s0.7-1.1,0.7-1.8s-0.3-1.3-0.7-1.8
					s-1.1-0.7-1.8-0.7s-1.3,0.3-1.8,0.7s-0.7,1.1-0.7,1.8s0.3,1.3,0.7,1.8S304.5,89.2,305.2,89.2z"/>
			</g>
			<g>
				<path id="mf94b4df502_44_" class="st4" d="M309.6,92.2c0.7,0,1.3-0.3,1.8-0.7s0.7-1.1,0.7-1.8s-0.3-1.3-0.7-1.8
					s-1.1-0.7-1.8-0.7s-1.3,0.3-1.8,0.7s-0.7,1.1-0.7,1.8s0.3,1.3,0.7,1.8S309,92.2,309.6,92.2z"/>
			</g>
			<g>
				<path id="mf94b4df502_45_" class="st4" d="M314.1,93.7c0.7,0,1.3-0.3,1.8-0.7s0.7-1.1,0.7-1.8s-0.3-1.3-0.7-1.8
					s-1.1-0.7-1.8-0.7s-1.3,0.3-1.8,0.7s-0.7,1.1-0.7,1.8s0.3,1.3,0.7,1.8S313.4,93.7,314.1,93.7z"/>
			</g>
			<g>
				<path id="mf94b4df502_46_" class="st4" d="M318.5,87.9c0.7,0,1.3-0.3,1.8-0.7s0.7-1.1,0.7-1.8s-0.3-1.3-0.7-1.8
					s-1.1-0.7-1.8-0.7s-1.3,0.3-1.8,0.7s-0.7,1.1-0.7,1.8s0.3,1.3,0.7,1.8S317.8,87.9,318.5,87.9z"/>
			</g>
			<g>
				<path id="mf94b4df502_47_" class="st4" d="M322.9,94.2c0.7,0,1.3-0.3,1.8-0.7s0.7-1.1,0.7-1.8s-0.3-1.3-0.7-1.8
					s-1.1-0.7-1.8-0.7s-1.3,0.3-1.8,0.7s-0.7,1.1-0.7,1.8s0.3,1.3,0.7,1.8S322.3,94.2,322.9,94.2z"/>
			</g>
			<g>
				<path id="mf94b4df502_48_" class="st4" d="M327.4,86.8c0.7,0,1.3-0.3,1.8-0.7s0.7-1.1,0.7-1.8s-0.3-1.3-0.7-1.8
					s-1.1-0.7-1.8-0.7s-1.3,0.3-1.8,0.7s-0.7,1.1-0.7,1.8s0.3,1.3,0.7,1.8S326.7,86.8,327.4,86.8z"/>
			</g>
			<g>
				<path id="mf94b4df502_49_" class="st4" d="M331.8,82.5c0.7,0,1.3-0.3,1.8-0.7s0.7-1.1,0.7-1.8s-0.3-1.3-0.7-1.8
					s-1.1-0.7-1.8-0.7s-1.3,0.3-1.8,0.7s-0.7,1.1-0.7,1.8s0.3,1.3,0.7,1.8S331.1,82.5,331.8,82.5z"/>
			</g>
			<g>
				<path id="mf94b4df502_50_" class="st4" d="M336.2,81.6c0.7,0,1.3-0.3,1.8-0.7s0.7-1.1,0.7-1.8s-0.3-1.3-0.7-1.8
					s-1.1-0.7-1.8-0.7s-1.3,0.3-1.8,0.7s-0.7,1.1-0.7,1.8s0.3,1.3,0.7,1.8S335.6,81.6,336.2,81.6z"/>
			</g>
			<g>
				<path id="mf94b4df502_51_" class="st4" d="M340.7,88.9c0.7,0,1.3-0.3,1.8-0.7s0.7-1.1,0.7-1.8s-0.3-1.3-0.7-1.8
					s-1.1-0.7-1.8-0.7s-1.3,0.3-1.8,0.7s-0.7,1.1-0.7,1.8s0.3,1.3,0.7,1.8S340,88.9,340.7,88.9z"/>
			</g>
			<g>
				<path id="mf94b4df502_52_" class="st4" d="M345.1,81.5c0.7,0,1.3-0.3,1.8-0.7s0.7-1.1,0.7-1.8s-0.3-1.3-0.7-1.8
					s-1.1-0.7-1.8-0.7s-1.3,0.3-1.8,0.7s-0.7,1.1-0.7,1.8s0.3,1.3,0.7,1.8S344.5,81.5,345.1,81.5z"/>
			</g>
			<g>
				<path id="mf94b4df502_53_" class="st4" d="M349.5,112.2c0.7,0,1.3-0.3,1.8-0.7s0.7-1.1,0.7-1.8s-0.3-1.3-0.7-1.8
					s-1.1-0.7-1.8-0.7s-1.3,0.3-1.8,0.7s-0.7,1.1-0.7,1.8s0.3,1.3,0.7,1.8S348.9,112.2,349.5,112.2z"/>
			</g>
			<g>
				<path id="mf94b4df502_54_" class="st4" d="M354,96.1c0.7,0,1.3-0.3,1.8-0.7s0.7-1.1,0.7-1.8s-0.3-1.3-0.7-1.8s-1.1-0.7-1.8-0.7
					s-1.3,0.3-1.8,0.7s-0.7,1.1-0.7,1.8s0.3,1.3,0.7,1.8S353.3,96.1,354,96.1z"/>
			</g>
			<g>
				<path id="mf94b4df502_55_" class="st4" d="M358.4,106.6c0.7,0,1.3-0.3,1.8-0.7s0.7-1.1,0.7-1.8s-0.3-1.3-0.7-1.8
					s-1.1-0.7-1.8-0.7s-1.3,0.3-1.8,0.7s-0.7,1.1-0.7,1.8s0.3,1.3,0.7,1.8S357.8,106.6,358.4,106.6z"/>
			</g>
			<g>
				<path id="mf94b4df502_56_" class="st4" d="M362.9,105.8c0.7,0,1.3-0.3,1.8-0.7s0.7-1.1,0.7-1.8s-0.3-1.3-0.7-1.8
					s-1.1-0.7-1.8-0.7s-1.3,0.3-1.8,0.7s-0.7,1.1-0.7,1.8s0.3,1.3,0.7,1.8S362.2,105.8,362.9,105.8z"/>
			</g>
			<g>
				<path id="mf94b4df502_57_" class="st4" d="M367.3,86.9c0.7,0,1.3-0.3,1.8-0.7s0.7-1.1,0.7-1.8s-0.3-1.3-0.7-1.8
					s-1.1-0.7-1.8-0.7s-1.3,0.3-1.8,0.7s-0.7,1.1-0.7,1.8s0.3,1.3,0.7,1.8S366.6,86.9,367.3,86.9z"/>
			</g>
			<g>
				<path id="mf94b4df502_58_" class="st4" d="M371.7,82.1c0.7,0,1.3-0.3,1.8-0.7s0.7-1.1,0.7-1.8s-0.3-1.3-0.7-1.8
					s-1.1-0.7-1.8-0.7s-1.3,0.3-1.8,0.7s-0.7,1.1-0.7,1.8s0.3,1.3,0.7,1.8S371.1,82.1,371.7,82.1z"/>
			</g>
			<g>
				<path id="mf94b4df502_59_" class="st4" d="M376.2,88.9c0.7,0,1.3-0.3,1.8-0.7s0.7-1.1,0.7-1.8s-0.3-1.3-0.7-1.8
					s-1.1-0.7-1.8-0.7s-1.3,0.3-1.8,0.7s-0.7,1.1-0.7,1.8s0.3,1.3,0.7,1.8S375.5,88.9,376.2,88.9z"/>
			</g>
			<g>
				<path id="mf94b4df502_60_" class="st4" d="M380.6,98c0.7,0,1.3-0.3,1.8-0.7s0.7-1.1,0.7-1.8s-0.3-1.3-0.7-1.8s-1.1-0.7-1.8-0.7
					s-1.3,0.3-1.8,0.7s-0.7,1.1-0.7,1.8s0.3,1.3,0.7,1.8S379.9,98,380.6,98z"/>
			</g>
			<g>
				<path id="mf94b4df502_61_" class="st4" d="M385,122.8c0.7,0,1.3-0.3,1.8-0.7s0.7-1.1,0.7-1.8s-0.3-1.3-0.7-1.8s-1.1-0.7-1.8-0.7
					s-1.3,0.3-1.8,0.7s-0.7,1.1-0.7,1.8s0.3,1.3,0.7,1.8S384.4,122.8,385,122.8z"/>
			</g>
			<g>
				<path id="mf94b4df502_62_" class="st4" d="M389.5,79.8c0.7,0,1.3-0.3,1.8-0.7s0.7-1.1,0.7-1.8s-0.3-1.3-0.7-1.8
					s-1.1-0.7-1.8-0.7s-1.3,0.3-1.8,0.7s-0.7,1.1-0.7,1.8s0.3,1.3,0.7,1.8S388.8,79.8,389.5,79.8z"/>
			</g>
		</g>
	</g>
</g>
<g id="line2d_15">
	<g>
		<defs>
			<rect id="SVGID_5_" x="100.8" y="51.8" width="302.4" height="293.8"/>
		</defs>
		<clipPath id="SVGID_6_">
			<use xlink:href="#SVGID_5_"  style="overflow:visible;"/>
		</clipPath>
		<path class="st5" d="M100.8,186.8h302.4"/>
	</g>
</g>
<g id="line2d_16">
	<g>
		<defs>
			<rect id="SVGID_7_" x="100.8" y="51.8" width="302.4" height="293.8"/>
		</defs>
		<clipPath id="SVGID_8_">
			<use xlink:href="#SVGID_7_"  style="overflow:visible;"/>
		</clipPath>
		<path class="st6" d="M114.5,187.2l4.4-26.3l4.4-14.5l4.4-24.6l4.4,12.7l4.4,6l4.4-39.7l4.4-12.7l4.4,4.1l4.4,15.2l4.4-44.9l4.4,30
			l4.4,1.2l4.4-15.5l4.4,10l4.4,46.5l4.4,5.1l4.4-17.1l4.4-3l4.4,25.4l4.4-12.9l4.4-18.7l4.4,8.8l4.4-3.5l4.4-20.8l4.4-2.6l4.4,4.5
			l4.4-10l4.4,18.2l4.4-12.7l4.4-11l4.4,2l4.4,1.5l4.4,2.3l4.4-14.4l4.4,2.2l4.4-0.9l4.4,3.9l4.4,6l4.4-8.1l4.4,14.6l4.4-19.4
			l4.4,11.7l4.4-4l4.4-4.3l4.4,0.3l4.4-3.1l4.4,22.1l4.4-20.6l4.4,0.6l4.4,4.1l4.4,7.9l4.4-3.3l4.4-12.8L354,82l4.4,1l4.4,0.4
			l4.4-8.7l4.4,4.9l4.4,1.8l4.4,16.5l4.4-7.2l4.4-1.5"/>
	</g>
	<g>
		<defs>
			<rect id="SVGID_9_" x="100.8" y="51.8" width="302.4" height="293.8"/>
		</defs>
		<clipPath id="SVGID_10_">
			<use xlink:href="#SVGID_9_"  style="overflow:visible;"/>
		</clipPath>
		<g class="st7">
			<g>
				<path id="mcdc01b03d9" class="st8" d="M114.5,189.7c0.7,0,1.3-0.3,1.8-0.7c0.5-0.5,0.7-1.1,0.7-1.8s-0.3-1.3-0.7-1.8
					c-0.5-0.5-1.1-0.7-1.8-0.7s-1.3,0.3-1.8,0.7c-0.5,0.5-0.7,1.1-0.7,1.8s0.3,1.3,0.7,1.8C113.2,189.5,113.9,189.7,114.5,189.7z"/>
			</g>
			<g>
				<path id="mcdc01b03d9_1_" class="st8" d="M119,163.4c0.7,0,1.3-0.3,1.8-0.7c0.5-0.5,0.7-1.1,0.7-1.8s-0.3-1.3-0.7-1.8
					c-0.5-0.5-1.1-0.7-1.8-0.7s-1.3,0.3-1.8,0.7c-0.5,0.5-0.7,1.1-0.7,1.8s0.3,1.3,0.7,1.8C117.7,163.1,118.3,163.4,119,163.4z"/>
			</g>
			<g>
				<path id="mcdc01b03d9_2_" class="st8" d="M123.4,148.9c0.7,0,1.3-0.3,1.8-0.7c0.5-0.5,0.7-1.1,0.7-1.8s-0.3-1.3-0.7-1.8
					c-0.5-0.5-1.1-0.7-1.8-0.7s-1.3,0.3-1.8,0.7c-0.5,0.5-0.7,1.1-0.7,1.8s0.3,1.3,0.7,1.8C122.1,148.6,122.8,148.9,123.4,148.9z"/>
			</g>
			<g>
				<path id="mcdc01b03d9_3_" class="st8" d="M127.8,124.3c0.7,0,1.3-0.3,1.8-0.7c0.5-0.5,0.7-1.1,0.7-1.8s-0.3-1.3-0.7-1.8
					c-0.5-0.5-1.1-0.7-1.8-0.7s-1.3,0.3-1.8,0.7s-0.7,1.1-0.7,1.8s0.3,1.3,0.7,1.8S127.2,124.3,127.8,124.3z"/>
			</g>
			<g>
				<path id="mcdc01b03d9_4_" class="st8" d="M132.3,137c0.7,0,1.3-0.3,1.8-0.7c0.5-0.5,0.7-1.1,0.7-1.8s-0.3-1.3-0.7-1.8
					c-0.5-0.5-1.1-0.7-1.8-0.7s-1.3,0.3-1.8,0.7c-0.5,0.5-0.7,1.1-0.7,1.8s0.3,1.3,0.7,1.8C131,136.8,131.6,137,132.3,137z"/>
			</g>
			<g>
				<path id="mcdc01b03d9_5_" class="st8" d="M136.7,143c0.7,0,1.3-0.3,1.8-0.7c0.5-0.5,0.7-1.1,0.7-1.8s-0.3-1.3-0.7-1.8
					c-0.5-0.5-1.1-0.7-1.8-0.7s-1.3,0.3-1.8,0.7c-0.5,0.5-0.7,1.1-0.7,1.8s0.3,1.3,0.7,1.8C135.4,142.7,136.1,143,136.7,143z"/>
			</g>
			<g>
				<path id="mcdc01b03d9_6_" class="st8" d="M141.1,103.3c0.7,0,1.3-0.3,1.8-0.7c0.5-0.5,0.7-1.1,0.7-1.8s-0.3-1.3-0.7-1.8
					c-0.5-0.5-1.1-0.7-1.8-0.7s-1.3,0.3-1.8,0.7c-0.5,0.5-0.7,1.1-0.7,1.8s0.3,1.3,0.7,1.8C139.9,103,140.5,103.3,141.1,103.3z"/>
			</g>
			<g>
				<path id="mcdc01b03d9_7_" class="st8" d="M145.6,90.6c0.7,0,1.3-0.3,1.8-0.7c0.5-0.5,0.7-1.1,0.7-1.8s-0.3-1.3-0.7-1.8
					c-0.5-0.5-1.1-0.7-1.8-0.7s-1.3,0.3-1.8,0.7c-0.5,0.5-0.7,1.1-0.7,1.8s0.3,1.3,0.7,1.8C144.3,90.4,144.9,90.6,145.6,90.6z"/>
			</g>
			<g>
				<path id="mcdc01b03d9_8_" class="st8" d="M150,94.7c0.7,0,1.3-0.3,1.8-0.7c0.5-0.5,0.7-1.1,0.7-1.8s-0.3-1.3-0.7-1.8
					c-0.5-0.5-1.1-0.7-1.8-0.7s-1.3,0.3-1.8,0.7c-0.5,0.5-0.7,1.1-0.7,1.8s0.3,1.3,0.7,1.8C148.7,94.4,149.4,94.7,150,94.7z"/>
			</g>
			<g>
				<path id="mcdc01b03d9_9_" class="st8" d="M154.5,109.9c0.7,0,1.3-0.3,1.8-0.7c0.5-0.5,0.7-1.1,0.7-1.8s-0.3-1.3-0.7-1.8
					c-0.5-0.5-1.1-0.7-1.8-0.7s-1.3,0.3-1.8,0.7c-0.5,0.5-0.7,1.1-0.7,1.8s0.3,1.3,0.7,1.8C153.2,109.7,153.8,109.9,154.5,109.9z"/>
			</g>
			<g>
				<path id="mcdc01b03d9_10_" class="st8" d="M158.9,65c0.7,0,1.3-0.3,1.8-0.7c0.5-0.5,0.7-1.1,0.7-1.8s-0.3-1.3-0.7-1.8
					c-0.5-0.5-1.1-0.7-1.8-0.7s-1.3,0.3-1.8,0.7c-0.5,0.5-0.7,1.1-0.7,1.8s0.3,1.3,0.7,1.8C157.6,64.7,158.2,65,158.9,65z"/>
			</g>
			<g>
				<path id="mcdc01b03d9_11_" class="st8" d="M163.3,95c0.7,0,1.3-0.3,1.8-0.7c0.5-0.5,0.7-1.1,0.7-1.8s-0.3-1.3-0.7-1.8
					c-0.5-0.5-1.1-0.7-1.8-0.7s-1.3,0.3-1.8,0.7c-0.5,0.5-0.7,1.1-0.7,1.8s0.3,1.3,0.7,1.8C162,94.7,162.7,95,163.3,95z"/>
			</g>
			<g>
				<path id="mcdc01b03d9_12_" class="st8" d="M167.8,96.2c0.7,0,1.3-0.3,1.8-0.7c0.5-0.5,0.7-1.1,0.7-1.8s-0.3-1.3-0.7-1.8
					c-0.5-0.5-1.1-0.7-1.8-0.7s-1.3,0.3-1.8,0.7c-0.5,0.5-0.7,1.1-0.7,1.8s0.3,1.3,0.7,1.8C166.5,95.9,167.1,96.2,167.8,96.2z"/>
			</g>
			<g>
				<path id="mcdc01b03d9_13_" class="st8" d="M172.2,80.7c0.7,0,1.3-0.3,1.8-0.7c0.5-0.5,0.7-1.1,0.7-1.8s-0.3-1.3-0.7-1.8
					c-0.5-0.5-1.1-0.7-1.8-0.7s-1.3,0.3-1.8,0.7c-0.5,0.5-0.7,1.1-0.7,1.8s0.3,1.3,0.7,1.8C170.9,80.4,171.5,80.7,172.2,80.7z"/>
			</g>
			<g>
				<path id="mcdc01b03d9_14_" class="st8" d="M176.6,90.6c0.7,0,1.3-0.3,1.8-0.7c0.5-0.5,0.7-1.1,0.7-1.8s-0.3-1.3-0.7-1.8
					c-0.5-0.5-1.1-0.7-1.8-0.7s-1.3,0.3-1.8,0.7c-0.5,0.5-0.7,1.1-0.7,1.8s0.3,1.3,0.7,1.8C175.3,90.4,176,90.6,176.6,90.6z"/>
			</g>
			<g>
				<path id="mcdc01b03d9_15_" class="st8" d="M181.1,137.1c0.7,0,1.3-0.3,1.8-0.7c0.5-0.5,0.7-1.1,0.7-1.8s-0.3-1.3-0.7-1.8
					c-0.5-0.5-1.1-0.7-1.8-0.7s-1.3,0.3-1.8,0.7c-0.5,0.5-0.7,1.1-0.7,1.8s0.3,1.3,0.7,1.8C179.8,136.8,180.4,137.1,181.1,137.1z"/>
			</g>
			<g>
				<path id="mcdc01b03d9_16_" class="st8" d="M185.5,142.2c0.7,0,1.3-0.3,1.8-0.7c0.5-0.5,0.7-1.1,0.7-1.8s-0.3-1.3-0.7-1.8
					c-0.5-0.5-1.1-0.7-1.8-0.7s-1.3,0.3-1.8,0.7c-0.5,0.5-0.7,1.1-0.7,1.8s0.3,1.3,0.7,1.8C184.2,141.9,184.8,142.2,185.5,142.2z"/>
			</g>
			<g>
				<path id="mcdc01b03d9_17_" class="st8" d="M189.9,125c0.7,0,1.3-0.3,1.8-0.7c0.5-0.5,0.7-1.1,0.7-1.8s-0.3-1.3-0.7-1.8
					c-0.5-0.5-1.1-0.7-1.8-0.7s-1.3,0.3-1.8,0.7c-0.5,0.5-0.7,1.1-0.7,1.8s0.3,1.3,0.7,1.8C188.6,124.8,189.3,125,189.9,125z"/>
			</g>
			<g>
				<path id="mcdc01b03d9_18_" class="st8" d="M194.4,122.1c0.7,0,1.3-0.3,1.8-0.7c0.5-0.5,0.7-1.1,0.7-1.8s-0.3-1.3-0.7-1.8
					c-0.5-0.5-1.1-0.7-1.8-0.7s-1.3,0.3-1.8,0.7c-0.5,0.5-0.7,1.1-0.7,1.8s0.3,1.3,0.7,1.8C193.1,121.8,193.7,122.1,194.4,122.1z"/>
			</g>
			<g>
				<path id="mcdc01b03d9_19_" class="st8" d="M198.8,147.5c0.7,0,1.3-0.3,1.8-0.7c0.5-0.5,0.7-1.1,0.7-1.8s-0.3-1.3-0.7-1.8
					c-0.5-0.5-1.1-0.7-1.8-0.7s-1.3,0.3-1.8,0.7c-0.5,0.5-0.7,1.1-0.7,1.8s0.3,1.3,0.7,1.8C197.5,147.2,198.1,147.5,198.8,147.5z"/>
			</g>
			<g>
				<path id="mcdc01b03d9_20_" class="st8" d="M203.2,134.5c0.7,0,1.3-0.3,1.8-0.7c0.5-0.5,0.7-1.1,0.7-1.8s-0.3-1.3-0.7-1.8
					c-0.5-0.5-1.1-0.7-1.8-0.7s-1.3,0.3-1.8,0.7c-0.5,0.5-0.7,1.1-0.7,1.8s0.3,1.3,0.7,1.8C201.9,134.3,202.6,134.5,203.2,134.5z"/>
			</g>
			<g>
				<path id="mcdc01b03d9_21_" class="st8" d="M207.7,115.8c0.7,0,1.3-0.3,1.8-0.7c0.5-0.5,0.7-1.1,0.7-1.8s-0.3-1.3-0.7-1.8
					c-0.5-0.5-1.1-0.7-1.8-0.7s-1.3,0.3-1.8,0.7c-0.5,0.5-0.7,1.1-0.7,1.8s0.3,1.3,0.7,1.8C206.4,115.5,207,115.8,207.7,115.8z"/>
			</g>
			<g>
				<path id="mcdc01b03d9_22_" class="st8" d="M212.1,124.6c0.7,0,1.3-0.3,1.8-0.7c0.5-0.5,0.7-1.1,0.7-1.8s-0.3-1.3-0.7-1.8
					c-0.5-0.5-1.1-0.7-1.8-0.7s-1.3,0.3-1.8,0.7c-0.5,0.5-0.7,1.1-0.7,1.8s0.3,1.3,0.7,1.8C210.8,124.4,211.4,124.6,212.1,124.6z"/>
			</g>
			<g>
				<path id="mcdc01b03d9_23_" class="st8" d="M216.5,121.1c0.7,0,1.3-0.3,1.8-0.7c0.5-0.5,0.7-1.1,0.7-1.8s-0.3-1.3-0.7-1.8
					c-0.5-0.5-1.1-0.7-1.8-0.7s-1.3,0.3-1.8,0.7c-0.5,0.5-0.7,1.1-0.7,1.8s0.3,1.3,0.7,1.8C215.2,120.9,215.9,121.1,216.5,121.1z"/>
			</g>
			<g>
				<path id="mcdc01b03d9_24_" class="st8" d="M221,100.3c0.7,0,1.3-0.3,1.8-0.7c0.5-0.5,0.7-1.1,0.7-1.8s-0.3-1.3-0.7-1.8
					c-0.5-0.5-1.1-0.7-1.8-0.7s-1.3,0.3-1.8,0.7c-0.5,0.5-0.7,1.1-0.7,1.8s0.3,1.3,0.7,1.8C219.7,100.1,220.3,100.3,221,100.3z"/>
			</g>
			<g>
				<path id="mcdc01b03d9_25_" class="st8" d="M225.4,97.7c0.7,0,1.3-0.3,1.8-0.7c0.5-0.5,0.7-1.1,0.7-1.8s-0.3-1.3-0.7-1.8
					c-0.5-0.5-1.1-0.7-1.8-0.7s-1.3,0.3-1.8,0.7c-0.5,0.5-0.7,1.1-0.7,1.8s0.3,1.3,0.7,1.8C224.1,97.4,224.7,97.7,225.4,97.7z"/>
			</g>
			<g>
				<path id="mcdc01b03d9_26_" class="st8" d="M229.8,102.2c0.7,0,1.3-0.3,1.8-0.7c0.5-0.5,0.7-1.1,0.7-1.8s-0.3-1.3-0.7-1.8
					c-0.5-0.5-1.1-0.7-1.8-0.7s-1.3,0.3-1.8,0.7c-0.5,0.5-0.7,1.1-0.7,1.8s0.3,1.3,0.7,1.8C228.5,101.9,229.2,102.2,229.8,102.2z"/>
			</g>
			<g>
				<path id="mcdc01b03d9_27_" class="st8" d="M234.3,92.1c0.7,0,1.3-0.3,1.8-0.7c0.5-0.5,0.7-1.1,0.7-1.8s-0.3-1.3-0.7-1.8
					c-0.5-0.5-1.1-0.7-1.8-0.7s-1.3,0.3-1.8,0.7c-0.5,0.5-0.7,1.1-0.7,1.8s0.3,1.3,0.7,1.8C233,91.9,233.6,92.1,234.3,92.1z"/>
			</g>
			<g>
				<path id="mcdc01b03d9_28_" class="st8" d="M238.7,110.4c0.7,0,1.3-0.3,1.8-0.7c0.5-0.5,0.7-1.1,0.7-1.8s-0.3-1.3-0.7-1.8
					c-0.5-0.5-1.1-0.7-1.8-0.7s-1.3,0.3-1.8,0.7c-0.5,0.5-0.7,1.1-0.7,1.8s0.3,1.3,0.7,1.8C237.4,110.1,238,110.4,238.7,110.4z"/>
			</g>
			<g>
				<path id="mcdc01b03d9_29_" class="st8" d="M243.1,97.7c0.7,0,1.3-0.3,1.8-0.7c0.5-0.5,0.7-1.1,0.7-1.8s-0.3-1.3-0.7-1.8
					c-0.5-0.5-1.1-0.7-1.8-0.7s-1.3,0.3-1.8,0.7c-0.5,0.5-0.7,1.1-0.7,1.8s0.3,1.3,0.7,1.8C241.8,97.4,242.5,97.7,243.1,97.7z"/>
			</g>
			<g>
				<path id="mcdc01b03d9_30_" class="st8" d="M247.6,86.6c0.7,0,1.3-0.3,1.8-0.7c0.5-0.5,0.7-1.1,0.7-1.8s-0.3-1.3-0.7-1.8
					c-0.5-0.5-1.1-0.7-1.8-0.7s-1.3,0.3-1.8,0.7c-0.5,0.5-0.7,1.1-0.7,1.8s0.3,1.3,0.7,1.8C246.3,86.3,246.9,86.6,247.6,86.6z"/>
			</g>
			<g>
				<path id="mcdc01b03d9_31_" class="st8" d="M252,88.6c0.7,0,1.3-0.3,1.8-0.7c0.5-0.5,0.7-1.1,0.7-1.8s-0.3-1.3-0.7-1.8
					c-0.5-0.5-1.1-0.7-1.8-0.7s-1.3,0.3-1.8,0.7c-0.5,0.5-0.7,1.1-0.7,1.8s0.3,1.3,0.7,1.8C250.7,88.4,251.3,88.6,252,88.6z"/>
			</g>
			<g>
				<path id="mcdc01b03d9_32_" class="st8" d="M256.4,90.1c0.7,0,1.3-0.3,1.8-0.7s0.7-1.1,0.7-1.8s-0.3-1.3-0.7-1.8
					s-1.1-0.7-1.8-0.7c-0.7,0-1.3,0.3-1.8,0.7c-0.5,0.5-0.7,1.1-0.7,1.8s0.3,1.3,0.7,1.8C255.1,89.8,255.8,90.1,256.4,90.1z"/>
			</g>
			<g>
				<path id="mcdc01b03d9_33_" class="st8" d="M260.9,92.4c0.7,0,1.3-0.3,1.8-0.7s0.7-1.1,0.7-1.8s-0.3-1.3-0.7-1.8
					s-1.1-0.7-1.8-0.7s-1.3,0.3-1.8,0.7s-0.7,1.1-0.7,1.8s0.3,1.3,0.7,1.8S260.2,92.4,260.9,92.4z"/>
			</g>
			<g>
				<path id="mcdc01b03d9_34_" class="st8" d="M265.3,78c0.7,0,1.3-0.3,1.8-0.7s0.7-1.1,0.7-1.8s-0.3-1.3-0.7-1.8S266,73,265.3,73
					s-1.3,0.3-1.8,0.7s-0.7,1.1-0.7,1.8s0.3,1.3,0.7,1.8S264.6,78,265.3,78z"/>
			</g>
			<g>
				<path id="mcdc01b03d9_35_" class="st8" d="M269.7,80.2c0.7,0,1.3-0.3,1.8-0.7s0.7-1.1,0.7-1.8s-0.3-1.3-0.7-1.8
					s-1.1-0.7-1.8-0.7s-1.3,0.3-1.8,0.7s-0.7,1.1-0.7,1.8s0.3,1.3,0.7,1.8S269.1,80.2,269.7,80.2z"/>
			</g>
			<g>
				<path id="mcdc01b03d9_36_" class="st8" d="M274.2,79.2c0.7,0,1.3-0.3,1.8-0.7s0.7-1.1,0.7-1.8s-0.3-1.3-0.7-1.8
					s-1.1-0.7-1.8-0.7s-1.3,0.3-1.8,0.7s-0.7,1.1-0.7,1.8s0.3,1.3,0.7,1.8S273.5,79.2,274.2,79.2z"/>
			</g>
			<g>
				<path id="mcdc01b03d9_37_" class="st8" d="M278.6,83.1c0.7,0,1.3-0.3,1.8-0.7s0.7-1.1,0.7-1.8s-0.3-1.3-0.7-1.8
					s-1.1-0.7-1.8-0.7s-1.3,0.3-1.8,0.7s-0.7,1.1-0.7,1.8s0.3,1.3,0.7,1.8S277.9,83.1,278.6,83.1z"/>
			</g>
			<g>
				<path id="mcdc01b03d9_38_" class="st8" d="M283,89.1c0.7,0,1.3-0.3,1.8-0.7s0.7-1.1,0.7-1.8s-0.3-1.3-0.7-1.8s-1.1-0.7-1.8-0.7
					s-1.3,0.3-1.8,0.7s-0.7,1.1-0.7,1.8s0.3,1.3,0.7,1.8S282.4,89.1,283,89.1z"/>
			</g>
			<g>
				<path id="mcdc01b03d9_39_" class="st8" d="M287.5,81c0.7,0,1.3-0.3,1.8-0.7s0.7-1.1,0.7-1.8s-0.3-1.3-0.7-1.8s-1.1-0.7-1.8-0.7
					s-1.3,0.3-1.8,0.7s-0.7,1.1-0.7,1.8s0.3,1.3,0.7,1.8S286.8,81,287.5,81z"/>
			</g>
			<g>
				<path id="mcdc01b03d9_40_" class="st8" d="M291.9,95.6c0.7,0,1.3-0.3,1.8-0.7s0.7-1.1,0.7-1.8s-0.3-1.3-0.7-1.8
					s-1.1-0.7-1.8-0.7s-1.3,0.3-1.8,0.7s-0.7,1.1-0.7,1.8s0.3,1.3,0.7,1.8S291.2,95.6,291.9,95.6z"/>
			</g>
			<g>
				<path id="mcdc01b03d9_41_" class="st8" d="M296.3,76.2c0.7,0,1.3-0.3,1.8-0.7s0.7-1.1,0.7-1.8s-0.3-1.3-0.7-1.8
					s-1.1-0.7-1.8-0.7s-1.3,0.3-1.8,0.7s-0.7,1.1-0.7,1.8s0.3,1.3,0.7,1.8S295.7,76.2,296.3,76.2z"/>
			</g>
			<g>
				<path id="mcdc01b03d9_42_" class="st8" d="M300.8,87.9c0.7,0,1.3-0.3,1.8-0.7s0.7-1.1,0.7-1.8s-0.3-1.3-0.7-1.8
					s-1.1-0.7-1.8-0.7s-1.3,0.3-1.8,0.7s-0.7,1.1-0.7,1.8s0.3,1.3,0.7,1.8S300.1,87.9,300.8,87.9z"/>
			</g>
			<g>
				<path id="mcdc01b03d9_43_" class="st8" d="M305.2,83.9c0.7,0,1.3-0.3,1.8-0.7s0.7-1.1,0.7-1.8s-0.3-1.3-0.7-1.8
					s-1.1-0.7-1.8-0.7s-1.3,0.3-1.8,0.7s-0.7,1.1-0.7,1.8s0.3,1.3,0.7,1.8S304.5,83.9,305.2,83.9z"/>
			</g>
			<g>
				<path id="mcdc01b03d9_44_" class="st8" d="M309.6,79.6c0.7,0,1.3-0.3,1.8-0.7s0.7-1.1,0.7-1.8s-0.3-1.3-0.7-1.8
					s-1.1-0.7-1.8-0.7s-1.3,0.3-1.8,0.7s-0.7,1.1-0.7,1.8s0.3,1.3,0.7,1.8S309,79.6,309.6,79.6z"/>
			</g>
			<g>
				<path id="mcdc01b03d9_45_" class="st8" d="M314.1,79.9c0.7,0,1.3-0.3,1.8-0.7s0.7-1.1,0.7-1.8s-0.3-1.3-0.7-1.8
					s-1.1-0.7-1.8-0.7s-1.3,0.3-1.8,0.7s-0.7,1.1-0.7,1.8s0.3,1.3,0.7,1.8S313.4,79.9,314.1,79.9z"/>
			</g>
			<g>
				<path id="mcdc01b03d9_46_" class="st8" d="M318.5,76.8c0.7,0,1.3-0.3,1.8-0.7s0.7-1.1,0.7-1.8s-0.3-1.3-0.7-1.8
					s-1.1-0.7-1.8-0.7s-1.3,0.3-1.8,0.7s-0.7,1.1-0.7,1.8s0.3,1.3,0.7,1.8S317.8,76.8,318.5,76.8z"/>
			</g>
			<g>
				<path id="mcdc01b03d9_47_" class="st8" d="M322.9,99c0.7,0,1.3-0.3,1.8-0.7s0.7-1.1,0.7-1.8s-0.3-1.3-0.7-1.8s-1.1-0.7-1.8-0.7
					s-1.3,0.3-1.8,0.7s-0.7,1.1-0.7,1.8s0.3,1.3,0.7,1.8S322.3,99,322.9,99z"/>
			</g>
			<g>
				<path id="mcdc01b03d9_48_" class="st8" d="M327.4,78.3c0.7,0,1.3-0.3,1.8-0.7s0.7-1.1,0.7-1.8s-0.3-1.3-0.7-1.8
					s-1.1-0.7-1.8-0.7s-1.3,0.3-1.8,0.7s-0.7,1.1-0.7,1.8s0.3,1.3,0.7,1.8S326.7,78.3,327.4,78.3z"/>
			</g>
			<g>
				<path id="mcdc01b03d9_49_" class="st8" d="M331.8,78.9c0.7,0,1.3-0.3,1.8-0.7s0.7-1.1,0.7-1.8s-0.3-1.3-0.7-1.8
					s-1.1-0.7-1.8-0.7s-1.3,0.3-1.8,0.7s-0.7,1.1-0.7,1.8s0.3,1.3,0.7,1.8S331.1,78.9,331.8,78.9z"/>
			</g>
			<g>
				<path id="mcdc01b03d9_50_" class="st8" d="M336.2,83c0.7,0,1.3-0.3,1.8-0.7s0.7-1.1,0.7-1.8s-0.3-1.3-0.7-1.8s-1.1-0.7-1.8-0.7
					s-1.3,0.3-1.8,0.7s-0.7,1.1-0.7,1.8s0.3,1.3,0.7,1.8S335.6,83,336.2,83z"/>
			</g>
			<g>
				<path id="mcdc01b03d9_51_" class="st8" d="M340.7,90.9c0.7,0,1.3-0.3,1.8-0.7s0.7-1.1,0.7-1.8s-0.3-1.3-0.7-1.8
					s-1.1-0.7-1.8-0.7s-1.3,0.3-1.8,0.7s-0.7,1.1-0.7,1.8s0.3,1.3,0.7,1.8S340,90.9,340.7,90.9z"/>
			</g>
			<g>
				<path id="mcdc01b03d9_52_" class="st8" d="M345.1,87.6c0.7,0,1.3-0.3,1.8-0.7s0.7-1.1,0.7-1.8s-0.3-1.3-0.7-1.8
					s-1.1-0.7-1.8-0.7s-1.3,0.3-1.8,0.7s-0.7,1.1-0.7,1.8s0.3,1.3,0.7,1.8S344.5,87.6,345.1,87.6z"/>
			</g>
			<g>
				<path id="mcdc01b03d9_53_" class="st8" d="M349.5,74.8c0.7,0,1.3-0.3,1.8-0.7s0.7-1.1,0.7-1.8s-0.3-1.3-0.7-1.8
					s-1.1-0.7-1.8-0.7s-1.3,0.3-1.8,0.7s-0.7,1.1-0.7,1.8s0.3,1.3,0.7,1.8S348.9,74.8,349.5,74.8z"/>
			</g>
			<g>
				<path id="mcdc01b03d9_54_" class="st8" d="M354,84.5c0.7,0,1.3-0.3,1.8-0.7s0.7-1.1,0.7-1.8s-0.3-1.3-0.7-1.8s-1.1-0.7-1.8-0.7
					s-1.3,0.3-1.8,0.7s-0.7,1.1-0.7,1.8s0.3,1.3,0.7,1.8S353.3,84.5,354,84.5z"/>
			</g>
			<g>
				<path id="mcdc01b03d9_55_" class="st8" d="M358.4,85.5c0.7,0,1.3-0.3,1.8-0.7s0.7-1.1,0.7-1.8s-0.3-1.3-0.7-1.8
					s-1.1-0.7-1.8-0.7s-1.3,0.3-1.8,0.7s-0.7,1.1-0.7,1.8s0.3,1.3,0.7,1.8S357.8,85.5,358.4,85.5z"/>
			</g>
			<g>
				<path id="mcdc01b03d9_56_" class="st8" d="M362.9,85.9c0.7,0,1.3-0.3,1.8-0.7s0.7-1.1,0.7-1.8s-0.3-1.3-0.7-1.8
					s-1.1-0.7-1.8-0.7s-1.3,0.3-1.8,0.7s-0.7,1.1-0.7,1.8s0.3,1.3,0.7,1.8S362.2,85.9,362.9,85.9z"/>
			</g>
			<g>
				<path id="mcdc01b03d9_57_" class="st8" d="M367.3,77.2c0.7,0,1.3-0.3,1.8-0.7s0.7-1.1,0.7-1.8s-0.3-1.3-0.7-1.8
					s-1.1-0.7-1.8-0.7s-1.3,0.3-1.8,0.7s-0.7,1.1-0.7,1.8s0.3,1.3,0.7,1.8S366.6,77.2,367.3,77.2z"/>
			</g>
			<g>
				<path id="mcdc01b03d9_58_" class="st8" d="M371.7,82.1c0.7,0,1.3-0.3,1.8-0.7s0.7-1.1,0.7-1.8s-0.3-1.3-0.7-1.8
					s-1.1-0.7-1.8-0.7s-1.3,0.3-1.8,0.7s-0.7,1.1-0.7,1.8s0.3,1.3,0.7,1.8S371.1,82.1,371.7,82.1z"/>
			</g>
			<g>
				<path id="mcdc01b03d9_59_" class="st8" d="M376.2,83.9c0.7,0,1.3-0.3,1.8-0.7s0.7-1.1,0.7-1.8s-0.3-1.3-0.7-1.8
					s-1.1-0.7-1.8-0.7s-1.3,0.3-1.8,0.7s-0.7,1.1-0.7,1.8s0.3,1.3,0.7,1.8S375.5,83.9,376.2,83.9z"/>
			</g>
			<g>
				<path id="mcdc01b03d9_60_" class="st8" d="M380.6,100.3c0.7,0,1.3-0.3,1.8-0.7s0.7-1.1,0.7-1.8s-0.3-1.3-0.7-1.8
					s-1.1-0.7-1.8-0.7s-1.3,0.3-1.8,0.7s-0.7,1.1-0.7,1.8s0.3,1.3,0.7,1.8S379.9,100.3,380.6,100.3z"/>
			</g>
			<g>
				<path id="mcdc01b03d9_61_" class="st8" d="M385,93.2c0.7,0,1.3-0.3,1.8-0.7s0.7-1.1,0.7-1.8s-0.3-1.3-0.7-1.8s-1.1-0.7-1.8-0.7
					s-1.3,0.3-1.8,0.7s-0.7,1.1-0.7,1.8s0.3,1.3,0.7,1.8S384.4,93.2,385,93.2z"/>
			</g>
			<g>
				<path id="mcdc01b03d9_62_" class="st8" d="M389.5,91.7c0.7,0,1.3-0.3,1.8-0.7s0.7-1.1,0.7-1.8s-0.3-1.3-0.7-1.8
					s-1.1-0.7-1.8-0.7s-1.3,0.3-1.8,0.7s-0.7,1.1-0.7,1.8s0.3,1.3,0.7,1.8S388.8,91.7,389.5,91.7z"/>
			</g>
		</g>
	</g>
</g>
<g id="line2d_17">
	<g>
		<path class="st9" d="M100.8,186.8h302.4"/>
	</g>
</g>
<g id="patch_3">
	<path class="st10" d="M96.8,319.1V54.5"/>
</g>
<g id="patch_4">
	<path class="st11" d="M114.5,349.6h266"/>
</g>
</svg>
