<?xml version="1.0" encoding="utf-8" standalone="no"?>
<!DOCTYPE svg PUBLIC "-//W3C//DTD SVG 1.1//EN"
  "http://www.w3.org/Graphics/SVG/1.1/DTD/svg11.dtd">
<!-- Created with matplotlib (https://matplotlib.org/) -->
<svg height="216pt" version="1.1" viewBox="0 0 216 216" width="216pt" xmlns="http://www.w3.org/2000/svg" xmlns:xlink="http://www.w3.org/1999/xlink">
 <metadata>
  <rdf:RDF xmlns:cc="http://creativecommons.org/ns#" xmlns:dc="http://purl.org/dc/elements/1.1/" xmlns:rdf="http://www.w3.org/1999/02/22-rdf-syntax-ns#">
   <cc:Work>
    <dc:type rdf:resource="http://purl.org/dc/dcmitype/StillImage"/>
    <dc:date>2021-12-18T15:11:24.181479</dc:date>
    <dc:format>image/svg+xml</dc:format>
    <dc:creator>
     <cc:Agent>
      <dc:title>Matplotlib v3.3.4, https://matplotlib.org/</dc:title>
     </cc:Agent>
    </dc:creator>
   </cc:Work>
  </rdf:RDF>
 </metadata>
 <defs>
  <style type="text/css">*{stroke-linecap:butt;stroke-linejoin:round;}</style>
 </defs>
 <g id="figure_1">
  <g id="patch_1">
   <path d="M 0 216 
L 216 216 
L 216 0 
L 0 0 
z
" style="fill:#ffffff;"/>
  </g>
  <g id="axes_1">
   <g id="patch_2">
    <path d="M 64.8 172.8 
L 151.2 172.8 
L 151.2 43.2 
L 64.8 43.2 
z
" style="fill:#ffffff;"/>
   </g>
   <g id="patch_3">
    <path clip-path="url(#p478dadac01)" d="M 67.68 172.8 
L 90.72 172.8 
L 90.72 100.660058 
L 67.68 100.660058 
z
" style="fill:#cccccc;"/>
   </g>
   <g id="patch_4">
    <path clip-path="url(#p478dadac01)" d="M 96.48 172.8 
L 119.52 172.8 
L 119.52 127.878717 
L 96.48 127.878717 
z
" style="fill:#cccccc;"/>
   </g>
   <g id="patch_5">
    <path clip-path="url(#p478dadac01)" d="M 125.28 172.8 
L 148.32 172.8 
L 148.32 142.966181 
L 125.28 142.966181 
z
" style="fill:#cccccc;"/>
   </g>
   <g id="PathCollection_1">
    <defs>
     <path d="M 0 1.5 
C 0.397805 1.5 0.77937 1.341951 1.06066 1.06066 
C 1.341951 0.77937 1.5 0.397805 1.5 -0 
C 1.5 -0.397805 1.341951 -0.77937 1.06066 -1.06066 
C 0.77937 -1.341951 0.397805 -1.5 0 -1.5 
C -0.397805 -1.5 -0.77937 -1.341951 -1.06066 -1.06066 
C -1.341951 -0.77937 -1.5 -0.397805 -1.5 0 
C -1.5 0.397805 -1.341951 0.77937 -1.06066 1.06066 
C -0.77937 1.341951 -0.397805 1.5 0 1.5 
z
" id="C0_0_5788eaf66d"/>
    </defs>
    <g clip-path="url(#p478dadac01)">
     <use style="fill:#ff00ff;" x="79.2" xlink:href="#C0_0_5788eaf66d" y="152.018659"/>
    </g>
    <g clip-path="url(#p478dadac01)">
     <use style="fill:#ff00ff;" x="79.2" xlink:href="#C0_0_5788eaf66d" y="111.715452"/>
    </g>
    <g clip-path="url(#p478dadac01)">
     <use style="fill:#ff00ff;" x="79.2" xlink:href="#C0_0_5788eaf66d" y="157.05656"/>
    </g>
    <g clip-path="url(#p478dadac01)">
     <use style="fill:#ff00ff;" x="79.2" xlink:href="#C0_0_5788eaf66d" y="105.418076"/>
    </g>
    <g clip-path="url(#p478dadac01)">
     <use style="fill:#ff00ff;" x="79.2" xlink:href="#C0_0_5788eaf66d" y="97.231487"/>
    </g>
    <g clip-path="url(#p478dadac01)">
     <use style="fill:#ff00ff;" x="79.2" xlink:href="#C0_0_5788eaf66d" y="56.298542"/>
    </g>
    <g clip-path="url(#p478dadac01)">
     <use style="fill:#ff00ff;" x="79.2" xlink:href="#C0_0_5788eaf66d" y="58.187755"/>
    </g>
    <g clip-path="url(#p478dadac01)">
     <use style="fill:#ff00ff;" x="79.2" xlink:href="#C0_0_5788eaf66d" y="49.371429"/>
    </g>
    <g clip-path="url(#p478dadac01)">
     <use style="fill:#ff00ff;" x="79.2" xlink:href="#C0_0_5788eaf66d" y="118.642566"/>
    </g>
   </g>
   <g id="PathCollection_2">
    <defs>
     <path d="M 0 1.5 
C 0.397805 1.5 0.77937 1.341951 1.06066 1.06066 
C 1.341951 0.77937 1.5 0.397805 1.5 -0 
C 1.5 -0.397805 1.341951 -0.77937 1.06066 -1.06066 
C 0.77937 -1.341951 0.397805 -1.5 0 -1.5 
C -0.397805 -1.5 -0.77937 -1.341951 -1.06066 -1.06066 
C -1.341951 -0.77937 -1.5 -0.397805 -1.5 0 
C -1.5 0.397805 -1.341951 0.77937 -1.06066 1.06066 
C -0.77937 1.341951 -0.397805 1.5 0 1.5 
z
" id="C1_0_540e2d309e"/>
    </defs>
    <g clip-path="url(#p478dadac01)">
     <use style="fill:#ffa500;" x="108" xlink:href="#C1_0_540e2d309e" y="157.05656"/>
    </g>
    <g clip-path="url(#p478dadac01)">
     <use style="fill:#ffa500;" x="108" xlink:href="#C1_0_540e2d309e" y="158.945773"/>
    </g>
    <g clip-path="url(#p478dadac01)">
     <use style="fill:#ffa500;" x="108" xlink:href="#C1_0_540e2d309e" y="111.085714"/>
    </g>
    <g clip-path="url(#p478dadac01)">
     <use style="fill:#ffa500;" x="108" xlink:href="#C1_0_540e2d309e" y="135.645481"/>
    </g>
    <g clip-path="url(#p478dadac01)">
     <use style="fill:#ffa500;" x="108" xlink:href="#C1_0_540e2d309e" y="82.747522"/>
    </g>
    <g clip-path="url(#p478dadac01)">
     <use style="fill:#ffa500;" x="108" xlink:href="#C1_0_540e2d309e" y="111.715452"/>
    </g>
    <g clip-path="url(#p478dadac01)">
     <use style="fill:#ffa500;" x="108" xlink:href="#C1_0_540e2d309e" y="115.493878"/>
    </g>
    <g clip-path="url(#p478dadac01)">
     <use style="fill:#ffa500;" x="108" xlink:href="#C1_0_540e2d309e" y="146.980758"/>
    </g>
    <g clip-path="url(#p478dadac01)">
     <use style="fill:#ffa500;" x="108" xlink:href="#C1_0_540e2d309e" y="131.237318"/>
    </g>
   </g>
   <g id="PathCollection_3">
    <defs>
     <path d="M 0 1.5 
C 0.397805 1.5 0.77937 1.341951 1.06066 1.06066 
C 1.341951 0.77937 1.5 0.397805 1.5 -0 
C 1.5 -0.397805 1.341951 -0.77937 1.06066 -1.06066 
C 0.77937 -1.341951 0.397805 -1.5 0 -1.5 
C -0.397805 -1.5 -0.77937 -1.341951 -1.06066 -1.06066 
C -1.341951 -0.77937 -1.5 -0.397805 -1.5 0 
C -1.5 0.397805 -1.341951 0.77937 -1.06066 1.06066 
C -0.77937 1.341951 -0.397805 1.5 0 1.5 
z
" id="C2_0_84ea793c01"/>
    </defs>
    <g clip-path="url(#p478dadac01)">
     <use style="fill:#1e90ff;" x="136.8" xlink:href="#C2_0_84ea793c01" y="158.945773"/>
    </g>
    <g clip-path="url(#p478dadac01)">
     <use style="fill:#1e90ff;" x="136.8" xlink:href="#C2_0_84ea793c01" y="148.869971"/>
    </g>
    <g clip-path="url(#p478dadac01)">
     <use style="fill:#1e90ff;" x="136.8" xlink:href="#C2_0_84ea793c01" y="154.537609"/>
    </g>
    <g clip-path="url(#p478dadac01)">
     <use style="fill:#1e90ff;" x="136.8" xlink:href="#C2_0_84ea793c01" y="118.012828"/>
    </g>
    <g clip-path="url(#p478dadac01)">
     <use style="fill:#1e90ff;" x="136.8" xlink:href="#C2_0_84ea793c01" y="142.572595"/>
    </g>
    <g clip-path="url(#p478dadac01)">
     <use style="fill:#1e90ff;" x="136.8" xlink:href="#C2_0_84ea793c01" y="123.680466"/>
    </g>
    <g clip-path="url(#p478dadac01)">
     <use style="fill:#1e90ff;" x="136.8" xlink:href="#C2_0_84ea793c01" y="143.202332"/>
    </g>
    <g clip-path="url(#p478dadac01)">
     <use style="fill:#1e90ff;" x="136.8" xlink:href="#C2_0_84ea793c01" y="153.907872"/>
    </g>
   </g>
   <g id="PathCollection_4"/>
   <g id="PathCollection_5"/>
   <g id="PathCollection_6"/>
   <g id="matplotlib.axis_1">
    <g id="xtick_1">
     <g id="line2d_1"/>
     <g id="text_1">
      <text style="font-family:DejaVu Sans;font-size:6px;font-stretch:normal;font-style:normal;font-weight:normal;text-anchor:middle;" transform="rotate(-0, 79.2, 180.859062)" x="79.2" y="180.859062">V1</text>
     </g>
    </g>
    <g id="xtick_2">
     <g id="line2d_2"/>
     <g id="text_2">
      <text style="font-family:DejaVu Sans;font-size:6px;font-stretch:normal;font-style:normal;font-weight:normal;text-anchor:middle;" transform="rotate(-0, 108, 180.859062)" x="108" y="180.859062">Lm</text>
     </g>
    </g>
    <g id="xtick_3">
     <g id="line2d_3"/>
     <g id="text_3">
      <text style="font-family:DejaVu Sans;font-size:6px;font-stretch:normal;font-style:normal;font-weight:normal;text-anchor:middle;" transform="rotate(-0, 136.8, 180.859062)" x="136.8" y="180.859062">Li</text>
     </g>
    </g>
   </g>
   <g id="matplotlib.axis_2">
    <g id="ytick_1">
     <g id="line2d_4">
      <defs>
       <path d="M 0 0 
L -3.5 0 
" id="m13bad162db" style="stroke:#000000;stroke-width:0.25;"/>
      </defs>
      <g>
       <use style="stroke:#000000;stroke-width:0.25;" x="62.8" xlink:href="#m13bad162db" y="172.8"/>
      </g>
     </g>
     <g id="text_4">
      <text style="font-family:DejaVu Sans;font-size:6px;font-stretch:normal;font-style:normal;font-weight:normal;text-anchor:end;" transform="rotate(-0, 55.8, 175.079531)" x="55.8" y="175.079531">0</text>
     </g>
    </g>
    <g id="ytick_2">
     <g id="line2d_5">
      <g>
       <use style="stroke:#000000;stroke-width:0.25;" x="62.8" xlink:href="#m13bad162db" y="157.05656"/>
      </g>
     </g>
     <g id="text_5">
      <text style="font-family:DejaVu Sans;font-size:6px;font-stretch:normal;font-style:normal;font-weight:normal;text-anchor:end;" transform="rotate(-0, 55.8, 159.336091)" x="55.8" y="159.336091">25</text>
     </g>
    </g>
    <g id="ytick_3">
     <g id="line2d_6">
      <g>
       <use style="stroke:#000000;stroke-width:0.25;" x="62.8" xlink:href="#m13bad162db" y="141.31312"/>
      </g>
     </g>
     <g id="text_6">
      <text style="font-family:DejaVu Sans;font-size:6px;font-stretch:normal;font-style:normal;font-weight:normal;text-anchor:end;" transform="rotate(-0, 55.8, 143.592651)" x="55.8" y="143.592651">50</text>
     </g>
    </g>
    <g id="ytick_4">
     <g id="line2d_7">
      <g>
       <use style="stroke:#000000;stroke-width:0.25;" x="62.8" xlink:href="#m13bad162db" y="125.569679"/>
      </g>
     </g>
     <g id="text_7">
      <text style="font-family:DejaVu Sans;font-size:6px;font-stretch:normal;font-style:normal;font-weight:normal;text-anchor:end;" transform="rotate(-0, 55.8, 127.849211)" x="55.8" y="127.849211">75</text>
     </g>
    </g>
    <g id="ytick_5">
     <g id="line2d_8">
      <g>
       <use style="stroke:#000000;stroke-width:0.25;" x="62.8" xlink:href="#m13bad162db" y="109.826239"/>
      </g>
     </g>
     <g id="text_8">
      <text style="font-family:DejaVu Sans;font-size:6px;font-stretch:normal;font-style:normal;font-weight:normal;text-anchor:end;" transform="rotate(-0, 55.8, 112.10577)" x="55.8" y="112.10577">100</text>
     </g>
    </g>
    <g id="ytick_6">
     <g id="line2d_9">
      <g>
       <use style="stroke:#000000;stroke-width:0.25;" x="62.8" xlink:href="#m13bad162db" y="94.082799"/>
      </g>
     </g>
     <g id="text_9">
      <text style="font-family:DejaVu Sans;font-size:6px;font-stretch:normal;font-style:normal;font-weight:normal;text-anchor:end;" transform="rotate(-0, 55.8, 96.36233)" x="55.8" y="96.36233">125</text>
     </g>
    </g>
    <g id="ytick_7">
     <g id="line2d_10">
      <g>
       <use style="stroke:#000000;stroke-width:0.25;" x="62.8" xlink:href="#m13bad162db" y="78.339359"/>
      </g>
     </g>
     <g id="text_10">
      <text style="font-family:DejaVu Sans;font-size:6px;font-stretch:normal;font-style:normal;font-weight:normal;text-anchor:end;" transform="rotate(-0, 55.8, 80.61889)" x="55.8" y="80.61889">150</text>
     </g>
    </g>
    <g id="ytick_8">
     <g id="line2d_11">
      <g>
       <use style="stroke:#000000;stroke-width:0.25;" x="62.8" xlink:href="#m13bad162db" y="62.595918"/>
      </g>
     </g>
     <g id="text_11">
      <text style="font-family:DejaVu Sans;font-size:6px;font-stretch:normal;font-style:normal;font-weight:normal;text-anchor:end;" transform="rotate(-0, 55.8, 64.87545)" x="55.8" y="64.87545">175</text>
     </g>
    </g>
    <g id="ytick_9">
     <g id="line2d_12">
      <g>
       <use style="stroke:#000000;stroke-width:0.25;" x="62.8" xlink:href="#m13bad162db" y="46.852478"/>
      </g>
     </g>
     <g id="text_12">
      <text style="font-family:DejaVu Sans;font-size:6px;font-stretch:normal;font-style:normal;font-weight:normal;text-anchor:end;" transform="rotate(-0, 55.8, 49.132009)" x="55.8" y="49.132009">200</text>
     </g>
    </g>
    <g id="text_13">
     <text style="font-family:DejaVu Sans;font-size:7px;font-stretch:normal;font-style:normal;font-weight:normal;" transform="translate(31.05325 147.604141)rotate(-90)">decoding performance</text>
     <text style="font-family:DejaVu Sans;font-size:7px;font-stretch:normal;font-style:normal;font-weight:normal;" transform="translate(38.891719 143.348906)rotate(-90)">(intact over chance)</text>
    </g>
   </g>
   <g id="patch_6">
    <path d="M 62.8 172.8 
L 62.8 43.2 
" style="fill:none;stroke:#000000;stroke-linecap:square;stroke-linejoin:miter;stroke-width:0.25;"/>
   </g>
  </g>
  <g id="text_14">
   <text style="font-family:DejaVu Sans;font-size:7px;font-stretch:normal;font-style:normal;font-weight:normal;" transform="translate(2.16 13.566844)">[blobs] Relative scores, n_cells</text>
   <text style="font-family:DejaVu Sans;font-size:7px;font-stretch:normal;font-style:normal;font-weight:normal;" transform="translate(2.16 21.6)">(unique data, min_ncells=10)</text>
  </g>
  <g id="text_15">
   <text style="font-family:DejaVu Sans;font-size:8px;font-stretch:normal;font-style:normal;font-weight:normal;text-anchor:start;" transform="rotate(-0, 0, 6.11375)" x="0" y="6.11375">traces001|dff_responsive-ROC-thr0.05</text>
  </g>
 </g>
 <defs>
  <clipPath id="p478dadac01">
   <rect height="129.6" width="86.4" x="64.8" y="43.2"/>
  </clipPath>
 </defs>
</svg>
