<?xml version="1.0" encoding="utf-8" standalone="no"?>
<!DOCTYPE svg PUBLIC "-//W3C//DTD SVG 1.1//EN"
  "http://www.w3.org/Graphics/SVG/1.1/DTD/svg11.dtd">
<!-- Created with matplotlib (https://matplotlib.org/) -->
<svg height="216pt" version="1.1" viewBox="0 0 504 216" width="504pt" xmlns="http://www.w3.org/2000/svg" xmlns:xlink="http://www.w3.org/1999/xlink">
 <metadata>
  <rdf:RDF xmlns:cc="http://creativecommons.org/ns#" xmlns:dc="http://purl.org/dc/elements/1.1/" xmlns:rdf="http://www.w3.org/1999/02/22-rdf-syntax-ns#">
   <cc:Work>
    <dc:type rdf:resource="http://purl.org/dc/dcmitype/StillImage"/>
    <dc:date>2021-12-17T16:09:25.248395</dc:date>
    <dc:format>image/svg+xml</dc:format>
    <dc:creator>
     <cc:Agent>
      <dc:title>Matplotlib v3.3.4, https://matplotlib.org/</dc:title>
     </cc:Agent>
    </dc:creator>
   </cc:Work>
  </rdf:RDF>
 </metadata>
 <defs>
  <style type="text/css">*{stroke-linecap:butt;stroke-linejoin:round;}</style>
 </defs>
 <g id="figure_1">
  <g id="patch_1">
   <path d="M 0 216 
L 504 216 
L 504 0 
L 0 0 
z
" style="fill:#ffffff;"/>
  </g>
  <g id="axes_1">
   <g id="patch_2">
    <path d="M 50.4 152.1 
L 138.6 152.1 
L 138.6 63.9 
L 50.4 63.9 
z
" style="fill:#ffffff;"/>
   </g>
   <g id="PathCollection_1"/>
   <g id="patch_3">
    <path clip-path="url(#p4970ebcf23)" d="M 52.164 115.35 
L 66.276 115.35 
L 66.276 117.288147 
L 52.164 117.288147 
z
" style="fill:#b2b2b2;"/>
   </g>
   <g id="patch_4">
    <path clip-path="url(#p4970ebcf23)" d="M 69.804 115.35 
L 83.916 115.35 
L 83.916 108.685813 
L 69.804 108.685813 
z
" style="fill:#b2b2b2;"/>
   </g>
   <g id="patch_5">
    <path clip-path="url(#p4970ebcf23)" d="M 87.444 115.35 
L 101.556 115.35 
L 101.556 106.332268 
L 87.444 106.332268 
z
" style="fill:#b2b2b2;"/>
   </g>
   <g id="patch_6">
    <path clip-path="url(#p4970ebcf23)" d="M 105.084 115.35 
L 119.196 115.35 
L 119.196 103.023895 
L 105.084 103.023895 
z
" style="fill:#b2b2b2;"/>
   </g>
   <g id="patch_7">
    <path clip-path="url(#p4970ebcf23)" d="M 122.724 115.35 
L 136.836 115.35 
L 136.836 98.308261 
L 122.724 98.308261 
z
" style="fill:#b2b2b2;"/>
   </g>
   <g id="matplotlib.axis_1">
    <g id="xtick_1">
     <g id="line2d_1">
      <defs>
       <path d="M 0 0 
L 0 3.5 
" id="m59c1a3072d" style="stroke:#000000;stroke-width:0.25;"/>
      </defs>
      <g>
       <use style="stroke:#000000;stroke-width:0.25;" x="59.22" xlink:href="#m59c1a3072d" y="152.1"/>
      </g>
     </g>
     <g id="text_1">
      <text style="font-family:DejaVu Sans;font-size:6px;font-stretch:normal;font-style:normal;font-weight:normal;text-anchor:middle;" transform="rotate(-0, 59.22, 163.659063)" x="59.22" y="163.659063">10.0</text>
     </g>
    </g>
    <g id="xtick_2">
     <g id="line2d_2">
      <g>
       <use style="stroke:#000000;stroke-width:0.25;" x="76.86" xlink:href="#m59c1a3072d" y="152.1"/>
      </g>
     </g>
     <g id="text_2">
      <text style="font-family:DejaVu Sans;font-size:6px;font-stretch:normal;font-style:normal;font-weight:normal;text-anchor:middle;" transform="rotate(-0, 76.86, 163.659063)" x="76.86" y="163.659063">20.0</text>
     </g>
    </g>
    <g id="xtick_3">
     <g id="line2d_3">
      <g>
       <use style="stroke:#000000;stroke-width:0.25;" x="94.5" xlink:href="#m59c1a3072d" y="152.1"/>
      </g>
     </g>
     <g id="text_3">
      <text style="font-family:DejaVu Sans;font-size:6px;font-stretch:normal;font-style:normal;font-weight:normal;text-anchor:middle;" transform="rotate(-0, 94.5, 163.659063)" x="94.5" y="163.659063">30.0</text>
     </g>
    </g>
    <g id="xtick_4">
     <g id="line2d_4">
      <g>
       <use style="stroke:#000000;stroke-width:0.25;" x="112.14" xlink:href="#m59c1a3072d" y="152.1"/>
      </g>
     </g>
     <g id="text_4">
      <text style="font-family:DejaVu Sans;font-size:6px;font-stretch:normal;font-style:normal;font-weight:normal;text-anchor:middle;" transform="rotate(-0, 112.14, 163.659063)" x="112.14" y="163.659063">40.0</text>
     </g>
    </g>
    <g id="xtick_5">
     <g id="line2d_5">
      <g>
       <use style="stroke:#000000;stroke-width:0.25;" x="129.78" xlink:href="#m59c1a3072d" y="152.1"/>
      </g>
     </g>
     <g id="text_5">
      <text style="font-family:DejaVu Sans;font-size:6px;font-stretch:normal;font-style:normal;font-weight:normal;text-anchor:middle;" transform="rotate(-0, 129.78, 163.659063)" x="129.78" y="163.659063">50.0</text>
     </g>
    </g>
    <g id="text_6">
     <text style="font-family:DejaVu Sans;font-size:7px;font-stretch:normal;font-style:normal;font-weight:normal;text-anchor:middle;" transform="rotate(-0, 94.5, 174.225781)" x="94.5" y="174.225781">train_transform</text>
    </g>
   </g>
   <g id="matplotlib.axis_2">
    <g id="ytick_1">
     <g id="line2d_6">
      <defs>
       <path d="M 0 0 
L -3.5 0 
" id="mfcc584f2d1" style="stroke:#000000;stroke-width:0.25;"/>
      </defs>
      <g>
       <use style="stroke:#000000;stroke-width:0.25;" x="50.4" xlink:href="#mfcc584f2d1" y="152.1"/>
      </g>
     </g>
     <g id="text_7">
      <text style="font-family:DejaVu Sans;font-size:6px;font-stretch:normal;font-style:normal;font-weight:normal;text-anchor:end;" transform="rotate(-0, 43.4, 154.379531)" x="43.4" y="154.379531">-0.5</text>
     </g>
    </g>
    <g id="ytick_2">
     <g id="line2d_7">
      <g>
       <use style="stroke:#000000;stroke-width:0.25;" x="50.4" xlink:href="#mfcc584f2d1" y="130.05"/>
      </g>
     </g>
     <g id="text_8">
      <text style="font-family:DejaVu Sans;font-size:6px;font-stretch:normal;font-style:normal;font-weight:normal;text-anchor:end;" transform="rotate(-0, 43.4, 132.329531)" x="43.4" y="132.329531">-0.2</text>
     </g>
    </g>
    <g id="ytick_3">
     <g id="line2d_8">
      <g>
       <use style="stroke:#000000;stroke-width:0.25;" x="50.4" xlink:href="#mfcc584f2d1" y="108"/>
      </g>
     </g>
     <g id="text_9">
      <text style="font-family:DejaVu Sans;font-size:6px;font-stretch:normal;font-style:normal;font-weight:normal;text-anchor:end;" transform="rotate(-0, 43.4, 110.279531)" x="43.4" y="110.279531">0.1</text>
     </g>
    </g>
    <g id="ytick_4">
     <g id="line2d_9">
      <g>
       <use style="stroke:#000000;stroke-width:0.25;" x="50.4" xlink:href="#mfcc584f2d1" y="85.95"/>
      </g>
     </g>
     <g id="text_10">
      <text style="font-family:DejaVu Sans;font-size:6px;font-stretch:normal;font-style:normal;font-weight:normal;text-anchor:end;" transform="rotate(-0, 43.4, 88.229531)" x="43.4" y="88.229531">0.4</text>
     </g>
    </g>
    <g id="ytick_5">
     <g id="line2d_10">
      <g>
       <use style="stroke:#000000;stroke-width:0.25;" x="50.4" xlink:href="#mfcc584f2d1" y="63.9"/>
      </g>
     </g>
     <g id="text_11">
      <text style="font-family:DejaVu Sans;font-size:6px;font-stretch:normal;font-style:normal;font-weight:normal;text-anchor:end;" transform="rotate(-0, 43.4, 66.179531)" x="43.4" y="66.179531">0.7</text>
     </g>
    </g>
    <g id="text_12">
     <text style="font-family:DejaVu Sans;font-size:7px;font-stretch:normal;font-style:normal;font-weight:normal;" transform="translate(18.399188 147.604141)rotate(-90)">decoding performance</text>
     <text style="font-family:DejaVu Sans;font-size:7px;font-stretch:normal;font-style:normal;font-weight:normal;" transform="translate(26.237656 161.414375)rotate(-90)">([shuffled-intact] over chance)</text>
    </g>
   </g>
   <g id="patch_8">
    <path d="M 50.4 152.1 
L 50.4 63.9 
" style="fill:none;stroke:#000000;stroke-linecap:square;stroke-linejoin:miter;stroke-width:0.25;"/>
   </g>
   <g id="patch_9">
    <path d="M 138.6 152.1 
L 138.6 63.9 
" style="fill:none;stroke:#000000;stroke-linecap:square;stroke-linejoin:miter;stroke-width:0.25;"/>
   </g>
   <g id="patch_10">
    <path d="M 50.4 152.1 
L 138.6 152.1 
" style="fill:none;stroke:#000000;stroke-linecap:square;stroke-linejoin:miter;stroke-width:0.25;"/>
   </g>
   <g id="patch_11">
    <path d="M 50.4 63.9 
L 138.6 63.9 
" style="fill:none;stroke:#000000;stroke-linecap:square;stroke-linejoin:miter;stroke-width:0.25;"/>
   </g>
   <g id="PathCollection_2">
    <defs>
     <path d="M 0 1.25 
C 0.331504 1.25 0.649475 1.118292 0.883883 0.883883 
C 1.118292 0.649475 1.25 0.331504 1.25 -0 
C 1.25 -0.331504 1.118292 -0.649475 0.883883 -0.883883 
C 0.649475 -1.118292 0.331504 -1.25 0 -1.25 
C -0.331504 -1.25 -0.649475 -1.118292 -0.883883 -0.883883 
C -1.118292 -0.649475 -1.25 -0.331504 -1.25 0 
C -1.25 0.331504 -1.118292 0.649475 -0.883883 0.883883 
C -0.649475 1.118292 -0.331504 1.25 0 1.25 
z
" id="C0_0_b01f7e65b3"/>
    </defs>
    <g clip-path="url(#p4970ebcf23)">
     <use style="fill:#ff00ff;" x="59.22" xlink:href="#C0_0_b01f7e65b3" y="103.950204"/>
    </g>
    <g clip-path="url(#p4970ebcf23)">
     <use style="fill:#ff00ff;" x="59.22" xlink:href="#C0_0_b01f7e65b3" y="104.783099"/>
    </g>
    <g clip-path="url(#p4970ebcf23)">
     <use style="fill:#ff00ff;" x="59.22" xlink:href="#C0_0_b01f7e65b3" y="126.426112"/>
    </g>
    <g clip-path="url(#p4970ebcf23)">
     <use style="fill:#ff00ff;" x="59.22" xlink:href="#C0_0_b01f7e65b3" y="111.782981"/>
    </g>
    <g clip-path="url(#p4970ebcf23)">
     <use style="fill:#ff00ff;" x="59.22" xlink:href="#C0_0_b01f7e65b3" y="122.280521"/>
    </g>
    <g clip-path="url(#p4970ebcf23)">
     <use style="fill:#ff00ff;" x="59.22" xlink:href="#C0_0_b01f7e65b3" y="103.00034"/>
    </g>
    <g clip-path="url(#p4970ebcf23)">
     <use style="fill:#ff00ff;" x="59.22" xlink:href="#C0_0_b01f7e65b3" y="148.339053"/>
    </g>
    <g clip-path="url(#p4970ebcf23)">
     <use style="fill:#ff00ff;" x="59.22" xlink:href="#C0_0_b01f7e65b3" y="114.692227"/>
    </g>
    <g clip-path="url(#p4970ebcf23)">
     <use style="fill:#ff00ff;" x="59.22" xlink:href="#C0_0_b01f7e65b3" y="120.338783"/>
    </g>
   </g>
   <g id="PathCollection_3">
    <defs>
     <path d="M 0 1.25 
C 0.331504 1.25 0.649475 1.118292 0.883883 0.883883 
C 1.118292 0.649475 1.25 0.331504 1.25 -0 
C 1.25 -0.331504 1.118292 -0.649475 0.883883 -0.883883 
C 0.649475 -1.118292 0.331504 -1.25 0 -1.25 
C -0.331504 -1.25 -0.649475 -1.118292 -0.883883 -0.883883 
C -1.118292 -0.649475 -1.25 -0.331504 -1.25 0 
C -1.25 0.331504 -1.118292 0.649475 -0.883883 0.883883 
C -0.649475 1.118292 -0.331504 1.25 0 1.25 
z
" id="C1_0_9bd5d12eaa"/>
    </defs>
    <g clip-path="url(#p4970ebcf23)">
     <use style="fill:#ff00ff;" x="76.86" xlink:href="#C1_0_9bd5d12eaa" y="118.999454"/>
    </g>
    <g clip-path="url(#p4970ebcf23)">
     <use style="fill:#ff00ff;" x="76.86" xlink:href="#C1_0_9bd5d12eaa" y="115.839348"/>
    </g>
    <g clip-path="url(#p4970ebcf23)">
     <use style="fill:#ff00ff;" x="76.86" xlink:href="#C1_0_9bd5d12eaa" y="121.608278"/>
    </g>
    <g clip-path="url(#p4970ebcf23)">
     <use style="fill:#ff00ff;" x="76.86" xlink:href="#C1_0_9bd5d12eaa" y="112.296222"/>
    </g>
    <g clip-path="url(#p4970ebcf23)">
     <use style="fill:#ff00ff;" x="76.86" xlink:href="#C1_0_9bd5d12eaa" y="101.521167"/>
    </g>
    <g clip-path="url(#p4970ebcf23)">
     <use style="fill:#ff00ff;" x="76.86" xlink:href="#C1_0_9bd5d12eaa" y="101.25512"/>
    </g>
    <g clip-path="url(#p4970ebcf23)">
     <use style="fill:#ff00ff;" x="76.86" xlink:href="#C1_0_9bd5d12eaa" y="81.043516"/>
    </g>
    <g clip-path="url(#p4970ebcf23)">
     <use style="fill:#ff00ff;" x="76.86" xlink:href="#C1_0_9bd5d12eaa" y="103.382867"/>
    </g>
    <g clip-path="url(#p4970ebcf23)">
     <use style="fill:#ff00ff;" x="76.86" xlink:href="#C1_0_9bd5d12eaa" y="122.226343"/>
    </g>
   </g>
   <g id="PathCollection_4">
    <defs>
     <path d="M 0 1.25 
C 0.331504 1.25 0.649475 1.118292 0.883883 0.883883 
C 1.118292 0.649475 1.25 0.331504 1.25 -0 
C 1.25 -0.331504 1.118292 -0.649475 0.883883 -0.883883 
C 0.649475 -1.118292 0.331504 -1.25 0 -1.25 
C -0.331504 -1.25 -0.649475 -1.118292 -0.883883 -0.883883 
C -1.118292 -0.649475 -1.25 -0.331504 -1.25 0 
C -1.25 0.331504 -1.118292 0.649475 -0.883883 0.883883 
C -0.649475 1.118292 -0.331504 1.25 0 1.25 
z
" id="C2_0_83fb49c310"/>
    </defs>
    <g clip-path="url(#p4970ebcf23)">
     <use style="fill:#ff00ff;" x="94.5" xlink:href="#C2_0_83fb49c310" y="125.553149"/>
    </g>
    <g clip-path="url(#p4970ebcf23)">
     <use style="fill:#ff00ff;" x="94.5" xlink:href="#C2_0_83fb49c310" y="105.352641"/>
    </g>
    <g clip-path="url(#p4970ebcf23)">
     <use style="fill:#ff00ff;" x="94.5" xlink:href="#C2_0_83fb49c310" y="116.926528"/>
    </g>
    <g clip-path="url(#p4970ebcf23)">
     <use style="fill:#ff00ff;" x="94.5" xlink:href="#C2_0_83fb49c310" y="95.535792"/>
    </g>
    <g clip-path="url(#p4970ebcf23)">
     <use style="fill:#ff00ff;" x="94.5" xlink:href="#C2_0_83fb49c310" y="131.389064"/>
    </g>
    <g clip-path="url(#p4970ebcf23)">
     <use style="fill:#ff00ff;" x="94.5" xlink:href="#C2_0_83fb49c310" y="92.765028"/>
    </g>
    <g clip-path="url(#p4970ebcf23)">
     <use style="fill:#ff00ff;" x="94.5" xlink:href="#C2_0_83fb49c310" y="92.712146"/>
    </g>
    <g clip-path="url(#p4970ebcf23)">
     <use style="fill:#ff00ff;" x="94.5" xlink:href="#C2_0_83fb49c310" y="89.074519"/>
    </g>
    <g clip-path="url(#p4970ebcf23)">
     <use style="fill:#ff00ff;" x="94.5" xlink:href="#C2_0_83fb49c310" y="107.681546"/>
    </g>
   </g>
   <g id="PathCollection_5">
    <defs>
     <path d="M 0 1.25 
C 0.331504 1.25 0.649475 1.118292 0.883883 0.883883 
C 1.118292 0.649475 1.25 0.331504 1.25 -0 
C 1.25 -0.331504 1.118292 -0.649475 0.883883 -0.883883 
C 0.649475 -1.118292 0.331504 -1.25 0 -1.25 
C -0.331504 -1.25 -0.649475 -1.118292 -0.883883 -0.883883 
C -1.118292 -0.649475 -1.25 -0.331504 -1.25 0 
C -1.25 0.331504 -1.118292 0.649475 -0.883883 0.883883 
C -0.649475 1.118292 -0.331504 1.25 0 1.25 
z
" id="C3_0_95148ec829"/>
    </defs>
    <g clip-path="url(#p4970ebcf23)">
     <use style="fill:#ff00ff;" x="112.14" xlink:href="#C3_0_95148ec829" y="125.083784"/>
    </g>
    <g clip-path="url(#p4970ebcf23)">
     <use style="fill:#ff00ff;" x="112.14" xlink:href="#C3_0_95148ec829" y="116.059672"/>
    </g>
    <g clip-path="url(#p4970ebcf23)">
     <use style="fill:#ff00ff;" x="112.14" xlink:href="#C3_0_95148ec829" y="122.645623"/>
    </g>
    <g clip-path="url(#p4970ebcf23)">
     <use style="fill:#ff00ff;" x="112.14" xlink:href="#C3_0_95148ec829" y="88.676913"/>
    </g>
    <g clip-path="url(#p4970ebcf23)">
     <use style="fill:#ff00ff;" x="112.14" xlink:href="#C3_0_95148ec829" y="81.146786"/>
    </g>
    <g clip-path="url(#p4970ebcf23)">
     <use style="fill:#ff00ff;" x="112.14" xlink:href="#C3_0_95148ec829" y="98.659299"/>
    </g>
    <g clip-path="url(#p4970ebcf23)">
     <use style="fill:#ff00ff;" x="112.14" xlink:href="#C3_0_95148ec829" y="98.970489"/>
    </g>
    <g clip-path="url(#p4970ebcf23)">
     <use style="fill:#ff00ff;" x="112.14" xlink:href="#C3_0_95148ec829" y="79.867241"/>
    </g>
    <g clip-path="url(#p4970ebcf23)">
     <use style="fill:#ff00ff;" x="112.14" xlink:href="#C3_0_95148ec829" y="116.105245"/>
    </g>
   </g>
   <g id="PathCollection_6">
    <defs>
     <path d="M 0 1.25 
C 0.331504 1.25 0.649475 1.118292 0.883883 0.883883 
C 1.118292 0.649475 1.25 0.331504 1.25 -0 
C 1.25 -0.331504 1.118292 -0.649475 0.883883 -0.883883 
C 0.649475 -1.118292 0.331504 -1.25 0 -1.25 
C -0.331504 -1.25 -0.649475 -1.118292 -0.883883 -0.883883 
C -1.118292 -0.649475 -1.25 -0.331504 -1.25 0 
C -1.25 0.331504 -1.118292 0.649475 -0.883883 0.883883 
C -0.649475 1.118292 -0.331504 1.25 0 1.25 
z
" id="C4_0_eda7f0ad10"/>
    </defs>
    <g clip-path="url(#p4970ebcf23)">
     <use style="fill:#ff00ff;" x="129.78" xlink:href="#C4_0_eda7f0ad10" y="109.444516"/>
    </g>
    <g clip-path="url(#p4970ebcf23)">
     <use style="fill:#ff00ff;" x="129.78" xlink:href="#C4_0_eda7f0ad10" y="112.581591"/>
    </g>
    <g clip-path="url(#p4970ebcf23)">
     <use style="fill:#ff00ff;" x="129.78" xlink:href="#C4_0_eda7f0ad10" y="108.226451"/>
    </g>
    <g clip-path="url(#p4970ebcf23)">
     <use style="fill:#ff00ff;" x="129.78" xlink:href="#C4_0_eda7f0ad10" y="97.724688"/>
    </g>
    <g clip-path="url(#p4970ebcf23)">
     <use style="fill:#ff00ff;" x="129.78" xlink:href="#C4_0_eda7f0ad10" y="85.14651"/>
    </g>
    <g clip-path="url(#p4970ebcf23)">
     <use style="fill:#ff00ff;" x="129.78" xlink:href="#C4_0_eda7f0ad10" y="91.487788"/>
    </g>
    <g clip-path="url(#p4970ebcf23)">
     <use style="fill:#ff00ff;" x="129.78" xlink:href="#C4_0_eda7f0ad10" y="94.739539"/>
    </g>
    <g clip-path="url(#p4970ebcf23)">
     <use style="fill:#ff00ff;" x="129.78" xlink:href="#C4_0_eda7f0ad10" y="85.425525"/>
    </g>
    <g clip-path="url(#p4970ebcf23)">
     <use style="fill:#ff00ff;" x="129.78" xlink:href="#C4_0_eda7f0ad10" y="99.997739"/>
    </g>
   </g>
   <g id="text_13">
    <text style="font-family:DejaVu Sans;font-size:9px;font-stretch:normal;font-style:normal;font-weight:normal;text-anchor:middle;" transform="rotate(-0, 94.5, 57.9)" x="94.5" y="57.9">V1</text>
   </g>
  </g>
  <g id="axes_2">
   <g id="patch_12">
    <path d="M 182.7 152.1 
L 270.9 152.1 
L 270.9 63.9 
L 182.7 63.9 
z
" style="fill:#ffffff;"/>
   </g>
   <g id="PathCollection_7"/>
   <g id="patch_13">
    <path clip-path="url(#p343211d58a)" d="M 184.464 115.35 
L 198.576 115.35 
L 198.576 114.886396 
L 184.464 114.886396 
z
" style="fill:#b2b2b2;"/>
   </g>
   <g id="patch_14">
    <path clip-path="url(#p343211d58a)" d="M 202.104 115.35 
L 216.216 115.35 
L 216.216 114.931714 
L 202.104 114.931714 
z
" style="fill:#b2b2b2;"/>
   </g>
   <g id="patch_15">
    <path clip-path="url(#p343211d58a)" d="M 219.744 115.35 
L 233.856 115.35 
L 233.856 107.207959 
L 219.744 107.207959 
z
" style="fill:#b2b2b2;"/>
   </g>
   <g id="patch_16">
    <path clip-path="url(#p343211d58a)" d="M 237.384 115.35 
L 251.496 115.35 
L 251.496 108.14115 
L 237.384 108.14115 
z
" style="fill:#b2b2b2;"/>
   </g>
   <g id="patch_17">
    <path clip-path="url(#p343211d58a)" d="M 255.024 115.35 
L 269.136 115.35 
L 269.136 103.496434 
L 255.024 103.496434 
z
" style="fill:#b2b2b2;"/>
   </g>
   <g id="matplotlib.axis_3">
    <g id="xtick_6">
     <g id="line2d_11">
      <g>
       <use style="stroke:#000000;stroke-width:0.25;" x="191.52" xlink:href="#m59c1a3072d" y="152.1"/>
      </g>
     </g>
     <g id="text_14">
      <text style="font-family:DejaVu Sans;font-size:6px;font-stretch:normal;font-style:normal;font-weight:normal;text-anchor:middle;" transform="rotate(-0, 191.52, 163.659063)" x="191.52" y="163.659063">10.0</text>
     </g>
    </g>
    <g id="xtick_7">
     <g id="line2d_12">
      <g>
       <use style="stroke:#000000;stroke-width:0.25;" x="209.16" xlink:href="#m59c1a3072d" y="152.1"/>
      </g>
     </g>
     <g id="text_15">
      <text style="font-family:DejaVu Sans;font-size:6px;font-stretch:normal;font-style:normal;font-weight:normal;text-anchor:middle;" transform="rotate(-0, 209.16, 163.659063)" x="209.16" y="163.659063">20.0</text>
     </g>
    </g>
    <g id="xtick_8">
     <g id="line2d_13">
      <g>
       <use style="stroke:#000000;stroke-width:0.25;" x="226.8" xlink:href="#m59c1a3072d" y="152.1"/>
      </g>
     </g>
     <g id="text_16">
      <text style="font-family:DejaVu Sans;font-size:6px;font-stretch:normal;font-style:normal;font-weight:normal;text-anchor:middle;" transform="rotate(-0, 226.8, 163.659063)" x="226.8" y="163.659063">30.0</text>
     </g>
    </g>
    <g id="xtick_9">
     <g id="line2d_14">
      <g>
       <use style="stroke:#000000;stroke-width:0.25;" x="244.44" xlink:href="#m59c1a3072d" y="152.1"/>
      </g>
     </g>
     <g id="text_17">
      <text style="font-family:DejaVu Sans;font-size:6px;font-stretch:normal;font-style:normal;font-weight:normal;text-anchor:middle;" transform="rotate(-0, 244.44, 163.659063)" x="244.44" y="163.659063">40.0</text>
     </g>
    </g>
    <g id="xtick_10">
     <g id="line2d_15">
      <g>
       <use style="stroke:#000000;stroke-width:0.25;" x="262.08" xlink:href="#m59c1a3072d" y="152.1"/>
      </g>
     </g>
     <g id="text_18">
      <text style="font-family:DejaVu Sans;font-size:6px;font-stretch:normal;font-style:normal;font-weight:normal;text-anchor:middle;" transform="rotate(-0, 262.08, 163.659063)" x="262.08" y="163.659063">50.0</text>
     </g>
    </g>
    <g id="text_19">
     <text style="font-family:DejaVu Sans;font-size:7px;font-stretch:normal;font-style:normal;font-weight:normal;text-anchor:middle;" transform="rotate(-0, 226.8, 174.225781)" x="226.8" y="174.225781">train_transform</text>
    </g>
   </g>
   <g id="matplotlib.axis_4">
    <g id="ytick_6">
     <g id="line2d_16">
      <g>
       <use style="stroke:#000000;stroke-width:0.25;" x="182.7" xlink:href="#mfcc584f2d1" y="152.1"/>
      </g>
     </g>
     <g id="text_20">
      <text style="font-family:DejaVu Sans;font-size:6px;font-stretch:normal;font-style:normal;font-weight:normal;text-anchor:end;" transform="rotate(-0, 175.7, 154.379531)" x="175.7" y="154.379531">-0.5</text>
     </g>
    </g>
    <g id="ytick_7">
     <g id="line2d_17">
      <g>
       <use style="stroke:#000000;stroke-width:0.25;" x="182.7" xlink:href="#mfcc584f2d1" y="130.05"/>
      </g>
     </g>
     <g id="text_21">
      <text style="font-family:DejaVu Sans;font-size:6px;font-stretch:normal;font-style:normal;font-weight:normal;text-anchor:end;" transform="rotate(-0, 175.7, 132.329531)" x="175.7" y="132.329531">-0.2</text>
     </g>
    </g>
    <g id="ytick_8">
     <g id="line2d_18">
      <g>
       <use style="stroke:#000000;stroke-width:0.25;" x="182.7" xlink:href="#mfcc584f2d1" y="108"/>
      </g>
     </g>
     <g id="text_22">
      <text style="font-family:DejaVu Sans;font-size:6px;font-stretch:normal;font-style:normal;font-weight:normal;text-anchor:end;" transform="rotate(-0, 175.7, 110.279531)" x="175.7" y="110.279531">0.1</text>
     </g>
    </g>
    <g id="ytick_9">
     <g id="line2d_19">
      <g>
       <use style="stroke:#000000;stroke-width:0.25;" x="182.7" xlink:href="#mfcc584f2d1" y="85.95"/>
      </g>
     </g>
     <g id="text_23">
      <text style="font-family:DejaVu Sans;font-size:6px;font-stretch:normal;font-style:normal;font-weight:normal;text-anchor:end;" transform="rotate(-0, 175.7, 88.229531)" x="175.7" y="88.229531">0.4</text>
     </g>
    </g>
    <g id="ytick_10">
     <g id="line2d_20">
      <g>
       <use style="stroke:#000000;stroke-width:0.25;" x="182.7" xlink:href="#mfcc584f2d1" y="63.9"/>
      </g>
     </g>
     <g id="text_24">
      <text style="font-family:DejaVu Sans;font-size:6px;font-stretch:normal;font-style:normal;font-weight:normal;text-anchor:end;" transform="rotate(-0, 175.7, 66.179531)" x="175.7" y="66.179531">0.7</text>
     </g>
    </g>
    <g id="text_25">
     <text style="font-family:DejaVu Sans;font-size:7px;font-stretch:normal;font-style:normal;font-weight:normal;" transform="translate(150.699188 147.604141)rotate(-90)">decoding performance</text>
     <text style="font-family:DejaVu Sans;font-size:7px;font-stretch:normal;font-style:normal;font-weight:normal;" transform="translate(158.537656 161.414375)rotate(-90)">([shuffled-intact] over chance)</text>
    </g>
   </g>
   <g id="patch_18">
    <path d="M 182.7 152.1 
L 182.7 63.9 
" style="fill:none;stroke:#000000;stroke-linecap:square;stroke-linejoin:miter;stroke-width:0.25;"/>
   </g>
   <g id="patch_19">
    <path d="M 270.9 152.1 
L 270.9 63.9 
" style="fill:none;stroke:#000000;stroke-linecap:square;stroke-linejoin:miter;stroke-width:0.25;"/>
   </g>
   <g id="patch_20">
    <path d="M 182.7 152.1 
L 270.9 152.1 
" style="fill:none;stroke:#000000;stroke-linecap:square;stroke-linejoin:miter;stroke-width:0.25;"/>
   </g>
   <g id="patch_21">
    <path d="M 182.7 63.9 
L 270.9 63.9 
" style="fill:none;stroke:#000000;stroke-linecap:square;stroke-linejoin:miter;stroke-width:0.25;"/>
   </g>
   <g id="PathCollection_8">
    <defs>
     <path d="M 0 1.25 
C 0.331504 1.25 0.649475 1.118292 0.883883 0.883883 
C 1.118292 0.649475 1.25 0.331504 1.25 -0 
C 1.25 -0.331504 1.118292 -0.649475 0.883883 -0.883883 
C 0.649475 -1.118292 0.331504 -1.25 0 -1.25 
C -0.331504 -1.25 -0.649475 -1.118292 -0.883883 -0.883883 
C -1.118292 -0.649475 -1.25 -0.331504 -1.25 0 
C -1.25 0.331504 -1.118292 0.649475 -0.883883 0.883883 
C -0.649475 1.118292 -0.331504 1.25 0 1.25 
z
" id="C5_0_1d62d1fd84"/>
    </defs>
    <g clip-path="url(#p343211d58a)">
     <use style="fill:#ffa500;" x="191.52" xlink:href="#C5_0_1d62d1fd84" y="104.41632"/>
    </g>
    <g clip-path="url(#p343211d58a)">
     <use style="fill:#ffa500;" x="191.52" xlink:href="#C5_0_1d62d1fd84" y="118.68812"/>
    </g>
    <g clip-path="url(#p343211d58a)">
     <use style="fill:#ffa500;" x="191.52" xlink:href="#C5_0_1d62d1fd84" y="123.788576"/>
    </g>
    <g clip-path="url(#p343211d58a)">
     <use style="fill:#ffa500;" x="191.52" xlink:href="#C5_0_1d62d1fd84" y="85.940286"/>
    </g>
    <g clip-path="url(#p343211d58a)">
     <use style="fill:#ffa500;" x="191.52" xlink:href="#C5_0_1d62d1fd84" y="120.064861"/>
    </g>
    <g clip-path="url(#p343211d58a)">
     <use style="fill:#ffa500;" x="191.52" xlink:href="#C5_0_1d62d1fd84" y="122.12442"/>
    </g>
    <g clip-path="url(#p343211d58a)">
     <use style="fill:#ffa500;" x="191.52" xlink:href="#C5_0_1d62d1fd84" y="112.820598"/>
    </g>
    <g clip-path="url(#p343211d58a)">
     <use style="fill:#ffa500;" x="191.52" xlink:href="#C5_0_1d62d1fd84" y="132.365838"/>
    </g>
    <g clip-path="url(#p343211d58a)">
     <use style="fill:#ffa500;" x="191.52" xlink:href="#C5_0_1d62d1fd84" y="113.768545"/>
    </g>
   </g>
   <g id="PathCollection_9">
    <defs>
     <path d="M 0 1.25 
C 0.331504 1.25 0.649475 1.118292 0.883883 0.883883 
C 1.118292 0.649475 1.25 0.331504 1.25 -0 
C 1.25 -0.331504 1.118292 -0.649475 0.883883 -0.883883 
C 0.649475 -1.118292 0.331504 -1.25 0 -1.25 
C -0.331504 -1.25 -0.649475 -1.118292 -0.883883 -0.883883 
C -1.118292 -0.649475 -1.25 -0.331504 -1.25 0 
C -1.25 0.331504 -1.118292 0.649475 -0.883883 0.883883 
C -0.649475 1.118292 -0.331504 1.25 0 1.25 
z
" id="C6_0_91f3c4fa71"/>
    </defs>
    <g clip-path="url(#p343211d58a)">
     <use style="fill:#ffa500;" x="209.16" xlink:href="#C6_0_91f3c4fa71" y="111.532134"/>
    </g>
    <g clip-path="url(#p343211d58a)">
     <use style="fill:#ffa500;" x="209.16" xlink:href="#C6_0_91f3c4fa71" y="109.454343"/>
    </g>
    <g clip-path="url(#p343211d58a)">
     <use style="fill:#ffa500;" x="209.16" xlink:href="#C6_0_91f3c4fa71" y="122.688805"/>
    </g>
    <g clip-path="url(#p343211d58a)">
     <use style="fill:#ffa500;" x="209.16" xlink:href="#C6_0_91f3c4fa71" y="131.161475"/>
    </g>
    <g clip-path="url(#p343211d58a)">
     <use style="fill:#ffa500;" x="209.16" xlink:href="#C6_0_91f3c4fa71" y="104.595663"/>
    </g>
    <g clip-path="url(#p343211d58a)">
     <use style="fill:#ffa500;" x="209.16" xlink:href="#C6_0_91f3c4fa71" y="116.184685"/>
    </g>
    <g clip-path="url(#p343211d58a)">
     <use style="fill:#ffa500;" x="209.16" xlink:href="#C6_0_91f3c4fa71" y="112.620621"/>
    </g>
    <g clip-path="url(#p343211d58a)">
     <use style="fill:#ffa500;" x="209.16" xlink:href="#C6_0_91f3c4fa71" y="109.140815"/>
    </g>
    <g clip-path="url(#p343211d58a)">
     <use style="fill:#ffa500;" x="209.16" xlink:href="#C6_0_91f3c4fa71" y="117.006887"/>
    </g>
   </g>
   <g id="PathCollection_10">
    <defs>
     <path d="M 0 1.25 
C 0.331504 1.25 0.649475 1.118292 0.883883 0.883883 
C 1.118292 0.649475 1.25 0.331504 1.25 -0 
C 1.25 -0.331504 1.118292 -0.649475 0.883883 -0.883883 
C 0.649475 -1.118292 0.331504 -1.25 0 -1.25 
C -0.331504 -1.25 -0.649475 -1.118292 -0.883883 -0.883883 
C -1.118292 -0.649475 -1.25 -0.331504 -1.25 0 
C -1.25 0.331504 -1.118292 0.649475 -0.883883 0.883883 
C -0.649475 1.118292 -0.331504 1.25 0 1.25 
z
" id="C7_0_3b6c7cf28a"/>
    </defs>
    <g clip-path="url(#p343211d58a)">
     <use style="fill:#ffa500;" x="226.8" xlink:href="#C7_0_3b6c7cf28a" y="128.160674"/>
    </g>
    <g clip-path="url(#p343211d58a)">
     <use style="fill:#ffa500;" x="226.8" xlink:href="#C7_0_3b6c7cf28a" y="121.226099"/>
    </g>
    <g clip-path="url(#p343211d58a)">
     <use style="fill:#ffa500;" x="226.8" xlink:href="#C7_0_3b6c7cf28a" y="114.425012"/>
    </g>
    <g clip-path="url(#p343211d58a)">
     <use style="fill:#ffa500;" x="226.8" xlink:href="#C7_0_3b6c7cf28a" y="73.044767"/>
    </g>
    <g clip-path="url(#p343211d58a)">
     <use style="fill:#ffa500;" x="226.8" xlink:href="#C7_0_3b6c7cf28a" y="102.624553"/>
    </g>
    <g clip-path="url(#p343211d58a)">
     <use style="fill:#ffa500;" x="226.8" xlink:href="#C7_0_3b6c7cf28a" y="111.686678"/>
    </g>
    <g clip-path="url(#p343211d58a)">
     <use style="fill:#ffa500;" x="226.8" xlink:href="#C7_0_3b6c7cf28a" y="89.284621"/>
    </g>
    <g clip-path="url(#p343211d58a)">
     <use style="fill:#ffa500;" x="226.8" xlink:href="#C7_0_3b6c7cf28a" y="103.446275"/>
    </g>
    <g clip-path="url(#p343211d58a)">
     <use style="fill:#ffa500;" x="226.8" xlink:href="#C7_0_3b6c7cf28a" y="120.972951"/>
    </g>
   </g>
   <g id="PathCollection_11">
    <defs>
     <path d="M 0 1.25 
C 0.331504 1.25 0.649475 1.118292 0.883883 0.883883 
C 1.118292 0.649475 1.25 0.331504 1.25 -0 
C 1.25 -0.331504 1.118292 -0.649475 0.883883 -0.883883 
C 0.649475 -1.118292 0.331504 -1.25 0 -1.25 
C -0.331504 -1.25 -0.649475 -1.118292 -0.883883 -0.883883 
C -1.118292 -0.649475 -1.25 -0.331504 -1.25 0 
C -1.25 0.331504 -1.118292 0.649475 -0.883883 0.883883 
C -0.649475 1.118292 -0.331504 1.25 0 1.25 
z
" id="C8_0_602918c5af"/>
    </defs>
    <g clip-path="url(#p343211d58a)">
     <use style="fill:#ffa500;" x="244.44" xlink:href="#C8_0_602918c5af" y="116.158635"/>
    </g>
    <g clip-path="url(#p343211d58a)">
     <use style="fill:#ffa500;" x="244.44" xlink:href="#C8_0_602918c5af" y="108.038735"/>
    </g>
    <g clip-path="url(#p343211d58a)">
     <use style="fill:#ffa500;" x="244.44" xlink:href="#C8_0_602918c5af" y="126.904161"/>
    </g>
    <g clip-path="url(#p343211d58a)">
     <use style="fill:#ffa500;" x="244.44" xlink:href="#C8_0_602918c5af" y="113.499583"/>
    </g>
    <g clip-path="url(#p343211d58a)">
     <use style="fill:#ffa500;" x="244.44" xlink:href="#C8_0_602918c5af" y="92.296494"/>
    </g>
    <g clip-path="url(#p343211d58a)">
     <use style="fill:#ffa500;" x="244.44" xlink:href="#C8_0_602918c5af" y="115.812417"/>
    </g>
    <g clip-path="url(#p343211d58a)">
     <use style="fill:#ffa500;" x="244.44" xlink:href="#C8_0_602918c5af" y="99.623143"/>
    </g>
    <g clip-path="url(#p343211d58a)">
     <use style="fill:#ffa500;" x="244.44" xlink:href="#C8_0_602918c5af" y="91.682952"/>
    </g>
    <g clip-path="url(#p343211d58a)">
     <use style="fill:#ffa500;" x="244.44" xlink:href="#C8_0_602918c5af" y="109.254229"/>
    </g>
   </g>
   <g id="PathCollection_12">
    <defs>
     <path d="M 0 1.25 
C 0.331504 1.25 0.649475 1.118292 0.883883 0.883883 
C 1.118292 0.649475 1.25 0.331504 1.25 -0 
C 1.25 -0.331504 1.118292 -0.649475 0.883883 -0.883883 
C 0.649475 -1.118292 0.331504 -1.25 0 -1.25 
C -0.331504 -1.25 -0.649475 -1.118292 -0.883883 -0.883883 
C -1.118292 -0.649475 -1.25 -0.331504 -1.25 0 
C -1.25 0.331504 -1.118292 0.649475 -0.883883 0.883883 
C -0.649475 1.118292 -0.331504 1.25 0 1.25 
z
" id="C9_0_464ead500b"/>
    </defs>
    <g clip-path="url(#p343211d58a)">
     <use style="fill:#ffa500;" x="262.08" xlink:href="#C9_0_464ead500b" y="103.969667"/>
    </g>
    <g clip-path="url(#p343211d58a)">
     <use style="fill:#ffa500;" x="262.08" xlink:href="#C9_0_464ead500b" y="116.19497"/>
    </g>
    <g clip-path="url(#p343211d58a)">
     <use style="fill:#ffa500;" x="262.08" xlink:href="#C9_0_464ead500b" y="110.32561"/>
    </g>
    <g clip-path="url(#p343211d58a)">
     <use style="fill:#ffa500;" x="262.08" xlink:href="#C9_0_464ead500b" y="113.429397"/>
    </g>
    <g clip-path="url(#p343211d58a)">
     <use style="fill:#ffa500;" x="262.08" xlink:href="#C9_0_464ead500b" y="96.788421"/>
    </g>
    <g clip-path="url(#p343211d58a)">
     <use style="fill:#ffa500;" x="262.08" xlink:href="#C9_0_464ead500b" y="96.723288"/>
    </g>
    <g clip-path="url(#p343211d58a)">
     <use style="fill:#ffa500;" x="262.08" xlink:href="#C9_0_464ead500b" y="82.575112"/>
    </g>
    <g clip-path="url(#p343211d58a)">
     <use style="fill:#ffa500;" x="262.08" xlink:href="#C9_0_464ead500b" y="91.700467"/>
    </g>
    <g clip-path="url(#p343211d58a)">
     <use style="fill:#ffa500;" x="262.08" xlink:href="#C9_0_464ead500b" y="119.760975"/>
    </g>
   </g>
   <g id="text_26">
    <text style="font-family:DejaVu Sans;font-size:9px;font-stretch:normal;font-style:normal;font-weight:normal;text-anchor:middle;" transform="rotate(-0, 226.8, 57.9)" x="226.8" y="57.9">Lm</text>
   </g>
  </g>
  <g id="axes_3">
   <g id="patch_22">
    <path d="M 315 152.1 
L 403.2 152.1 
L 403.2 63.9 
L 315 63.9 
z
" style="fill:#ffffff;"/>
   </g>
   <g id="PathCollection_13"/>
   <g id="patch_23">
    <path clip-path="url(#pa7c9d8f56e)" d="M 316.764 115.35 
L 330.876 115.35 
L 330.876 112.953777 
L 316.764 112.953777 
z
" style="fill:#b2b2b2;"/>
   </g>
   <g id="patch_24">
    <path clip-path="url(#pa7c9d8f56e)" d="M 334.404 115.35 
L 348.516 115.35 
L 348.516 114.806115 
L 334.404 114.806115 
z
" style="fill:#b2b2b2;"/>
   </g>
   <g id="patch_25">
    <path clip-path="url(#pa7c9d8f56e)" d="M 352.044 115.35 
L 366.156 115.35 
L 366.156 111.129591 
L 352.044 111.129591 
z
" style="fill:#b2b2b2;"/>
   </g>
   <g id="patch_26">
    <path clip-path="url(#pa7c9d8f56e)" d="M 369.684 115.35 
L 383.796 115.35 
L 383.796 117.016353 
L 369.684 117.016353 
z
" style="fill:#b2b2b2;"/>
   </g>
   <g id="patch_27">
    <path clip-path="url(#pa7c9d8f56e)" d="M 387.324 115.35 
L 401.436 115.35 
L 401.436 106.358878 
L 387.324 106.358878 
z
" style="fill:#b2b2b2;"/>
   </g>
   <g id="matplotlib.axis_5">
    <g id="xtick_11">
     <g id="line2d_21">
      <g>
       <use style="stroke:#000000;stroke-width:0.25;" x="323.82" xlink:href="#m59c1a3072d" y="152.1"/>
      </g>
     </g>
     <g id="text_27">
      <text style="font-family:DejaVu Sans;font-size:6px;font-stretch:normal;font-style:normal;font-weight:normal;text-anchor:middle;" transform="rotate(-0, 323.82, 163.659063)" x="323.82" y="163.659063">10.0</text>
     </g>
    </g>
    <g id="xtick_12">
     <g id="line2d_22">
      <g>
       <use style="stroke:#000000;stroke-width:0.25;" x="341.46" xlink:href="#m59c1a3072d" y="152.1"/>
      </g>
     </g>
     <g id="text_28">
      <text style="font-family:DejaVu Sans;font-size:6px;font-stretch:normal;font-style:normal;font-weight:normal;text-anchor:middle;" transform="rotate(-0, 341.46, 163.659063)" x="341.46" y="163.659063">20.0</text>
     </g>
    </g>
    <g id="xtick_13">
     <g id="line2d_23">
      <g>
       <use style="stroke:#000000;stroke-width:0.25;" x="359.1" xlink:href="#m59c1a3072d" y="152.1"/>
      </g>
     </g>
     <g id="text_29">
      <text style="font-family:DejaVu Sans;font-size:6px;font-stretch:normal;font-style:normal;font-weight:normal;text-anchor:middle;" transform="rotate(-0, 359.1, 163.659063)" x="359.1" y="163.659063">30.0</text>
     </g>
    </g>
    <g id="xtick_14">
     <g id="line2d_24">
      <g>
       <use style="stroke:#000000;stroke-width:0.25;" x="376.74" xlink:href="#m59c1a3072d" y="152.1"/>
      </g>
     </g>
     <g id="text_30">
      <text style="font-family:DejaVu Sans;font-size:6px;font-stretch:normal;font-style:normal;font-weight:normal;text-anchor:middle;" transform="rotate(-0, 376.74, 163.659063)" x="376.74" y="163.659063">40.0</text>
     </g>
    </g>
    <g id="xtick_15">
     <g id="line2d_25">
      <g>
       <use style="stroke:#000000;stroke-width:0.25;" x="394.38" xlink:href="#m59c1a3072d" y="152.1"/>
      </g>
     </g>
     <g id="text_31">
      <text style="font-family:DejaVu Sans;font-size:6px;font-stretch:normal;font-style:normal;font-weight:normal;text-anchor:middle;" transform="rotate(-0, 394.38, 163.659063)" x="394.38" y="163.659063">50.0</text>
     </g>
    </g>
    <g id="text_32">
     <text style="font-family:DejaVu Sans;font-size:7px;font-stretch:normal;font-style:normal;font-weight:normal;text-anchor:middle;" transform="rotate(-0, 359.1, 174.225781)" x="359.1" y="174.225781">train_transform</text>
    </g>
   </g>
   <g id="matplotlib.axis_6">
    <g id="ytick_11">
     <g id="line2d_26">
      <g>
       <use style="stroke:#000000;stroke-width:0.25;" x="315" xlink:href="#mfcc584f2d1" y="152.1"/>
      </g>
     </g>
     <g id="text_33">
      <text style="font-family:DejaVu Sans;font-size:6px;font-stretch:normal;font-style:normal;font-weight:normal;text-anchor:end;" transform="rotate(-0, 308, 154.379531)" x="308" y="154.379531">-0.5</text>
     </g>
    </g>
    <g id="ytick_12">
     <g id="line2d_27">
      <g>
       <use style="stroke:#000000;stroke-width:0.25;" x="315" xlink:href="#mfcc584f2d1" y="130.05"/>
      </g>
     </g>
     <g id="text_34">
      <text style="font-family:DejaVu Sans;font-size:6px;font-stretch:normal;font-style:normal;font-weight:normal;text-anchor:end;" transform="rotate(-0, 308, 132.329531)" x="308" y="132.329531">-0.2</text>
     </g>
    </g>
    <g id="ytick_13">
     <g id="line2d_28">
      <g>
       <use style="stroke:#000000;stroke-width:0.25;" x="315" xlink:href="#mfcc584f2d1" y="108"/>
      </g>
     </g>
     <g id="text_35">
      <text style="font-family:DejaVu Sans;font-size:6px;font-stretch:normal;font-style:normal;font-weight:normal;text-anchor:end;" transform="rotate(-0, 308, 110.279531)" x="308" y="110.279531">0.1</text>
     </g>
    </g>
    <g id="ytick_14">
     <g id="line2d_29">
      <g>
       <use style="stroke:#000000;stroke-width:0.25;" x="315" xlink:href="#mfcc584f2d1" y="85.95"/>
      </g>
     </g>
     <g id="text_36">
      <text style="font-family:DejaVu Sans;font-size:6px;font-stretch:normal;font-style:normal;font-weight:normal;text-anchor:end;" transform="rotate(-0, 308, 88.229531)" x="308" y="88.229531">0.4</text>
     </g>
    </g>
    <g id="ytick_15">
     <g id="line2d_30">
      <g>
       <use style="stroke:#000000;stroke-width:0.25;" x="315" xlink:href="#mfcc584f2d1" y="63.9"/>
      </g>
     </g>
     <g id="text_37">
      <text style="font-family:DejaVu Sans;font-size:6px;font-stretch:normal;font-style:normal;font-weight:normal;text-anchor:end;" transform="rotate(-0, 308, 66.179531)" x="308" y="66.179531">0.7</text>
     </g>
    </g>
    <g id="text_38">
     <text style="font-family:DejaVu Sans;font-size:7px;font-stretch:normal;font-style:normal;font-weight:normal;" transform="translate(282.999187 147.604141)rotate(-90)">decoding performance</text>
     <text style="font-family:DejaVu Sans;font-size:7px;font-stretch:normal;font-style:normal;font-weight:normal;" transform="translate(290.837656 161.414375)rotate(-90)">([shuffled-intact] over chance)</text>
    </g>
   </g>
   <g id="patch_28">
    <path d="M 315 152.1 
L 315 63.9 
" style="fill:none;stroke:#000000;stroke-linecap:square;stroke-linejoin:miter;stroke-width:0.25;"/>
   </g>
   <g id="patch_29">
    <path d="M 403.2 152.1 
L 403.2 63.9 
" style="fill:none;stroke:#000000;stroke-linecap:square;stroke-linejoin:miter;stroke-width:0.25;"/>
   </g>
   <g id="patch_30">
    <path d="M 315 152.1 
L 403.2 152.1 
" style="fill:none;stroke:#000000;stroke-linecap:square;stroke-linejoin:miter;stroke-width:0.25;"/>
   </g>
   <g id="patch_31">
    <path d="M 315 63.9 
L 403.2 63.9 
" style="fill:none;stroke:#000000;stroke-linecap:square;stroke-linejoin:miter;stroke-width:0.25;"/>
   </g>
   <g id="PathCollection_14">
    <defs>
     <path d="M 0 1.25 
C 0.331504 1.25 0.649475 1.118292 0.883883 0.883883 
C 1.118292 0.649475 1.25 0.331504 1.25 -0 
C 1.25 -0.331504 1.118292 -0.649475 0.883883 -0.883883 
C 0.649475 -1.118292 0.331504 -1.25 0 -1.25 
C -0.331504 -1.25 -0.649475 -1.118292 -0.883883 -0.883883 
C -1.118292 -0.649475 -1.25 -0.331504 -1.25 0 
C -1.25 0.331504 -1.118292 0.649475 -0.883883 0.883883 
C -0.649475 1.118292 -0.331504 1.25 0 1.25 
z
" id="Ca_0_cec257c587"/>
    </defs>
    <g clip-path="url(#pa7c9d8f56e)">
     <use style="fill:#1e90ff;" x="323.82" xlink:href="#Ca_0_cec257c587" y="120.492491"/>
    </g>
    <g clip-path="url(#pa7c9d8f56e)">
     <use style="fill:#1e90ff;" x="323.82" xlink:href="#Ca_0_cec257c587" y="139.29"/>
    </g>
    <g clip-path="url(#pa7c9d8f56e)">
     <use style="fill:#1e90ff;" x="323.82" xlink:href="#Ca_0_cec257c587" y="105.15995"/>
    </g>
    <g clip-path="url(#pa7c9d8f56e)">
     <use style="fill:#1e90ff;" x="323.82" xlink:href="#Ca_0_cec257c587" y="78.649864"/>
    </g>
    <g clip-path="url(#pa7c9d8f56e)">
     <use style="fill:#1e90ff;" x="323.82" xlink:href="#Ca_0_cec257c587" y="121.762587"/>
    </g>
    <g clip-path="url(#pa7c9d8f56e)">
     <use style="fill:#1e90ff;" x="323.82" xlink:href="#Ca_0_cec257c587" y="114.817216"/>
    </g>
    <g clip-path="url(#pa7c9d8f56e)">
     <use style="fill:#1e90ff;" x="323.82" xlink:href="#Ca_0_cec257c587" y="112.162939"/>
    </g>
    <g clip-path="url(#pa7c9d8f56e)">
     <use style="fill:#1e90ff;" x="323.82" xlink:href="#Ca_0_cec257c587" y="111.295165"/>
    </g>
   </g>
   <g id="PathCollection_15">
    <defs>
     <path d="M 0 1.25 
C 0.331504 1.25 0.649475 1.118292 0.883883 0.883883 
C 1.118292 0.649475 1.25 0.331504 1.25 -0 
C 1.25 -0.331504 1.118292 -0.649475 0.883883 -0.883883 
C 0.649475 -1.118292 0.331504 -1.25 0 -1.25 
C -0.331504 -1.25 -0.649475 -1.118292 -0.883883 -0.883883 
C -1.118292 -0.649475 -1.25 -0.331504 -1.25 0 
C -1.25 0.331504 -1.118292 0.649475 -0.883883 0.883883 
C -0.649475 1.118292 -0.331504 1.25 0 1.25 
z
" id="Cb_0_d257953963"/>
    </defs>
    <g clip-path="url(#pa7c9d8f56e)">
     <use style="fill:#1e90ff;" x="341.46" xlink:href="#Cb_0_d257953963" y="123.82748"/>
    </g>
    <g clip-path="url(#pa7c9d8f56e)">
     <use style="fill:#1e90ff;" x="341.46" xlink:href="#Cb_0_d257953963" y="120.210503"/>
    </g>
    <g clip-path="url(#pa7c9d8f56e)">
     <use style="fill:#1e90ff;" x="341.46" xlink:href="#Cb_0_d257953963" y="112.733297"/>
    </g>
    <g clip-path="url(#pa7c9d8f56e)">
     <use style="fill:#1e90ff;" x="341.46" xlink:href="#Cb_0_d257953963" y="99.404321"/>
    </g>
    <g clip-path="url(#pa7c9d8f56e)">
     <use style="fill:#1e90ff;" x="341.46" xlink:href="#Cb_0_d257953963" y="103.564286"/>
    </g>
    <g clip-path="url(#pa7c9d8f56e)">
     <use style="fill:#1e90ff;" x="341.46" xlink:href="#Cb_0_d257953963" y="116.250199"/>
    </g>
    <g clip-path="url(#pa7c9d8f56e)">
     <use style="fill:#1e90ff;" x="341.46" xlink:href="#Cb_0_d257953963" y="121.357088"/>
    </g>
    <g clip-path="url(#pa7c9d8f56e)">
     <use style="fill:#1e90ff;" x="341.46" xlink:href="#Cb_0_d257953963" y="121.101748"/>
    </g>
   </g>
   <g id="PathCollection_16">
    <defs>
     <path d="M 0 1.25 
C 0.331504 1.25 0.649475 1.118292 0.883883 0.883883 
C 1.118292 0.649475 1.25 0.331504 1.25 -0 
C 1.25 -0.331504 1.118292 -0.649475 0.883883 -0.883883 
C 0.649475 -1.118292 0.331504 -1.25 0 -1.25 
C -0.331504 -1.25 -0.649475 -1.118292 -0.883883 -0.883883 
C -1.118292 -0.649475 -1.25 -0.331504 -1.25 0 
C -1.25 0.331504 -1.118292 0.649475 -0.883883 0.883883 
C -0.649475 1.118292 -0.331504 1.25 0 1.25 
z
" id="Cc_0_1f77b7f264"/>
    </defs>
    <g clip-path="url(#pa7c9d8f56e)">
     <use style="fill:#1e90ff;" x="359.1" xlink:href="#Cc_0_1f77b7f264" y="64.631839"/>
    </g>
    <g clip-path="url(#pa7c9d8f56e)">
     <use style="fill:#1e90ff;" x="359.1" xlink:href="#Cc_0_1f77b7f264" y="120.303419"/>
    </g>
    <g clip-path="url(#pa7c9d8f56e)">
     <use style="fill:#1e90ff;" x="359.1" xlink:href="#Cc_0_1f77b7f264" y="122.334721"/>
    </g>
    <g clip-path="url(#pa7c9d8f56e)">
     <use style="fill:#1e90ff;" x="359.1" xlink:href="#Cc_0_1f77b7f264" y="105.651998"/>
    </g>
    <g clip-path="url(#pa7c9d8f56e)">
     <use style="fill:#1e90ff;" x="359.1" xlink:href="#Cc_0_1f77b7f264" y="119.590385"/>
    </g>
    <g clip-path="url(#pa7c9d8f56e)">
     <use style="fill:#1e90ff;" x="359.1" xlink:href="#Cc_0_1f77b7f264" y="126.170467"/>
    </g>
    <g clip-path="url(#pa7c9d8f56e)">
     <use style="fill:#1e90ff;" x="359.1" xlink:href="#Cc_0_1f77b7f264" y="117.045905"/>
    </g>
    <g clip-path="url(#pa7c9d8f56e)">
     <use style="fill:#1e90ff;" x="359.1" xlink:href="#Cc_0_1f77b7f264" y="113.307996"/>
    </g>
   </g>
   <g id="PathCollection_17">
    <defs>
     <path d="M 0 1.25 
C 0.331504 1.25 0.649475 1.118292 0.883883 0.883883 
C 1.118292 0.649475 1.25 0.331504 1.25 -0 
C 1.25 -0.331504 1.118292 -0.649475 0.883883 -0.883883 
C 0.649475 -1.118292 0.331504 -1.25 0 -1.25 
C -0.331504 -1.25 -0.649475 -1.118292 -0.883883 -0.883883 
C -1.118292 -0.649475 -1.25 -0.331504 -1.25 0 
C -1.25 0.331504 -1.118292 0.649475 -0.883883 0.883883 
C -0.649475 1.118292 -0.331504 1.25 0 1.25 
z
" id="Cd_0_76cacc7a10"/>
    </defs>
    <g clip-path="url(#pa7c9d8f56e)">
     <use style="fill:#1e90ff;" x="376.74" xlink:href="#Cd_0_76cacc7a10" y="122.884673"/>
    </g>
    <g clip-path="url(#pa7c9d8f56e)">
     <use style="fill:#1e90ff;" x="376.74" xlink:href="#Cd_0_76cacc7a10" y="113.356285"/>
    </g>
    <g clip-path="url(#pa7c9d8f56e)">
     <use style="fill:#1e90ff;" x="376.74" xlink:href="#Cd_0_76cacc7a10" y="107.246662"/>
    </g>
    <g clip-path="url(#pa7c9d8f56e)">
     <use style="fill:#1e90ff;" x="376.74" xlink:href="#Cd_0_76cacc7a10" y="116.711561"/>
    </g>
    <g clip-path="url(#pa7c9d8f56e)">
     <use style="fill:#1e90ff;" x="376.74" xlink:href="#Cd_0_76cacc7a10" y="124.006988"/>
    </g>
    <g clip-path="url(#pa7c9d8f56e)">
     <use style="fill:#1e90ff;" x="376.74" xlink:href="#Cd_0_76cacc7a10" y="120.591977"/>
    </g>
    <g clip-path="url(#pa7c9d8f56e)">
     <use style="fill:#1e90ff;" x="376.74" xlink:href="#Cd_0_76cacc7a10" y="112.03718"/>
    </g>
    <g clip-path="url(#pa7c9d8f56e)">
     <use style="fill:#1e90ff;" x="376.74" xlink:href="#Cd_0_76cacc7a10" y="119.295496"/>
    </g>
   </g>
   <g id="PathCollection_18">
    <defs>
     <path d="M 0 1.25 
C 0.331504 1.25 0.649475 1.118292 0.883883 0.883883 
C 1.118292 0.649475 1.25 0.331504 1.25 -0 
C 1.25 -0.331504 1.118292 -0.649475 0.883883 -0.883883 
C 0.649475 -1.118292 0.331504 -1.25 0 -1.25 
C -0.331504 -1.25 -0.649475 -1.118292 -0.883883 -0.883883 
C -1.118292 -0.649475 -1.25 -0.331504 -1.25 0 
C -1.25 0.331504 -1.118292 0.649475 -0.883883 0.883883 
C -0.649475 1.118292 -0.331504 1.25 0 1.25 
z
" id="Ce_0_a77c790f98"/>
    </defs>
    <g clip-path="url(#pa7c9d8f56e)">
     <use style="fill:#1e90ff;" x="394.38" xlink:href="#Ce_0_a77c790f98" y="125.279328"/>
    </g>
    <g clip-path="url(#pa7c9d8f56e)">
     <use style="fill:#1e90ff;" x="394.38" xlink:href="#Ce_0_a77c790f98" y="98.972819"/>
    </g>
    <g clip-path="url(#pa7c9d8f56e)">
     <use style="fill:#1e90ff;" x="394.38" xlink:href="#Ce_0_a77c790f98" y="120.711176"/>
    </g>
    <g clip-path="url(#pa7c9d8f56e)">
     <use style="fill:#1e90ff;" x="394.38" xlink:href="#Ce_0_a77c790f98" y="83.154175"/>
    </g>
    <g clip-path="url(#pa7c9d8f56e)">
     <use style="fill:#1e90ff;" x="394.38" xlink:href="#Ce_0_a77c790f98" y="104.983692"/>
    </g>
    <g clip-path="url(#pa7c9d8f56e)">
     <use style="fill:#1e90ff;" x="394.38" xlink:href="#Ce_0_a77c790f98" y="95.701485"/>
    </g>
    <g clip-path="url(#pa7c9d8f56e)">
     <use style="fill:#1e90ff;" x="394.38" xlink:href="#Ce_0_a77c790f98" y="107.617805"/>
    </g>
    <g clip-path="url(#pa7c9d8f56e)">
     <use style="fill:#1e90ff;" x="394.38" xlink:href="#Ce_0_a77c790f98" y="114.450546"/>
    </g>
   </g>
   <g id="text_39">
    <text style="font-family:DejaVu Sans;font-size:9px;font-stretch:normal;font-style:normal;font-weight:normal;text-anchor:middle;" transform="rotate(-0, 359.1, 57.9)" x="359.1" y="57.9">Li</text>
   </g>
  </g>
  <g id="text_40">
   <text style="font-family:DejaVu Sans;font-size:8px;font-stretch:normal;font-style:normal;font-weight:normal;" transform="translate(0 6.11375)">traces001|dff_responsive-ROC-thr0.05</text>
   <text style="font-family:DejaVu Sans;font-size:8px;font-stretch:normal;font-style:normal;font-weight:normal;" transform="translate(0 15.2945)">dff-ROC__stimulus__noRF__C1.00</text>
  </g>
 </g>
 <defs>
  <clipPath id="p4970ebcf23">
   <rect height="88.2" width="88.2" x="50.4" y="63.9"/>
  </clipPath>
  <clipPath id="p343211d58a">
   <rect height="88.2" width="88.2" x="182.7" y="63.9"/>
  </clipPath>
  <clipPath id="pa7c9d8f56e">
   <rect height="88.2" width="88.2" x="315" y="63.9"/>
  </clipPath>
 </defs>
</svg>
