<?xml version="1.0" encoding="utf-8" standalone="no"?>
<!DOCTYPE svg PUBLIC "-//W3C//DTD SVG 1.1//EN"
  "http://www.w3.org/Graphics/SVG/1.1/DTD/svg11.dtd">
<!-- Created with matplotlib (https://matplotlib.org/) -->
<svg height="288pt" version="1.1" viewBox="0 0 360 288" width="360pt" xmlns="http://www.w3.org/2000/svg" xmlns:xlink="http://www.w3.org/1999/xlink">
 <metadata>
  <rdf:RDF xmlns:cc="http://creativecommons.org/ns#" xmlns:dc="http://purl.org/dc/elements/1.1/" xmlns:rdf="http://www.w3.org/1999/02/22-rdf-syntax-ns#">
   <cc:Work>
    <dc:type rdf:resource="http://purl.org/dc/dcmitype/StillImage"/>
    <dc:date>2021-10-10T16:58:47.267808</dc:date>
    <dc:format>image/svg+xml</dc:format>
    <dc:creator>
     <cc:Agent>
      <dc:title>Matplotlib v3.3.4, https://matplotlib.org/</dc:title>
     </cc:Agent>
    </dc:creator>
   </cc:Work>
  </rdf:RDF>
 </metadata>
 <defs>
  <style type="text/css">*{stroke-linecap:butt;stroke-linejoin:round;}</style>
 </defs>
 <g id="figure_1">
  <g id="patch_1">
   <path d="M 0 288 
L 360 288 
L 360 0 
L 0 0 
z
" style="fill:#ffffff;"/>
  </g>
  <g id="axes_1">
   <g id="patch_2">
    <path d="M 136.8 230.4 
L 223.2 230.4 
L 223.2 57.6 
L 136.8 57.6 
z
" style="fill:#ffffff;"/>
   </g>
   <g id="patch_3">
    <path clip-path="url(#p526fa966f5)" d="M 140.727273 230.4 
L 163.168831 230.4 
L 163.168831 198.964867 
L 140.727273 198.964867 
z
" style="fill:#cccccc;"/>
   </g>
   <g id="patch_4">
    <path clip-path="url(#p526fa966f5)" d="M 168.779221 230.4 
L 191.220779 230.4 
L 191.220779 172.855861 
L 168.779221 172.855861 
z
" style="fill:#cccccc;"/>
   </g>
   <g id="patch_5">
    <path clip-path="url(#p526fa966f5)" d="M 196.831169 230.4 
L 219.272727 230.4 
L 219.272727 132.204618 
L 196.831169 132.204618 
z
" style="fill:#cccccc;"/>
   </g>
   <g id="PathCollection_1">
    <defs>
     <path d="M 0 2 
C 0.530406 2 1.03916 1.789267 1.414214 1.414214 
C 1.789267 1.03916 2 0.530406 2 -0 
C 2 -0.530406 1.789267 -1.03916 1.414214 -1.414214 
C 1.03916 -1.789267 0.530406 -2 0 -2 
C -0.530406 -2 -1.03916 -1.789267 -1.414214 -1.414214 
C -1.789267 -1.03916 -2 -0.530406 -2 0 
C -2 0.530406 -1.789267 1.03916 -1.414214 1.414214 
C -1.03916 1.789267 -0.530406 2 0 2 
z
" id="C0_0_ad6f63ed48"/>
    </defs>
    <g clip-path="url(#p526fa966f5)">
     <use style="fill:#ff00ff;" x="151.948052" xlink:href="#C0_0_ad6f63ed48" y="205.665236"/>
    </g>
    <g clip-path="url(#p526fa966f5)">
     <use style="fill:#ff00ff;" x="151.948052" xlink:href="#C0_0_ad6f63ed48" y="190.644292"/>
    </g>
    <g clip-path="url(#p526fa966f5)">
     <use style="fill:#ff00ff;" x="151.948052" xlink:href="#C0_0_ad6f63ed48" y="205.013792"/>
    </g>
    <g clip-path="url(#p526fa966f5)">
     <use style="fill:#ff00ff;" x="151.948052" xlink:href="#C0_0_ad6f63ed48" y="195.138105"/>
    </g>
    <g clip-path="url(#p526fa966f5)">
     <use style="fill:#ff00ff;" x="151.948052" xlink:href="#C0_0_ad6f63ed48" y="194.005863"/>
    </g>
    <g clip-path="url(#p526fa966f5)">
     <use style="fill:#ff00ff;" x="151.948052" xlink:href="#C0_0_ad6f63ed48" y="197.542338"/>
    </g>
    <g clip-path="url(#p526fa966f5)">
     <use style="fill:#ff00ff;" x="151.948052" xlink:href="#C0_0_ad6f63ed48" y="191.883764"/>
    </g>
    <g clip-path="url(#p526fa966f5)">
     <use style="fill:#ff00ff;" x="151.948052" xlink:href="#C0_0_ad6f63ed48" y="209.692544"/>
    </g>
    <g clip-path="url(#p526fa966f5)">
     <use style="fill:#ff00ff;" x="151.948052" xlink:href="#C0_0_ad6f63ed48" y="201.09787"/>
    </g>
   </g>
   <g id="PathCollection_2">
    <defs>
     <path d="M 0 2 
C 0.530406 2 1.03916 1.789267 1.414214 1.414214 
C 1.789267 1.03916 2 0.530406 2 -0 
C 2 -0.530406 1.789267 -1.03916 1.414214 -1.414214 
C 1.03916 -1.789267 0.530406 -2 0 -2 
C -0.530406 -2 -1.03916 -1.789267 -1.414214 -1.414214 
C -1.789267 -1.03916 -2 -0.530406 -2 0 
C -2 0.530406 -1.789267 1.03916 -1.414214 1.414214 
C -1.03916 1.789267 -0.530406 2 0 2 
z
" id="C1_0_67a6b43150"/>
    </defs>
    <g clip-path="url(#p526fa966f5)">
     <use style="fill:#ffa500;" x="180" xlink:href="#C1_0_67a6b43150" y="152.541423"/>
    </g>
    <g clip-path="url(#p526fa966f5)">
     <use style="fill:#ffa500;" x="180" xlink:href="#C1_0_67a6b43150" y="201.21035"/>
    </g>
    <g clip-path="url(#p526fa966f5)">
     <use style="fill:#ffa500;" x="180" xlink:href="#C1_0_67a6b43150" y="162.34755"/>
    </g>
    <g clip-path="url(#p526fa966f5)">
     <use style="fill:#ffa500;" x="180" xlink:href="#C1_0_67a6b43150" y="180.447952"/>
    </g>
    <g clip-path="url(#p526fa966f5)">
     <use style="fill:#ffa500;" x="180" xlink:href="#C1_0_67a6b43150" y="148.609828"/>
    </g>
    <g clip-path="url(#p526fa966f5)">
     <use style="fill:#ffa500;" x="180" xlink:href="#C1_0_67a6b43150" y="200.702608"/>
    </g>
    <g clip-path="url(#p526fa966f5)">
     <use style="fill:#ffa500;" x="180" xlink:href="#C1_0_67a6b43150" y="164.131317"/>
    </g>
   </g>
   <g id="PathCollection_3">
    <defs>
     <path d="M 0 2 
C 0.530406 2 1.03916 1.789267 1.414214 1.414214 
C 1.789267 1.03916 2 0.530406 2 -0 
C 2 -0.530406 1.789267 -1.03916 1.414214 -1.414214 
C 1.03916 -1.789267 0.530406 -2 0 -2 
C -0.530406 -2 -1.03916 -1.789267 -1.414214 -1.414214 
C -1.789267 -1.03916 -2 -0.530406 -2 0 
C -2 0.530406 -1.789267 1.03916 -1.414214 1.414214 
C -1.03916 1.789267 -0.530406 2 0 2 
z
" id="C2_0_febca394ae"/>
    </defs>
    <g clip-path="url(#p526fa966f5)">
     <use style="fill:#1e90ff;" x="208.051948" xlink:href="#C2_0_febca394ae" y="181.131469"/>
    </g>
    <g clip-path="url(#p526fa966f5)">
     <use style="fill:#1e90ff;" x="208.051948" xlink:href="#C2_0_febca394ae" y="132.064381"/>
    </g>
    <g clip-path="url(#p526fa966f5)">
     <use style="fill:#1e90ff;" x="208.051948" xlink:href="#C2_0_febca394ae" y="159.840021"/>
    </g>
    <g clip-path="url(#p526fa966f5)">
     <use style="fill:#1e90ff;" x="208.051948" xlink:href="#C2_0_febca394ae" y="130.872533"/>
    </g>
    <g clip-path="url(#p526fa966f5)">
     <use style="fill:#1e90ff;" x="208.051948" xlink:href="#C2_0_febca394ae" y="104.540118"/>
    </g>
    <g clip-path="url(#p526fa966f5)">
     <use style="fill:#1e90ff;" x="208.051948" xlink:href="#C2_0_febca394ae" y="79.693564"/>
    </g>
    <g clip-path="url(#p526fa966f5)">
     <use style="fill:#1e90ff;" x="208.051948" xlink:href="#C2_0_febca394ae" y="142.434774"/>
    </g>
    <g clip-path="url(#p526fa966f5)">
     <use style="fill:#1e90ff;" x="208.051948" xlink:href="#C2_0_febca394ae" y="113.685313"/>
    </g>
    <g clip-path="url(#p526fa966f5)">
     <use style="fill:#1e90ff;" x="208.051948" xlink:href="#C2_0_febca394ae" y="145.579393"/>
    </g>
   </g>
   <g id="PathCollection_4"/>
   <g id="PathCollection_5"/>
   <g id="PathCollection_6"/>
   <g id="matplotlib.axis_1">
    <g id="xtick_1">
     <g id="line2d_1"/>
     <g id="text_1">
      <text style="font-family:DejaVu Sans;font-size:6px;font-stretch:normal;font-style:normal;font-weight:normal;text-anchor:middle;" transform="rotate(-0, 151.948052, 238.459063)" x="151.948052" y="238.459063">V1</text>
     </g>
    </g>
    <g id="xtick_2">
     <g id="line2d_2"/>
     <g id="text_2">
      <text style="font-family:DejaVu Sans;font-size:6px;font-stretch:normal;font-style:normal;font-weight:normal;text-anchor:middle;" transform="rotate(-0, 180, 238.459063)" x="180" y="238.459063">Lm</text>
     </g>
    </g>
    <g id="xtick_3">
     <g id="line2d_3"/>
     <g id="text_3">
      <text style="font-family:DejaVu Sans;font-size:6px;font-stretch:normal;font-style:normal;font-weight:normal;text-anchor:middle;" transform="rotate(-0, 208.051948, 238.459063)" x="208.051948" y="238.459063">Li</text>
     </g>
    </g>
   </g>
   <g id="matplotlib.axis_2">
    <g id="ytick_1">
     <g id="line2d_4">
      <defs>
       <path d="M 0 0 
L -3.5 0 
" id="m02acf9c229" style="stroke:#000000;stroke-width:0.25;"/>
      </defs>
      <g>
       <use style="stroke:#000000;stroke-width:0.25;" x="132.8" xlink:href="#m02acf9c229" y="230.4"/>
      </g>
     </g>
     <g id="text_4">
      <text style="font-family:DejaVu Sans;font-size:6px;font-stretch:normal;font-style:normal;font-weight:normal;text-anchor:end;" transform="rotate(-0, 125.8, 232.679531)" x="125.8" y="232.679531">0</text>
     </g>
    </g>
    <g id="ytick_2">
     <g id="line2d_5">
      <g>
       <use style="stroke:#000000;stroke-width:0.25;" x="132.8" xlink:href="#m02acf9c229" y="209.50947"/>
      </g>
     </g>
     <g id="text_5">
      <text style="font-family:DejaVu Sans;font-size:6px;font-stretch:normal;font-style:normal;font-weight:normal;text-anchor:end;" transform="rotate(-0, 125.8, 211.789001)" x="125.8" y="211.789001">1000</text>
     </g>
    </g>
    <g id="ytick_3">
     <g id="line2d_6">
      <g>
       <use style="stroke:#000000;stroke-width:0.25;" x="132.8" xlink:href="#m02acf9c229" y="188.61894"/>
      </g>
     </g>
     <g id="text_6">
      <text style="font-family:DejaVu Sans;font-size:6px;font-stretch:normal;font-style:normal;font-weight:normal;text-anchor:end;" transform="rotate(-0, 125.8, 190.898472)" x="125.8" y="190.898472">2000</text>
     </g>
    </g>
    <g id="ytick_4">
     <g id="line2d_7">
      <g>
       <use style="stroke:#000000;stroke-width:0.25;" x="132.8" xlink:href="#m02acf9c229" y="167.728411"/>
      </g>
     </g>
     <g id="text_7">
      <text style="font-family:DejaVu Sans;font-size:6px;font-stretch:normal;font-style:normal;font-weight:normal;text-anchor:end;" transform="rotate(-0, 125.8, 170.007942)" x="125.8" y="170.007942">3000</text>
     </g>
    </g>
    <g id="ytick_5">
     <g id="line2d_8">
      <g>
       <use style="stroke:#000000;stroke-width:0.25;" x="132.8" xlink:href="#m02acf9c229" y="146.837881"/>
      </g>
     </g>
     <g id="text_8">
      <text style="font-family:DejaVu Sans;font-size:6px;font-stretch:normal;font-style:normal;font-weight:normal;text-anchor:end;" transform="rotate(-0, 125.8, 149.117412)" x="125.8" y="149.117412">4000</text>
     </g>
    </g>
    <g id="ytick_6">
     <g id="line2d_9">
      <g>
       <use style="stroke:#000000;stroke-width:0.25;" x="132.8" xlink:href="#m02acf9c229" y="125.947351"/>
      </g>
     </g>
     <g id="text_9">
      <text style="font-family:DejaVu Sans;font-size:6px;font-stretch:normal;font-style:normal;font-weight:normal;text-anchor:end;" transform="rotate(-0, 125.8, 128.226882)" x="125.8" y="128.226882">5000</text>
     </g>
    </g>
    <g id="ytick_7">
     <g id="line2d_10">
      <g>
       <use style="stroke:#000000;stroke-width:0.25;" x="132.8" xlink:href="#m02acf9c229" y="105.056821"/>
      </g>
     </g>
     <g id="text_10">
      <text style="font-family:DejaVu Sans;font-size:6px;font-stretch:normal;font-style:normal;font-weight:normal;text-anchor:end;" transform="rotate(-0, 125.8, 107.336352)" x="125.8" y="107.336352">6000</text>
     </g>
    </g>
    <g id="ytick_8">
     <g id="line2d_11">
      <g>
       <use style="stroke:#000000;stroke-width:0.25;" x="132.8" xlink:href="#m02acf9c229" y="84.166291"/>
      </g>
     </g>
     <g id="text_11">
      <text style="font-family:DejaVu Sans;font-size:6px;font-stretch:normal;font-style:normal;font-weight:normal;text-anchor:end;" transform="rotate(-0, 125.8, 86.445823)" x="125.8" y="86.445823">7000</text>
     </g>
    </g>
    <g id="ytick_9">
     <g id="line2d_12">
      <g>
       <use style="stroke:#000000;stroke-width:0.25;" x="132.8" xlink:href="#m02acf9c229" y="63.275761"/>
      </g>
     </g>
     <g id="text_12">
      <text style="font-family:DejaVu Sans;font-size:6px;font-stretch:normal;font-style:normal;font-weight:normal;text-anchor:end;" transform="rotate(-0, 125.8, 65.555293)" x="125.8" y="65.555293">8000</text>
     </g>
    </g>
    <g id="text_13">
     <text style="font-family:DejaVu Sans;font-size:6px;font-stretch:normal;font-style:normal;font-weight:normal;text-anchor:middle;" transform="rotate(-90, 105.282187, 144)" x="105.282187" y="144">area (deg^2)</text>
    </g>
   </g>
   <g id="line2d_13">
    <path clip-path="url(#p526fa966f5)" d="M 208.051948 72.158242 
L 208.051948 72.158242 
L 180 72.158242 
L 180 72.158242 
" style="fill:none;stroke:#000000;stroke-linecap:square;stroke-width:0.25;"/>
   </g>
   <g id="line2d_14">
    <path clip-path="url(#p526fa966f5)" d="M 208.051948 68.993407 
L 208.051948 68.993407 
L 151.948052 68.993407 
L 151.948052 68.993407 
" style="fill:none;stroke:#000000;stroke-linecap:square;stroke-width:0.25;"/>
   </g>
   <g id="line2d_15">
    <path clip-path="url(#p526fa966f5)" d="M 180 65.828571 
L 180 65.828571 
L 151.948052 65.828571 
L 151.948052 65.828571 
" style="fill:none;stroke:#000000;stroke-linecap:square;stroke-width:0.25;"/>
   </g>
   <g id="patch_6">
    <path d="M 132.8 230.4 
L 132.8 57.6 
" style="fill:none;stroke:#000000;stroke-linecap:square;stroke-linejoin:miter;stroke-width:0.25;"/>
   </g>
   <g id="text_14">
    <text style="font-family:DejaVu Sans;font-size:6px;font-stretch:normal;font-style:normal;font-weight:normal;text-anchor:start;" transform="rotate(-0, 194.025974, 71.762637)" x="194.025974" y="71.762637">*</text>
   </g>
   <g id="text_15">
    <text style="font-family:DejaVu Sans;font-size:6px;font-stretch:normal;font-style:normal;font-weight:normal;text-anchor:start;" transform="rotate(-0, 180, 68.597802)" x="180" y="68.597802">**</text>
   </g>
   <g id="text_16">
    <text style="font-family:DejaVu Sans;font-size:6px;font-stretch:normal;font-style:normal;font-weight:normal;text-anchor:start;" transform="rotate(-0, 165.974026, 65.432967)" x="165.974026" y="65.432967">*</text>
   </g>
  </g>
  <g id="text_17">
   <text style="font-family:DejaVu Sans;font-size:6px;font-stretch:normal;font-style:normal;font-weight:normal;text-anchor:start;" transform="rotate(-0, 0, 28.8)" x="0" y="28.8">all pass fit</text>
  </g>
  <g id="text_18">
   <text style="font-family:DejaVu Sans;font-size:8px;font-stretch:normal;font-style:normal;font-weight:normal;text-anchor:start;" transform="rotate(-0, 0, 6.07875)" x="0" y="6.07875">traces001_fit-2dgaus_dff-no-cutoff</text>
  </g>
 </g>
 <defs>
  <clipPath id="p526fa966f5">
   <rect height="172.8" width="86.4" x="136.8" y="57.6"/>
  </clipPath>
 </defs>
</svg>
