<?xml version="1.0" encoding="utf-8" standalone="no"?>
<!DOCTYPE svg PUBLIC "-//W3C//DTD SVG 1.1//EN"
  "http://www.w3.org/Graphics/SVG/1.1/DTD/svg11.dtd">
<!-- Created with matplotlib (https://matplotlib.org/) -->
<svg height="288pt" version="1.1" viewBox="0 0 360 288" width="360pt" xmlns="http://www.w3.org/2000/svg" xmlns:xlink="http://www.w3.org/1999/xlink">
 <metadata>
  <rdf:RDF xmlns:cc="http://creativecommons.org/ns#" xmlns:dc="http://purl.org/dc/elements/1.1/" xmlns:rdf="http://www.w3.org/1999/02/22-rdf-syntax-ns#">
   <cc:Work>
    <dc:type rdf:resource="http://purl.org/dc/dcmitype/StillImage"/>
    <dc:date>2021-09-27T19:36:18.426258</dc:date>
    <dc:format>image/svg+xml</dc:format>
    <dc:creator>
     <cc:Agent>
      <dc:title>Matplotlib v3.3.4, https://matplotlib.org/</dc:title>
     </cc:Agent>
    </dc:creator>
   </cc:Work>
  </rdf:RDF>
 </metadata>
 <defs>
  <style type="text/css">*{stroke-linecap:butt;stroke-linejoin:round;}</style>
 </defs>
 <g id="figure_1">
  <g id="patch_1">
   <path d="M 0 288 
L 360 288 
L 360 0 
L 0 0 
z
" style="fill:#ffffff;"/>
  </g>
  <g id="axes_1">
   <g id="patch_2">
    <path d="M 36 259.2 
L 288 259.2 
L 288 91.2 
L 36 91.2 
z
" style="fill:#ffffff;"/>
   </g>
   <g id="patch_3">
    <path clip-path="url(#pb8fabe639d)" d="M 44.4 259.2 
L 61.2 259.2 
L 61.2 123.8144 
L 44.4 123.8144 
z
" style="fill:#cccccc;stroke:#ffffff;stroke-linejoin:miter;"/>
   </g>
   <g id="patch_4">
    <path clip-path="url(#pb8fabe639d)" d="M 128.4 259.2 
L 145.2 259.2 
L 145.2 138.5872 
L 128.4 138.5872 
z
" style="fill:#cccccc;stroke:#ffffff;stroke-linejoin:miter;"/>
   </g>
   <g id="patch_5">
    <path clip-path="url(#pb8fabe639d)" d="M 212.4 259.2 
L 229.2 259.2 
L 229.2 135.4372 
L 212.4 135.4372 
z
" style="fill:#cccccc;stroke:#ffffff;stroke-linejoin:miter;"/>
   </g>
   <g id="patch_6">
    <path clip-path="url(#pb8fabe639d)" d="M 61.2 259.2 
L 78 259.2 
L 78 146.962097 
L 61.2 146.962097 
z
" style="fill:url(#h48cc3c15e1);stroke:#ffffff;stroke-linejoin:miter;"/>
   </g>
   <g id="patch_7">
    <path clip-path="url(#pb8fabe639d)" d="M 145.2 259.2 
L 162 259.2 
L 162 158.378855 
L 145.2 158.378855 
z
" style="fill:url(#h48cc3c15e1);stroke:#ffffff;stroke-linejoin:miter;"/>
   </g>
   <g id="patch_8">
    <path clip-path="url(#pb8fabe639d)" d="M 229.2 259.2 
L 246 259.2 
L 246 144.397276 
L 229.2 144.397276 
z
" style="fill:url(#h48cc3c15e1);stroke:#ffffff;stroke-linejoin:miter;"/>
   </g>
   <g id="patch_9">
    <path clip-path="url(#pb8fabe639d)" d="M 78 259.2 
L 94.8 259.2 
L 94.8 122.5936 
L 78 122.5936 
z
" style="fill:#808080;stroke:#ffffff;stroke-linejoin:miter;"/>
   </g>
   <g id="patch_10">
    <path clip-path="url(#pb8fabe639d)" d="M 162 259.2 
L 178.8 259.2 
L 178.8 148.628 
L 162 148.628 
z
" style="fill:#808080;stroke:#ffffff;stroke-linejoin:miter;"/>
   </g>
   <g id="patch_11">
    <path clip-path="url(#pb8fabe639d)" d="M 246 259.2 
L 262.8 259.2 
L 262.8 130.8956 
L 246 130.8956 
z
" style="fill:#808080;stroke:#ffffff;stroke-linejoin:miter;"/>
   </g>
   <g id="patch_12">
    <path clip-path="url(#pb8fabe639d)" d="M 94.8 259.2 
L 111.6 259.2 
L 111.6 147.485793 
L 94.8 147.485793 
z
" style="fill:url(#h0022c7b27f);stroke:#ffffff;stroke-linejoin:miter;"/>
   </g>
   <g id="patch_13">
    <path clip-path="url(#pb8fabe639d)" d="M 178.8 259.2 
L 195.6 259.2 
L 195.6 158.914428 
L 178.8 158.914428 
z
" style="fill:url(#h0022c7b27f);stroke:#ffffff;stroke-linejoin:miter;"/>
   </g>
   <g id="patch_14">
    <path clip-path="url(#pb8fabe639d)" d="M 262.8 259.2 
L 279.6 259.2 
L 279.6 140.398007 
L 262.8 140.398007 
z
" style="fill:url(#h0022c7b27f);stroke:#ffffff;stroke-linejoin:miter;"/>
   </g>
   <g id="matplotlib.axis_1">
    <g id="xtick_1">
     <g id="line2d_1"/>
     <g id="text_1">
      <text style="font-family:DejaVu Sans;font-size:6px;font-stretch:normal;font-style:normal;font-weight:normal;text-anchor:middle;" transform="rotate(-0, 78, 267.259063)" x="78" y="267.259063">V1</text>
     </g>
    </g>
    <g id="xtick_2">
     <g id="line2d_2"/>
     <g id="text_2">
      <text style="font-family:DejaVu Sans;font-size:6px;font-stretch:normal;font-style:normal;font-weight:normal;text-anchor:middle;" transform="rotate(-0, 162, 267.259063)" x="162" y="267.259063">Lm</text>
     </g>
    </g>
    <g id="xtick_3">
     <g id="line2d_3"/>
     <g id="text_3">
      <text style="font-family:DejaVu Sans;font-size:6px;font-stretch:normal;font-style:normal;font-weight:normal;text-anchor:middle;" transform="rotate(-0, 246, 267.259063)" x="246" y="267.259063">Li</text>
     </g>
    </g>
   </g>
   <g id="matplotlib.axis_2">
    <g id="ytick_1">
     <g id="line2d_4">
      <defs>
       <path d="M 0 0 
L -3.5 0 
" id="m1370524ad3" style="stroke:#000000;stroke-width:0.25;"/>
      </defs>
      <g>
       <use style="stroke:#000000;stroke-width:0.25;" x="36" xlink:href="#m1370524ad3" y="259.2"/>
      </g>
     </g>
     <g id="text_4">
      <text style="font-family:DejaVu Sans;font-size:6px;font-stretch:normal;font-style:normal;font-weight:normal;text-anchor:end;" transform="rotate(-0, 29, 261.479531)" x="29" y="261.479531">0.0</text>
     </g>
    </g>
    <g id="ytick_2">
     <g id="line2d_5">
      <g>
       <use style="stroke:#000000;stroke-width:0.25;" x="36" xlink:href="#m1370524ad3" y="225.6"/>
      </g>
     </g>
     <g id="text_5">
      <text style="font-family:DejaVu Sans;font-size:6px;font-stretch:normal;font-style:normal;font-weight:normal;text-anchor:end;" transform="rotate(-0, 29, 227.879531)" x="29" y="227.879531">0.2</text>
     </g>
    </g>
    <g id="ytick_3">
     <g id="line2d_6">
      <g>
       <use style="stroke:#000000;stroke-width:0.25;" x="36" xlink:href="#m1370524ad3" y="192"/>
      </g>
     </g>
     <g id="text_6">
      <text style="font-family:DejaVu Sans;font-size:6px;font-stretch:normal;font-style:normal;font-weight:normal;text-anchor:end;" transform="rotate(-0, 29, 194.279531)" x="29" y="194.279531">0.4</text>
     </g>
    </g>
    <g id="ytick_4">
     <g id="line2d_7">
      <g>
       <use style="stroke:#000000;stroke-width:0.25;" x="36" xlink:href="#m1370524ad3" y="158.4"/>
      </g>
     </g>
     <g id="text_7">
      <text style="font-family:DejaVu Sans;font-size:6px;font-stretch:normal;font-style:normal;font-weight:normal;text-anchor:end;" transform="rotate(-0, 29, 160.679531)" x="29" y="160.679531">0.6</text>
     </g>
    </g>
    <g id="ytick_5">
     <g id="line2d_8">
      <g>
       <use style="stroke:#000000;stroke-width:0.25;" x="36" xlink:href="#m1370524ad3" y="124.8"/>
      </g>
     </g>
     <g id="text_8">
      <text style="font-family:DejaVu Sans;font-size:6px;font-stretch:normal;font-style:normal;font-weight:normal;text-anchor:end;" transform="rotate(-0, 29, 127.079531)" x="29" y="127.079531">0.8</text>
     </g>
    </g>
    <g id="ytick_6">
     <g id="line2d_9">
      <g>
       <use style="stroke:#000000;stroke-width:0.25;" x="36" xlink:href="#m1370524ad3" y="91.2"/>
      </g>
     </g>
     <g id="text_9">
      <text style="font-family:DejaVu Sans;font-size:6px;font-stretch:normal;font-style:normal;font-weight:normal;text-anchor:end;" transform="rotate(-0, 29, 93.479531)" x="29" y="93.479531">1.0</text>
     </g>
    </g>
    <g id="text_10">
     <text style="font-family:DejaVu Sans;font-size:6px;font-stretch:normal;font-style:normal;font-weight:normal;text-anchor:middle;" transform="rotate(-90, 14.043438, 175.2)" x="14.043438" y="175.2">heldout_test_score</text>
    </g>
   </g>
   <g id="line2d_10">
    <path clip-path="url(#pb8fabe639d)" d="M 52.8 132.765688 
L 52.8 114.863112 
" style="fill:none;stroke:#424242;stroke-linecap:square;stroke-width:0.5;"/>
   </g>
   <g id="line2d_11">
    <path clip-path="url(#pb8fabe639d)" d="M 136.8 148.287583 
L 136.8 128.886817 
" style="fill:none;stroke:#424242;stroke-linecap:square;stroke-width:0.5;"/>
   </g>
   <g id="line2d_12">
    <path clip-path="url(#pb8fabe639d)" d="M 220.8 147.755959 
L 220.8 123.118441 
" style="fill:none;stroke:#424242;stroke-linecap:square;stroke-width:0.5;"/>
   </g>
   <g id="line2d_13">
    <path clip-path="url(#pb8fabe639d)" d="M 69.6 151.907172 
L 69.6 142.017021 
" style="fill:none;stroke:#424242;stroke-linecap:square;stroke-width:0.5;"/>
   </g>
   <g id="line2d_14">
    <path clip-path="url(#pb8fabe639d)" d="M 153.6 162.769431 
L 153.6 153.988279 
" style="fill:none;stroke:#424242;stroke-linecap:square;stroke-width:0.5;"/>
   </g>
   <g id="line2d_15">
    <path clip-path="url(#pb8fabe639d)" d="M 237.6 150.028779 
L 237.6 138.765773 
" style="fill:none;stroke:#424242;stroke-linecap:square;stroke-width:0.5;"/>
   </g>
   <g id="line2d_16">
    <path clip-path="url(#pb8fabe639d)" d="M 86.4 131.491723 
L 86.4 113.695477 
" style="fill:none;stroke:#424242;stroke-linecap:square;stroke-width:0.5;"/>
   </g>
   <g id="line2d_17">
    <path clip-path="url(#pb8fabe639d)" d="M 170.4 158.397513 
L 170.4 138.858487 
" style="fill:none;stroke:#424242;stroke-linecap:square;stroke-width:0.5;"/>
   </g>
   <g id="line2d_18">
    <path clip-path="url(#pb8fabe639d)" d="M 254.4 142.040223 
L 254.4 119.750977 
" style="fill:none;stroke:#424242;stroke-linecap:square;stroke-width:0.5;"/>
   </g>
   <g id="line2d_19">
    <path clip-path="url(#pb8fabe639d)" d="M 103.2 152.360928 
L 103.2 142.610658 
" style="fill:none;stroke:#424242;stroke-linecap:square;stroke-width:0.5;"/>
   </g>
   <g id="line2d_20">
    <path clip-path="url(#pb8fabe639d)" d="M 187.2 162.430594 
L 187.2 155.398262 
" style="fill:none;stroke:#424242;stroke-linecap:square;stroke-width:0.5;"/>
   </g>
   <g id="line2d_21">
    <path clip-path="url(#pb8fabe639d)" d="M 271.2 145.08283 
L 271.2 135.713185 
" style="fill:none;stroke:#424242;stroke-linecap:square;stroke-width:0.5;"/>
   </g>
   <g id="patch_15">
    <path d="M 36 259.2 
L 36 91.2 
" style="fill:none;stroke:#000000;stroke-linecap:square;stroke-linejoin:miter;stroke-width:0.25;"/>
   </g>
   <g id="legend_1">
    <g id="patch_16">
     <path d="M 290.88 101.159063 
L 302.88 101.159063 
L 302.88 96.959063 
L 290.88 96.959063 
z
" style="fill:#cccccc;"/>
    </g>
    <g id="text_11">
     <text style="font-family:DejaVu Sans;font-size:6px;font-stretch:normal;font-style:normal;font-weight:normal;text-anchor:start;" transform="rotate(-0, 307.68, 101.159063)" x="307.68" y="101.159063">all cells</text>
    </g>
    <g id="patch_17">
     <path d="M 290.88 109.965937 
L 302.88 109.965937 
L 302.88 105.765937 
L 290.88 105.765937 
z
" style="fill:#808080;"/>
    </g>
    <g id="text_12">
     <text style="font-family:DejaVu Sans;font-size:6px;font-stretch:normal;font-style:normal;font-weight:normal;text-anchor:start;" transform="rotate(-0, 307.68, 109.965937)" x="307.68" y="109.965937">RF size-matched</text>
    </g>
    <g id="line2d_22">
     <path d="M 290.88 116.672813 
L 302.88 116.672813 
" style="fill:none;stroke:#000000;stroke-linecap:square;stroke-width:0.5;"/>
    </g>
    <g id="line2d_23"/>
    <g id="text_13">
     <text style="font-family:DejaVu Sans;font-size:6px;font-stretch:normal;font-style:normal;font-weight:normal;text-anchor:start;" transform="rotate(-0, 307.68, 118.772813)" x="307.68" y="118.772813">trained</text>
    </g>
    <g id="line2d_24">
     <path d="M 290.88 125.479688 
L 302.88 125.479688 
" style="fill:none;stroke:#000000;stroke-dasharray:1.85,0.8;stroke-dashoffset:0;stroke-width:0.5;"/>
    </g>
    <g id="line2d_25"/>
    <g id="text_14">
     <text style="font-family:DejaVu Sans;font-size:6px;font-stretch:normal;font-style:normal;font-weight:normal;text-anchor:start;" transform="rotate(-0, 307.68, 127.579688)" x="307.68" y="127.579688">novel</text>
    </g>
   </g>
  </g>
  <g id="text_15">
   <text style="font-family:DejaVu Sans;font-size:10px;font-stretch:normal;font-style:normal;font-weight:normal;text-anchor:start;" transform="rotate(-0, 3.6, 43.2)" x="3.6" y="43.2">Accuracy, train cond | RF cond (n=94 cells, SD over 500 iters)</text>
  </g>
  <g id="text_16">
   <text style="font-family:DejaVu Sans;font-size:8px;font-stretch:normal;font-style:normal;font-weight:normal;" transform="translate(0 6.11375)">traces001|dff_responsive-ROC-thr0.05</text>
   <text style="font-family:DejaVu Sans;font-size:8px;font-stretch:normal;font-style:normal;font-weight:normal;" transform="translate(0 15.2945)">dff-ROC__stimulus__matchRF__C1.00</text>
  </g>
 </g>
 <defs>
  <clipPath id="pb8fabe639d">
   <rect height="168" width="252" x="36" y="91.2"/>
  </clipPath>
 </defs>
 <defs>
  <pattern height="72" id="h48cc3c15e1" patternUnits="userSpaceOnUse" width="72" x="0" y="0">
   <rect fill="#cccccc" height="73" width="73" x="0" y="0"/>
   <path d="M -36 36 
L 36 -36 
M -30 42 
L 42 -30 
M -24 48 
L 48 -24 
M -18 54 
L 54 -18 
M -12 60 
L 60 -12 
M -6 66 
L 66 -6 
M 0 72 
L 72 0 
M 6 78 
L 78 6 
M 12 84 
L 84 12 
M 18 90 
L 90 18 
M 24 96 
L 96 24 
M 30 102 
L 102 30 
M 36 108 
L 108 36 
" style="fill:#ffffff;stroke:#ffffff;stroke-linecap:butt;stroke-linejoin:miter;stroke-width:1.0;"/>
  </pattern>
  <pattern height="72" id="h0022c7b27f" patternUnits="userSpaceOnUse" width="72" x="0" y="0">
   <rect fill="#808080" height="73" width="73" x="0" y="0"/>
   <path d="M -36 36 
L 36 -36 
M -30 42 
L 42 -30 
M -24 48 
L 48 -24 
M -18 54 
L 54 -18 
M -12 60 
L 60 -12 
M -6 66 
L 66 -6 
M 0 72 
L 72 0 
M 6 78 
L 78 6 
M 12 84 
L 84 12 
M 18 90 
L 90 18 
M 24 96 
L 96 24 
M 30 102 
L 102 30 
M 36 108 
L 108 36 
" style="fill:#ffffff;stroke:#ffffff;stroke-linecap:butt;stroke-linejoin:miter;stroke-width:1.0;"/>
  </pattern>
 </defs>
</svg>
