<?xml version="1.0" encoding="utf-8" standalone="no"?>
<!DOCTYPE svg PUBLIC "-//W3C//DTD SVG 1.1//EN"
  "http://www.w3.org/Graphics/SVG/1.1/DTD/svg11.dtd">
<!-- Created with matplotlib (https://matplotlib.org/) -->
<svg height="216pt" version="1.1" viewBox="0 0 216 216" width="216pt" xmlns="http://www.w3.org/2000/svg" xmlns:xlink="http://www.w3.org/1999/xlink">
 <metadata>
  <rdf:RDF xmlns:cc="http://creativecommons.org/ns#" xmlns:dc="http://purl.org/dc/elements/1.1/" xmlns:rdf="http://www.w3.org/1999/02/22-rdf-syntax-ns#">
   <cc:Work>
    <dc:type rdf:resource="http://purl.org/dc/dcmitype/StillImage"/>
    <dc:date>2021-12-17T18:06:49.335546</dc:date>
    <dc:format>image/svg+xml</dc:format>
    <dc:creator>
     <cc:Agent>
      <dc:title>Matplotlib v3.3.4, https://matplotlib.org/</dc:title>
     </cc:Agent>
    </dc:creator>
   </cc:Work>
  </rdf:RDF>
 </metadata>
 <defs>
  <style type="text/css">*{stroke-linecap:butt;stroke-linejoin:round;}</style>
 </defs>
 <g id="figure_1">
  <g id="patch_1">
   <path d="M 0 216 
L 216 216 
L 216 0 
L 0 0 
z
" style="fill:#ffffff;"/>
  </g>
  <g id="axes_1">
   <g id="patch_2">
    <path d="M 64.8 172.8 
L 151.2 172.8 
L 151.2 43.2 
L 64.8 43.2 
z
" style="fill:#ffffff;"/>
   </g>
   <g id="patch_3">
    <path clip-path="url(#pa21428c8a8)" d="M 67.68 172.8 
L 90.72 172.8 
L 90.72 118.949393 
L 67.68 118.949393 
z
" style="fill:#cccccc;"/>
   </g>
   <g id="patch_4">
    <path clip-path="url(#pa21428c8a8)" d="M 96.48 172.8 
L 119.52 172.8 
L 119.52 128.005302 
L 96.48 128.005302 
z
" style="fill:#cccccc;"/>
   </g>
   <g id="patch_5">
    <path clip-path="url(#pa21428c8a8)" d="M 125.28 172.8 
L 148.32 172.8 
L 148.32 126.194956 
L 125.28 126.194956 
z
" style="fill:#cccccc;"/>
   </g>
   <g id="PathCollection_1">
    <defs>
     <path d="M 0 1.25 
C 0.331504 1.25 0.649475 1.118292 0.883883 0.883883 
C 1.118292 0.649475 1.25 0.331504 1.25 -0 
C 1.25 -0.331504 1.118292 -0.649475 0.883883 -0.883883 
C 0.649475 -1.118292 0.331504 -1.25 0 -1.25 
C -0.331504 -1.25 -0.649475 -1.118292 -0.883883 -0.883883 
C -1.118292 -0.649475 -1.25 -0.331504 -1.25 0 
C -1.25 0.331504 -1.118292 0.649475 -0.883883 0.883883 
C -0.649475 1.118292 -0.331504 1.25 0 1.25 
z
" id="C0_0_0a3413d2d4"/>
    </defs>
    <g clip-path="url(#pa21428c8a8)">
     <use style="fill:#ff00ff;" x="79.2" xlink:href="#C0_0_0a3413d2d4" y="111.735539"/>
    </g>
    <g clip-path="url(#pa21428c8a8)">
     <use style="fill:#ff00ff;" x="79.2" xlink:href="#C0_0_0a3413d2d4" y="138.131675"/>
    </g>
    <g clip-path="url(#pa21428c8a8)">
     <use style="fill:#ff00ff;" x="79.2" xlink:href="#C0_0_0a3413d2d4" y="129.572758"/>
    </g>
    <g clip-path="url(#pa21428c8a8)">
     <use style="fill:#ff00ff;" x="79.2" xlink:href="#C0_0_0a3413d2d4" y="115.313814"/>
    </g>
    <g clip-path="url(#pa21428c8a8)">
     <use style="fill:#ff00ff;" x="79.2" xlink:href="#C0_0_0a3413d2d4" y="125.106299"/>
    </g>
    <g clip-path="url(#pa21428c8a8)">
     <use style="fill:#ff00ff;" x="79.2" xlink:href="#C0_0_0a3413d2d4" y="85.632966"/>
    </g>
    <g clip-path="url(#pa21428c8a8)">
     <use style="fill:#ff00ff;" x="79.2" xlink:href="#C0_0_0a3413d2d4" y="96.671527"/>
    </g>
    <g clip-path="url(#pa21428c8a8)">
     <use style="fill:#ff00ff;" x="79.2" xlink:href="#C0_0_0a3413d2d4" y="139.702832"/>
    </g>
    <g clip-path="url(#pa21428c8a8)">
     <use style="fill:#ff00ff;" x="79.2" xlink:href="#C0_0_0a3413d2d4" y="128.677126"/>
    </g>
   </g>
   <g id="PathCollection_2">
    <defs>
     <path d="M 0 1.25 
C 0.331504 1.25 0.649475 1.118292 0.883883 0.883883 
C 1.118292 0.649475 1.25 0.331504 1.25 -0 
C 1.25 -0.331504 1.118292 -0.649475 0.883883 -0.883883 
C 0.649475 -1.118292 0.331504 -1.25 0 -1.25 
C -0.331504 -1.25 -0.649475 -1.118292 -0.883883 -0.883883 
C -1.118292 -0.649475 -1.25 -0.331504 -1.25 0 
C -1.25 0.331504 -1.118292 0.649475 -0.883883 0.883883 
C -0.649475 1.118292 -0.331504 1.25 0 1.25 
z
" id="C1_0_12ae31be28"/>
    </defs>
    <g clip-path="url(#pa21428c8a8)">
     <use style="fill:#ffa500;" x="108" xlink:href="#C1_0_12ae31be28" y="120.995054"/>
    </g>
    <g clip-path="url(#pa21428c8a8)">
     <use style="fill:#ffa500;" x="108" xlink:href="#C1_0_12ae31be28" y="123.882437"/>
    </g>
    <g clip-path="url(#pa21428c8a8)">
     <use style="fill:#ffa500;" x="108" xlink:href="#C1_0_12ae31be28" y="109.304629"/>
    </g>
    <g clip-path="url(#pa21428c8a8)">
     <use style="fill:#ffa500;" x="108" xlink:href="#C1_0_12ae31be28" y="150.340215"/>
    </g>
    <g clip-path="url(#pa21428c8a8)">
     <use style="fill:#ffa500;" x="108" xlink:href="#C1_0_12ae31be28" y="132.429958"/>
    </g>
    <g clip-path="url(#pa21428c8a8)">
     <use style="fill:#ffa500;" x="108" xlink:href="#C1_0_12ae31be28" y="117.307793"/>
    </g>
    <g clip-path="url(#pa21428c8a8)">
     <use style="fill:#ffa500;" x="108" xlink:href="#C1_0_12ae31be28" y="121.265862"/>
    </g>
    <g clip-path="url(#pa21428c8a8)">
     <use style="fill:#ffa500;" x="108" xlink:href="#C1_0_12ae31be28" y="148.516468"/>
    </g>
   </g>
   <g id="PathCollection_3">
    <defs>
     <path d="M 0 1.25 
C 0.331504 1.25 0.649475 1.118292 0.883883 0.883883 
C 1.118292 0.649475 1.25 0.331504 1.25 -0 
C 1.25 -0.331504 1.118292 -0.649475 0.883883 -0.883883 
C 0.649475 -1.118292 0.331504 -1.25 0 -1.25 
C -0.331504 -1.25 -0.649475 -1.118292 -0.883883 -0.883883 
C -1.118292 -0.649475 -1.25 -0.331504 -1.25 0 
C -1.25 0.331504 -1.118292 0.649475 -0.883883 0.883883 
C -0.649475 1.118292 -0.331504 1.25 0 1.25 
z
" id="C2_0_94f7e90d17"/>
    </defs>
    <g clip-path="url(#pa21428c8a8)">
     <use style="fill:#1e90ff;" x="136.8" xlink:href="#C2_0_94f7e90d17" y="129.012865"/>
    </g>
    <g clip-path="url(#pa21428c8a8)">
     <use style="fill:#1e90ff;" x="136.8" xlink:href="#C2_0_94f7e90d17" y="86.736929"/>
    </g>
    <g clip-path="url(#pa21428c8a8)">
     <use style="fill:#1e90ff;" x="136.8" xlink:href="#C2_0_94f7e90d17" y="131.974891"/>
    </g>
    <g clip-path="url(#pa21428c8a8)">
     <use style="fill:#1e90ff;" x="136.8" xlink:href="#C2_0_94f7e90d17" y="147.757986"/>
    </g>
    <g clip-path="url(#pa21428c8a8)">
     <use style="fill:#1e90ff;" x="136.8" xlink:href="#C2_0_94f7e90d17" y="105.969602"/>
    </g>
    <g clip-path="url(#pa21428c8a8)">
     <use style="fill:#1e90ff;" x="136.8" xlink:href="#C2_0_94f7e90d17" y="155.717464"/>
    </g>
   </g>
   <g id="PathCollection_4"/>
   <g id="PathCollection_5"/>
   <g id="PathCollection_6"/>
   <g id="matplotlib.axis_1">
    <g id="xtick_1">
     <g id="line2d_1"/>
     <g id="text_1">
      <text style="font-family:DejaVu Sans;font-size:6px;font-stretch:normal;font-style:normal;font-weight:normal;text-anchor:middle;" transform="rotate(-0, 79.2, 180.859062)" x="79.2" y="180.859062">V1</text>
     </g>
    </g>
    <g id="xtick_2">
     <g id="line2d_2"/>
     <g id="text_2">
      <text style="font-family:DejaVu Sans;font-size:6px;font-stretch:normal;font-style:normal;font-weight:normal;text-anchor:middle;" transform="rotate(-0, 108, 180.859062)" x="108" y="180.859062">Lm</text>
     </g>
    </g>
    <g id="xtick_3">
     <g id="line2d_3"/>
     <g id="text_3">
      <text style="font-family:DejaVu Sans;font-size:6px;font-stretch:normal;font-style:normal;font-weight:normal;text-anchor:middle;" transform="rotate(-0, 136.8, 180.859062)" x="136.8" y="180.859062">Li</text>
     </g>
    </g>
   </g>
   <g id="matplotlib.axis_2">
    <g id="ytick_1">
     <g id="line2d_4">
      <defs>
       <path d="M 0 0 
L -3.5 0 
" id="m3ea207b9b5" style="stroke:#000000;stroke-width:0.25;"/>
      </defs>
      <g>
       <use style="stroke:#000000;stroke-width:0.25;" x="62.8" xlink:href="#m3ea207b9b5" y="172.8"/>
      </g>
     </g>
     <g id="text_4">
      <text style="font-family:DejaVu Sans;font-size:6px;font-stretch:normal;font-style:normal;font-weight:normal;text-anchor:end;" transform="rotate(-0, 55.8, 175.079531)" x="55.8" y="175.079531">0.00</text>
     </g>
    </g>
    <g id="ytick_2">
     <g id="line2d_5">
      <g>
       <use style="stroke:#000000;stroke-width:0.25;" x="62.8" xlink:href="#m3ea207b9b5" y="151.2"/>
      </g>
     </g>
     <g id="text_5">
      <text style="font-family:DejaVu Sans;font-size:6px;font-stretch:normal;font-style:normal;font-weight:normal;text-anchor:end;" transform="rotate(-0, 55.8, 153.479531)" x="55.8" y="153.479531">0.05</text>
     </g>
    </g>
    <g id="ytick_3">
     <g id="line2d_6">
      <g>
       <use style="stroke:#000000;stroke-width:0.25;" x="62.8" xlink:href="#m3ea207b9b5" y="129.6"/>
      </g>
     </g>
     <g id="text_6">
      <text style="font-family:DejaVu Sans;font-size:6px;font-stretch:normal;font-style:normal;font-weight:normal;text-anchor:end;" transform="rotate(-0, 55.8, 131.879531)" x="55.8" y="131.879531">0.10</text>
     </g>
    </g>
    <g id="ytick_4">
     <g id="line2d_7">
      <g>
       <use style="stroke:#000000;stroke-width:0.25;" x="62.8" xlink:href="#m3ea207b9b5" y="108"/>
      </g>
     </g>
     <g id="text_7">
      <text style="font-family:DejaVu Sans;font-size:6px;font-stretch:normal;font-style:normal;font-weight:normal;text-anchor:end;" transform="rotate(-0, 55.8, 110.279531)" x="55.8" y="110.279531">0.15</text>
     </g>
    </g>
    <g id="ytick_5">
     <g id="line2d_8">
      <g>
       <use style="stroke:#000000;stroke-width:0.25;" x="62.8" xlink:href="#m3ea207b9b5" y="86.4"/>
      </g>
     </g>
     <g id="text_8">
      <text style="font-family:DejaVu Sans;font-size:6px;font-stretch:normal;font-style:normal;font-weight:normal;text-anchor:end;" transform="rotate(-0, 55.8, 88.679531)" x="55.8" y="88.679531">0.20</text>
     </g>
    </g>
    <g id="ytick_6">
     <g id="line2d_9">
      <g>
       <use style="stroke:#000000;stroke-width:0.25;" x="62.8" xlink:href="#m3ea207b9b5" y="64.8"/>
      </g>
     </g>
     <g id="text_9">
      <text style="font-family:DejaVu Sans;font-size:6px;font-stretch:normal;font-style:normal;font-weight:normal;text-anchor:end;" transform="rotate(-0, 55.8, 67.079531)" x="55.8" y="67.079531">0.25</text>
     </g>
    </g>
    <g id="ytick_7">
     <g id="line2d_10">
      <g>
       <use style="stroke:#000000;stroke-width:0.25;" x="62.8" xlink:href="#m3ea207b9b5" y="43.2"/>
      </g>
     </g>
     <g id="text_10">
      <text style="font-family:DejaVu Sans;font-size:6px;font-stretch:normal;font-style:normal;font-weight:normal;text-anchor:end;" transform="rotate(-0, 55.8, 45.479531)" x="55.8" y="45.479531">0.30</text>
     </g>
    </g>
    <g id="text_11">
     <text style="font-family:DejaVu Sans;font-size:7px;font-stretch:normal;font-style:normal;font-weight:normal;text-anchor:middle;" transform="rotate(-90, 36.790156, 108)" x="36.790156" y="108">noise_cc</text>
    </g>
   </g>
   <g id="patch_6">
    <path d="M 62.8 172.8 
L 62.8 43.2 
" style="fill:none;stroke:#000000;stroke-linecap:square;stroke-linejoin:miter;stroke-width:0.25;"/>
   </g>
  </g>
  <g id="text_12">
   <text style="font-family:DejaVu Sans;font-size:7px;font-stretch:normal;font-style:normal;font-weight:normal;text-anchor:start;" transform="rotate(-0, 2.16, 21.6)" x="2.16" y="21.6">[blobs] Noise corrs (unique data, min_ncells=10)</text>
  </g>
  <g id="text_13">
   <text style="font-family:DejaVu Sans;font-size:8px;font-stretch:normal;font-style:normal;font-weight:normal;text-anchor:start;" transform="rotate(-0, 0, 6.11375)" x="0" y="6.11375">traces001|dff_responsive-ROC-thr0.05</text>
  </g>
 </g>
 <defs>
  <clipPath id="pa21428c8a8">
   <rect height="129.6" width="86.4" x="64.8" y="43.2"/>
  </clipPath>
 </defs>
</svg>
