<?xml version="1.0" encoding="utf-8" standalone="no"?>
<!DOCTYPE svg PUBLIC "-//W3C//DTD SVG 1.1//EN"
  "http://www.w3.org/Graphics/SVG/1.1/DTD/svg11.dtd">
<!-- Created with matplotlib (https://matplotlib.org/) -->
<svg height="216pt" version="1.1" viewBox="0 0 216 216" width="216pt" xmlns="http://www.w3.org/2000/svg" xmlns:xlink="http://www.w3.org/1999/xlink">
 <metadata>
  <rdf:RDF xmlns:cc="http://creativecommons.org/ns#" xmlns:dc="http://purl.org/dc/elements/1.1/" xmlns:rdf="http://www.w3.org/1999/02/22-rdf-syntax-ns#">
   <cc:Work>
    <dc:type rdf:resource="http://purl.org/dc/dcmitype/StillImage"/>
    <dc:date>2021-12-17T18:52:10.178472</dc:date>
    <dc:format>image/svg+xml</dc:format>
    <dc:creator>
     <cc:Agent>
      <dc:title>Matplotlib v3.3.4, https://matplotlib.org/</dc:title>
     </cc:Agent>
    </dc:creator>
   </cc:Work>
  </rdf:RDF>
 </metadata>
 <defs>
  <style type="text/css">*{stroke-linecap:butt;stroke-linejoin:round;}</style>
 </defs>
 <g id="figure_1">
  <g id="patch_1">
   <path d="M 0 216 
L 216 216 
L 216 0 
L 0 0 
z
" style="fill:#ffffff;"/>
  </g>
  <g id="axes_1">
   <g id="patch_2">
    <path d="M 64.8 172.8 
L 151.2 172.8 
L 151.2 43.2 
L 64.8 43.2 
z
" style="fill:#ffffff;"/>
   </g>
   <g id="patch_3">
    <path clip-path="url(#p15376c0e3c)" d="M 67.68 120.96 
L 90.72 120.96 
L 90.72 92.143731 
L 67.68 92.143731 
z
" style="fill:#cccccc;"/>
   </g>
   <g id="patch_4">
    <path clip-path="url(#p15376c0e3c)" d="M 96.48 120.96 
L 119.52 120.96 
L 119.52 108.284877 
L 96.48 108.284877 
z
" style="fill:#cccccc;"/>
   </g>
   <g id="patch_5">
    <path clip-path="url(#p15376c0e3c)" d="M 125.28 120.96 
L 148.32 120.96 
L 148.32 104.653739 
L 125.28 104.653739 
z
" style="fill:#cccccc;"/>
   </g>
   <g id="PathCollection_1">
    <defs>
     <path d="M 0 1.25 
C 0.331504 1.25 0.649475 1.118292 0.883883 0.883883 
C 1.118292 0.649475 1.25 0.331504 1.25 -0 
C 1.25 -0.331504 1.118292 -0.649475 0.883883 -0.883883 
C 0.649475 -1.118292 0.331504 -1.25 0 -1.25 
C -0.331504 -1.25 -0.649475 -1.118292 -0.883883 -0.883883 
C -1.118292 -0.649475 -1.25 -0.331504 -1.25 0 
C -1.25 0.331504 -1.118292 0.649475 -0.883883 0.883883 
C -0.649475 1.118292 -0.331504 1.25 0 1.25 
z
" id="C0_0_843ec19b05"/>
    </defs>
    <g clip-path="url(#p15376c0e3c)">
     <use style="fill:#ff00ff;" x="79.2" xlink:href="#C0_0_843ec19b05" y="94.604305"/>
    </g>
    <g clip-path="url(#p15376c0e3c)">
     <use style="fill:#ff00ff;" x="79.2" xlink:href="#C0_0_843ec19b05" y="140.129747"/>
    </g>
    <g clip-path="url(#p15376c0e3c)">
     <use style="fill:#ff00ff;" x="79.2" xlink:href="#C0_0_843ec19b05" y="64.393727"/>
    </g>
    <g clip-path="url(#p15376c0e3c)">
     <use style="fill:#ff00ff;" x="79.2" xlink:href="#C0_0_843ec19b05" y="108.531234"/>
    </g>
    <g clip-path="url(#p15376c0e3c)">
     <use style="fill:#ff00ff;" x="79.2" xlink:href="#C0_0_843ec19b05" y="98.875022"/>
    </g>
    <g clip-path="url(#p15376c0e3c)">
     <use style="fill:#ff00ff;" x="79.2" xlink:href="#C0_0_843ec19b05" y="71.303751"/>
    </g>
    <g clip-path="url(#p15376c0e3c)">
     <use style="fill:#ff00ff;" x="79.2" xlink:href="#C0_0_843ec19b05" y="71.362609"/>
    </g>
    <g clip-path="url(#p15376c0e3c)">
     <use style="fill:#ff00ff;" x="79.2" xlink:href="#C0_0_843ec19b05" y="87.949455"/>
    </g>
   </g>
   <g id="PathCollection_2">
    <defs>
     <path d="M 0 1.25 
C 0.331504 1.25 0.649475 1.118292 0.883883 0.883883 
C 1.118292 0.649475 1.25 0.331504 1.25 -0 
C 1.25 -0.331504 1.118292 -0.649475 0.883883 -0.883883 
C 0.649475 -1.118292 0.331504 -1.25 0 -1.25 
C -0.331504 -1.25 -0.649475 -1.118292 -0.883883 -0.883883 
C -1.118292 -0.649475 -1.25 -0.331504 -1.25 0 
C -1.25 0.331504 -1.118292 0.649475 -0.883883 0.883883 
C -0.649475 1.118292 -0.331504 1.25 0 1.25 
z
" id="C1_0_dc676b219e"/>
    </defs>
    <g clip-path="url(#p15376c0e3c)">
     <use style="fill:#ffa500;" x="108" xlink:href="#C1_0_dc676b219e" y="104.815827"/>
    </g>
    <g clip-path="url(#p15376c0e3c)">
     <use style="fill:#ffa500;" x="108" xlink:href="#C1_0_dc676b219e" y="109.744739"/>
    </g>
    <g clip-path="url(#p15376c0e3c)">
     <use style="fill:#ffa500;" x="108" xlink:href="#C1_0_dc676b219e" y="84.491403"/>
    </g>
    <g clip-path="url(#p15376c0e3c)">
     <use style="fill:#ffa500;" x="108" xlink:href="#C1_0_dc676b219e" y="98.123029"/>
    </g>
    <g clip-path="url(#p15376c0e3c)">
     <use style="fill:#ffa500;" x="108" xlink:href="#C1_0_dc676b219e" y="123.138806"/>
    </g>
    <g clip-path="url(#p15376c0e3c)">
     <use style="fill:#ffa500;" x="108" xlink:href="#C1_0_dc676b219e" y="101.527209"/>
    </g>
    <g clip-path="url(#p15376c0e3c)">
     <use style="fill:#ffa500;" x="108" xlink:href="#C1_0_dc676b219e" y="96.195394"/>
    </g>
    <g clip-path="url(#p15376c0e3c)">
     <use style="fill:#ffa500;" x="108" xlink:href="#C1_0_dc676b219e" y="134.087455"/>
    </g>
    <g clip-path="url(#p15376c0e3c)">
     <use style="fill:#ffa500;" x="108" xlink:href="#C1_0_dc676b219e" y="122.440028"/>
    </g>
   </g>
   <g id="PathCollection_3">
    <defs>
     <path d="M 0 1.25 
C 0.331504 1.25 0.649475 1.118292 0.883883 0.883883 
C 1.118292 0.649475 1.25 0.331504 1.25 -0 
C 1.25 -0.331504 1.118292 -0.649475 0.883883 -0.883883 
C 0.649475 -1.118292 0.331504 -1.25 0 -1.25 
C -0.331504 -1.25 -0.649475 -1.118292 -0.883883 -0.883883 
C -1.118292 -0.649475 -1.25 -0.331504 -1.25 0 
C -1.25 0.331504 -1.118292 0.649475 -0.883883 0.883883 
C -0.649475 1.118292 -0.331504 1.25 0 1.25 
z
" id="C2_0_27b64d6eb5"/>
    </defs>
    <g clip-path="url(#p15376c0e3c)">
     <use style="fill:#1e90ff;" x="136.8" xlink:href="#C2_0_27b64d6eb5" y="123.456336"/>
    </g>
    <g clip-path="url(#p15376c0e3c)">
     <use style="fill:#1e90ff;" x="136.8" xlink:href="#C2_0_27b64d6eb5" y="117.998458"/>
    </g>
    <g clip-path="url(#p15376c0e3c)">
     <use style="fill:#1e90ff;" x="136.8" xlink:href="#C2_0_27b64d6eb5" y="39.022858"/>
    </g>
    <g clip-path="url(#p15376c0e3c)">
     <use style="fill:#1e90ff;" x="136.8" xlink:href="#C2_0_27b64d6eb5" y="116.618635"/>
    </g>
    <g clip-path="url(#p15376c0e3c)">
     <use style="fill:#1e90ff;" x="136.8" xlink:href="#C2_0_27b64d6eb5" y="130.183679"/>
    </g>
    <g clip-path="url(#p15376c0e3c)">
     <use style="fill:#1e90ff;" x="136.8" xlink:href="#C2_0_27b64d6eb5" y="98.255825"/>
    </g>
    <g clip-path="url(#p15376c0e3c)">
     <use style="fill:#1e90ff;" x="136.8" xlink:href="#C2_0_27b64d6eb5" y="107.040384"/>
    </g>
   </g>
   <g id="PathCollection_4"/>
   <g id="PathCollection_5"/>
   <g id="PathCollection_6"/>
   <g id="matplotlib.axis_1">
    <g id="xtick_1">
     <g id="line2d_1"/>
     <g id="text_1">
      <text style="font-family:DejaVu Sans;font-size:6px;font-stretch:normal;font-style:normal;font-weight:normal;text-anchor:middle;" transform="rotate(-0, 79.2, 180.859062)" x="79.2" y="180.859062">V1</text>
     </g>
    </g>
    <g id="xtick_2">
     <g id="line2d_2"/>
     <g id="text_2">
      <text style="font-family:DejaVu Sans;font-size:6px;font-stretch:normal;font-style:normal;font-weight:normal;text-anchor:middle;" transform="rotate(-0, 108, 180.859062)" x="108" y="180.859062">Lm</text>
     </g>
    </g>
    <g id="xtick_3">
     <g id="line2d_3"/>
     <g id="text_3">
      <text style="font-family:DejaVu Sans;font-size:6px;font-stretch:normal;font-style:normal;font-weight:normal;text-anchor:middle;" transform="rotate(-0, 136.8, 180.859062)" x="136.8" y="180.859062">Li</text>
     </g>
    </g>
   </g>
   <g id="matplotlib.axis_2">
    <g id="ytick_1">
     <g id="line2d_4">
      <defs>
       <path d="M 0 0 
L -3.5 0 
" id="m9612c8410e" style="stroke:#000000;stroke-width:0.25;"/>
      </defs>
      <g>
       <use style="stroke:#000000;stroke-width:0.25;" x="62.8" xlink:href="#m9612c8410e" y="172.8"/>
      </g>
     </g>
     <g id="text_4">
      <text style="font-family:DejaVu Sans;font-size:6px;font-stretch:normal;font-style:normal;font-weight:normal;text-anchor:end;" transform="rotate(-0, 55.8, 175.079531)" x="55.8" y="175.079531">−0.2</text>
     </g>
    </g>
    <g id="ytick_2">
     <g id="line2d_5">
      <g>
       <use style="stroke:#000000;stroke-width:0.25;" x="62.8" xlink:href="#m9612c8410e" y="146.88"/>
      </g>
     </g>
     <g id="text_5">
      <text style="font-family:DejaVu Sans;font-size:6px;font-stretch:normal;font-style:normal;font-weight:normal;text-anchor:end;" transform="rotate(-0, 55.8, 149.159531)" x="55.8" y="149.159531">−0.1</text>
     </g>
    </g>
    <g id="ytick_3">
     <g id="line2d_6">
      <g>
       <use style="stroke:#000000;stroke-width:0.25;" x="62.8" xlink:href="#m9612c8410e" y="120.96"/>
      </g>
     </g>
     <g id="text_6">
      <text style="font-family:DejaVu Sans;font-size:6px;font-stretch:normal;font-style:normal;font-weight:normal;text-anchor:end;" transform="rotate(-0, 55.8, 123.239531)" x="55.8" y="123.239531">0.0</text>
     </g>
    </g>
    <g id="ytick_4">
     <g id="line2d_7">
      <g>
       <use style="stroke:#000000;stroke-width:0.25;" x="62.8" xlink:href="#m9612c8410e" y="95.04"/>
      </g>
     </g>
     <g id="text_7">
      <text style="font-family:DejaVu Sans;font-size:6px;font-stretch:normal;font-style:normal;font-weight:normal;text-anchor:end;" transform="rotate(-0, 55.8, 97.319531)" x="55.8" y="97.319531">0.1</text>
     </g>
    </g>
    <g id="ytick_5">
     <g id="line2d_8">
      <g>
       <use style="stroke:#000000;stroke-width:0.25;" x="62.8" xlink:href="#m9612c8410e" y="69.12"/>
      </g>
     </g>
     <g id="text_8">
      <text style="font-family:DejaVu Sans;font-size:6px;font-stretch:normal;font-style:normal;font-weight:normal;text-anchor:end;" transform="rotate(-0, 55.8, 71.399531)" x="55.8" y="71.399531">0.2</text>
     </g>
    </g>
    <g id="ytick_6">
     <g id="line2d_9">
      <g>
       <use style="stroke:#000000;stroke-width:0.25;" x="62.8" xlink:href="#m9612c8410e" y="43.2"/>
      </g>
     </g>
     <g id="text_9">
      <text style="font-family:DejaVu Sans;font-size:6px;font-stretch:normal;font-style:normal;font-weight:normal;text-anchor:end;" transform="rotate(-0, 55.8, 45.479531)" x="55.8" y="45.479531">0.3</text>
     </g>
    </g>
    <g id="text_10">
     <text style="font-family:DejaVu Sans;font-size:7px;font-stretch:normal;font-style:normal;font-weight:normal;" transform="translate(27.936062 147.604141)rotate(-90)">decoding performance</text>
     <text style="font-family:DejaVu Sans;font-size:7px;font-stretch:normal;font-style:normal;font-weight:normal;" transform="translate(35.774531 150.945547)rotate(-90)">([high-low] over chance)</text>
    </g>
   </g>
   <g id="patch_6">
    <path d="M 62.8 172.8 
L 62.8 43.2 
" style="fill:none;stroke:#000000;stroke-linecap:square;stroke-linejoin:miter;stroke-width:0.25;"/>
   </g>
  </g>
  <g id="text_11">
   <text style="font-family:DejaVu Sans;font-size:7px;font-stretch:normal;font-style:normal;font-weight:normal;" transform="translate(2.16 13.566844)">[blobs] Relative scores, high_v_low</text>
   <text style="font-family:DejaVu Sans;font-size:7px;font-stretch:normal;font-style:normal;font-weight:normal;" transform="translate(2.16 21.6)">(unique data, min_ncells=10)</text>
  </g>
  <g id="text_12">
   <text style="font-family:DejaVu Sans;font-size:8px;font-stretch:normal;font-style:normal;font-weight:normal;text-anchor:start;" transform="rotate(-0, 0, 6.11375)" x="0" y="6.11375">traces001|dff_responsive-ROC-thr0.05</text>
  </g>
 </g>
 <defs>
  <clipPath id="p15376c0e3c">
   <rect height="129.6" width="86.4" x="64.8" y="43.2"/>
  </clipPath>
 </defs>
</svg>
