<?xml version="1.0" encoding="utf-8" standalone="no"?>
<!DOCTYPE svg PUBLIC "-//W3C//DTD SVG 1.1//EN"
  "http://www.w3.org/Graphics/SVG/1.1/DTD/svg11.dtd">
<!-- Created with matplotlib (https://matplotlib.org/) -->
<svg height="216pt" version="1.1" viewBox="0 0 216 216" width="216pt" xmlns="http://www.w3.org/2000/svg" xmlns:xlink="http://www.w3.org/1999/xlink">
 <metadata>
  <rdf:RDF xmlns:cc="http://creativecommons.org/ns#" xmlns:dc="http://purl.org/dc/elements/1.1/" xmlns:rdf="http://www.w3.org/1999/02/22-rdf-syntax-ns#">
   <cc:Work>
    <dc:type rdf:resource="http://purl.org/dc/dcmitype/StillImage"/>
    <dc:date>2021-12-17T19:08:24.733329</dc:date>
    <dc:format>image/svg+xml</dc:format>
    <dc:creator>
     <cc:Agent>
      <dc:title>Matplotlib v3.3.4, https://matplotlib.org/</dc:title>
     </cc:Agent>
    </dc:creator>
   </cc:Work>
  </rdf:RDF>
 </metadata>
 <defs>
  <style type="text/css">*{stroke-linecap:butt;stroke-linejoin:round;}</style>
 </defs>
 <g id="figure_1">
  <g id="patch_1">
   <path d="M 0 216 
L 216 216 
L 216 0 
L 0 0 
z
" style="fill:#ffffff;"/>
  </g>
  <g id="axes_1">
   <g id="patch_2">
    <path d="M 64.8 172.8 
L 151.2 172.8 
L 151.2 43.2 
L 64.8 43.2 
z
" style="fill:#ffffff;"/>
   </g>
   <g id="patch_3">
    <path clip-path="url(#pab64c7411f)" d="M 68.727273 172.8 
L 91.168831 172.8 
L 91.168831 88.768258 
L 68.727273 88.768258 
z
" style="fill:#cccccc;"/>
   </g>
   <g id="patch_4">
    <path clip-path="url(#pab64c7411f)" d="M 96.779221 172.8 
L 119.220779 172.8 
L 119.220779 107.22113 
L 96.779221 107.22113 
z
" style="fill:#cccccc;"/>
   </g>
   <g id="patch_5">
    <path clip-path="url(#pab64c7411f)" d="M 124.831169 172.8 
L 147.272727 172.8 
L 147.272727 136.017828 
L 124.831169 136.017828 
z
" style="fill:#cccccc;"/>
   </g>
   <g id="PathCollection_1">
    <defs>
     <path d="M 0 1.5 
C 0.397805 1.5 0.77937 1.341951 1.06066 1.06066 
C 1.341951 0.77937 1.5 0.397805 1.5 -0 
C 1.5 -0.397805 1.341951 -0.77937 1.06066 -1.06066 
C 0.77937 -1.341951 0.397805 -1.5 0 -1.5 
C -0.397805 -1.5 -0.77937 -1.341951 -1.06066 -1.06066 
C -1.341951 -0.77937 -1.5 -0.397805 -1.5 0 
C -1.5 0.397805 -1.341951 0.77937 -1.06066 1.06066 
C -0.77937 1.341951 -0.397805 1.5 0 1.5 
z
" id="C0_0_6589d7e9da"/>
    </defs>
    <g clip-path="url(#pab64c7411f)">
     <use style="fill:#ff00ff;" x="79.948052" xlink:href="#C0_0_6589d7e9da" y="63.892437"/>
    </g>
    <g clip-path="url(#pab64c7411f)">
     <use style="fill:#ff00ff;" x="79.948052" xlink:href="#C0_0_6589d7e9da" y="96.18309"/>
    </g>
    <g clip-path="url(#pab64c7411f)">
     <use style="fill:#ff00ff;" x="79.948052" xlink:href="#C0_0_6589d7e9da" y="76.392433"/>
    </g>
    <g clip-path="url(#pab64c7411f)">
     <use style="fill:#ff00ff;" x="79.948052" xlink:href="#C0_0_6589d7e9da" y="88.285416"/>
    </g>
    <g clip-path="url(#pab64c7411f)">
     <use style="fill:#ff00ff;" x="79.948052" xlink:href="#C0_0_6589d7e9da" y="94.207413"/>
    </g>
    <g clip-path="url(#pab64c7411f)">
     <use style="fill:#ff00ff;" x="79.948052" xlink:href="#C0_0_6589d7e9da" y="113.648758"/>
    </g>
   </g>
   <g id="PathCollection_2">
    <defs>
     <path d="M 0 1.5 
C 0.397805 1.5 0.77937 1.341951 1.06066 1.06066 
C 1.341951 0.77937 1.5 0.397805 1.5 -0 
C 1.5 -0.397805 1.341951 -0.77937 1.06066 -1.06066 
C 0.77937 -1.341951 0.397805 -1.5 0 -1.5 
C -0.397805 -1.5 -0.77937 -1.341951 -1.06066 -1.06066 
C -1.341951 -0.77937 -1.5 -0.397805 -1.5 0 
C -1.5 0.397805 -1.341951 0.77937 -1.06066 1.06066 
C -0.77937 1.341951 -0.397805 1.5 0 1.5 
z
" id="C1_0_fd1dcc19ef"/>
    </defs>
    <g clip-path="url(#pab64c7411f)">
     <use style="fill:#ffa500;" x="108" xlink:href="#C1_0_fd1dcc19ef" y="90.364361"/>
    </g>
    <g clip-path="url(#pab64c7411f)">
     <use style="fill:#ffa500;" x="108" xlink:href="#C1_0_fd1dcc19ef" y="99.666012"/>
    </g>
    <g clip-path="url(#pab64c7411f)">
     <use style="fill:#ffa500;" x="108" xlink:href="#C1_0_fd1dcc19ef" y="120.118812"/>
    </g>
    <g clip-path="url(#pab64c7411f)">
     <use style="fill:#ffa500;" x="108" xlink:href="#C1_0_fd1dcc19ef" y="118.735337"/>
    </g>
   </g>
   <g id="PathCollection_3">
    <defs>
     <path d="M 0 1.5 
C 0.397805 1.5 0.77937 1.341951 1.06066 1.06066 
C 1.341951 0.77937 1.5 0.397805 1.5 -0 
C 1.5 -0.397805 1.341951 -0.77937 1.06066 -1.06066 
C 0.77937 -1.341951 0.397805 -1.5 0 -1.5 
C -0.397805 -1.5 -0.77937 -1.341951 -1.06066 -1.06066 
C -1.341951 -0.77937 -1.5 -0.397805 -1.5 0 
C -1.5 0.397805 -1.341951 0.77937 -1.06066 1.06066 
C -0.77937 1.341951 -0.397805 1.5 0 1.5 
z
" id="C2_0_b367ae7322"/>
    </defs>
    <g clip-path="url(#pab64c7411f)">
     <use style="fill:#1e90ff;" x="136.051948" xlink:href="#C2_0_b367ae7322" y="125.089269"/>
    </g>
    <g clip-path="url(#pab64c7411f)">
     <use style="fill:#1e90ff;" x="136.051948" xlink:href="#C2_0_b367ae7322" y="139.74561"/>
    </g>
    <g clip-path="url(#pab64c7411f)">
     <use style="fill:#1e90ff;" x="136.051948" xlink:href="#C2_0_b367ae7322" y="132.169075"/>
    </g>
    <g clip-path="url(#pab64c7411f)">
     <use style="fill:#1e90ff;" x="136.051948" xlink:href="#C2_0_b367ae7322" y="139.145615"/>
    </g>
    <g clip-path="url(#pab64c7411f)">
     <use style="fill:#1e90ff;" x="136.051948" xlink:href="#C2_0_b367ae7322" y="137.347879"/>
    </g>
    <g clip-path="url(#pab64c7411f)">
     <use style="fill:#1e90ff;" x="136.051948" xlink:href="#C2_0_b367ae7322" y="142.609518"/>
    </g>
   </g>
   <g id="PathCollection_4"/>
   <g id="PathCollection_5"/>
   <g id="PathCollection_6"/>
   <g id="matplotlib.axis_1">
    <g id="xtick_1">
     <g id="line2d_1"/>
     <g id="text_1">
      <text style="font-family:DejaVu Sans;font-size:6px;font-stretch:normal;font-style:normal;font-weight:normal;text-anchor:middle;" transform="rotate(-0, 79.948052, 180.859062)" x="79.948052" y="180.859062">V1</text>
     </g>
    </g>
    <g id="xtick_2">
     <g id="line2d_2"/>
     <g id="text_2">
      <text style="font-family:DejaVu Sans;font-size:6px;font-stretch:normal;font-style:normal;font-weight:normal;text-anchor:middle;" transform="rotate(-0, 108, 180.859062)" x="108" y="180.859062">Lm</text>
     </g>
    </g>
    <g id="xtick_3">
     <g id="line2d_3"/>
     <g id="text_3">
      <text style="font-family:DejaVu Sans;font-size:6px;font-stretch:normal;font-style:normal;font-weight:normal;text-anchor:middle;" transform="rotate(-0, 136.051948, 180.859062)" x="136.051948" y="180.859062">Li</text>
     </g>
    </g>
   </g>
   <g id="matplotlib.axis_2">
    <g id="ytick_1">
     <g id="line2d_4">
      <defs>
       <path d="M 0 0 
L -3.5 0 
" id="m03f7eb2caf" style="stroke:#000000;stroke-width:0.25;"/>
      </defs>
      <g>
       <use style="stroke:#000000;stroke-width:0.25;" x="62.8" xlink:href="#m03f7eb2caf" y="172.8"/>
      </g>
     </g>
     <g id="text_4">
      <text style="font-family:DejaVu Sans;font-size:6px;font-stretch:normal;font-style:normal;font-weight:normal;text-anchor:end;" transform="rotate(-0, 55.8, 175.079531)" x="55.8" y="175.079531">0</text>
     </g>
    </g>
    <g id="ytick_2">
     <g id="line2d_5">
      <g>
       <use style="stroke:#000000;stroke-width:0.25;" x="62.8" xlink:href="#m03f7eb2caf" y="145.095992"/>
      </g>
     </g>
     <g id="text_5">
      <text style="font-family:DejaVu Sans;font-size:6px;font-stretch:normal;font-style:normal;font-weight:normal;text-anchor:end;" transform="rotate(-0, 55.8, 147.375523)" x="55.8" y="147.375523">1</text>
     </g>
    </g>
    <g id="ytick_3">
     <g id="line2d_6">
      <g>
       <use style="stroke:#000000;stroke-width:0.25;" x="62.8" xlink:href="#m03f7eb2caf" y="117.391984"/>
      </g>
     </g>
     <g id="text_6">
      <text style="font-family:DejaVu Sans;font-size:6px;font-stretch:normal;font-style:normal;font-weight:normal;text-anchor:end;" transform="rotate(-0, 55.8, 119.671516)" x="55.8" y="119.671516">2</text>
     </g>
    </g>
    <g id="ytick_4">
     <g id="line2d_7">
      <g>
       <use style="stroke:#000000;stroke-width:0.25;" x="62.8" xlink:href="#m03f7eb2caf" y="89.687976"/>
      </g>
     </g>
     <g id="text_7">
      <text style="font-family:DejaVu Sans;font-size:6px;font-stretch:normal;font-style:normal;font-weight:normal;text-anchor:end;" transform="rotate(-0, 55.8, 91.967508)" x="55.8" y="91.967508">3</text>
     </g>
    </g>
    <g id="ytick_5">
     <g id="line2d_8">
      <g>
       <use style="stroke:#000000;stroke-width:0.25;" x="62.8" xlink:href="#m03f7eb2caf" y="61.983969"/>
      </g>
     </g>
     <g id="text_8">
      <text style="font-family:DejaVu Sans;font-size:6px;font-stretch:normal;font-style:normal;font-weight:normal;text-anchor:end;" transform="rotate(-0, 55.8, 64.2635)" x="55.8" y="64.2635">4</text>
     </g>
    </g>
    <g id="text_9">
     <text style="font-family:DejaVu Sans;font-size:7px;font-stretch:normal;font-style:normal;font-weight:normal;" transform="translate(38.68825 147.604141)rotate(-90)">decoding performance</text>
     <text style="font-family:DejaVu Sans;font-size:7px;font-stretch:normal;font-style:normal;font-weight:normal;" transform="translate(46.526719 143.348906)rotate(-90)">(intact over chance)</text>
    </g>
   </g>
   <g id="line2d_9">
    <path clip-path="url(#pab64c7411f)" d="M 136.051948 56.631933 
L 136.051948 56.631933 
L 108 56.631933 
L 108 56.631933 
" style="fill:none;stroke:#000000;stroke-linecap:square;stroke-width:0.25;"/>
   </g>
   <g id="line2d_10">
    <path clip-path="url(#pab64c7411f)" d="M 136.051948 49.371429 
L 136.051948 49.371429 
L 79.948052 49.371429 
L 79.948052 49.371429 
" style="fill:none;stroke:#000000;stroke-linecap:square;stroke-width:0.25;"/>
   </g>
   <g id="patch_6">
    <path d="M 62.8 172.8 
L 62.8 43.2 
" style="fill:none;stroke:#000000;stroke-linecap:square;stroke-linejoin:miter;stroke-width:0.25;"/>
   </g>
   <g id="text_10">
    <text style="font-family:DejaVu Sans;font-size:4px;font-stretch:normal;font-style:normal;font-weight:normal;text-anchor:start;" transform="rotate(-0, 122.025974, 55.72437)" x="122.025974" y="55.72437">*</text>
   </g>
   <g id="text_11">
    <text style="font-family:DejaVu Sans;font-size:4px;font-stretch:normal;font-style:normal;font-weight:normal;text-anchor:start;" transform="rotate(-0, 108, 48.463866)" x="108" y="48.463866">*</text>
   </g>
  </g>
  <g id="text_12">
   <text style="font-family:DejaVu Sans;font-size:7px;font-stretch:normal;font-style:normal;font-weight:normal;" transform="translate(2.16 13.566844)">[gratings] Relative scores, intact_rel</text>
   <text style="font-family:DejaVu Sans;font-size:7px;font-stretch:normal;font-style:normal;font-weight:normal;" transform="translate(2.16 21.6)">(unique data, min_ncells=10)</text>
  </g>
  <g id="text_13">
   <text style="font-family:DejaVu Sans;font-size:8px;font-stretch:normal;font-style:normal;font-weight:normal;text-anchor:start;" transform="rotate(-0, 0, 6.11375)" x="0" y="6.11375">traces001|dff_responsive-ROC-thr0.05</text>
  </g>
 </g>
 <defs>
  <clipPath id="pab64c7411f">
   <rect height="129.6" width="86.4" x="64.8" y="43.2"/>
  </clipPath>
 </defs>
</svg>
