<?xml version="1.0" encoding="utf-8" standalone="no"?>
<!DOCTYPE svg PUBLIC "-//W3C//DTD SVG 1.1//EN"
  "http://www.w3.org/Graphics/SVG/1.1/DTD/svg11.dtd">
<!-- Created with matplotlib (https://matplotlib.org/) -->
<svg height="410.4pt" version="1.1" viewBox="0 0 720 410.4" width="720pt" xmlns="http://www.w3.org/2000/svg" xmlns:xlink="http://www.w3.org/1999/xlink">
 <metadata>
  <rdf:RDF xmlns:cc="http://creativecommons.org/ns#" xmlns:dc="http://purl.org/dc/elements/1.1/" xmlns:rdf="http://www.w3.org/1999/02/22-rdf-syntax-ns#">
   <cc:Work>
    <dc:type rdf:resource="http://purl.org/dc/dcmitype/StillImage"/>
    <dc:date>2021-05-10T19:27:39.973694</dc:date>
    <dc:format>image/svg+xml</dc:format>
    <dc:creator>
     <cc:Agent>
      <dc:title>Matplotlib v3.3.4, https://matplotlib.org/</dc:title>
     </cc:Agent>
    </dc:creator>
   </cc:Work>
  </rdf:RDF>
 </metadata>
 <defs>
  <style type="text/css">*{stroke-linecap:butt;stroke-linejoin:round;}</style>
 </defs>
 <g id="figure_1">
  <g id="axes_1">
   <g id="patch_1">
    <path d="M 159.355793 328.32 
L 596.644207 328.32 
L 596.644207 82.08 
L 159.355793 82.08 
z
" style="fill:#b2b2b2;"/>
   </g>
   <g id="patch_2">
    <path clip-path="url(#pa0053a8e20)" d="M 176.832494 314.92773 
L 579.167506 314.92773 
L 579.167506 95.47227 
L 176.832494 95.47227 
z
" style="fill:none;stroke:#000000;stroke-linejoin:miter;stroke-width:0.5;"/>
   </g>
   <g id="patch_3">
    <path clip-path="url(#pa0053a8e20)" d="M 466.769548 238.603658 
C 490.489838 243.488739 513.763784 245.63982 531.46557 244.583151 
C 549.167355 243.526481 559.851708 239.348333 561.165523 232.968895 
C 562.479338 226.589457 554.315348 218.529582 538.471578 210.564364 
C 522.627808 202.599145 500.39783 195.378909 476.67754 190.493827 
C 452.95725 185.608746 429.683304 183.457665 411.981519 184.514334 
C 394.279733 185.571004 383.595381 189.749152 382.281566 196.12859 
C 380.967751 202.508028 389.13174 210.567903 404.97551 218.533122 
C 420.819281 226.49834 443.049258 233.718576 466.769548 238.603658 
z
" style="fill:none;stroke:#000000;stroke-linejoin:miter;stroke-width:0.2;"/>
   </g>
   <g id="patch_4">
    <path clip-path="url(#pa0053a8e20)" d="M 491.068749 260.194482 
C 509.894003 255.578467 526.846174 246.646123 538.191742 235.364694 
C 549.537311 224.083265 554.349962 211.373831 551.569764 200.035496 
C 548.789567 188.697161 538.643512 179.65565 523.366151 174.902252 
C 508.08879 170.148854 488.927451 170.071661 470.102197 174.687676 
C 451.276942 179.303691 434.324772 188.236035 422.979203 199.517464 
C 411.633635 210.798893 406.820984 223.508328 409.601181 234.846663 
C 412.381378 246.184998 422.527433 255.226508 437.804794 259.979906 
C 453.082156 264.733305 472.243495 264.810497 491.068749 260.194482 
z
" style="fill:none;stroke:#000000;stroke-linejoin:miter;stroke-width:0.2;"/>
   </g>
   <g id="patch_5">
    <path clip-path="url(#pa0053a8e20)" d="M 476.428736 270.672848 
C 496.679471 272.228569 516.458597 269.098696 531.40999 261.972547 
C 546.361384 254.846398 555.264331 244.305791 556.15806 232.672173 
C 557.051789 221.038555 549.863331 209.261758 536.175861 199.935487 
C 522.488391 190.609215 503.41943 184.494917 483.168695 182.939196 
C 462.91796 181.383474 443.138834 184.513347 428.18744 191.639497 
C 413.236046 198.765646 404.333099 209.306253 403.43937 220.939871 
C 402.545641 232.573489 409.734099 244.350286 423.421569 253.676557 
C 437.10904 263.002829 456.178001 269.117127 476.428736 270.672848 
z
" style="fill:none;stroke:#000000;stroke-linejoin:miter;stroke-width:0.2;"/>
   </g>
   <g id="patch_6">
    <path clip-path="url(#pa0053a8e20)" d="M 502.136922 290.900182 
C 524.388392 293.307412 546.213757 291.158533 562.806234 284.92681 
C 579.398711 278.695088 589.403598 268.889315 590.617434 257.669099 
C 591.83127 246.448883 584.154951 234.730306 569.279098 225.094246 
C 554.403244 215.458187 533.542404 208.691388 511.290934 206.284158 
C 489.039464 203.876928 467.214099 206.025807 450.621622 212.25753 
C 434.029145 218.489252 424.024259 228.295025 422.810422 239.515241 
C 421.596586 250.735457 429.272905 262.454034 444.148758 272.090094 
C 459.024612 281.726153 479.885453 288.492952 502.136922 290.900182 
z
" style="fill:none;stroke:#000000;stroke-linejoin:miter;stroke-width:0.2;"/>
   </g>
   <g id="patch_7">
    <path clip-path="url(#pa0053a8e20)" d="M 477.32134 249.977381 
C 493.230109 247.108097 507.741742 240.210339 517.66022 230.803259 
C 527.578698 221.396178 532.094221 210.247821 530.212298 199.813485 
C 528.330376 189.379148 520.204657 180.510748 507.624738 175.161448 
C 495.04482 169.812148 479.037795 168.418694 463.129026 171.287978 
C 447.220257 174.157262 432.708625 181.055019 422.790147 190.4621 
C 412.871669 199.86918 408.356145 211.017537 410.238068 221.451874 
C 412.119991 231.886211 420.245709 240.75461 432.825628 246.103911 
C 445.405547 251.453211 461.412571 252.846665 477.32134 249.977381 
z
" style="fill:none;stroke:#000000;stroke-linejoin:miter;stroke-width:0.2;"/>
   </g>
   <g id="patch_8">
    <path clip-path="url(#pa0053a8e20)" d="M 449.827982 258.849632 
C 464.921752 263.137921 480.471427 263.477697 493.052373 259.794128 
C 505.633318 256.110559 514.218355 248.704393 516.916729 239.206751 
C 519.615103 229.709109 516.206503 218.895432 507.441635 209.147307 
C 498.676766 199.399182 485.271242 191.512499 470.177472 187.22421 
C 455.083703 182.935921 439.534027 182.596145 426.953082 186.279714 
C 414.372137 189.963283 405.7871 197.369449 403.088726 206.867091 
C 400.390352 216.364733 403.798951 227.17841 412.56382 236.926535 
C 421.328688 246.67466 434.734213 254.561343 449.827982 258.849632 
z
" style="fill:none;stroke:#000000;stroke-linejoin:miter;stroke-width:0.2;"/>
   </g>
   <g id="patch_9">
    <path clip-path="url(#pa0053a8e20)" d="M 475.203955 254.277477 
C 490.418464 253.323753 504.775059 248.631111 515.111867 241.233051 
C 525.448675 233.834991 530.921741 224.335531 530.325685 214.826818 
C 529.72963 205.318105 523.113119 196.576483 511.933362 190.527192 
C 500.753605 184.477901 485.92338 181.614839 470.708871 182.568563 
C 455.494362 183.522287 441.137767 188.214929 430.800959 195.612989 
C 420.464151 203.011049 414.991085 212.510508 415.58714 222.019222 
C 416.183195 231.527935 422.799706 240.269557 433.979464 246.318848 
C 445.159221 252.368139 459.989446 255.231201 475.203955 254.277477 
z
" style="fill:none;stroke:#000000;stroke-linejoin:miter;stroke-width:0.2;"/>
   </g>
   <g id="patch_10">
    <path clip-path="url(#pa0053a8e20)" d="M 475.704656 185.188183 
C 487.300566 178.319319 495.308007 166.472013 497.963433 152.255495 
C 500.61886 138.038978 497.705468 122.613965 489.864899 109.377637 
C 482.02433 96.141309 469.89673 86.174353 456.153064 81.671876 
C 442.409398 77.169399 428.171775 78.499008 416.575865 85.367872 
C 404.979955 92.236735 396.972514 104.084042 394.317088 118.300559 
C 391.661661 132.517077 394.575053 147.942089 402.415622 161.178417 
C 410.256192 174.414745 422.383791 184.381701 436.127457 188.884178 
C 449.871123 193.386655 464.108747 192.057047 475.704656 185.188183 
z
" style="fill:none;stroke:#000000;stroke-linejoin:miter;stroke-width:0.2;"/>
   </g>
   <g id="patch_11">
    <path clip-path="url(#pa0053a8e20)" d="M 402.020509 230.621093 
C 412.3992 234.592033 424.797658 232.014508 436.485267 223.456187 
C 448.172876 214.897866 458.195395 201.057498 464.345479 184.983263 
C 470.495564 168.909029 472.271087 151.913319 469.28101 137.73924 
C 466.290934 123.565161 458.779384 113.369964 448.400693 109.399024 
C 438.022002 105.428084 425.623544 108.005609 413.935935 116.56393 
C 402.248326 125.122251 392.225807 138.962619 386.075723 155.036854 
C 379.925638 171.111088 378.150115 188.106798 381.140192 202.280877 
C 384.130268 216.454956 391.641818 226.650153 402.020509 230.621093 
z
" style="fill:none;stroke:#000000;stroke-linejoin:miter;stroke-width:0.2;"/>
   </g>
   <g id="patch_12">
    <path clip-path="url(#pa0053a8e20)" d="M 414.055583 230.746569 
C 422.319596 226.677974 427.542196 217.283076 428.573166 204.630992 
C 429.604136 191.978908 426.359302 177.102624 419.553301 163.27847 
C 412.7473 149.454315 402.935812 137.810971 392.279703 130.912749 
C 381.623594 124.014526 370.992888 122.424635 362.728875 126.493229 
C 354.464862 130.561824 349.242262 139.956722 348.211292 152.608806 
C 347.180322 165.26089 350.425156 180.137174 357.231157 193.961329 
C 364.037158 207.785483 373.848646 219.428827 384.504755 226.32705 
C 395.160864 233.225272 405.79157 234.815163 414.055583 230.746569 
z
" style="fill:none;stroke:#000000;stroke-linejoin:miter;stroke-width:0.2;"/>
   </g>
   <g id="patch_13">
    <path clip-path="url(#pa0053a8e20)" d="M 363.867324 203.129799 
C 378.779698 213.609111 395.104462 220.784467 409.246276 223.075576 
C 423.38809 225.366685 434.192336 222.586489 439.279507 215.347294 
C 444.366677 208.108099 443.321425 197.000953 436.373957 184.472077 
C 429.426488 171.9432 417.144032 159.015519 402.231658 148.536207 
C 387.319284 138.056894 370.99452 130.881539 356.852706 128.59043 
C 342.710893 126.299321 331.906646 129.079517 326.819476 136.318712 
C 321.732305 143.557907 322.777557 154.665052 329.725025 167.193929 
C 336.672494 179.722806 348.95495 192.650486 363.867324 203.129799 
z
" style="fill:none;stroke:#000000;stroke-linejoin:miter;stroke-width:0.2;"/>
   </g>
   <g id="patch_14">
    <path clip-path="url(#pa0053a8e20)" d="M 436.43739 216.654532 
C 445.611528 208.615298 451.554413 197.64422 452.957193 186.157552 
C 454.359973 174.670884 451.108118 163.60646 443.91781 155.401092 
C 436.727502 147.195724 426.185799 142.519344 414.614389 142.40187 
C 403.042979 142.284396 391.386615 146.735419 382.212477 154.774653 
C 373.038339 162.813888 367.095454 173.784965 365.692674 185.271634 
C 364.289894 196.758302 367.54175 207.822725 374.732057 216.028093 
C 381.922365 224.233461 392.464068 228.909841 404.035478 229.027315 
C 415.606889 229.144789 427.263252 224.693766 436.43739 216.654532 
z
" style="fill:none;stroke:#000000;stroke-linejoin:miter;stroke-width:0.2;"/>
   </g>
   <g id="patch_15">
    <path clip-path="url(#pa0053a8e20)" d="M 369.563993 221.999649 
C 377.81844 230.919593 388.796377 236.643275 400.08004 237.910121 
C 411.363704 239.176966 422.031833 235.883542 429.734897 228.755188 
C 437.43796 221.626833 441.547037 211.245546 441.15715 199.897685 
C 440.767263 188.549824 435.910245 177.161891 427.655799 168.241947 
C 419.401352 159.322002 408.423415 153.59832 397.139751 152.331475 
C 385.856088 151.064629 375.187958 154.358053 367.484895 161.486408 
C 359.781831 168.614762 355.672755 178.996049 356.062642 190.34391 
C 356.452529 201.691771 361.309546 213.079704 369.563993 221.999649 
z
" style="fill:none;stroke:#000000;stroke-linejoin:miter;stroke-width:0.2;"/>
   </g>
   <g id="patch_16">
    <path clip-path="url(#pa0053a8e20)" d="M 183.02887 171.427654 
C 193.096144 181.187711 207.896264 185.243605 224.169674 182.702072 
C 240.443084 180.160539 256.861133 171.229083 269.807936 157.874755 
C 282.754739 144.520426 291.173248 127.833547 293.209382 111.489207 
C 295.245517 95.144868 290.733036 80.477512 280.665762 70.717454 
C 270.598488 60.957397 255.798369 56.901503 239.524958 59.443036 
C 223.251548 61.984569 206.833499 70.916025 193.886696 84.270353 
C 180.939893 97.624682 172.521385 114.311562 170.48525 130.655901 
C 168.449116 147.00024 172.961596 161.667596 183.02887 171.427654 
z
" style="fill:none;stroke:#000000;stroke-linejoin:miter;stroke-width:0.2;"/>
   </g>
   <g id="patch_17">
    <path clip-path="url(#pa0053a8e20)" d="M 319.28006 225.393123 
C 308.027874 222.799771 296.756329 222.389319 287.947852 224.252163 
C 279.139374 226.115008 273.513138 230.099057 272.308256 235.326869 
C 271.103373 240.554682 274.418219 246.59943 281.522735 252.129829 
C 288.627251 257.660228 298.941387 262.224744 310.193573 264.818096 
C 321.445759 267.411448 332.717304 267.821901 341.525781 265.959056 
C 350.334258 264.096212 355.960495 260.112163 357.165377 254.88435 
C 358.370259 249.656538 355.055414 243.611789 347.950898 238.081391 
C 340.846381 232.550992 330.532246 227.986476 319.28006 225.393123 
z
" style="fill:none;stroke:#000000;stroke-linejoin:miter;stroke-width:0.2;"/>
   </g>
   <g id="patch_18">
    <path clip-path="url(#pa0053a8e20)" d="M 389.652018 213.679541 
C 398.007882 208.181072 402.552533 197.63365 402.285065 184.360224 
C 402.017597 171.086798 396.959847 156.171084 388.225726 142.898094 
C 379.491605 129.625104 367.794215 119.07852 355.709771 113.581104 
C 343.625326 108.083688 332.140469 108.08428 323.784605 113.582749 
C 315.428741 119.081219 310.884089 129.62864 311.151557 142.902066 
C 311.419026 156.175492 316.476776 171.091207 325.210897 184.364196 
C 333.945018 197.637186 345.642408 208.18377 357.726852 213.681186 
C 369.811297 219.178602 381.296154 219.178011 389.652018 213.679541 
z
" style="fill:none;stroke:#000000;stroke-linejoin:miter;stroke-width:0.2;"/>
   </g>
   <g id="patch_19">
    <path clip-path="url(#pa0053a8e20)" d="M 365.114387 271.6865 
C 371.121006 261.584918 370.06184 247.840048 362.17016 233.479039 
C 354.278479 219.118029 340.198604 205.313393 323.031463 195.10544 
C 305.864323 184.897488 287.011538 179.119653 270.625215 179.044438 
C 254.238893 178.969223 241.656904 184.602768 235.650285 194.70435 
C 229.643666 204.805932 230.702831 218.550802 238.594512 232.911811 
C 246.486193 247.272821 260.566068 261.077457 277.733208 271.28541 
C 294.900349 281.493362 313.753134 287.271197 330.139456 287.346412 
C 346.525779 287.421627 359.107768 281.788082 365.114387 271.6865 
z
" style="fill:none;stroke:#000000;stroke-linejoin:miter;stroke-width:0.2;"/>
   </g>
   <g id="patch_20">
    <path clip-path="url(#pa0053a8e20)" d="M 300.573634 267.520915 
C 316.147903 275.666655 332.757206 280.285336 346.743537 280.359748 
C 360.729867 280.434159 370.951303 275.958226 375.156692 267.917721 
C 379.362081 259.877216 377.208071 248.92861 369.169059 237.483207 
C 361.130047 226.037803 347.862381 215.030069 332.288112 206.88433 
C 316.713842 198.73859 300.104539 194.119909 286.118209 194.045497 
C 272.131878 193.971086 261.910442 198.447019 257.705053 206.487524 
C 253.499664 214.528029 255.653674 225.476635 263.692686 236.922038 
C 271.731698 248.367442 284.999364 259.375176 300.573634 267.520915 
z
" style="fill:none;stroke:#000000;stroke-linejoin:miter;stroke-width:0.2;"/>
   </g>
   <g id="patch_21">
    <path clip-path="url(#pa0053a8e20)" d="M 228.543547 159.936966 
C 244.860896 176.310951 266.390956 186.158008 288.391982 187.309438 
C 310.393007 188.460867 331.06871 180.822659 345.865509 166.077041 
C 360.662307 151.331423 368.372107 130.682309 367.296916 108.677426 
C 366.221724 86.672544 356.449324 65.108494 340.131975 48.734509 
C 323.814625 32.360524 302.284565 22.513467 280.28354 21.362037 
C 258.282515 20.210608 237.606811 27.848816 222.810013 42.594434 
C 208.013214 57.340052 200.303414 77.989166 201.378606 99.994049 
C 202.453798 121.998931 212.226197 143.562981 228.543547 159.936966 
z
" style="fill:none;stroke:#000000;stroke-linejoin:miter;stroke-width:0.2;"/>
   </g>
   <g id="patch_22">
    <path clip-path="url(#pa0053a8e20)" d="M 375.325752 223.737078 
C 387.736879 226.773121 400.641901 225.595044 411.198636 220.462304 
C 421.755371 215.329564 429.101908 206.661227 431.620258 196.366393 
C 434.138608 186.071559 431.623159 174.990756 424.627909 165.564402 
C 417.632659 156.138048 406.728739 149.135764 394.317612 146.09972 
C 381.906484 143.063677 369.001462 144.241754 358.444727 149.374494 
C 347.887992 154.507234 340.541455 163.175571 338.023105 173.470405 
C 335.504755 183.765239 338.020204 194.846042 345.015454 204.272396 
C 352.010704 213.69875 362.914624 220.701034 375.325752 223.737078 
z
" style="fill:none;stroke:#000000;stroke-linejoin:miter;stroke-width:0.2;"/>
   </g>
   <g id="patch_23">
    <path clip-path="url(#pa0053a8e20)" d="M 333.423465 208.386469 
C 339.69621 223.688831 350.869255 236.252808 364.481867 243.311329 
C 378.094479 250.369851 393.035248 251.34662 406.013643 246.026516 
C 418.992039 240.706411 428.948431 229.523795 433.690042 214.941509 
C 438.431652 200.359223 437.571349 183.567847 431.298604 168.265485 
C 425.025859 152.963123 413.852813 140.399147 400.240201 133.340625 
C 386.627589 126.282103 371.68682 125.305334 358.708425 130.625439 
C 345.73003 135.945543 335.773637 147.128159 331.032027 161.710445 
C 326.290416 176.292731 327.15072 193.084108 333.423465 208.386469 
z
" style="fill:none;stroke:#000000;stroke-linejoin:miter;stroke-width:0.2;"/>
   </g>
   <g id="patch_24">
    <path clip-path="url(#pa0053a8e20)" d="M 416.682716 225.103493 
C 424.719463 223.398029 431.322155 216.550454 435.036626 206.068866 
C 438.751097 195.587279 439.274076 182.327455 436.490384 169.209716 
C 433.706692 156.091977 427.843605 144.187329 420.192399 136.117631 
C 412.541193 128.047934 403.726556 124.472043 395.689809 126.177507 
C 387.653062 127.882971 381.05037 134.730546 377.335899 145.212133 
C 373.621428 155.69372 373.098449 168.953545 375.882141 182.071284 
C 378.665833 195.189023 384.52892 207.093671 392.180126 215.163368 
C 399.831332 223.233065 408.645969 226.808956 416.682716 225.103493 
z
" style="fill:none;stroke:#000000;stroke-linejoin:miter;stroke-width:0.2;"/>
   </g>
   <g id="patch_25">
    <path clip-path="url(#pa0053a8e20)" d="M 422.419597 244.16422 
C 430.844654 235.348172 435.91653 224.016231 436.518202 212.664127 
C 437.119874 201.312022 433.202218 190.866603 425.628053 183.628351 
C 418.053888 176.390099 407.441611 172.949985 396.128452 174.065656 
C 384.815293 175.181326 373.724921 180.761691 365.299864 189.577739 
C 356.874806 198.393787 351.80293 209.725728 351.201258 221.077833 
C 350.599586 232.429937 354.517242 242.875357 362.091407 250.113609 
C 369.665572 257.351861 380.27785 260.791974 391.591009 259.676303 
C 402.904168 258.560633 413.994539 252.980268 422.419597 244.16422 
z
" style="fill:none;stroke:#000000;stroke-linejoin:miter;stroke-width:0.2;"/>
   </g>
   <g id="patch_26">
    <path clip-path="url(#pa0053a8e20)" d="M 417.561252 242.608551 
C 428.944098 243.074331 440.031655 239.381496 448.382017 232.34335 
C 456.732379 225.305204 461.663776 215.496381 462.090125 205.077161 
C 462.516474 194.65794 458.402965 184.479004 450.655551 176.782146 
C 442.908137 169.085288 432.159361 164.498923 420.776514 164.033143 
C 409.393668 163.567363 398.306111 167.260198 389.955749 174.298344 
C 381.605387 181.33649 376.67399 191.145313 376.247641 201.564534 
C 375.821292 211.983754 379.934801 222.16269 387.682215 229.859548 
C 395.429629 237.556406 406.178405 242.142771 417.561252 242.608551 
z
" style="fill:none;stroke:#000000;stroke-linejoin:miter;stroke-width:0.2;"/>
   </g>
   <g id="patch_27">
    <path clip-path="url(#pa0053a8e20)" d="M 388.36256 225.386339 
C 379.990976 238.615051 375.694062 253.666049 376.418164 267.224526 
C 377.142265 280.783004 382.828263 291.74197 392.223881 297.68784 
C 401.619499 303.63371 413.957627 304.081031 426.520936 298.931284 
C 439.084245 293.781537 450.846996 283.455177 459.21858 270.226465 
C 467.590164 256.997753 471.887078 241.946755 471.162976 228.388278 
C 470.438875 214.829801 464.752877 203.870834 455.357259 197.924964 
C 445.961641 191.979094 433.623513 191.531774 421.060204 196.68152 
C 408.496895 201.831267 396.734143 212.157627 388.36256 225.386339 
z
" style="fill:none;stroke:#000000;stroke-linejoin:miter;stroke-width:0.2;"/>
   </g>
   <g id="patch_28">
    <path clip-path="url(#pa0053a8e20)" d="M 371.140441 280.569391 
C 381.345362 289.238325 395.600529 292.295083 410.766408 289.066447 
C 425.932287 285.837812 440.77065 276.587388 452.013521 263.352474 
C 463.256392 250.11756 469.98584 233.978727 470.719781 218.490367 
C 471.453723 203.002007 466.132235 189.428675 455.927314 180.759741 
C 445.722394 172.090806 431.467226 169.034049 416.301347 172.262684 
C 401.135468 175.491319 386.297105 184.741743 375.054234 197.976658 
C 363.811363 211.211572 357.081916 227.350404 356.347974 242.838765 
C 355.614033 258.327125 360.93552 271.900456 371.140441 280.569391 
z
" style="fill:none;stroke:#000000;stroke-linejoin:miter;stroke-width:0.2;"/>
   </g>
   <g id="patch_29">
    <path clip-path="url(#pa0053a8e20)" d="M 428.806948 250.081308 
C 447.513796 247.381134 464.974635 241.449516 477.34392 233.592825 
C 489.713205 225.736133 495.981038 216.595833 494.767001 208.184967 
C 493.552964 199.774102 484.956179 192.779382 470.869986 188.741314 
C 456.783794 184.703246 438.35827 183.951519 419.651423 186.651694 
C 400.944576 189.351868 383.483736 195.283486 371.114451 203.140177 
C 358.745166 210.996868 352.477333 220.137169 353.69137 228.548034 
C 354.905407 236.9589 363.502193 243.953619 377.588385 247.991688 
C 391.674577 252.029756 410.100101 252.781482 428.806948 250.081308 
z
" style="fill:none;stroke:#000000;stroke-linejoin:miter;stroke-width:0.2;"/>
   </g>
   <g id="patch_30">
    <path clip-path="url(#pa0053a8e20)" d="M 392.150068 245.988076 
C 400.729036 249.29131 409.990751 249.776944 417.895427 247.338022 
C 425.800103 244.8991 431.702358 239.73475 434.30229 232.982359 
C 436.902221 226.229968 435.987555 218.44084 431.759737 211.330439 
C 427.531919 204.220038 420.336131 198.368898 411.757163 195.065664 
C 403.178194 191.76243 393.916479 191.276796 386.011803 193.715718 
C 378.107127 196.15464 372.204872 201.31899 369.604941 208.071381 
C 367.00501 214.823772 367.919675 222.6129 372.147493 229.723301 
C 376.375311 236.833702 383.571099 242.684842 392.150068 245.988076 
z
" style="fill:none;stroke:#000000;stroke-linejoin:miter;stroke-width:0.2;"/>
   </g>
   <g id="patch_31">
    <path clip-path="url(#pa0053a8e20)" d="M 326.62009 270.632936 
C 344.49001 277.448873 363.047553 280.271172 378.205637 278.478253 
C 393.363721 276.685335 403.884754 270.423583 407.451603 261.072075 
C 411.018451 251.720568 407.339896 240.042814 397.226098 228.610704 
C 387.112299 217.178594 371.389004 206.925509 353.519084 200.109571 
C 335.649165 193.293633 317.091621 190.471335 301.933538 192.264253 
C 286.775454 194.057172 276.25442 200.318924 272.687572 209.670432 
C 269.120723 219.021939 272.799278 230.699693 282.913077 242.131803 
C 293.026875 253.563913 308.750171 263.816998 326.62009 270.632936 
z
" style="fill:none;stroke:#000000;stroke-linejoin:miter;stroke-width:0.2;"/>
   </g>
   <g id="patch_32">
    <path clip-path="url(#pa0053a8e20)" d="M 357.027394 264.57021 
C 368.096653 267.398054 379.588321 266.688165 388.971492 262.596889 
C 398.354662 258.505612 404.863241 251.366981 407.063789 242.753198 
C 409.264337 234.139415 406.977189 224.753756 400.706063 216.663303 
C 394.434938 208.572851 384.691844 202.438155 373.622585 199.610311 
C 362.553326 196.782467 351.061658 197.492356 341.678487 201.583633 
C 332.295317 205.67491 325.786738 212.81354 323.58619 221.427323 
C 321.385642 230.041107 323.67279 239.426766 329.943915 247.517218 
C 336.215041 255.60767 345.958135 261.742366 357.027394 264.57021 
z
" style="fill:none;stroke:#000000;stroke-linejoin:miter;stroke-width:0.2;"/>
   </g>
   <g id="patch_33">
    <path clip-path="url(#pa0053a8e20)" d="M 219.301445 298.264979 
C 232.815022 307.975457 251.246265 309.678142 270.535906 302.998036 
C 289.825547 296.317931 308.398673 281.800437 322.164768 262.642863 
C 335.930864 243.48529 343.765987 221.251768 343.944545 200.838974 
C 344.123102 180.426179 336.630514 163.500726 323.116937 153.790248 
C 309.60336 144.07977 291.172118 142.377086 271.882476 149.057191 
C 252.592835 155.737297 234.019709 170.254791 220.253614 189.412364 
C 206.487519 208.569937 198.652395 230.803459 198.473837 251.216254 
C 198.29528 271.629048 205.787868 288.554502 219.301445 298.264979 
z
" style="fill:none;stroke:#000000;stroke-linejoin:miter;stroke-width:0.2;"/>
   </g>
   <g id="patch_34">
    <path clip-path="url(#pa0053a8e20)" d="M 484.523978 272.783971 
C 493.450538 265.889536 499.87198 256.504869 502.374057 246.696836 
C 504.876134 236.888803 503.254563 227.458185 497.866475 220.481967 
C 492.478387 213.505748 483.763696 209.553507 473.641712 209.495677 
C 463.519728 209.437848 452.816865 213.279152 443.890306 220.173588 
C 434.963747 227.068023 428.542305 236.452689 426.040227 246.260723 
C 423.53815 256.068756 425.159722 265.499374 430.54781 272.475592 
C 435.935898 279.451811 444.650588 283.404052 454.772573 283.461881 
C 464.894557 283.519711 475.597419 279.678406 484.523978 272.783971 
z
" style="fill:none;stroke:#000000;stroke-linejoin:miter;stroke-width:0.2;"/>
   </g>
   <g id="patch_35">
    <path clip-path="url(#pa0053a8e20)" d="M 427.078906 293.394329 
C 434.82194 285.829434 439.990485 276.261782 441.44623 266.798537 
C 442.901975 257.335292 440.526064 248.749086 434.841764 242.930931 
C 429.157464 237.112775 420.628873 234.537698 411.134314 235.772829 
C 401.639754 237.00796 391.954416 241.952457 384.211382 249.517352 
C 376.468348 257.082246 371.299802 266.649898 369.844057 276.113143 
C 368.388312 285.576388 370.764223 294.162595 376.448524 299.98075 
C 382.132824 305.798905 390.661415 308.373982 400.155974 307.138851 
C 409.650533 305.90372 419.335871 300.959223 427.078906 293.394329 
z
" style="fill:none;stroke:#000000;stroke-linejoin:miter;stroke-width:0.2;"/>
   </g>
   <g id="patch_36">
    <path clip-path="url(#pa0053a8e20)" d="M 482.821044 199.715392 
C 465.812343 200.071196 449.595785 205.087703 437.742879 213.660087 
C 425.889974 222.23247 419.368457 233.660831 419.614618 245.428208 
C 419.86078 257.195584 426.85452 268.341221 439.05555 276.410421 
C 451.256581 284.479621 467.66874 288.81357 484.677441 288.457766 
C 501.686142 288.101962 517.9027 283.085454 529.755606 274.513071 
C 541.608511 265.940688 548.130028 254.512326 547.883867 242.74495 
C 547.637705 230.977574 540.643965 219.831937 528.442935 211.762737 
C 516.241904 203.693537 499.829745 199.359588 482.821044 199.715392 
z
" style="fill:none;stroke:#000000;stroke-linejoin:miter;stroke-width:0.2;"/>
   </g>
   <g id="patch_37">
    <path clip-path="url(#pa0053a8e20)" d="M 444.858679 252.8992 
C 440.39727 244.40845 431.977834 238.439733 421.454655 236.30759 
C 410.931476 234.175446 399.163724 236.053956 388.74311 241.5294 
C 378.322496 247.004843 370.099817 255.630175 365.886023 265.505764 
C 361.672229 275.381354 361.811357 285.700905 366.272766 294.191655 
C 370.734175 302.682404 379.15361 308.651121 389.676789 310.783265 
C 400.199969 312.915408 411.967721 311.036898 422.388335 305.561455 
C 432.808949 300.086011 441.031627 291.46068 445.245422 281.58509 
C 449.459216 271.7095 449.320088 261.38995 444.858679 252.8992 
z
" style="fill:none;stroke:#000000;stroke-linejoin:miter;stroke-width:0.2;"/>
   </g>
   <g id="patch_38">
    <path clip-path="url(#pa0053a8e20)" d="M 375.122954 299.713837 
C 385.838721 303.791156 397.418948 304.280428 407.313226 301.073896 
C 417.207505 297.867364 424.608009 291.226829 427.884866 282.61479 
C 431.161722 274.002751 430.047389 264.122344 424.787285 255.149613 
C 419.527182 246.176882 410.550772 238.844412 399.835006 234.767093 
C 389.11924 230.689775 377.539012 230.200503 367.644734 233.407034 
C 357.750456 236.613566 350.349951 243.254102 347.073094 251.866141 
C 343.796238 260.47818 344.910571 270.358587 350.170675 279.331318 
C 355.430778 288.304048 364.407188 295.636519 375.122954 299.713837 
z
" style="fill:none;stroke:#000000;stroke-linejoin:miter;stroke-width:0.2;"/>
   </g>
   <g id="patch_39">
    <path clip-path="url(#pa0053a8e20)" d="M 390.893417 324.107486 
C 405.520818 318.588452 417.672881 308.316804 424.673254 295.554753 
C 431.673628 282.792702 432.950762 268.582213 428.223384 256.052982 
C 423.496006 243.52375 413.150085 233.698733 399.464189 228.741775 
C 385.778293 223.784817 369.869816 224.100632 355.242415 229.619666 
C 340.615014 235.138701 328.462951 245.410349 321.462577 258.1724 
C 314.462204 270.934451 313.185069 285.144939 317.912447 297.674171 
C 322.639825 310.203402 332.985747 320.02842 346.671642 324.985378 
C 360.357538 329.942336 376.266015 329.62652 390.893417 324.107486 
z
" style="fill:none;stroke:#000000;stroke-linejoin:miter;stroke-width:0.2;"/>
   </g>
   <g id="patch_40">
    <path clip-path="url(#pa0053a8e20)" d="M 321.65587 283.883244 
C 323.893359 293.277102 331.822742 300.909989 343.697664 305.100849 
C 355.572585 309.29171 370.423512 309.69838 384.979698 306.231295 
C 399.535885 302.76421 412.608883 295.706441 421.319518 286.612381 
C 430.030152 277.518321 433.667238 267.130459 431.429749 257.736602 
C 429.19226 248.342744 421.262878 240.709857 409.387956 236.518996 
C 397.513034 232.328135 382.662108 231.921465 368.105921 235.388551 
C 353.549735 238.855636 340.476736 245.913404 331.766102 255.007465 
C 323.055467 264.101525 319.418381 274.489386 321.65587 283.883244 
z
" style="fill:none;stroke:#000000;stroke-linejoin:miter;stroke-width:0.2;"/>
   </g>
   <g id="patch_41">
    <path clip-path="url(#pa0053a8e20)" d="M 479.240864 246.546068 
C 485.859615 239.956813 490.449264 231.86977 491.998994 224.066017 
C 493.548725 216.262264 491.932008 209.378942 487.504907 204.932024 
C 483.077806 200.485105 476.201773 198.837661 468.391177 200.352522 
C 460.58058 201.867382 452.473118 206.420866 445.854367 213.010121 
C 439.235616 219.599376 434.645967 227.686419 433.096237 235.490172 
C 431.546506 243.293925 433.163223 250.177247 437.590324 254.624165 
C 442.017425 259.071084 448.893458 260.718528 456.704055 259.203667 
C 464.514652 257.688807 472.622113 253.135323 479.240864 246.546068 
z
" style="fill:none;stroke:#000000;stroke-linejoin:miter;stroke-width:0.2;"/>
   </g>
   <g id="patch_42">
    <path clip-path="url(#pa0053a8e20)" d="M 444.406009 265.224102 
C 447.750104 272.686739 452.882154 278.982353 458.671886 282.724407 
C 464.461617 286.466461 470.436324 287.349434 475.280146 285.178861 
C 480.123968 283.008288 483.441429 277.961386 484.501896 271.149678 
C 485.562363 264.337969 484.279254 256.3176 480.935159 248.854963 
C 477.591064 241.392326 472.459014 235.096712 466.669282 231.354658 
C 460.87955 227.612604 454.904844 226.729631 450.061022 228.900204 
C 445.2172 231.070777 441.899739 236.117679 440.839272 242.929387 
C 439.778805 249.741096 441.061914 257.761465 444.406009 265.224102 
z
" style="fill:none;stroke:#000000;stroke-linejoin:miter;stroke-width:0.2;"/>
   </g>
   <g id="patch_43">
    <path clip-path="url(#pa0053a8e20)" d="M 448.299563 311.828962 
C 467.521015 307.178034 484.853444 298.152894 496.479585 286.741223 
C 508.105726 275.329552 513.076356 262.463063 510.29675 250.975452 
C 507.517144 239.48784 497.214246 230.317018 481.657149 225.482753 
C 466.100053 220.648488 446.558925 220.545476 427.337473 225.196404 
C 408.116021 229.847332 390.783592 238.872472 379.157451 250.284143 
C 367.53131 261.695814 362.56068 274.562303 365.340286 286.049914 
C 368.119892 297.537526 378.42279 306.708348 393.979887 311.542613 
C 409.536984 316.376878 429.078111 316.479891 448.299563 311.828962 
z
" style="fill:none;stroke:#000000;stroke-linejoin:miter;stroke-width:0.2;"/>
   </g>
   <g id="patch_44">
    <path clip-path="url(#pa0053a8e20)" d="M 444.90914 306.894915 
C 465.18696 309.810089 485.234398 308.450662 500.636239 303.116032 
C 516.03808 297.781402 525.536831 288.907119 527.040504 278.447639 
C 528.544176 267.98816 521.930001 256.797455 508.654674 247.340147 
C 495.379347 237.882839 476.52674 230.931076 456.248921 228.015902 
C 435.971101 225.100728 415.923663 226.460156 400.521822 231.794785 
C 385.119981 237.129415 375.62123 246.003699 374.117557 256.463178 
C 372.613885 266.922658 379.22806 278.113363 392.503387 287.570671 
C 405.778713 297.027978 424.631321 303.979742 444.90914 306.894915 
z
" style="fill:none;stroke:#000000;stroke-linejoin:miter;stroke-width:0.2;"/>
   </g>
   <g id="patch_45">
    <path clip-path="url(#pa0053a8e20)" d="M 503.955553 293.548547 
C 524.085904 296.582549 544.044788 295.177939 559.436492 289.644068 
C 574.828197 284.110197 584.396057 274.89888 586.032864 264.038803 
C 587.66967 253.178726 581.241784 241.556566 568.164873 231.73197 
C 555.087963 221.907373 536.429699 214.682474 516.299348 211.648473 
C 496.168997 208.614472 476.210113 210.019081 460.818408 215.552952 
C 445.426704 221.086823 435.858843 230.29814 434.222037 241.158217 
C 432.585231 252.018294 439.013116 263.640454 452.090027 273.46505 
C 465.166938 283.289647 483.825202 290.514546 503.955553 293.548547 
z
" style="fill:none;stroke:#000000;stroke-linejoin:miter;stroke-width:0.2;"/>
   </g>
   <g id="patch_46">
    <path clip-path="url(#pa0053a8e20)" d="M 515.280989 323.476684 
C 533.875454 326.382222 552.521843 323.979008 567.113506 316.796321 
C 581.705168 309.613634 591.050759 298.23791 593.092022 285.174519 
C 595.133284 272.111128 589.703557 258.426639 577.998675 247.134901 
C 566.293793 235.843164 549.269408 227.866098 530.674944 224.96056 
C 512.080479 222.055022 493.43409 224.458236 478.842427 231.640923 
C 464.250765 238.823609 454.905174 250.199333 452.863911 263.262724 
C 450.822649 276.326115 456.252376 290.010604 467.957258 301.302342 
C 479.66214 312.59408 496.686525 320.571146 515.280989 323.476684 
z
" style="fill:none;stroke:#000000;stroke-linejoin:miter;stroke-width:0.2;"/>
   </g>
   <g id="patch_47">
    <path clip-path="url(#pa0053a8e20)" d="M 316.498741 293.349848 
C 329.436709 292.377682 341.622743 288.467187 350.373011 282.479604 
C 359.123278 276.492021 363.723359 268.91621 363.160139 261.420655 
C 362.596919 253.9251 356.916382 247.12178 347.369601 242.509047 
C 337.82282 237.896315 325.189246 235.850779 312.251279 236.822945 
C 299.313311 237.795111 287.127278 241.705606 278.37701 247.693189 
C 269.626742 253.680772 265.026661 261.256583 265.589881 268.752138 
C 266.153101 276.247693 271.833638 283.051013 281.380419 287.663745 
C 290.927201 292.276478 303.560774 294.322014 316.498741 293.349848 
z
" style="fill:none;stroke:#000000;stroke-linejoin:miter;stroke-width:0.2;"/>
   </g>
   <g id="patch_48">
    <path clip-path="url(#pa0053a8e20)" d="M 307.745964 292.179096 
C 313.121949 293.312817 318.835064 291.760953 323.627061 287.865286 
C 328.419058 283.969619 331.898691 278.048212 333.299612 271.405186 
C 334.700533 264.76216 333.908363 257.93989 331.097568 252.4409 
C 328.286773 246.94191 323.686842 243.21517 318.310856 242.08145 
C 312.93487 240.947729 307.221755 242.499593 302.429759 246.39526 
C 297.637762 250.290927 294.158129 256.212334 292.757207 262.85536 
C 291.356286 269.498386 292.148456 276.320656 294.959252 281.819646 
C 297.770047 287.318636 302.369978 291.045376 307.745964 292.179096 
z
" style="fill:none;stroke:#000000;stroke-linejoin:miter;stroke-width:0.2;"/>
   </g>
   <g id="patch_49">
    <path clip-path="url(#pa0053a8e20)" d="M 422.649317 181.205036 
C 411.323368 174.130809 398.277362 170.839449 386.384532 172.055839 
C 374.491702 173.27223 364.723044 178.897059 359.229992 187.691523 
C 353.736939 196.485986 352.967976 207.732056 357.092457 218.952914 
C 361.216938 230.173773 369.898118 240.453288 381.224067 247.527515 
C 392.550016 254.601742 405.596021 257.893102 417.488851 256.676711 
C 429.381682 255.46032 439.15034 249.835491 444.643392 241.041028 
C 450.136444 232.246564 450.905408 221.000495 446.780927 209.779636 
C 442.656446 198.558777 433.975266 188.279263 422.649317 181.205036 
z
" style="fill:none;stroke:#000000;stroke-linejoin:miter;stroke-width:0.2;"/>
   </g>
   <g id="patch_50">
    <path clip-path="url(#pa0053a8e20)" d="M 468.615944 293.873737 
C 485.406211 302.136796 504.11856 304.764161 520.631815 301.177186 
C 537.14507 297.590212 550.110996 288.081757 556.673999 274.74595 
C 563.237002 261.410142 562.861241 245.335791 555.629474 230.063086 
C 548.397707 214.790381 534.900374 201.566271 518.110108 193.303212 
C 501.319842 185.040153 482.607492 182.412787 466.094237 185.999762 
C 449.580982 189.586737 436.615056 199.095191 430.052053 212.430999 
C 423.48905 225.766806 423.864811 241.841157 431.096578 257.113862 
C 438.328346 272.386567 451.825678 285.610677 468.615944 293.873737 
z
" style="fill:none;stroke:#000000;stroke-linejoin:miter;stroke-width:0.2;"/>
   </g>
   <g id="patch_51">
    <path clip-path="url(#pa0053a8e20)" d="M 416.951908 292.179017 
C 429.309866 295.799507 442.391755 295.079192 453.316442 290.176712 
C 464.241129 285.274233 472.116661 276.589855 475.208544 266.036212 
C 478.300427 255.482569 476.356221 243.92132 469.804117 233.898694 
C 463.252013 223.876069 452.62696 216.210371 440.269002 212.589881 
C 427.911044 208.969391 414.829155 209.689707 403.904468 214.592186 
C 392.979781 219.494666 385.104249 228.179044 382.012366 238.732686 
C 378.920484 249.286329 380.864689 260.847579 387.416793 270.870204 
C 393.968897 280.892829 404.593951 288.558527 416.951908 292.179017 
z
" style="fill:none;stroke:#000000;stroke-linejoin:miter;stroke-width:0.2;"/>
   </g>
   <g id="patch_52">
    <path clip-path="url(#pa0053a8e20)" d="M 353.9087 311.896611 
C 360.350214 321.145157 372.042151 326.17614 386.409497 325.881542 
C 400.776843 325.586945 416.646569 319.99082 430.523551 310.32565 
C 444.400533 300.66048 455.151777 287.715383 460.409447 274.341365 
C 465.667116 260.967348 465.001946 248.256341 458.560432 239.007794 
C 452.118918 229.759248 440.426981 224.728266 426.059635 225.022863 
C 411.692289 225.317461 395.822563 230.913585 381.945581 240.578755 
C 368.0686 250.243925 357.317355 263.189023 352.059685 276.56304 
C 346.802016 289.937057 347.467186 302.648065 353.9087 311.896611 
z
" style="fill:none;stroke:#000000;stroke-linejoin:miter;stroke-width:0.2;"/>
   </g>
   <g id="patch_53">
    <path clip-path="url(#pa0053a8e20)" d="M 176.832494 314.92773 
L 579.167506 314.92773 
L 579.167506 95.47227 
L 176.832494 95.47227 
z
" style="fill:none;stroke:#000000;stroke-linejoin:miter;stroke-width:0.5;"/>
   </g>
   <g id="patch_54">
    <path clip-path="url(#pa0053a8e20)" d="M 486.223349 243.957561 
C 509.930274 248.83989 533.295541 250.482661 551.173221 248.524073 
C 569.050901 246.565484 579.981361 241.165446 581.557293 233.513254 
C 583.133226 225.861062 575.225964 216.581484 559.576989 207.71824 
C 543.928014 198.854995 521.814997 191.131728 498.108072 186.249399 
C 474.401147 181.36707 451.03588 179.7243 433.158199 181.682888 
C 415.280519 183.641477 404.350059 189.041515 402.774127 196.693707 
C 401.198194 204.345899 409.105456 213.625476 424.754431 222.488721 
C 440.403406 231.351966 462.516424 239.075232 486.223349 243.957561 
z
" style="fill:none;stroke:#ffffff;stroke-linejoin:miter;stroke-width:0.2;"/>
   </g>
   <g id="patch_55">
    <path clip-path="url(#pa0053a8e20)" d="M 512.87208 265.98815 
C 530.920366 261.56265 546.995847 252.277003 557.558087 240.176265 
C 568.120326 228.075527 572.306962 214.147669 569.195938 201.460141 
C 566.084914 188.772613 555.930231 178.361294 540.96834 172.519158 
C 526.006448 166.677021 507.458921 165.881051 489.410635 170.30655 
C 471.362349 174.73205 455.286867 184.017697 444.724628 196.118435 
C 434.162389 208.219173 429.975752 222.14703 433.086776 234.834559 
C 436.1978 247.522087 446.352484 257.933406 461.314375 263.775542 
C 476.276267 269.617679 494.823794 270.413649 512.87208 265.98815 
z
" style="fill:none;stroke:#ffffff;stroke-linejoin:miter;stroke-width:0.2;"/>
   </g>
   <g id="patch_56">
    <path clip-path="url(#pa0053a8e20)" d="M 496.583578 278.190605 
C 515.727577 279.661304 534.486339 275.913678 548.728465 267.773098 
C 562.970591 259.632518 571.533275 247.763627 572.530684 234.78041 
C 573.528093 221.797193 566.878794 208.759672 554.047218 198.53921 
C 541.215641 188.318749 523.249428 181.749801 504.10543 180.279103 
C 484.961431 178.808404 466.202669 182.55603 451.960542 190.69661 
C 437.718416 198.83719 429.155733 210.706081 428.158324 223.689298 
C 427.160915 236.672515 433.810214 249.710036 446.64179 259.930497 
C 459.473367 270.150959 477.439579 276.719907 496.583578 278.190605 
z
" style="fill:none;stroke:#ffffff;stroke-linejoin:miter;stroke-width:0.2;"/>
   </g>
   <g id="patch_57">
    <path clip-path="url(#pa0053a8e20)" d="M 519.200209 292.16429 
C 537.199615 294.111519 554.942751 291.556041 568.521899 285.060669 
C 582.101046 278.565298 590.407527 268.660352 591.611936 257.527281 
C 592.816344 246.394209 586.820346 234.941979 574.944489 225.69281 
C 563.068633 216.443641 546.28253 210.152687 528.283124 208.205458 
C 510.283718 206.258229 492.540581 208.813708 478.961434 215.309079 
C 465.382286 221.80445 457.075805 231.709397 455.871397 242.842468 
C 454.666988 253.975539 460.662987 265.42777 472.538843 274.676939 
C 484.4147 283.926108 501.200803 290.217061 519.200209 292.16429 
z
" style="fill:none;stroke:#ffffff;stroke-linejoin:miter;stroke-width:0.2;"/>
   </g>
   <g id="patch_58">
    <path clip-path="url(#pa0053a8e20)" d="M 498.941778 256.336598 
C 515.071875 253.427396 529.669624 245.791765 539.520041 235.111364 
C 549.370458 224.430964 553.6693 211.577801 551.469797 199.382636 
C 549.270294 187.187471 540.752025 176.645985 527.79104 170.079818 
C 514.830055 163.513651 498.484562 161.458901 482.354465 164.368104 
C 466.224368 167.277306 451.626619 174.912937 441.776202 185.593337 
C 431.925785 196.273738 427.626943 209.126901 429.826446 221.322066 
C 432.02595 233.517231 440.544219 244.058717 453.505203 250.624884 
C 466.466188 257.191051 482.811681 259.245801 498.941778 256.336598 
z
" style="fill:none;stroke:#ffffff;stroke-linejoin:miter;stroke-width:0.2;"/>
   </g>
   <g id="patch_59">
    <path clip-path="url(#pa0053a8e20)" d="M 468.109576 269.187667 
C 484.245862 273.772146 501.007299 273.65052 514.702376 268.849576 
C 528.397452 264.048633 537.908025 254.960347 541.139501 243.58631 
C 544.370978 232.212272 541.059522 219.481122 531.934443 208.196747 
C 522.809365 196.912372 508.615686 187.996092 492.4794 183.411614 
C 476.343114 178.827135 459.581677 178.948761 445.886601 183.749705 
C 432.191525 188.550648 422.680952 197.638934 419.449475 209.012971 
C 416.217999 220.387009 419.529455 233.118159 428.654533 244.402534 
C 437.779611 255.686909 451.97329 264.603189 468.109576 269.187667 
z
" style="fill:none;stroke:#ffffff;stroke-linejoin:miter;stroke-width:0.2;"/>
   </g>
   <g id="patch_60">
    <path clip-path="url(#pa0053a8e20)" d="M 496.020374 261.391316 
C 511.03694 260.45 525.165907 255.166778 535.295532 246.705217 
C 545.425158 238.243656 550.728404 227.294605 550.037291 216.269466 
C 549.346179 205.244328 542.717134 195.043255 531.610128 187.912915 
C 520.503122 180.782576 505.824991 177.30513 490.808425 178.246446 
C 475.791858 179.187762 461.662892 184.470984 451.533266 192.932545 
C 441.40364 201.394106 436.100395 212.343157 436.791507 223.368296 
C 437.48262 234.393434 444.111664 244.594507 455.21867 251.724847 
C 466.325677 258.855186 481.003807 262.332632 496.020374 261.391316 
z
" style="fill:none;stroke:#ffffff;stroke-linejoin:miter;stroke-width:0.2;"/>
   </g>
   <g id="patch_61">
    <path clip-path="url(#pa0053a8e20)" d="M 499.687602 180.523339 
C 511.888223 173.296273 519.961054 160.236587 522.128147 144.220524 
C 524.295239 128.204461 520.37966 110.539662 511.243771 95.116595 
C 502.107881 79.693528 488.497586 67.771417 473.410395 61.975968 
C 458.323204 56.18052 442.990918 56.984908 430.790297 64.211974 
C 418.589676 71.43904 410.516846 84.498727 408.349753 100.51479 
C 406.18266 116.530852 410.098239 134.195651 419.234129 149.618718 
C 428.370018 165.041786 441.980313 176.963897 457.067505 182.759345 
C 472.154696 188.554793 487.486981 187.750405 499.687602 180.523339 
z
" style="fill:none;stroke:#ffffff;stroke-linejoin:miter;stroke-width:0.2;"/>
   </g>
   <g id="patch_62">
    <path clip-path="url(#pa0053a8e20)" d="M 411.851314 232.6097 
C 424.939451 237.617289 440.438252 234.723333 454.934286 224.565194 
C 469.430319 214.407054 481.740048 197.814098 489.152397 178.44073 
C 496.564747 159.067363 498.474532 138.495335 494.461144 121.255396 
C 490.447756 104.015457 480.83887 91.515171 467.750733 86.507583 
C 454.662595 81.499995 439.163794 84.39395 424.667761 94.55209 
C 410.171728 104.710229 397.861999 121.303186 390.449649 140.676553 
C 383.0373 160.04992 381.127515 180.621949 385.140903 197.861888 
C 389.154291 215.101827 398.763177 227.602112 411.851314 232.6097 
z
" style="fill:none;stroke:#ffffff;stroke-linejoin:miter;stroke-width:0.2;"/>
   </g>
   <g id="patch_63">
    <path clip-path="url(#pa0053a8e20)" d="M 425.696173 238.52375 
C 436.711409 233.100655 443.679222 220.591297 445.065032 203.750718 
C 446.450841 186.910139 442.141502 167.113297 433.086097 148.720217 
C 424.030692 130.327137 410.968553 114.839532 396.776467 105.668368 
C 382.58438 96.497204 368.421066 94.391266 357.40583 99.814361 
C 346.390594 105.237457 339.422781 117.746814 338.036972 134.587393 
C 336.651162 151.427972 340.960501 171.224814 350.015906 189.617894 
C 359.071312 208.010974 372.13345 223.498579 386.325537 232.669743 
C 400.517623 241.840907 414.680937 243.946846 425.696173 238.52375 
z
" style="fill:none;stroke:#ffffff;stroke-linejoin:miter;stroke-width:0.2;"/>
   </g>
   <g id="patch_64">
    <path clip-path="url(#pa0053a8e20)" d="M 359.244178 201.178438 
C 379.089716 215.124412 400.769682 224.73776 419.509314 227.901253 
C 438.248946 231.064746 452.518238 227.520099 459.174542 218.047979 
C 465.830847 208.575859 464.330706 193.949623 455.00451 177.39053 
C 445.678314 160.831437 429.287504 143.691463 409.441966 129.745488 
C 389.596428 115.799514 367.916463 106.186166 349.17683 103.022673 
C 330.437198 99.85918 316.167906 103.403827 309.511602 112.875947 
C 302.855298 122.348067 304.355438 136.974302 313.681634 153.533396 
C 323.007831 170.092489 339.39864 187.232463 359.244178 201.178438 
z
" style="fill:none;stroke:#ffffff;stroke-linejoin:miter;stroke-width:0.2;"/>
   </g>
   <g id="patch_65">
    <path clip-path="url(#pa0053a8e20)" d="M 455.724375 219.748925 
C 467.598057 209.344099 475.200906 195.043421 476.858483 179.99645 
C 478.516059 164.949479 474.093028 150.384734 464.563512 139.50993 
C 455.033997 128.635126 441.176038 122.338144 426.041691 122.00582 
C 410.907345 121.673496 395.732262 127.332964 383.858579 137.73779 
C 371.984897 148.142617 364.382048 162.443295 362.724472 177.490266 
C 361.066895 192.537237 365.489926 207.101982 375.019442 217.976786 
C 384.548957 228.851589 398.406916 235.148572 413.541263 235.480895 
C 428.67561 235.813219 443.850692 230.153752 455.724375 219.748925 
z
" style="fill:none;stroke:#ffffff;stroke-linejoin:miter;stroke-width:0.2;"/>
   </g>
   <g id="patch_66">
    <path clip-path="url(#pa0053a8e20)" d="M 366.299279 227.451506 
C 377.415681 239.464146 392.191409 247.18014 407.372279 248.900131 
C 422.553149 250.620122 436.899711 246.20368 447.2523 236.623475 
C 457.60489 227.04327 463.118264 213.081483 462.578167 197.813035 
C 462.038069 182.544588 455.488596 167.216082 444.372193 155.203442 
C 433.25579 143.190802 418.480063 135.474808 403.299193 133.754817 
C 388.118323 132.034826 373.771761 136.451268 363.419171 146.031473 
C 353.066582 155.611678 347.553208 169.573465 348.093305 184.841912 
C 348.633403 200.11036 355.182876 215.438866 366.299279 227.451506 
z
" style="fill:none;stroke:#ffffff;stroke-linejoin:miter;stroke-width:0.2;"/>
   </g>
   <g id="patch_67">
    <path clip-path="url(#pa0053a8e20)" d="M 0 -1 
z
" style="fill:none;stroke:#ffffff;stroke-linejoin:miter;stroke-width:0.2;"/>
   </g>
   <g id="patch_68">
    <path clip-path="url(#pa0053a8e20)" d="M 301.13434 231.426845 
C 287.593708 228.306062 274.053479 227.709308 263.495731 229.768011 
C 252.937982 231.826714 246.224707 236.372789 244.834427 242.405017 
C 243.444146 248.437245 247.490371 255.463121 256.081966 261.935277 
C 264.673562 268.407433 277.109063 273.797446 290.649694 276.918229 
C 304.190325 280.039012 317.730554 280.635766 328.288303 278.577063 
C 338.846051 276.51836 345.559326 271.972285 346.949607 265.940057 
C 348.339887 259.907829 344.293662 252.881953 335.702067 246.409797 
C 327.110471 239.937641 314.674971 234.547628 301.13434 231.426845 
z
" style="fill:none;stroke:#ffffff;stroke-linejoin:miter;stroke-width:0.2;"/>
   </g>
   <g id="patch_69">
    <path clip-path="url(#pa0053a8e20)" d="M 390.331779 213.713232 
C 401.563197 206.322541 407.965247 192.591274 408.127953 175.543584 
C 408.290658 158.495894 402.200734 139.523649 391.199416 122.805266 
C 380.198098 106.086883 365.183594 92.987343 349.462675 86.391669 
C 333.741757 79.795995 318.597966 80.242693 307.366548 87.633384 
C 296.135129 95.024075 289.733079 108.755342 289.570373 125.803032 
C 289.407668 142.850722 295.497592 161.822967 306.49891 178.54135 
C 317.500228 195.259734 332.514732 208.359273 348.235651 214.954947 
C 363.95657 221.550622 379.10036 221.103923 390.331779 213.713232 
z
" style="fill:none;stroke:#ffffff;stroke-linejoin:miter;stroke-width:0.2;"/>
   </g>
   <g id="patch_70">
    <path clip-path="url(#pa0053a8e20)" d="M 354.271563 282.57954 
C 360.869762 271.483073 359.309823 256.148754 349.935303 239.95379 
C 340.560784 223.758826 324.137072 208.025463 304.2813 196.218792 
C 284.425528 184.412122 262.758832 177.496105 244.05305 176.993916 
C 225.347268 176.491726 211.129644 182.444365 204.531445 193.540832 
C 197.933246 204.6373 199.493185 219.971618 208.867705 236.166583 
C 218.242224 252.361547 234.665936 268.094909 254.521708 279.90158 
C 274.377479 291.708251 296.044176 298.624267 314.749958 299.126456 
C 333.45574 299.628646 347.673364 293.676007 354.271563 282.57954 
z
" style="fill:none;stroke:#ffffff;stroke-linejoin:miter;stroke-width:0.2;"/>
   </g>
   <g id="patch_71">
    <path clip-path="url(#pa0053a8e20)" d="M 279.25785 280.791218 
C 298.031212 290.610164 318.007211 296.263604 334.786366 296.506433 
C 351.56552 296.749262 363.777886 291.561654 368.733832 282.086119 
C 373.689777 272.610585 370.984672 259.62076 361.214283 245.977502 
C 351.443894 232.334244 335.405931 219.151465 316.632569 209.332519 
C 297.859207 199.513572 277.883208 193.860132 261.104054 193.617304 
C 244.3249 193.374475 232.112534 198.562082 227.156588 208.037617 
C 222.200642 217.513151 224.905748 230.502976 234.676137 244.146234 
C 244.446525 257.789492 260.484488 270.972271 279.25785 280.791218 
z
" style="fill:none;stroke:#ffffff;stroke-linejoin:miter;stroke-width:0.2;"/>
   </g>
   <g id="patch_72">
    <path clip-path="url(#pa0053a8e20)" d="M 0 -1 
z
" style="fill:none;stroke:#ffffff;stroke-linejoin:miter;stroke-width:0.2;"/>
   </g>
   <g id="patch_73">
    <path clip-path="url(#pa0053a8e20)" d="M 374.161872 228.648555 
C 390.879428 232.738049 408.2392 231.245429 422.4179 224.499427 
C 436.5966 217.753426 446.4366 206.304824 449.770753 192.675043 
C 453.104907 179.045263 449.660996 164.347115 440.197501 151.817696 
C 430.734007 139.288277 416.023581 129.950558 399.306025 125.861065 
C 382.588469 121.771571 365.228697 123.264191 351.049997 130.010193 
C 336.871297 136.756194 327.031297 148.204796 323.697143 161.834577 
C 320.36299 175.464357 323.806901 190.162505 333.270395 202.691924 
C 342.73389 215.221343 357.444315 224.559061 374.161872 228.648555 
z
" style="fill:none;stroke:#ffffff;stroke-linejoin:miter;stroke-width:0.2;"/>
   </g>
   <g id="patch_74">
    <path clip-path="url(#pa0053a8e20)" d="M 317.557885 208.720258 
C 325.918963 229.117106 340.877762 245.836845 359.139781 255.197146 
C 377.4018 264.557447 397.476026 265.794083 414.941344 258.634698 
C 432.406661 251.475314 445.837104 236.504442 452.274774 217.019243 
C 458.712443 197.534044 457.631732 175.125398 449.270654 154.72855 
C 440.909577 134.331701 425.950777 117.611962 407.688758 108.251661 
C 389.426739 98.891361 369.352513 97.654725 351.887196 104.814109 
C 334.421879 111.973493 320.991436 126.944365 314.553766 146.429564 
C 308.116096 165.914763 309.196808 188.323409 317.557885 208.720258 
z
" style="fill:none;stroke:#ffffff;stroke-linejoin:miter;stroke-width:0.2;"/>
   </g>
   <g id="patch_75">
    <path clip-path="url(#pa0053a8e20)" d="M 429.185575 229.9573 
C 439.769055 227.711399 448.484503 218.790313 453.412442 205.158808 
C 458.340381 191.527303 459.078468 174.298331 455.464146 157.266374 
C 451.849825 140.234416 444.178189 124.790057 434.138827 114.334736 
C 424.099465 103.879416 412.512047 99.266765 401.928568 101.512667 
C 391.345088 103.758568 382.62964 112.679654 377.701701 126.311159 
C 372.773761 139.942664 372.035675 157.171635 375.649996 174.203593 
C 379.264318 191.23555 386.935954 206.67991 396.975316 217.13523 
C 407.014677 227.590551 418.602095 232.203202 429.185575 229.9573 
z
" style="fill:none;stroke:#ffffff;stroke-linejoin:miter;stroke-width:0.2;"/>
   </g>
   <g id="patch_76">
    <path clip-path="url(#pa0053a8e20)" d="M 437.086246 257.133198 
C 448.400295 245.294086 455.2318 230.095924 456.076202 214.88593 
C 456.920604 199.675935 451.708961 185.695938 441.589077 176.024869 
C 431.469193 166.3538 417.267311 161.78126 402.111232 163.314298 
C 386.955153 164.847336 372.082303 172.360786 360.768254 184.199897 
C 349.454205 196.039009 342.6227 211.237171 341.778298 226.447165 
C 340.933896 241.65716 346.145539 255.637157 356.265424 265.308226 
C 366.385308 274.979295 380.587189 279.551835 395.743268 278.018797 
C 410.899348 276.485759 425.772198 268.972309 437.086246 257.133198 
z
" style="fill:none;stroke:#ffffff;stroke-linejoin:miter;stroke-width:0.2;"/>
   </g>
   <g id="patch_77">
    <path clip-path="url(#pa0053a8e20)" d="M 430.323372 254.634226 
C 444.73719 255.224031 458.787504 250.293381 469.379896 240.928193 
C 479.972288 231.563006 486.241937 218.527907 486.808024 204.693726 
C 487.374111 190.859545 482.190418 177.355782 472.398594 167.156483 
C 462.60677 156.957185 449.006273 150.895078 434.592455 150.305273 
C 420.178638 149.715467 406.128324 154.646118 395.535931 164.011305 
C 384.943539 173.376493 378.673891 186.411592 378.107804 200.245773 
C 377.541717 214.079954 382.72541 227.583717 392.517234 237.783016 
C 402.309058 247.982314 415.909555 254.044421 430.323372 254.634226 
z
" style="fill:none;stroke:#ffffff;stroke-linejoin:miter;stroke-width:0.2;"/>
   </g>
   <g id="patch_78">
    <path clip-path="url(#pa0053a8e20)" d="M 395.406046 232.448639 
C 384.900127 249.05001 379.318972 267.818816 379.891765 284.621445 
C 380.464558 301.424074 387.144533 314.888666 398.460503 322.049801 
C 409.776472 329.210935 424.804538 329.483938 440.234943 322.808683 
C 455.665348 316.133428 470.238268 303.05492 480.744187 286.453549 
C 491.250105 269.852178 496.83126 251.083373 496.258467 234.280744 
C 495.685674 217.478115 489.0057 204.013523 477.68973 196.852388 
C 466.37376 189.691254 451.345694 189.418251 435.915289 196.093506 
C 420.484884 202.768761 405.911964 215.847269 395.406046 232.448639 
z
" style="fill:none;stroke:#ffffff;stroke-linejoin:miter;stroke-width:0.2;"/>
   </g>
   <g id="patch_79">
    <path clip-path="url(#pa0053a8e20)" d="M 370.830912 302.527733 
C 383.781587 313.529146 401.960677 317.304295 421.364448 313.021747 
C 440.768219 308.739199 459.81244 296.748604 474.302841 279.690753 
C 488.793243 262.632901 497.546748 241.900491 498.635499 222.059594 
C 499.72425 202.218698 493.059355 184.889236 480.10868 173.887823 
C 467.158006 162.886409 448.978916 159.11126 429.575145 163.393809 
C 410.171374 167.676357 391.127153 179.666952 376.636752 196.724803 
C 362.14635 213.782654 353.392845 234.515065 352.304094 254.355961 
C 351.215343 274.196858 357.880237 291.526319 370.830912 302.527733 
z
" style="fill:none;stroke:#ffffff;stroke-linejoin:miter;stroke-width:0.2;"/>
   </g>
   <g id="patch_80">
    <path clip-path="url(#pa0053a8e20)" d="M 444.449404 262.789522 
C 467.938719 259.399039 489.85367 251.883015 505.367743 241.896766 
C 520.881816 231.910517 528.728356 220.269377 527.179254 209.537171 
C 525.630151 198.804965 514.811883 189.857931 497.107048 184.666549 
C 479.402213 179.475167 456.256332 178.46329 432.767017 181.853773 
C 409.277701 185.244256 387.36275 192.76028 371.848677 202.746529 
C 356.334604 212.732778 348.488064 224.373918 350.037167 235.106124 
C 351.586269 245.83833 362.404537 254.785364 380.109372 259.976746 
C 397.814207 265.168128 420.960088 266.180005 444.449404 262.789522 
z
" style="fill:none;stroke:#ffffff;stroke-linejoin:miter;stroke-width:0.2;"/>
   </g>
   <g id="patch_81">
    <path clip-path="url(#pa0053a8e20)" d="M 396.913644 258.979051 
C 408.357636 263.38543 420.697167 264.07276 431.214601 260.889666 
C 441.732034 257.706572 449.568668 250.912939 452.998574 242.004985 
C 456.42848 233.097032 455.171622 222.802053 449.504808 213.387399 
C 443.837994 203.972745 434.223894 196.207079 422.779903 191.800701 
C 411.335912 187.394322 398.99638 186.706992 388.478947 189.890086 
C 377.961513 193.07318 370.12488 199.866813 366.694974 208.774767 
C 363.265068 217.68272 364.521926 227.977699 370.18874 237.392353 
C 375.855554 246.807007 385.469653 254.572673 396.913644 258.979051 
z
" style="fill:none;stroke:#ffffff;stroke-linejoin:miter;stroke-width:0.2;"/>
   </g>
   <g id="patch_82">
    <path clip-path="url(#pa0053a8e20)" d="M 309.672383 288.41221 
C 332.711713 297.199862 356.593618 300.953862 376.058385 298.847436 
C 395.523152 296.741009 408.98157 288.946136 413.469578 277.179547 
C 417.957586 265.412957 413.108758 250.635342 399.990992 236.101298 
C 386.873226 221.567255 366.55753 208.463424 343.518201 199.675772 
C 320.478871 190.88812 296.596966 187.134119 277.132199 189.240546 
C 257.667432 191.346973 244.209014 199.141846 239.721006 210.908435 
C 235.232999 222.675024 240.081827 237.45264 253.199592 251.986683 
C 266.317358 266.520727 286.633054 279.624558 309.672383 288.41221 
z
" style="fill:none;stroke:#ffffff;stroke-linejoin:miter;stroke-width:0.2;"/>
   </g>
   <g id="patch_83">
    <path clip-path="url(#pa0053a8e20)" d="M 349.796395 282.102313 
C 364.715817 285.913751 380.148558 285.176204 392.695737 280.052107 
C 405.242916 274.92801 413.880111 265.835724 416.70508 254.777719 
C 419.530049 243.719713 416.312146 231.598826 407.760077 221.084542 
C 399.208007 210.570257 386.02001 202.52102 371.100589 198.709582 
C 356.181167 194.898144 340.748426 195.635691 328.201247 200.759788 
C 315.654068 205.883885 307.016873 214.976171 304.191904 226.034176 
C 301.366935 237.092182 304.584838 249.213069 313.136907 259.727353 
C 321.688977 270.241638 334.876974 278.290875 349.796395 282.102313 
z
" style="fill:none;stroke:#ffffff;stroke-linejoin:miter;stroke-width:0.2;"/>
   </g>
   <g id="patch_84">
    <path clip-path="url(#pa0053a8e20)" d="M 197.596356 300.936557 
C 211.41041 310.862949 230.178879 312.704521 249.768226 306.055688 
C 269.357573 299.406856 288.168414 284.810466 302.057879 265.481204 
C 315.947345 246.151943 323.781422 223.667958 323.834746 202.981087 
C 323.88807 182.294215 316.156287 165.093449 302.342232 155.167057 
C 288.528178 145.240665 269.759709 143.399092 250.170362 150.047925 
C 230.581015 156.696758 211.770174 171.293148 197.880708 190.622409 
C 183.991243 209.951671 176.157166 232.435656 176.103842 253.122527 
C 176.050518 273.809398 183.782301 291.010164 197.596356 300.936557 
z
" style="fill:none;stroke:#ffffff;stroke-linejoin:miter;stroke-width:0.2;"/>
   </g>
   <g id="patch_85">
    <path clip-path="url(#pa0053a8e20)" d="M 505.642617 279.68986 
C 515.850801 271.805561 523.420108 261.365995 526.683486 250.670356 
C 529.946865 239.974717 528.637874 229.896256 523.044803 222.654637 
C 517.451733 215.413018 508.031233 211.599487 496.858059 212.053931 
C 485.684885 212.508375 473.671277 217.193689 463.463093 225.077988 
C 453.25491 232.962287 445.685603 243.401853 442.422224 254.097492 
C 439.158846 264.793132 440.467837 274.871593 446.060907 282.113212 
C 451.653978 289.354831 461.074478 293.168361 472.247652 292.713917 
C 483.420826 292.259474 495.434433 287.574159 505.642617 279.68986 
z
" style="fill:none;stroke:#ffffff;stroke-linejoin:miter;stroke-width:0.2;"/>
   </g>
   <g id="patch_86">
    <path clip-path="url(#pa0053a8e20)" d="M 440.620482 314.932051 
C 450.372827 305.404073 457.009294 293.483296 459.068279 281.795133 
C 461.127264 270.10697 458.44066 259.605707 451.60016 252.604126 
C 444.75966 245.602544 434.323761 242.672293 422.590849 244.458725 
C 410.857936 246.245157 398.78595 252.602418 389.033605 262.130395 
C 379.281261 271.658373 372.644794 283.57915 370.585809 295.267313 
C 368.526824 306.955476 371.213428 317.456739 378.053927 324.458321 
C 384.894427 331.459902 395.330326 334.390154 407.063239 332.603722 
C 418.796152 330.81729 430.868138 324.460028 440.620482 314.932051 
z
" style="fill:none;stroke:#ffffff;stroke-linejoin:miter;stroke-width:0.2;"/>
   </g>
   <g id="patch_87">
    <path clip-path="url(#pa0053a8e20)" d="M 503.342142 199.590606 
C 487.44738 199.923108 472.30723 205.296969 461.256135 214.52866 
C 450.20504 223.760351 444.145272 236.096145 444.411425 248.819226 
C 444.677579 261.542306 451.247923 273.613891 462.675416 282.375354 
C 474.102909 291.136816 489.454547 295.872822 505.349309 295.54032 
C 521.244071 295.207818 536.384221 289.833957 547.435316 280.602266 
C 558.486412 271.370575 564.546179 259.034781 564.280026 246.3117 
C 564.013872 233.58862 557.443528 221.517035 546.016035 212.755572 
C 534.588542 203.99411 519.236904 199.258104 503.342142 199.590606 
z
" style="fill:none;stroke:#ffffff;stroke-linejoin:miter;stroke-width:0.2;"/>
   </g>
   <g id="patch_88">
    <path clip-path="url(#pa0053a8e20)" d="M 466.091875 263.840048 
C 461.004924 254.158795 450.71276 247.716919 437.482114 245.933166 
C 424.251468 244.149414 409.162563 247.169421 395.538555 254.328067 
C 381.914547 261.486713 370.867776 272.199526 364.831165 284.107133 
C 358.794554 296.014739 358.260966 308.144936 363.347917 317.826189 
C 368.434868 327.507442 378.727031 333.949319 391.957677 335.733071 
C 405.188323 337.516824 420.277228 334.496816 433.901236 327.33817 
C 447.525244 320.179524 458.572015 309.466712 464.608626 297.559105 
C 470.645237 285.651498 471.178826 273.521301 466.091875 263.840048 
z
" style="fill:none;stroke:#ffffff;stroke-linejoin:miter;stroke-width:0.2;"/>
   </g>
   <g id="patch_89">
    <path clip-path="url(#pa0053a8e20)" d="M 375.457101 323.819928 
C 389.538572 329.177888 404.611134 330.20162 417.355231 326.665661 
C 430.099327 323.129701 439.474459 315.322744 443.415863 304.964183 
C 447.357266 294.605621 445.543142 282.541184 438.373032 271.427925 
C 431.202921 260.314667 419.262231 251.059933 405.18076 245.701974 
C 391.099289 240.344014 376.026727 239.320282 363.28263 242.856241 
C 350.538533 246.392201 341.163401 254.199157 337.221998 264.557719 
C 333.280595 274.916281 335.094718 286.980717 342.264829 298.093976 
C 349.43494 309.207235 361.37563 318.461968 375.457101 323.819928 
z
" style="fill:none;stroke:#ffffff;stroke-linejoin:miter;stroke-width:0.2;"/>
   </g>
   <g id="patch_90">
    <path clip-path="url(#pa0053a8e20)" d="M 0 -1 
z
" style="fill:none;stroke:#ffffff;stroke-linejoin:miter;stroke-width:0.2;"/>
   </g>
   <g id="patch_91">
    <path clip-path="url(#pa0053a8e20)" d="M 302.29393 306.569643 
C 304.890948 317.472946 315.10245 326.092227 330.679471 330.529191 
C 346.256492 334.966154 365.927238 334.858541 385.359454 330.230051 
C 404.79167 325.601562 422.398803 316.830093 434.303085 305.847457 
C 446.207368 294.864822 451.436869 282.567704 448.83985 271.664401 
C 446.242832 260.761098 436.03133 252.141817 420.454309 247.704854 
C 404.877288 243.26789 385.206543 243.375504 365.774327 248.003993 
C 346.342111 252.632482 328.734978 261.403952 316.830695 272.386587 
C 304.926413 283.369222 299.696912 295.66634 302.29393 306.569643 
z
" style="fill:none;stroke:#ffffff;stroke-linejoin:miter;stroke-width:0.2;"/>
   </g>
   <g id="patch_92">
    <path clip-path="url(#pa0053a8e20)" d="M 499.8762 250.543449 
C 507.401802 243.051384 512.828522 234.06548 514.961187 225.564777 
C 517.093852 217.064075 515.75834 209.742619 511.248782 205.212874 
C 506.739224 200.68313 499.423806 199.314931 490.913663 201.409608 
C 482.40352 203.504284 473.393468 208.890815 465.867866 216.38288 
C 458.342264 223.874944 452.915545 232.860848 450.78288 241.361551 
C 448.650214 249.862253 449.985726 257.18371 454.495284 261.713454 
C 459.004842 266.243198 466.32026 267.611397 474.830403 265.516721 
C 483.340547 263.422044 492.350599 258.035513 499.8762 250.543449 
z
" style="fill:none;stroke:#ffffff;stroke-linejoin:miter;stroke-width:0.2;"/>
   </g>
   <g id="patch_93">
    <path clip-path="url(#pa0053a8e20)" d="M 462.530253 274.304459 
C 466.037715 282.131663 471.558454 288.673003 477.876591 292.487826 
C 484.194728 296.302648 490.794415 297.079489 496.222148 294.647259 
C 501.649881 292.215028 505.46251 286.772306 506.820347 279.51779 
C 508.178184 272.263274 506.970368 263.789263 503.462906 255.962059 
C 499.955444 248.134854 494.434705 241.593514 488.116568 237.778691 
C 481.798432 233.963869 475.198744 233.187028 469.771011 235.619259 
C 464.343278 238.051489 460.530649 243.494211 459.172812 250.748727 
C 457.814976 258.003243 459.022792 266.477254 462.530253 274.304459 
z
" style="fill:none;stroke:#ffffff;stroke-linejoin:miter;stroke-width:0.2;"/>
   </g>
   <g id="patch_94">
    <path clip-path="url(#pa0053a8e20)" d="M 466.242739 327.158911 
C 489.420546 321.550682 510.480703 311.329933 524.784955 298.747665 
C 539.089207 286.165397 545.469676 272.248898 542.521137 260.063113 
C 539.572597 247.877329 527.535785 238.417176 509.061669 233.766142 
C 490.587552 229.115109 467.184461 229.652931 444.006654 235.261161 
C 420.828848 240.86939 399.76869 251.09014 385.464438 263.672407 
C 371.160186 276.254675 364.779717 290.171175 367.728257 302.356959 
C 370.676796 314.542743 382.713608 324.002896 401.187724 328.65393 
C 419.661841 333.304963 443.064932 332.767141 466.242739 327.158911 
z
" style="fill:none;stroke:#ffffff;stroke-linejoin:miter;stroke-width:0.2;"/>
   </g>
   <g id="patch_95">
    <path clip-path="url(#pa0053a8e20)" d="M 464.367861 322.034154 
C 486.766056 325.254156 508.910117 323.75023 525.923071 317.853599 
C 542.936025 311.956967 553.42884 302.149064 555.090596 290.589965 
C 556.752351 279.030867 549.447372 266.664322 534.784495 256.21392 
C 520.121618 245.763517 499.298003 238.082486 476.899808 234.862483 
C 454.501613 231.642481 432.357552 233.146407 415.344598 239.043038 
C 398.331644 244.93967 387.838829 254.747573 386.177073 266.306672 
C 384.515318 277.86577 391.820297 290.232315 406.483174 300.682717 
C 421.146051 311.13312 441.969666 318.814151 464.367861 322.034154 
z
" style="fill:none;stroke:#ffffff;stroke-linejoin:miter;stroke-width:0.2;"/>
   </g>
   <g id="patch_96">
    <path clip-path="url(#pa0053a8e20)" d="M 520.555652 292.925866 
C 536.332108 295.303658 552.091322 293.425641 564.362508 287.705425 
C 576.633695 281.98521 584.414967 272.889827 585.99259 262.42243 
C 587.570213 251.955032 582.81538 240.970236 572.775288 231.887315 
C 562.735197 222.804394 548.229576 216.364929 532.45312 213.987137 
C 516.676664 211.609345 500.917451 213.487362 488.646264 219.207578 
C 476.375077 224.927793 468.593805 234.023176 467.016182 244.490573 
C 465.43856 254.957971 470.193393 265.942768 480.233484 275.025688 
C 490.273575 284.108609 504.779196 290.548074 520.555652 292.925866 
z
" style="fill:none;stroke:#ffffff;stroke-linejoin:miter;stroke-width:0.2;"/>
   </g>
   <g id="patch_97">
    <path clip-path="url(#pa0053a8e20)" d="M 529.764601 316.683244 
C 543.155376 318.775663 556.75185 315.967897 567.559556 308.878325 
C 578.367262 301.788753 585.503799 290.996207 587.397428 278.877619 
C 589.291057 266.759031 585.787171 254.303832 577.657461 244.255133 
C 569.527751 234.206434 557.43597 227.384667 544.045195 225.292248 
C 530.654419 223.19983 517.057946 226.007595 506.25024 233.097167 
C 495.442534 240.186739 488.305996 250.979286 486.412367 263.097873 
C 484.518739 275.216461 488.022624 287.671661 496.152335 297.72036 
C 504.282045 307.769059 516.373825 314.590825 529.764601 316.683244 
z
" style="fill:none;stroke:#ffffff;stroke-linejoin:miter;stroke-width:0.2;"/>
   </g>
   <g id="patch_98">
    <path clip-path="url(#pa0053a8e20)" d="M 297.827336 308.897005 
C 312.78025 307.773435 326.872623 303.367017 337.000773 296.648215 
C 347.128924 289.929413 352.465933 281.446786 351.836386 273.068536 
C 351.20684 264.690285 344.662138 257.100456 333.643674 251.970622 
C 322.625211 246.840788 308.032595 244.589777 293.079681 245.713347 
C 278.126767 246.836917 264.034394 251.243335 253.906243 257.962137 
C 243.778093 264.680939 238.441083 273.163566 239.07063 281.541816 
C 239.700176 289.920067 246.244878 297.509896 257.263342 302.63973 
C 268.281805 307.769564 282.874421 310.020575 297.827336 308.897005 
z
" style="fill:none;stroke:#ffffff;stroke-linejoin:miter;stroke-width:0.2;"/>
   </g>
   <g id="patch_99">
    <path clip-path="url(#pa0053a8e20)" d="M 288.213104 305.967678 
C 294.868333 307.371173 301.842805 305.915249 307.600474 301.920557 
C 313.358143 297.925866 317.428922 291.718555 318.916267 284.665713 
C 320.403613 277.612871 319.186091 270.290332 315.531846 264.310799 
C 311.877601 258.331267 306.084986 254.182943 299.429757 252.779448 
C 292.774529 251.375954 285.800057 252.831878 280.042387 256.826569 
C 274.284718 260.821261 270.21394 267.028572 268.726594 274.081414 
C 267.239249 281.134255 268.456771 288.456795 272.111016 294.436327 
C 275.765261 300.41586 281.557876 304.564184 288.213104 305.967678 
z
" style="fill:none;stroke:#ffffff;stroke-linejoin:miter;stroke-width:0.2;"/>
   </g>
   <g id="patch_100">
    <path clip-path="url(#pa0053a8e20)" d="M 437.504494 172.868002 
C 422.504199 163.498766 405.19966 159.181526 389.402001 160.867106 
C 373.604342 162.552686 360.603372 170.103464 353.262404 181.85647 
C 345.921436 193.609476 344.839827 208.605128 350.255789 223.540809 
C 355.671751 238.47649 367.143095 252.132767 382.143391 261.502003 
C 397.143686 270.871239 414.448225 275.188479 430.245884 273.502899 
C 446.043543 271.81732 459.044513 264.266541 466.385481 252.513535 
C 473.726449 240.760529 474.808058 225.764877 469.392096 210.829196 
C 463.976133 195.893515 452.504789 182.237239 437.504494 172.868002 
z
" style="fill:none;stroke:#ffffff;stroke-linejoin:miter;stroke-width:0.2;"/>
   </g>
   <g id="patch_101">
    <path clip-path="url(#pa0053a8e20)" d="M 486.560316 300.046514 
C 501.306093 307.303411 518.229034 308.616967 533.602055 303.697887 
C 548.975077 298.778806 561.543041 288.028711 568.537999 273.815184 
C 575.532957 259.601658 576.383802 243.085171 570.903145 227.903289 
C 565.422489 212.721407 554.057801 200.113663 539.312023 192.856766 
C 524.566246 185.599869 507.643306 184.286313 492.270284 189.205393 
C 476.897262 194.124473 464.329298 204.874568 457.33434 219.088095 
C 450.339382 233.301622 449.488537 249.818108 454.969194 264.999991 
C 460.449851 280.181873 471.814538 292.789617 486.560316 300.046514 
z
" style="fill:none;stroke:#ffffff;stroke-linejoin:miter;stroke-width:0.2;"/>
   </g>
   <g id="patch_102">
    <path clip-path="url(#pa0053a8e20)" d="M 429.958412 312.192875 
C 444.92813 316.578528 460.759215 315.759098 473.965054 309.915055 
C 487.170894 304.071013 496.67329 293.679498 500.379449 281.029121 
C 504.085608 268.378744 501.69294 254.502352 493.728402 242.45606 
C 485.763863 230.409768 472.877723 221.177102 457.908006 216.791449 
C 442.938288 212.405796 427.107203 213.225226 413.901363 219.069268 
C 400.695524 224.913311 391.193128 235.304826 387.486969 247.955203 
C 383.780809 260.60558 386.173477 274.481971 394.138016 286.528263 
C 402.102555 298.574556 414.988694 307.807222 429.958412 312.192875 
z
" style="fill:none;stroke:#ffffff;stroke-linejoin:miter;stroke-width:0.2;"/>
   </g>
   <g id="patch_103">
    <path clip-path="url(#pa0053a8e20)" d="M 348.58482 339.573471 
C 356.021907 350.251434 370.218877 355.573851 388.049012 354.36852 
C 405.879147 353.16319 425.886695 345.528522 443.665226 333.145965 
C 461.443757 320.763407 475.541733 304.643941 482.854238 288.33769 
C 490.166743 272.03144 490.096744 256.869739 482.659656 246.191776 
C 475.222569 235.513814 461.025599 230.191397 443.195464 231.396728 
C 425.365329 232.602058 405.357781 240.236725 387.57925 252.619283 
C 369.800719 265.001841 355.702743 281.121307 348.390238 297.427557 
C 341.077733 313.733808 341.147733 328.895509 348.58482 339.573471 
z
" style="fill:none;stroke:#ffffff;stroke-linejoin:miter;stroke-width:0.2;"/>
   </g>
   <g id="patch_104">
    <path clip-path="url(#pa0053a8e20)" d="M 176.832494 314.92773 
L 579.167506 314.92773 
L 579.167506 95.47227 
L 176.832494 95.47227 
z
" style="fill:none;stroke:#000000;stroke-linejoin:miter;stroke-width:0.5;"/>
   </g>
   <g id="patch_105">
    <path clip-path="url(#pa0053a8e20)" d="M 365.114387 271.6865 
C 371.121006 261.584918 370.06184 247.840048 362.17016 233.479039 
C 354.278479 219.118029 340.198604 205.313393 323.031463 195.10544 
C 305.864323 184.897488 287.011538 179.119653 270.625215 179.044438 
C 254.238893 178.969223 241.656904 184.602768 235.650285 194.70435 
C 229.643666 204.805932 230.702831 218.550802 238.594512 232.911811 
C 246.486193 247.272821 260.566068 261.077457 277.733208 271.28541 
C 294.900349 281.493362 313.753134 287.271197 330.139456 287.346412 
C 346.525779 287.421627 359.107768 281.788082 365.114387 271.6865 
z
" style="fill:none;stroke:#000000;stroke-linejoin:miter;stroke-width:2;"/>
   </g>
   <g id="patch_106">
    <path clip-path="url(#pa0053a8e20)" d="M 176.832494 314.92773 
L 579.167506 314.92773 
L 579.167506 95.47227 
L 176.832494 95.47227 
z
" style="fill:none;stroke:#000000;stroke-linejoin:miter;stroke-width:0.5;"/>
   </g>
   <g id="patch_107">
    <path clip-path="url(#pa0053a8e20)" d="M 354.271563 282.57954 
C 360.869762 271.483073 359.309823 256.148754 349.935303 239.95379 
C 340.560784 223.758826 324.137072 208.025463 304.2813 196.218792 
C 284.425528 184.412122 262.758832 177.496105 244.05305 176.993916 
C 225.347268 176.491726 211.129644 182.444365 204.531445 193.540832 
C 197.933246 204.6373 199.493185 219.971618 208.867705 236.166583 
C 218.242224 252.361547 234.665936 268.094909 254.521708 279.90158 
C 274.377479 291.708251 296.044176 298.624267 314.749958 299.126456 
C 333.45574 299.628646 347.673364 293.676007 354.271563 282.57954 
z
" style="fill:none;stroke:#ffffff;stroke-linejoin:miter;stroke-width:2;"/>
   </g>
   <g id="matplotlib.axis_1"/>
   <g id="matplotlib.axis_2"/>
   <g id="patch_108">
    <path d="M 159.355793 328.32 
L 159.355793 82.08 
" style="fill:none;stroke:#000000;stroke-linecap:square;stroke-linejoin:miter;stroke-width:0.25;"/>
   </g>
   <g id="patch_109">
    <path d="M 596.644207 328.32 
L 596.644207 82.08 
" style="fill:none;stroke:#000000;stroke-linecap:square;stroke-linejoin:miter;stroke-width:0.25;"/>
   </g>
   <g id="patch_110">
    <path d="M 159.355793 328.32 
L 596.644207 328.32 
" style="fill:none;stroke:#000000;stroke-linecap:square;stroke-linejoin:miter;stroke-width:0.25;"/>
   </g>
   <g id="patch_111">
    <path d="M 159.355793 82.08 
L 596.644207 82.08 
" style="fill:none;stroke:#000000;stroke-linecap:square;stroke-linejoin:miter;stroke-width:0.25;"/>
   </g>
   <g id="legend_1">
    <g id="patch_112">
     <path d="M 512.152957 79.08 
L 592.444207 79.08 
Q 593.644207 79.08 593.644207 77.88 
L 593.644207 60.86625 
Q 593.644207 59.66625 592.444207 59.66625 
L 512.152957 59.66625 
Q 510.952957 59.66625 510.952957 60.86625 
L 510.952957 77.88 
Q 510.952957 79.08 512.152957 79.08 
z
" style="fill:#ffffff;opacity:0.8;stroke:#cccccc;stroke-linejoin:miter;"/>
    </g>
    <g id="line2d_1">
     <path d="M 513.352957 64.525313 
L 525.352957 64.525313 
" style="fill:none;stroke:#000000;stroke-linecap:square;stroke-width:4;"/>
    </g>
    <g id="line2d_2"/>
    <g id="text_1">
     <text style="font-family:DejaVu Sans;font-size:6px;font-stretch:normal;font-style:normal;font-weight:normal;text-anchor:start;" transform="rotate(-0, 530.152957, 66.625313)" x="530.152957" y="66.625313">Original</text>
    </g>
    <g id="line2d_3">
     <path d="M 513.352957 73.332188 
L 525.352957 73.332188 
" style="fill:none;stroke:#ffffff;stroke-linecap:square;stroke-width:4;"/>
    </g>
    <g id="line2d_4"/>
    <g id="text_2">
     <text style="font-family:DejaVu Sans;font-size:6px;font-stretch:normal;font-style:normal;font-weight:normal;text-anchor:start;" transform="rotate(-0, 530.152957, 75.432187)" x="530.152957" y="75.432187">Spherical-Correction</text>
    </g>
   </g>
  </g>
  <g id="text_3">
   <text style="font-family:DejaVu Sans;font-size:8px;font-stretch:normal;font-style:normal;font-weight:normal;text-anchor:start;" transform="rotate(-0, 0, 6.11375)" x="0" y="6.11375">JC091|20190614|FOV1_zoom2p0x|rfs10|traces001|fit-2dgaus_dff_sphr</text>
  </g>
 </g>
 <defs>
  <clipPath id="pa0053a8e20">
   <rect height="246.24" width="437.288415" x="159.355793" y="82.08"/>
  </clipPath>
 </defs>
</svg>
