<?xml version="1.0" encoding="utf-8" standalone="no"?>
<!DOCTYPE svg PUBLIC "-//W3C//DTD SVG 1.1//EN"
  "http://www.w3.org/Graphics/SVG/1.1/DTD/svg11.dtd">
<!-- Created with matplotlib (https://matplotlib.org/) -->
<svg height="216pt" version="1.1" viewBox="0 0 504 216" width="504pt" xmlns="http://www.w3.org/2000/svg" xmlns:xlink="http://www.w3.org/1999/xlink">
 <metadata>
  <rdf:RDF xmlns:cc="http://creativecommons.org/ns#" xmlns:dc="http://purl.org/dc/elements/1.1/" xmlns:rdf="http://www.w3.org/1999/02/22-rdf-syntax-ns#">
   <cc:Work>
    <dc:type rdf:resource="http://purl.org/dc/dcmitype/StillImage"/>
    <dc:date>2021-09-29T17:20:59.447358</dc:date>
    <dc:format>image/svg+xml</dc:format>
    <dc:creator>
     <cc:Agent>
      <dc:title>Matplotlib v3.3.4, https://matplotlib.org/</dc:title>
     </cc:Agent>
    </dc:creator>
   </cc:Work>
  </rdf:RDF>
 </metadata>
 <defs>
  <style type="text/css">*{stroke-linecap:butt;stroke-linejoin:round;}</style>
 </defs>
 <g id="figure_1">
  <g id="patch_1">
   <path d="M 0 216 
L 504 216 
L 504 0 
L 0 0 
z
" style="fill:#ffffff;"/>
  </g>
  <g id="axes_1">
   <g id="patch_2">
    <path d="M 75.6 142.690909 
L 155.781818 142.690909 
L 155.781818 62.509091 
L 75.6 62.509091 
z
" style="fill:#ffffff;"/>
   </g>
   <g id="patch_3">
    <path clip-path="url(#pae2c79ad3f)" d="M 79.244628 142.690909 
L 100.071074 142.690909 
L 100.071074 96.733022 
L 79.244628 96.733022 
z
" style="fill:#cccccc;stroke:#ffffff;stroke-linejoin:miter;"/>
   </g>
   <g id="patch_4">
    <path clip-path="url(#pae2c79ad3f)" d="M 105.277686 142.690909 
L 126.104132 142.690909 
L 126.104132 124.366904 
L 105.277686 124.366904 
z
" style="fill:#cccccc;stroke:#ffffff;stroke-linejoin:miter;"/>
   </g>
   <g id="patch_5">
    <path clip-path="url(#pae2c79ad3f)" d="M 131.310744 142.690909 
L 152.13719 142.690909 
L 152.13719 131.329616 
L 131.310744 131.329616 
z
" style="fill:#cccccc;stroke:#ffffff;stroke-linejoin:miter;"/>
   </g>
   <g id="PathCollection_1">
    <defs>
     <path d="M 0 1.5 
C 0.397805 1.5 0.77937 1.341951 1.06066 1.06066 
C 1.341951 0.77937 1.5 0.397805 1.5 -0 
C 1.5 -0.397805 1.341951 -0.77937 1.06066 -1.06066 
C 0.77937 -1.341951 0.397805 -1.5 0 -1.5 
C -0.397805 -1.5 -0.77937 -1.341951 -1.06066 -1.06066 
C -1.341951 -0.77937 -1.5 -0.397805 -1.5 0 
C -1.5 0.397805 -1.341951 0.77937 -1.06066 1.06066 
C -0.77937 1.341951 -0.397805 1.5 0 1.5 
z
" id="C0_0_0d6e169273"/>
    </defs>
    <g clip-path="url(#pae2c79ad3f)">
     <use style="fill:#ff00ff;" x="89.657851" xlink:href="#C0_0_0d6e169273" y="103.462728"/>
    </g>
    <g clip-path="url(#pae2c79ad3f)">
     <use style="fill:#ff00ff;" x="89.657851" xlink:href="#C0_0_0d6e169273" y="111.939523"/>
    </g>
    <g clip-path="url(#pae2c79ad3f)">
     <use style="fill:#ff00ff;" x="89.657851" xlink:href="#C0_0_0d6e169273" y="94.771896"/>
    </g>
    <g clip-path="url(#pae2c79ad3f)">
     <use style="fill:#ff00ff;" x="89.657851" xlink:href="#C0_0_0d6e169273" y="99.73195"/>
    </g>
    <g clip-path="url(#pae2c79ad3f)">
     <use style="fill:#ff00ff;" x="89.657851" xlink:href="#C0_0_0d6e169273" y="94.332742"/>
    </g>
    <g clip-path="url(#pae2c79ad3f)">
     <use style="fill:#ff00ff;" x="89.657851" xlink:href="#C0_0_0d6e169273" y="102.73167"/>
    </g>
    <g clip-path="url(#pae2c79ad3f)">
     <use style="fill:#ff00ff;" x="89.657851" xlink:href="#C0_0_0d6e169273" y="69.772959"/>
    </g>
    <g clip-path="url(#pae2c79ad3f)">
     <use style="fill:#ff00ff;" x="89.657851" xlink:href="#C0_0_0d6e169273" y="97.120707"/>
    </g>
   </g>
   <g id="PathCollection_2">
    <defs>
     <path d="M 0 1.5 
C 0.397805 1.5 0.77937 1.341951 1.06066 1.06066 
C 1.341951 0.77937 1.5 0.397805 1.5 -0 
C 1.5 -0.397805 1.341951 -0.77937 1.06066 -1.06066 
C 0.77937 -1.341951 0.397805 -1.5 0 -1.5 
C -0.397805 -1.5 -0.77937 -1.341951 -1.06066 -1.06066 
C -1.341951 -0.77937 -1.5 -0.397805 -1.5 0 
C -1.5 0.397805 -1.341951 0.77937 -1.06066 1.06066 
C -0.77937 1.341951 -0.397805 1.5 0 1.5 
z
" id="C1_0_174b210888"/>
    </defs>
    <g clip-path="url(#pae2c79ad3f)">
     <use style="fill:#ffa500;" x="115.690909" xlink:href="#C1_0_174b210888" y="129.38958"/>
    </g>
    <g clip-path="url(#pae2c79ad3f)">
     <use style="fill:#ffa500;" x="115.690909" xlink:href="#C1_0_174b210888" y="123.133418"/>
    </g>
    <g clip-path="url(#pae2c79ad3f)">
     <use style="fill:#ffa500;" x="115.690909" xlink:href="#C1_0_174b210888" y="124.758819"/>
    </g>
    <g clip-path="url(#pae2c79ad3f)">
     <use style="fill:#ffa500;" x="115.690909" xlink:href="#C1_0_174b210888" y="120.390394"/>
    </g>
    <g clip-path="url(#pae2c79ad3f)">
     <use style="fill:#ffa500;" x="115.690909" xlink:href="#C1_0_174b210888" y="125.374294"/>
    </g>
    <g clip-path="url(#pae2c79ad3f)">
     <use style="fill:#ffa500;" x="115.690909" xlink:href="#C1_0_174b210888" y="117.109928"/>
    </g>
    <g clip-path="url(#pae2c79ad3f)">
     <use style="fill:#ffa500;" x="115.690909" xlink:href="#C1_0_174b210888" y="130.411898"/>
    </g>
   </g>
   <g id="PathCollection_3">
    <defs>
     <path d="M 0 1.5 
C 0.397805 1.5 0.77937 1.341951 1.06066 1.06066 
C 1.341951 0.77937 1.5 0.397805 1.5 -0 
C 1.5 -0.397805 1.341951 -0.77937 1.06066 -1.06066 
C 0.77937 -1.341951 0.397805 -1.5 0 -1.5 
C -0.397805 -1.5 -0.77937 -1.341951 -1.06066 -1.06066 
C -1.341951 -0.77937 -1.5 -0.397805 -1.5 0 
C -1.5 0.397805 -1.341951 0.77937 -1.06066 1.06066 
C -0.77937 1.341951 -0.397805 1.5 0 1.5 
z
" id="C2_0_3e6988d2e6"/>
    </defs>
    <g clip-path="url(#pae2c79ad3f)">
     <use style="fill:#1e90ff;" x="141.723967" xlink:href="#C2_0_3e6988d2e6" y="133.309218"/>
    </g>
    <g clip-path="url(#pae2c79ad3f)">
     <use style="fill:#1e90ff;" x="141.723967" xlink:href="#C2_0_3e6988d2e6" y="127.768585"/>
    </g>
    <g clip-path="url(#pae2c79ad3f)">
     <use style="fill:#1e90ff;" x="141.723967" xlink:href="#C2_0_3e6988d2e6" y="133.982542"/>
    </g>
    <g clip-path="url(#pae2c79ad3f)">
     <use style="fill:#1e90ff;" x="141.723967" xlink:href="#C2_0_3e6988d2e6" y="133.358211"/>
    </g>
    <g clip-path="url(#pae2c79ad3f)">
     <use style="fill:#1e90ff;" x="141.723967" xlink:href="#C2_0_3e6988d2e6" y="132.366332"/>
    </g>
    <g clip-path="url(#pae2c79ad3f)">
     <use style="fill:#1e90ff;" x="141.723967" xlink:href="#C2_0_3e6988d2e6" y="132.956665"/>
    </g>
    <g clip-path="url(#pae2c79ad3f)">
     <use style="fill:#1e90ff;" x="141.723967" xlink:href="#C2_0_3e6988d2e6" y="129.436642"/>
    </g>
    <g clip-path="url(#pae2c79ad3f)">
     <use style="fill:#1e90ff;" x="141.723967" xlink:href="#C2_0_3e6988d2e6" y="127.458735"/>
    </g>
   </g>
   <g id="matplotlib.axis_1">
    <g id="xtick_1">
     <g id="line2d_1"/>
     <g id="text_1">
      <text style="fill:#1a1a1a;font-family:DejaVu Sans;font-size:6px;font-stretch:normal;font-style:normal;font-weight:normal;text-anchor:middle;" transform="rotate(-0, 89.657851, 150.749972)" x="89.657851" y="150.749972">V1</text>
     </g>
    </g>
    <g id="xtick_2">
     <g id="line2d_2"/>
     <g id="text_2">
      <text style="fill:#1a1a1a;font-family:DejaVu Sans;font-size:6px;font-stretch:normal;font-style:normal;font-weight:normal;text-anchor:middle;" transform="rotate(-0, 115.690909, 150.749972)" x="115.690909" y="150.749972">Lm</text>
     </g>
    </g>
    <g id="xtick_3">
     <g id="line2d_3"/>
     <g id="text_3">
      <text style="fill:#1a1a1a;font-family:DejaVu Sans;font-size:6px;font-stretch:normal;font-style:normal;font-weight:normal;text-anchor:middle;" transform="rotate(-0, 141.723967, 150.749972)" x="141.723967" y="150.749972">Li</text>
     </g>
    </g>
   </g>
   <g id="matplotlib.axis_2">
    <g id="ytick_1">
     <g id="line2d_4">
      <defs>
       <path d="M 0 0 
L -6 0 
" id="m2def47c962" style="stroke:#1a1a1a;stroke-width:0.25;"/>
      </defs>
      <g>
       <use style="fill:#1a1a1a;stroke:#1a1a1a;stroke-width:0.25;" x="71.6" xlink:href="#m2def47c962" y="142.690909"/>
      </g>
     </g>
     <g id="text_4">
      <text style="fill:#1a1a1a;font-family:DejaVu Sans;font-size:6px;font-stretch:normal;font-style:normal;font-weight:normal;text-anchor:end;" transform="rotate(-0, 62.1, 144.97044)" x="62.1" y="144.97044">0</text>
     </g>
    </g>
    <g id="ytick_2">
     <g id="line2d_5">
      <g>
       <use style="fill:#1a1a1a;stroke:#1a1a1a;stroke-width:0.25;" x="71.6" xlink:href="#m2def47c962" y="129.316127"/>
      </g>
     </g>
     <g id="text_5">
      <text style="fill:#1a1a1a;font-family:DejaVu Sans;font-size:6px;font-stretch:normal;font-style:normal;font-weight:normal;text-anchor:end;" transform="rotate(-0, 62.1, 131.595658)" x="62.1" y="131.595658">20</text>
     </g>
    </g>
    <g id="ytick_3">
     <g id="line2d_6">
      <g>
       <use style="fill:#1a1a1a;stroke:#1a1a1a;stroke-width:0.25;" x="71.6" xlink:href="#m2def47c962" y="115.941345"/>
      </g>
     </g>
     <g id="text_6">
      <text style="fill:#1a1a1a;font-family:DejaVu Sans;font-size:6px;font-stretch:normal;font-style:normal;font-weight:normal;text-anchor:end;" transform="rotate(-0, 62.1, 118.220876)" x="62.1" y="118.220876">40</text>
     </g>
    </g>
    <g id="ytick_4">
     <g id="line2d_7">
      <g>
       <use style="fill:#1a1a1a;stroke:#1a1a1a;stroke-width:0.25;" x="71.6" xlink:href="#m2def47c962" y="102.566563"/>
      </g>
     </g>
     <g id="text_7">
      <text style="fill:#1a1a1a;font-family:DejaVu Sans;font-size:6px;font-stretch:normal;font-style:normal;font-weight:normal;text-anchor:end;" transform="rotate(-0, 62.1, 104.846094)" x="62.1" y="104.846094">60</text>
     </g>
    </g>
    <g id="ytick_5">
     <g id="line2d_8">
      <g>
       <use style="fill:#1a1a1a;stroke:#1a1a1a;stroke-width:0.25;" x="71.6" xlink:href="#m2def47c962" y="89.191781"/>
      </g>
     </g>
     <g id="text_8">
      <text style="fill:#1a1a1a;font-family:DejaVu Sans;font-size:6px;font-stretch:normal;font-style:normal;font-weight:normal;text-anchor:end;" transform="rotate(-0, 62.1, 91.471312)" x="62.1" y="91.471312">80</text>
     </g>
    </g>
    <g id="ytick_6">
     <g id="line2d_9">
      <g>
       <use style="fill:#1a1a1a;stroke:#1a1a1a;stroke-width:0.25;" x="71.6" xlink:href="#m2def47c962" y="75.816999"/>
      </g>
     </g>
     <g id="text_9">
      <text style="fill:#1a1a1a;font-family:DejaVu Sans;font-size:6px;font-stretch:normal;font-style:normal;font-weight:normal;text-anchor:end;" transform="rotate(-0, 62.1, 78.09653)" x="62.1" y="78.09653">100</text>
     </g>
    </g>
    <g id="text_10">
     <text style="fill:#1a1a1a;font-family:DejaVu Sans;font-size:6px;font-stretch:normal;font-style:normal;font-weight:normal;text-anchor:middle;" transform="rotate(-90, 45.399687, 102.6)" x="45.399687" y="102.6">cortical mag. (um/deg)</text>
    </g>
   </g>
   <g id="PathCollection_4"/>
   <g id="PathCollection_5"/>
   <g id="PathCollection_6"/>
   <g id="line2d_10">
    <path clip-path="url(#pae2c79ad3f)" d="M 141.723967 69.801691 
L 141.723967 69.801691 
L 115.690909 69.801691 
L 115.690909 69.801691 
" style="fill:none;stroke:#1a1a1a;stroke-linecap:round;stroke-width:0.25;"/>
   </g>
   <g id="line2d_11">
    <path clip-path="url(#pae2c79ad3f)" d="M 141.723967 66.157063 
L 141.723967 66.157063 
L 89.657851 66.157063 
L 89.657851 66.157063 
" style="fill:none;stroke:#1a1a1a;stroke-linecap:round;stroke-width:0.25;"/>
   </g>
   <g id="line2d_12">
    <path clip-path="url(#pae2c79ad3f)" d="M 115.690909 62.512435 
L 115.690909 62.512435 
L 89.657851 62.512435 
L 89.657851 62.512435 
" style="fill:none;stroke:#1a1a1a;stroke-linecap:round;stroke-width:0.25;"/>
   </g>
   <g id="patch_6">
    <path d="M 71.6 142.690909 
L 71.6 62.509091 
" style="fill:none;stroke:#1a1a1a;stroke-linecap:square;stroke-linejoin:miter;stroke-width:0.25;"/>
   </g>
   <g id="text_11">
    <text style="fill:#262626;font-family:DejaVu Sans;font-size:4px;font-stretch:normal;font-style:normal;font-weight:normal;text-anchor:start;" transform="rotate(-0, 128.707438, 69.346112)" x="128.707438" y="69.346112">**</text>
   </g>
   <g id="text_12">
    <text style="fill:#262626;font-family:DejaVu Sans;font-size:4px;font-stretch:normal;font-style:normal;font-weight:normal;text-anchor:start;" transform="rotate(-0, 115.690909, 65.701484)" x="115.690909" y="65.701484">**</text>
   </g>
   <g id="text_13">
    <text style="fill:#262626;font-family:DejaVu Sans;font-size:4px;font-stretch:normal;font-style:normal;font-weight:normal;text-anchor:start;" transform="rotate(-0, 102.67438, 62.056856)" x="102.67438" y="62.056856">**</text>
   </g>
  </g>
  <g id="axes_2">
   <g id="patch_7">
    <path d="M 211.909091 142.690909 
L 292.090909 142.690909 
L 292.090909 62.509091 
L 211.909091 62.509091 
z
" style="fill:#ffffff;"/>
   </g>
   <g id="patch_8">
    <path clip-path="url(#p3eacfe024f)" d="M 215.553719 142.690909 
L 225.966942 142.690909 
L 225.966942 131.208259 
L 215.553719 131.208259 
z
" style="fill:#cccccc;stroke:#ffffff;stroke-linejoin:miter;stroke-width:0.5;"/>
   </g>
   <g id="patch_9">
    <path clip-path="url(#p3eacfe024f)" d="M 241.586777 142.690909 
L 252 142.690909 
L 252 110.517743 
L 241.586777 110.517743 
z
" style="fill:#cccccc;stroke:#ffffff;stroke-linejoin:miter;stroke-width:0.5;"/>
   </g>
   <g id="patch_10">
    <path clip-path="url(#p3eacfe024f)" d="M 267.619835 142.690909 
L 278.033058 142.690909 
L 278.033058 90.649625 
L 267.619835 90.649625 
z
" style="fill:#cccccc;stroke:#ffffff;stroke-linejoin:miter;stroke-width:0.5;"/>
   </g>
   <g id="patch_11">
    <path clip-path="url(#p3eacfe024f)" d="M 225.966942 142.690909 
L 236.380165 142.690909 
L 236.380165 136.188583 
L 225.966942 136.188583 
z
" style="fill:#cccccc;stroke:#ffffff;stroke-linejoin:miter;stroke-width:0.5;"/>
   </g>
   <g id="patch_12">
    <path clip-path="url(#p3eacfe024f)" d="M 252 142.690909 
L 262.413223 142.690909 
L 262.413223 129.481753 
L 252 129.481753 
z
" style="fill:#cccccc;stroke:#ffffff;stroke-linejoin:miter;stroke-width:0.5;"/>
   </g>
   <g id="patch_13">
    <path clip-path="url(#p3eacfe024f)" d="M 278.033058 142.690909 
L 288.446281 142.690909 
L 288.446281 122.577607 
L 278.033058 122.577607 
z
" style="fill:#cccccc;stroke:#ffffff;stroke-linejoin:miter;stroke-width:0.5;"/>
   </g>
   <g id="line2d_13">
    <path clip-path="url(#p3eacfe024f)" d="M 219.458678 130.999944 
L 232.475207 134.396229 
" style="fill:none;stroke:#ff00ff;stroke-linecap:round;"/>
    <defs>
     <path d="M 0 0.5 
C 0.132602 0.5 0.25979 0.447317 0.353553 0.353553 
C 0.447317 0.25979 0.5 0.132602 0.5 0 
C 0.5 -0.132602 0.447317 -0.25979 0.353553 -0.353553 
C 0.25979 -0.447317 0.132602 -0.5 0 -0.5 
C -0.132602 -0.5 -0.25979 -0.447317 -0.353553 -0.353553 
C -0.447317 -0.25979 -0.5 -0.132602 -0.5 0 
C -0.5 0.132602 -0.447317 0.25979 -0.353553 0.353553 
C -0.25979 0.447317 -0.132602 0.5 0 0.5 
z
" id="m0ec37e0a96" style="stroke:#ff00ff;"/>
    </defs>
    <g clip-path="url(#p3eacfe024f)">
     <use style="fill:#ff00ff;stroke:#ff00ff;" x="219.458678" xlink:href="#m0ec37e0a96" y="130.999944"/>
     <use style="fill:#ff00ff;stroke:#ff00ff;" x="232.475207" xlink:href="#m0ec37e0a96" y="134.396229"/>
    </g>
   </g>
   <g id="line2d_14">
    <path clip-path="url(#p3eacfe024f)" d="M 219.458678 125.912361 
L 232.475207 133.974655 
" style="fill:none;stroke:#ff00ff;stroke-linecap:round;"/>
    <g clip-path="url(#p3eacfe024f)">
     <use style="fill:#ff00ff;stroke:#ff00ff;" x="219.458678" xlink:href="#m0ec37e0a96" y="125.912361"/>
     <use style="fill:#ff00ff;stroke:#ff00ff;" x="232.475207" xlink:href="#m0ec37e0a96" y="133.974655"/>
    </g>
   </g>
   <g id="line2d_15">
    <path clip-path="url(#p3eacfe024f)" d="M 219.458678 131.082383 
L 232.475207 137.938487 
" style="fill:none;stroke:#ff00ff;stroke-linecap:round;"/>
    <g clip-path="url(#p3eacfe024f)">
     <use style="fill:#ff00ff;stroke:#ff00ff;" x="219.458678" xlink:href="#m0ec37e0a96" y="131.082383"/>
     <use style="fill:#ff00ff;stroke:#ff00ff;" x="232.475207" xlink:href="#m0ec37e0a96" y="137.938487"/>
    </g>
   </g>
   <g id="line2d_16">
    <path clip-path="url(#p3eacfe024f)" d="M 219.458678 130.941055 
L 232.475207 136.190775 
" style="fill:none;stroke:#ff00ff;stroke-linecap:round;"/>
    <g clip-path="url(#p3eacfe024f)">
     <use style="fill:#ff00ff;stroke:#ff00ff;" x="219.458678" xlink:href="#m0ec37e0a96" y="130.941055"/>
     <use style="fill:#ff00ff;stroke:#ff00ff;" x="232.475207" xlink:href="#m0ec37e0a96" y="136.190775"/>
    </g>
   </g>
   <g id="line2d_17">
    <path clip-path="url(#p3eacfe024f)" d="M 219.458678 132.316719 
L 232.475207 136.852729 
" style="fill:none;stroke:#ff00ff;stroke-linecap:round;"/>
    <g clip-path="url(#p3eacfe024f)">
     <use style="fill:#ff00ff;stroke:#ff00ff;" x="219.458678" xlink:href="#m0ec37e0a96" y="132.316719"/>
     <use style="fill:#ff00ff;stroke:#ff00ff;" x="232.475207" xlink:href="#m0ec37e0a96" y="136.852729"/>
    </g>
   </g>
   <g id="line2d_18">
    <path clip-path="url(#p3eacfe024f)" d="M 219.458678 131.530151 
L 232.475207 134.231661 
" style="fill:none;stroke:#ff00ff;stroke-linecap:round;"/>
    <g clip-path="url(#p3eacfe024f)">
     <use style="fill:#ff00ff;stroke:#ff00ff;" x="219.458678" xlink:href="#m0ec37e0a96" y="131.530151"/>
     <use style="fill:#ff00ff;stroke:#ff00ff;" x="232.475207" xlink:href="#m0ec37e0a96" y="134.231661"/>
    </g>
   </g>
   <g id="line2d_19">
    <path clip-path="url(#p3eacfe024f)" d="M 219.458678 135.794339 
L 232.475207 138.835661 
" style="fill:none;stroke:#ff00ff;stroke-linecap:round;"/>
    <g clip-path="url(#p3eacfe024f)">
     <use style="fill:#ff00ff;stroke:#ff00ff;" x="219.458678" xlink:href="#m0ec37e0a96" y="135.794339"/>
     <use style="fill:#ff00ff;stroke:#ff00ff;" x="232.475207" xlink:href="#m0ec37e0a96" y="138.835661"/>
    </g>
   </g>
   <g id="line2d_20">
    <path clip-path="url(#p3eacfe024f)" d="M 219.458678 131.089118 
L 232.475207 137.088464 
" style="fill:none;stroke:#ff00ff;stroke-linecap:round;"/>
    <g clip-path="url(#p3eacfe024f)">
     <use style="fill:#ff00ff;stroke:#ff00ff;" x="219.458678" xlink:href="#m0ec37e0a96" y="131.089118"/>
     <use style="fill:#ff00ff;stroke:#ff00ff;" x="232.475207" xlink:href="#m0ec37e0a96" y="137.088464"/>
    </g>
   </g>
   <g id="line2d_21">
    <path clip-path="url(#p3eacfe024f)" d="M 245.491736 101.172486 
L 258.508264 125.267818 
" style="fill:none;stroke:#ffa500;stroke-linecap:round;"/>
    <defs>
     <path d="M 0 0.5 
C 0.132602 0.5 0.25979 0.447317 0.353553 0.353553 
C 0.447317 0.25979 0.5 0.132602 0.5 0 
C 0.5 -0.132602 0.447317 -0.25979 0.353553 -0.353553 
C 0.25979 -0.447317 0.132602 -0.5 0 -0.5 
C -0.132602 -0.5 -0.25979 -0.447317 -0.353553 -0.353553 
C -0.447317 -0.25979 -0.5 -0.132602 -0.5 0 
C -0.5 0.132602 -0.447317 0.25979 -0.353553 0.353553 
C -0.25979 0.447317 -0.132602 0.5 0 0.5 
z
" id="ma5b54439a1" style="stroke:#ffa500;"/>
    </defs>
    <g clip-path="url(#p3eacfe024f)">
     <use style="fill:#ffa500;stroke:#ffa500;" x="245.491736" xlink:href="#ma5b54439a1" y="101.172486"/>
     <use style="fill:#ffa500;stroke:#ffa500;" x="258.508264" xlink:href="#ma5b54439a1" y="125.267818"/>
    </g>
   </g>
   <g id="line2d_22">
    <path clip-path="url(#p3eacfe024f)" d="M 245.491736 120.849042 
L 258.508264 124.445809 
" style="fill:none;stroke:#ffa500;stroke-linecap:round;"/>
    <g clip-path="url(#p3eacfe024f)">
     <use style="fill:#ffa500;stroke:#ffa500;" x="245.491736" xlink:href="#ma5b54439a1" y="120.849042"/>
     <use style="fill:#ffa500;stroke:#ffa500;" x="258.508264" xlink:href="#ma5b54439a1" y="124.445809"/>
    </g>
   </g>
   <g id="line2d_23">
    <path clip-path="url(#p3eacfe024f)" d="M 245.491736 110.46641 
L 258.508264 131.194878 
" style="fill:none;stroke:#ffa500;stroke-linecap:round;"/>
    <g clip-path="url(#p3eacfe024f)">
     <use style="fill:#ffa500;stroke:#ffa500;" x="245.491736" xlink:href="#ma5b54439a1" y="110.46641"/>
     <use style="fill:#ffa500;stroke:#ffa500;" x="258.508264" xlink:href="#ma5b54439a1" y="131.194878"/>
    </g>
   </g>
   <g id="line2d_24">
    <path clip-path="url(#p3eacfe024f)" d="M 245.491736 113.987871 
L 258.508264 136.237786 
" style="fill:none;stroke:#ffa500;stroke-linecap:round;"/>
    <g clip-path="url(#p3eacfe024f)">
     <use style="fill:#ffa500;stroke:#ffa500;" x="245.491736" xlink:href="#ma5b54439a1" y="113.987871"/>
     <use style="fill:#ffa500;stroke:#ffa500;" x="258.508264" xlink:href="#ma5b54439a1" y="136.237786"/>
    </g>
   </g>
   <g id="line2d_25">
    <path clip-path="url(#p3eacfe024f)" d="M 245.491736 110.716934 
L 258.508264 129.390417 
" style="fill:none;stroke:#ffa500;stroke-linecap:round;"/>
    <g clip-path="url(#p3eacfe024f)">
     <use style="fill:#ffa500;stroke:#ffa500;" x="245.491736" xlink:href="#ma5b54439a1" y="110.716934"/>
     <use style="fill:#ffa500;stroke:#ffa500;" x="258.508264" xlink:href="#ma5b54439a1" y="129.390417"/>
    </g>
   </g>
   <g id="line2d_26">
    <path clip-path="url(#p3eacfe024f)" d="M 245.491736 124.302567 
L 258.508264 130.431462 
" style="fill:none;stroke:#ffa500;stroke-linecap:round;"/>
    <g clip-path="url(#p3eacfe024f)">
     <use style="fill:#ffa500;stroke:#ffa500;" x="245.491736" xlink:href="#ma5b54439a1" y="124.302567"/>
     <use style="fill:#ffa500;stroke:#ffa500;" x="258.508264" xlink:href="#ma5b54439a1" y="130.431462"/>
    </g>
   </g>
   <g id="line2d_27">
    <path clip-path="url(#p3eacfe024f)" d="M 245.491736 92.12889 
L 258.508264 129.404099 
" style="fill:none;stroke:#ffa500;stroke-linecap:round;"/>
    <g clip-path="url(#p3eacfe024f)">
     <use style="fill:#ffa500;stroke:#ffa500;" x="245.491736" xlink:href="#ma5b54439a1" y="92.12889"/>
     <use style="fill:#ffa500;stroke:#ffa500;" x="258.508264" xlink:href="#ma5b54439a1" y="129.404099"/>
    </g>
   </g>
   <g id="line2d_28">
    <path clip-path="url(#p3eacfe024f)" d="M 271.524793 74.114024 
L 284.541322 127.700713 
" style="fill:none;stroke:#1e90ff;stroke-linecap:round;"/>
    <defs>
     <path d="M 0 0.5 
C 0.132602 0.5 0.25979 0.447317 0.353553 0.353553 
C 0.447317 0.25979 0.5 0.132602 0.5 0 
C 0.5 -0.132602 0.447317 -0.25979 0.353553 -0.353553 
C 0.25979 -0.447317 0.132602 -0.5 0 -0.5 
C -0.132602 -0.5 -0.25979 -0.447317 -0.353553 -0.353553 
C -0.447317 -0.25979 -0.5 -0.132602 -0.5 0 
C -0.5 0.132602 -0.447317 0.25979 -0.353553 0.353553 
C -0.25979 0.447317 -0.132602 0.5 0 0.5 
z
" id="md7068c912d" style="stroke:#1e90ff;"/>
    </defs>
    <g clip-path="url(#p3eacfe024f)">
     <use style="fill:#1e90ff;stroke:#1e90ff;" x="271.524793" xlink:href="#md7068c912d" y="74.114024"/>
     <use style="fill:#1e90ff;stroke:#1e90ff;" x="284.541322" xlink:href="#md7068c912d" y="127.700713"/>
    </g>
   </g>
   <g id="line2d_29">
    <path clip-path="url(#p3eacfe024f)" d="M 271.524793 103.129918 
L 284.541322 129.713133 
" style="fill:none;stroke:#1e90ff;stroke-linecap:round;"/>
    <g clip-path="url(#p3eacfe024f)">
     <use style="fill:#1e90ff;stroke:#1e90ff;" x="271.524793" xlink:href="#md7068c912d" y="103.129918"/>
     <use style="fill:#1e90ff;stroke:#1e90ff;" x="284.541322" xlink:href="#md7068c912d" y="129.713133"/>
    </g>
   </g>
   <g id="line2d_30">
    <path clip-path="url(#p3eacfe024f)" d="M 271.524793 79.580946 
L 284.541322 115.772452 
" style="fill:none;stroke:#1e90ff;stroke-linecap:round;"/>
    <g clip-path="url(#p3eacfe024f)">
     <use style="fill:#1e90ff;stroke:#1e90ff;" x="271.524793" xlink:href="#md7068c912d" y="79.580946"/>
     <use style="fill:#1e90ff;stroke:#1e90ff;" x="284.541322" xlink:href="#md7068c912d" y="115.772452"/>
    </g>
   </g>
   <g id="line2d_31">
    <path clip-path="url(#p3eacfe024f)" d="M 271.524793 81.832401 
L 284.541322 119.543648 
" style="fill:none;stroke:#1e90ff;stroke-linecap:round;"/>
    <g clip-path="url(#p3eacfe024f)">
     <use style="fill:#1e90ff;stroke:#1e90ff;" x="271.524793" xlink:href="#md7068c912d" y="81.832401"/>
     <use style="fill:#1e90ff;stroke:#1e90ff;" x="284.541322" xlink:href="#md7068c912d" y="119.543648"/>
    </g>
   </g>
   <g id="line2d_32">
    <path clip-path="url(#p3eacfe024f)" d="M 271.524793 91.01469 
L 284.541322 118.431763 
" style="fill:none;stroke:#1e90ff;stroke-linecap:round;"/>
    <g clip-path="url(#p3eacfe024f)">
     <use style="fill:#1e90ff;stroke:#1e90ff;" x="271.524793" xlink:href="#md7068c912d" y="91.01469"/>
     <use style="fill:#1e90ff;stroke:#1e90ff;" x="284.541322" xlink:href="#md7068c912d" y="118.431763"/>
    </g>
   </g>
   <g id="line2d_33">
    <path clip-path="url(#p3eacfe024f)" d="M 271.524793 82.007881 
L 284.541322 122.83348 
" style="fill:none;stroke:#1e90ff;stroke-linecap:round;"/>
    <g clip-path="url(#p3eacfe024f)">
     <use style="fill:#1e90ff;stroke:#1e90ff;" x="271.524793" xlink:href="#md7068c912d" y="82.007881"/>
     <use style="fill:#1e90ff;stroke:#1e90ff;" x="284.541322" xlink:href="#md7068c912d" y="122.83348"/>
    </g>
   </g>
   <g id="line2d_34">
    <path clip-path="url(#p3eacfe024f)" d="M 271.524793 105.835619 
L 284.541322 120.395399 
" style="fill:none;stroke:#1e90ff;stroke-linecap:round;"/>
    <g clip-path="url(#p3eacfe024f)">
     <use style="fill:#1e90ff;stroke:#1e90ff;" x="271.524793" xlink:href="#md7068c912d" y="105.835619"/>
     <use style="fill:#1e90ff;stroke:#1e90ff;" x="284.541322" xlink:href="#md7068c912d" y="120.395399"/>
    </g>
   </g>
   <g id="line2d_35">
    <path clip-path="url(#p3eacfe024f)" d="M 271.524793 107.681519 
L 284.541322 126.230265 
" style="fill:none;stroke:#1e90ff;stroke-linecap:round;"/>
    <g clip-path="url(#p3eacfe024f)">
     <use style="fill:#1e90ff;stroke:#1e90ff;" x="271.524793" xlink:href="#md7068c912d" y="107.681519"/>
     <use style="fill:#1e90ff;stroke:#1e90ff;" x="284.541322" xlink:href="#md7068c912d" y="126.230265"/>
    </g>
   </g>
   <g id="matplotlib.axis_3">
    <g id="xtick_4">
     <g id="line2d_36"/>
     <g id="text_14">
      <text style="fill:#1a1a1a;font-family:DejaVu Sans;font-size:6px;font-stretch:normal;font-style:normal;font-weight:normal;text-anchor:middle;" transform="rotate(-0, 219.458678, 150.749972)" x="219.458678" y="150.749972">az</text>
     </g>
    </g>
    <g id="xtick_5">
     <g id="line2d_37"/>
     <g id="text_15">
      <text style="fill:#1a1a1a;font-family:DejaVu Sans;font-size:6px;font-stretch:normal;font-style:normal;font-weight:normal;text-anchor:middle;" transform="rotate(-0, 232.475207, 150.749972)" x="232.475207" y="150.749972">el</text>
     </g>
    </g>
    <g id="xtick_6">
     <g id="line2d_38"/>
     <g id="text_16">
      <text style="fill:#1a1a1a;font-family:DejaVu Sans;font-size:6px;font-stretch:normal;font-style:normal;font-weight:normal;text-anchor:middle;" transform="rotate(-0, 245.491736, 150.749972)" x="245.491736" y="150.749972">az</text>
     </g>
    </g>
    <g id="xtick_7">
     <g id="line2d_39"/>
     <g id="text_17">
      <text style="fill:#1a1a1a;font-family:DejaVu Sans;font-size:6px;font-stretch:normal;font-style:normal;font-weight:normal;text-anchor:middle;" transform="rotate(-0, 258.508264, 150.749972)" x="258.508264" y="150.749972">el</text>
     </g>
    </g>
    <g id="xtick_8">
     <g id="line2d_40"/>
     <g id="text_18">
      <text style="fill:#1a1a1a;font-family:DejaVu Sans;font-size:6px;font-stretch:normal;font-style:normal;font-weight:normal;text-anchor:middle;" transform="rotate(-0, 271.524793, 150.749972)" x="271.524793" y="150.749972">az</text>
     </g>
    </g>
    <g id="xtick_9">
     <g id="line2d_41"/>
     <g id="text_19">
      <text style="fill:#1a1a1a;font-family:DejaVu Sans;font-size:6px;font-stretch:normal;font-style:normal;font-weight:normal;text-anchor:middle;" transform="rotate(-0, 284.541322, 150.749972)" x="284.541322" y="150.749972">el</text>
     </g>
    </g>
   </g>
   <g id="matplotlib.axis_4">
    <g id="ytick_7">
     <g id="line2d_42">
      <g>
       <use style="fill:#1a1a1a;stroke:#1a1a1a;stroke-width:0.25;" x="207.909091" xlink:href="#m2def47c962" y="142.690909"/>
      </g>
     </g>
     <g id="text_20">
      <text style="fill:#1a1a1a;font-family:DejaVu Sans;font-size:6px;font-stretch:normal;font-style:normal;font-weight:normal;text-anchor:end;" transform="rotate(-0, 198.409091, 144.97044)" x="198.409091" y="144.97044">0.000</text>
     </g>
    </g>
    <g id="ytick_8">
     <g id="line2d_43">
      <g>
       <use style="fill:#1a1a1a;stroke:#1a1a1a;stroke-width:0.25;" x="207.909091" xlink:href="#m2def47c962" y="128.036455"/>
      </g>
     </g>
     <g id="text_21">
      <text style="fill:#1a1a1a;font-family:DejaVu Sans;font-size:6px;font-stretch:normal;font-style:normal;font-weight:normal;text-anchor:end;" transform="rotate(-0, 198.409091, 130.315986)" x="198.409091" y="130.315986">0.025</text>
     </g>
    </g>
    <g id="ytick_9">
     <g id="line2d_44">
      <g>
       <use style="fill:#1a1a1a;stroke:#1a1a1a;stroke-width:0.25;" x="207.909091" xlink:href="#m2def47c962" y="113.382001"/>
      </g>
     </g>
     <g id="text_22">
      <text style="fill:#1a1a1a;font-family:DejaVu Sans;font-size:6px;font-stretch:normal;font-style:normal;font-weight:normal;text-anchor:end;" transform="rotate(-0, 198.409091, 115.661533)" x="198.409091" y="115.661533">0.050</text>
     </g>
    </g>
    <g id="ytick_10">
     <g id="line2d_45">
      <g>
       <use style="fill:#1a1a1a;stroke:#1a1a1a;stroke-width:0.25;" x="207.909091" xlink:href="#m2def47c962" y="98.727547"/>
      </g>
     </g>
     <g id="text_23">
      <text style="fill:#1a1a1a;font-family:DejaVu Sans;font-size:6px;font-stretch:normal;font-style:normal;font-weight:normal;text-anchor:end;" transform="rotate(-0, 198.409091, 101.007079)" x="198.409091" y="101.007079">0.075</text>
     </g>
    </g>
    <g id="ytick_11">
     <g id="line2d_46">
      <g>
       <use style="fill:#1a1a1a;stroke:#1a1a1a;stroke-width:0.25;" x="207.909091" xlink:href="#m2def47c962" y="84.073094"/>
      </g>
     </g>
     <g id="text_24">
      <text style="fill:#1a1a1a;font-family:DejaVu Sans;font-size:6px;font-stretch:normal;font-style:normal;font-weight:normal;text-anchor:end;" transform="rotate(-0, 198.409091, 86.352625)" x="198.409091" y="86.352625">0.100</text>
     </g>
    </g>
    <g id="ytick_12">
     <g id="line2d_47">
      <g>
       <use style="fill:#1a1a1a;stroke:#1a1a1a;stroke-width:0.25;" x="207.909091" xlink:href="#m2def47c962" y="69.41864"/>
      </g>
     </g>
     <g id="text_25">
      <text style="fill:#1a1a1a;font-family:DejaVu Sans;font-size:6px;font-stretch:normal;font-style:normal;font-weight:normal;text-anchor:end;" transform="rotate(-0, 198.409091, 71.698171)" x="198.409091" y="71.698171">0.125</text>
     </g>
    </g>
    <g id="text_26">
     <text style="fill:#1a1a1a;font-family:DejaVu Sans;font-size:6px;font-stretch:normal;font-style:normal;font-weight:normal;text-anchor:middle;" transform="rotate(-90, 175.984403, 102.6)" x="175.984403" y="102.6">coefficient (deg/um)</text>
    </g>
   </g>
   <g id="line2d_48">
    <path clip-path="url(#p3eacfe024f)" d="M 271.524793 66.913451 
L 271.524793 66.327273 
L 284.541322 66.327273 
L 284.541322 66.913451 
" style="fill:none;stroke:#1a1a1a;stroke-linecap:round;stroke-width:0.25;"/>
   </g>
   <g id="line2d_49">
    <path clip-path="url(#p3eacfe024f)" d="M 245.491736 66.913451 
L 245.491736 66.327273 
L 258.508264 66.327273 
L 258.508264 66.913451 
" style="fill:none;stroke:#1a1a1a;stroke-linecap:round;stroke-width:0.25;"/>
   </g>
   <g id="line2d_50">
    <path clip-path="url(#p3eacfe024f)" d="M 219.458678 66.913451 
L 219.458678 66.327273 
L 232.475207 66.327273 
L 232.475207 66.913451 
" style="fill:none;stroke:#1a1a1a;stroke-linecap:round;stroke-width:0.25;"/>
   </g>
   <g id="patch_14">
    <path d="M 207.909091 142.690909 
L 207.909091 62.509091 
" style="fill:none;stroke:#1a1a1a;stroke-linecap:square;stroke-linejoin:miter;stroke-width:0.25;"/>
   </g>
   <g id="text_27">
    <text style="fill:#1a1a1a;font-family:DejaVu Sans;font-size:6px;font-stretch:normal;font-style:normal;font-weight:normal;text-anchor:middle;" transform="rotate(-0, 278.033058, 65.07946)" x="278.033058" y="65.07946">**</text>
   </g>
   <g id="text_28">
    <text style="fill:#1a1a1a;font-family:DejaVu Sans;font-size:6px;font-stretch:normal;font-style:normal;font-weight:normal;text-anchor:middle;" transform="rotate(-0, 252, 65.07946)" x="252" y="65.07946">*</text>
   </g>
   <g id="text_29">
    <text style="fill:#1a1a1a;font-family:DejaVu Sans;font-size:6px;font-stretch:normal;font-style:normal;font-weight:normal;text-anchor:middle;" transform="rotate(-0, 225.966942, 65.07946)" x="225.966942" y="65.07946">**</text>
   </g>
  </g>
  <g id="axes_3">
   <g id="patch_15">
    <path d="M 348.218182 142.690909 
L 428.4 142.690909 
L 428.4 62.509091 
L 348.218182 62.509091 
z
" style="fill:#ffffff;"/>
   </g>
   <g id="patch_16">
    <path clip-path="url(#pa810dc7212)" d="M 350.890909 142.690909 
L 372.272727 142.690909 
L 372.272727 113.888943 
L 350.890909 113.888943 
z
" style="fill:#cccccc;stroke:#ffffff;stroke-linejoin:miter;"/>
   </g>
   <g id="patch_17">
    <path clip-path="url(#pa810dc7212)" d="M 377.618182 142.690909 
L 399 142.690909 
L 399 100.720077 
L 377.618182 100.720077 
z
" style="fill:#cccccc;stroke:#ffffff;stroke-linejoin:miter;"/>
   </g>
   <g id="patch_18">
    <path clip-path="url(#pa810dc7212)" d="M 404.345455 142.690909 
L 425.727273 142.690909 
L 425.727273 99.979784 
L 404.345455 99.979784 
z
" style="fill:#cccccc;stroke:#ffffff;stroke-linejoin:miter;"/>
   </g>
   <g id="PathCollection_7">
    <defs>
     <path d="M 0 1.5 
C 0.397805 1.5 0.77937 1.341951 1.06066 1.06066 
C 1.341951 0.77937 1.5 0.397805 1.5 -0 
C 1.5 -0.397805 1.341951 -0.77937 1.06066 -1.06066 
C 0.77937 -1.341951 0.397805 -1.5 0 -1.5 
C -0.397805 -1.5 -0.77937 -1.341951 -1.06066 -1.06066 
C -1.341951 -0.77937 -1.5 -0.397805 -1.5 0 
C -1.5 0.397805 -1.341951 0.77937 -1.06066 1.06066 
C -0.77937 1.341951 -0.397805 1.5 0 1.5 
z
" id="C3_0_71508bd8a1"/>
    </defs>
    <g clip-path="url(#pa810dc7212)">
     <use style="fill:#ff00ff;" x="361.581818" xlink:href="#C3_0_71508bd8a1" y="120.356415"/>
    </g>
    <g clip-path="url(#pa810dc7212)">
     <use style="fill:#ff00ff;" x="361.581818" xlink:href="#C3_0_71508bd8a1" y="112.187395"/>
    </g>
    <g clip-path="url(#pa810dc7212)">
     <use style="fill:#ff00ff;" x="361.581818" xlink:href="#C3_0_71508bd8a1" y="103.984092"/>
    </g>
    <g clip-path="url(#pa810dc7212)">
     <use style="fill:#ff00ff;" x="361.581818" xlink:href="#C3_0_71508bd8a1" y="114.046783"/>
    </g>
    <g clip-path="url(#pa810dc7212)">
     <use style="fill:#ff00ff;" x="361.581818" xlink:href="#C3_0_71508bd8a1" y="114.532888"/>
    </g>
    <g clip-path="url(#pa810dc7212)">
     <use style="fill:#ff00ff;" x="361.581818" xlink:href="#C3_0_71508bd8a1" y="121.784122"/>
    </g>
    <g clip-path="url(#pa810dc7212)">
     <use style="fill:#ff00ff;" x="361.581818" xlink:href="#C3_0_71508bd8a1" y="114.343965"/>
    </g>
    <g clip-path="url(#pa810dc7212)">
     <use style="fill:#ff00ff;" x="361.581818" xlink:href="#C3_0_71508bd8a1" y="109.875879"/>
    </g>
   </g>
   <g id="PathCollection_8">
    <defs>
     <path d="M 0 1.5 
C 0.397805 1.5 0.77937 1.341951 1.06066 1.06066 
C 1.341951 0.77937 1.5 0.397805 1.5 -0 
C 1.5 -0.397805 1.341951 -0.77937 1.06066 -1.06066 
C 0.77937 -1.341951 0.397805 -1.5 0 -1.5 
C -0.397805 -1.5 -0.77937 -1.341951 -1.06066 -1.06066 
C -1.341951 -0.77937 -1.5 -0.397805 -1.5 0 
C -1.5 0.397805 -1.341951 0.77937 -1.06066 1.06066 
C -0.77937 1.341951 -0.397805 1.5 0 1.5 
z
" id="C4_0_5bd8f196eb"/>
    </defs>
    <g clip-path="url(#pa810dc7212)">
     <use style="fill:#ffa500;" x="388.309091" xlink:href="#C4_0_5bd8f196eb" y="104.930123"/>
    </g>
    <g clip-path="url(#pa810dc7212)">
     <use style="fill:#ffa500;" x="388.309091" xlink:href="#C4_0_5bd8f196eb" y="123.720841"/>
    </g>
    <g clip-path="url(#pa810dc7212)">
     <use style="fill:#ffa500;" x="388.309091" xlink:href="#C4_0_5bd8f196eb" y="98.272438"/>
    </g>
    <g clip-path="url(#pa810dc7212)">
     <use style="fill:#ffa500;" x="388.309091" xlink:href="#C4_0_5bd8f196eb" y="72.208086"/>
    </g>
    <g clip-path="url(#pa810dc7212)">
     <use style="fill:#ffa500;" x="388.309091" xlink:href="#C4_0_5bd8f196eb" y="104.597108"/>
    </g>
    <g clip-path="url(#pa810dc7212)">
     <use style="fill:#ffa500;" x="388.309091" xlink:href="#C4_0_5bd8f196eb" y="118.922667"/>
    </g>
    <g clip-path="url(#pa810dc7212)">
     <use style="fill:#ffa500;" x="388.309091" xlink:href="#C4_0_5bd8f196eb" y="82.389277"/>
    </g>
   </g>
   <g id="PathCollection_9">
    <defs>
     <path d="M 0 1.5 
C 0.397805 1.5 0.77937 1.341951 1.06066 1.06066 
C 1.341951 0.77937 1.5 0.397805 1.5 -0 
C 1.5 -0.397805 1.341951 -0.77937 1.06066 -1.06066 
C 0.77937 -1.341951 0.397805 -1.5 0 -1.5 
C -0.397805 -1.5 -0.77937 -1.341951 -1.06066 -1.06066 
C -1.341951 -0.77937 -1.5 -0.397805 -1.5 0 
C -1.5 0.397805 -1.341951 0.77937 -1.06066 1.06066 
C -0.77937 1.341951 -0.397805 1.5 0 1.5 
z
" id="C5_0_8d9437db92"/>
    </defs>
    <g clip-path="url(#pa810dc7212)">
     <use style="fill:#1e90ff;" x="415.036364" xlink:href="#C5_0_8d9437db92" y="70.19795"/>
    </g>
    <g clip-path="url(#pa810dc7212)">
     <use style="fill:#1e90ff;" x="415.036364" xlink:href="#C5_0_8d9437db92" y="94.385891"/>
    </g>
    <g clip-path="url(#pa810dc7212)">
     <use style="fill:#1e90ff;" x="415.036364" xlink:href="#C5_0_8d9437db92" y="105.539684"/>
    </g>
    <g clip-path="url(#pa810dc7212)">
     <use style="fill:#1e90ff;" x="415.036364" xlink:href="#C5_0_8d9437db92" y="101.028242"/>
    </g>
    <g clip-path="url(#pa810dc7212)">
     <use style="fill:#1e90ff;" x="415.036364" xlink:href="#C5_0_8d9437db92" y="108.935716"/>
    </g>
    <g clip-path="url(#pa810dc7212)">
     <use style="fill:#1e90ff;" x="415.036364" xlink:href="#C5_0_8d9437db92" y="94.265911"/>
    </g>
    <g clip-path="url(#pa810dc7212)">
     <use style="fill:#1e90ff;" x="415.036364" xlink:href="#C5_0_8d9437db92" y="116.496548"/>
    </g>
    <g clip-path="url(#pa810dc7212)">
     <use style="fill:#1e90ff;" x="415.036364" xlink:href="#C5_0_8d9437db92" y="108.988332"/>
    </g>
   </g>
   <g id="matplotlib.axis_5">
    <g id="xtick_10">
     <g id="line2d_51"/>
     <g id="text_30">
      <text style="fill:#1a1a1a;font-family:DejaVu Sans;font-size:6px;font-stretch:normal;font-style:normal;font-weight:normal;text-anchor:middle;" transform="rotate(-0, 361.581818, 150.749972)" x="361.581818" y="150.749972">V1</text>
     </g>
    </g>
    <g id="xtick_11">
     <g id="line2d_52"/>
     <g id="text_31">
      <text style="fill:#1a1a1a;font-family:DejaVu Sans;font-size:6px;font-stretch:normal;font-style:normal;font-weight:normal;text-anchor:middle;" transform="rotate(-0, 388.309091, 150.749972)" x="388.309091" y="150.749972">Lm</text>
     </g>
    </g>
    <g id="xtick_12">
     <g id="line2d_53"/>
     <g id="text_32">
      <text style="fill:#1a1a1a;font-family:DejaVu Sans;font-size:6px;font-stretch:normal;font-style:normal;font-weight:normal;text-anchor:middle;" transform="rotate(-0, 415.036364, 150.749972)" x="415.036364" y="150.749972">Li</text>
     </g>
    </g>
   </g>
   <g id="matplotlib.axis_6">
    <g id="ytick_13">
     <g id="line2d_54">
      <g>
       <use style="fill:#1a1a1a;stroke:#1a1a1a;stroke-width:0.25;" x="346.218182" xlink:href="#m2def47c962" y="142.690909"/>
      </g>
     </g>
     <g id="text_33">
      <text style="fill:#1a1a1a;font-family:DejaVu Sans;font-size:6px;font-stretch:normal;font-style:normal;font-weight:normal;text-anchor:end;" transform="rotate(-0, 336.718182, 144.97044)" x="336.718182" y="144.97044">0</text>
     </g>
    </g>
    <g id="ytick_14">
     <g id="line2d_55">
      <g>
       <use style="fill:#1a1a1a;stroke:#1a1a1a;stroke-width:0.25;" x="346.218182" xlink:href="#m2def47c962" y="126.8447"/>
      </g>
     </g>
     <g id="text_34">
      <text style="fill:#1a1a1a;font-family:DejaVu Sans;font-size:6px;font-stretch:normal;font-style:normal;font-weight:normal;text-anchor:end;" transform="rotate(-0, 336.718182, 129.124231)" x="336.718182" y="129.124231">1</text>
     </g>
    </g>
    <g id="ytick_15">
     <g id="line2d_56">
      <g>
       <use style="fill:#1a1a1a;stroke:#1a1a1a;stroke-width:0.25;" x="346.218182" xlink:href="#m2def47c962" y="110.998491"/>
      </g>
     </g>
     <g id="text_35">
      <text style="fill:#1a1a1a;font-family:DejaVu Sans;font-size:6px;font-stretch:normal;font-style:normal;font-weight:normal;text-anchor:end;" transform="rotate(-0, 336.718182, 113.278022)" x="336.718182" y="113.278022">2</text>
     </g>
    </g>
    <g id="ytick_16">
     <g id="line2d_57">
      <g>
       <use style="fill:#1a1a1a;stroke:#1a1a1a;stroke-width:0.25;" x="346.218182" xlink:href="#m2def47c962" y="95.152282"/>
      </g>
     </g>
     <g id="text_36">
      <text style="fill:#1a1a1a;font-family:DejaVu Sans;font-size:6px;font-stretch:normal;font-style:normal;font-weight:normal;text-anchor:end;" transform="rotate(-0, 336.718182, 97.431813)" x="336.718182" y="97.431813">3</text>
     </g>
    </g>
    <g id="ytick_17">
     <g id="line2d_58">
      <g>
       <use style="fill:#1a1a1a;stroke:#1a1a1a;stroke-width:0.25;" x="346.218182" xlink:href="#m2def47c962" y="79.306073"/>
      </g>
     </g>
     <g id="text_37">
      <text style="fill:#1a1a1a;font-family:DejaVu Sans;font-size:6px;font-stretch:normal;font-style:normal;font-weight:normal;text-anchor:end;" transform="rotate(-0, 336.718182, 81.585604)" x="336.718182" y="81.585604">4</text>
     </g>
    </g>
    <g id="ytick_18">
     <g id="line2d_59">
      <g>
       <use style="fill:#1a1a1a;stroke:#1a1a1a;stroke-width:0.25;" x="346.218182" xlink:href="#m2def47c962" y="63.459863"/>
      </g>
     </g>
     <g id="text_38">
      <text style="fill:#1a1a1a;font-family:DejaVu Sans;font-size:6px;font-stretch:normal;font-style:normal;font-weight:normal;text-anchor:end;" transform="rotate(-0, 336.718182, 65.739395)" x="336.718182" y="65.739395">5</text>
     </g>
    </g>
    <g id="text_39">
     <text style="fill:#1a1a1a;font-family:DejaVu Sans;font-size:6px;font-stretch:normal;font-style:normal;font-weight:normal;text-anchor:middle;" transform="rotate(-90, 327.652869, 102.6)" x="327.652869" y="102.6">ratio EL:AZ</text>
    </g>
   </g>
   <g id="PathCollection_10"/>
   <g id="PathCollection_11"/>
   <g id="PathCollection_12"/>
   <g id="patch_19">
    <path d="M 346.218182 142.690909 
L 346.218182 62.509091 
" style="fill:none;stroke:#1a1a1a;stroke-linecap:square;stroke-linejoin:miter;stroke-width:0.25;"/>
   </g>
  </g>
  <g id="text_40">
   <text style="fill:#262626;font-family:DejaVu Sans;font-size:8px;font-stretch:normal;font-style:normal;font-weight:normal;text-anchor:start;" transform="rotate(-0, 0, 6.11375)" x="0" y="6.11375">traces001|fit-2dgaus_dff-no-cutoff</text>
  </g>
 </g>
 <defs>
  <clipPath id="pae2c79ad3f">
   <rect height="80.181818" width="80.181818" x="75.6" y="62.509091"/>
  </clipPath>
  <clipPath id="p3eacfe024f">
   <rect height="80.181818" width="80.181818" x="211.909091" y="62.509091"/>
  </clipPath>
  <clipPath id="pa810dc7212">
   <rect height="80.181818" width="80.181818" x="348.218182" y="62.509091"/>
  </clipPath>
 </defs>
</svg>
