<?xml version="1.0" encoding="utf-8" standalone="no"?>
<!DOCTYPE svg PUBLIC "-//W3C//DTD SVG 1.1//EN"
  "http://www.w3.org/Graphics/SVG/1.1/DTD/svg11.dtd">
<!-- Created with matplotlib (https://matplotlib.org/) -->
<svg height="216pt" version="1.1" viewBox="0 0 216 216" width="216pt" xmlns="http://www.w3.org/2000/svg" xmlns:xlink="http://www.w3.org/1999/xlink">
 <metadata>
  <rdf:RDF xmlns:cc="http://creativecommons.org/ns#" xmlns:dc="http://purl.org/dc/elements/1.1/" xmlns:rdf="http://www.w3.org/1999/02/22-rdf-syntax-ns#">
   <cc:Work>
    <dc:type rdf:resource="http://purl.org/dc/dcmitype/StillImage"/>
    <dc:date>2021-12-17T18:04:01.089806</dc:date>
    <dc:format>image/svg+xml</dc:format>
    <dc:creator>
     <cc:Agent>
      <dc:title>Matplotlib v3.3.4, https://matplotlib.org/</dc:title>
     </cc:Agent>
    </dc:creator>
   </cc:Work>
  </rdf:RDF>
 </metadata>
 <defs>
  <style type="text/css">*{stroke-linecap:butt;stroke-linejoin:round;}</style>
 </defs>
 <g id="figure_1">
  <g id="patch_1">
   <path d="M 0 216 
L 216 216 
L 216 0 
L 0 0 
z
" style="fill:#ffffff;"/>
  </g>
  <g id="axes_1">
   <g id="patch_2">
    <path d="M 64.8 172.8 
L 151.2 172.8 
L 151.2 43.2 
L 64.8 43.2 
z
" style="fill:#ffffff;"/>
   </g>
   <g id="patch_3">
    <path clip-path="url(#p2e822d32e2)" d="M 67.68 146.793568 
L 90.72 146.793568 
L 90.72 106.292933 
L 67.68 106.292933 
z
" style="fill:#cccccc;"/>
   </g>
   <g id="patch_4">
    <path clip-path="url(#p2e822d32e2)" d="M 96.48 146.793568 
L 119.52 146.793568 
L 119.52 120.305555 
L 96.48 120.305555 
z
" style="fill:#cccccc;"/>
   </g>
   <g id="patch_5">
    <path clip-path="url(#p2e822d32e2)" d="M 125.28 146.793568 
L 148.32 146.793568 
L 148.32 134.191203 
L 125.28 134.191203 
z
" style="fill:#cccccc;"/>
   </g>
   <g id="PathCollection_1">
    <defs>
     <path d="M 0 1.25 
C 0.331504 1.25 0.649475 1.118292 0.883883 0.883883 
C 1.118292 0.649475 1.25 0.331504 1.25 -0 
C 1.25 -0.331504 1.118292 -0.649475 0.883883 -0.883883 
C 0.649475 -1.118292 0.331504 -1.25 0 -1.25 
C -0.331504 -1.25 -0.649475 -1.118292 -0.883883 -0.883883 
C -1.118292 -0.649475 -1.25 -0.331504 -1.25 0 
C -1.25 0.331504 -1.118292 0.649475 -0.883883 0.883883 
C -0.649475 1.118292 -0.331504 1.25 0 1.25 
z
" id="C0_0_fc98d31fc7"/>
    </defs>
    <g clip-path="url(#p2e822d32e2)">
     <use style="fill:#ff00ff;" x="79.2" xlink:href="#C0_0_fc98d31fc7" y="152.691343"/>
    </g>
    <g clip-path="url(#p2e822d32e2)">
     <use style="fill:#ff00ff;" x="79.2" xlink:href="#C0_0_fc98d31fc7" y="125.801515"/>
    </g>
    <g clip-path="url(#p2e822d32e2)">
     <use style="fill:#ff00ff;" x="79.2" xlink:href="#C0_0_fc98d31fc7" y="164.774783"/>
    </g>
    <g clip-path="url(#p2e822d32e2)">
     <use style="fill:#ff00ff;" x="79.2" xlink:href="#C0_0_fc98d31fc7" y="80.454825"/>
    </g>
    <g clip-path="url(#p2e822d32e2)">
     <use style="fill:#ff00ff;" x="79.2" xlink:href="#C0_0_fc98d31fc7" y="94.621006"/>
    </g>
    <g clip-path="url(#p2e822d32e2)">
     <use style="fill:#ff00ff;" x="79.2" xlink:href="#C0_0_fc98d31fc7" y="62.589696"/>
    </g>
    <g clip-path="url(#p2e822d32e2)">
     <use style="fill:#ff00ff;" x="79.2" xlink:href="#C0_0_fc98d31fc7" y="89.488187"/>
    </g>
    <g clip-path="url(#p2e822d32e2)">
     <use style="fill:#ff00ff;" x="79.2" xlink:href="#C0_0_fc98d31fc7" y="49.090909"/>
    </g>
    <g clip-path="url(#p2e822d32e2)">
     <use style="fill:#ff00ff;" x="79.2" xlink:href="#C0_0_fc98d31fc7" y="137.124135"/>
    </g>
   </g>
   <g id="PathCollection_2">
    <defs>
     <path d="M 0 1.25 
C 0.331504 1.25 0.649475 1.118292 0.883883 0.883883 
C 1.118292 0.649475 1.25 0.331504 1.25 -0 
C 1.25 -0.331504 1.118292 -0.649475 0.883883 -0.883883 
C 0.649475 -1.118292 0.331504 -1.25 0 -1.25 
C -0.331504 -1.25 -0.649475 -1.118292 -0.883883 -0.883883 
C -1.118292 -0.649475 -1.25 -0.331504 -1.25 0 
C -1.25 0.331504 -1.118292 0.649475 -0.883883 0.883883 
C -0.649475 1.118292 -0.331504 1.25 0 1.25 
z
" id="C1_0_555aefcc3a"/>
    </defs>
    <g clip-path="url(#p2e822d32e2)">
     <use style="fill:#ffa500;" x="108" xlink:href="#C1_0_555aefcc3a" y="134.789337"/>
    </g>
    <g clip-path="url(#p2e822d32e2)">
     <use style="fill:#ffa500;" x="108" xlink:href="#C1_0_555aefcc3a" y="143.754418"/>
    </g>
    <g clip-path="url(#p2e822d32e2)">
     <use style="fill:#ffa500;" x="108" xlink:href="#C1_0_555aefcc3a" y="166.909091"/>
    </g>
    <g clip-path="url(#p2e822d32e2)">
     <use style="fill:#ffa500;" x="108" xlink:href="#C1_0_555aefcc3a" y="91.309424"/>
    </g>
    <g clip-path="url(#p2e822d32e2)">
     <use style="fill:#ffa500;" x="108" xlink:href="#C1_0_555aefcc3a" y="89.894819"/>
    </g>
    <g clip-path="url(#p2e822d32e2)">
     <use style="fill:#ffa500;" x="108" xlink:href="#C1_0_555aefcc3a" y="133.202664"/>
    </g>
    <g clip-path="url(#p2e822d32e2)">
     <use style="fill:#ffa500;" x="108" xlink:href="#C1_0_555aefcc3a" y="71.699711"/>
    </g>
    <g clip-path="url(#p2e822d32e2)">
     <use style="fill:#ffa500;" x="108" xlink:href="#C1_0_555aefcc3a" y="100.7397"/>
    </g>
    <g clip-path="url(#p2e822d32e2)">
     <use style="fill:#ffa500;" x="108" xlink:href="#C1_0_555aefcc3a" y="150.450834"/>
    </g>
   </g>
   <g id="PathCollection_3">
    <defs>
     <path d="M 0 1.25 
C 0.331504 1.25 0.649475 1.118292 0.883883 0.883883 
C 1.118292 0.649475 1.25 0.331504 1.25 -0 
C 1.25 -0.331504 1.118292 -0.649475 0.883883 -0.883883 
C 0.649475 -1.118292 0.331504 -1.25 0 -1.25 
C -0.331504 -1.25 -0.649475 -1.118292 -0.883883 -0.883883 
C -1.118292 -0.649475 -1.25 -0.331504 -1.25 0 
C -1.25 0.331504 -1.118292 0.649475 -0.883883 0.883883 
C -0.649475 1.118292 -0.331504 1.25 0 1.25 
z
" id="C2_0_aa7ba392db"/>
    </defs>
    <g clip-path="url(#p2e822d32e2)">
     <use style="fill:#1e90ff;" x="136.8" xlink:href="#C2_0_aa7ba392db" y="132.003023"/>
    </g>
    <g clip-path="url(#p2e822d32e2)">
     <use style="fill:#1e90ff;" x="136.8" xlink:href="#C2_0_aa7ba392db" y="157.373281"/>
    </g>
    <g clip-path="url(#p2e822d32e2)">
     <use style="fill:#1e90ff;" x="136.8" xlink:href="#C2_0_aa7ba392db" y="139.107183"/>
    </g>
    <g clip-path="url(#p2e822d32e2)">
     <use style="fill:#1e90ff;" x="136.8" xlink:href="#C2_0_aa7ba392db" y="63.576151"/>
    </g>
    <g clip-path="url(#p2e822d32e2)">
     <use style="fill:#1e90ff;" x="136.8" xlink:href="#C2_0_aa7ba392db" y="141.585082"/>
    </g>
    <g clip-path="url(#p2e822d32e2)">
     <use style="fill:#1e90ff;" x="136.8" xlink:href="#C2_0_aa7ba392db" y="145.985849"/>
    </g>
    <g clip-path="url(#p2e822d32e2)">
     <use style="fill:#1e90ff;" x="136.8" xlink:href="#C2_0_aa7ba392db" y="144.811737"/>
    </g>
    <g clip-path="url(#p2e822d32e2)">
     <use style="fill:#1e90ff;" x="136.8" xlink:href="#C2_0_aa7ba392db" y="149.087318"/>
    </g>
   </g>
   <g id="PathCollection_4"/>
   <g id="PathCollection_5"/>
   <g id="PathCollection_6"/>
   <g id="matplotlib.axis_1">
    <g id="xtick_1">
     <g id="line2d_1"/>
     <g id="text_1">
      <text style="font-family:DejaVu Sans;font-size:6px;font-stretch:normal;font-style:normal;font-weight:normal;text-anchor:middle;" transform="rotate(-0, 79.2, 180.859062)" x="79.2" y="180.859062">V1</text>
     </g>
    </g>
    <g id="xtick_2">
     <g id="line2d_2"/>
     <g id="text_2">
      <text style="font-family:DejaVu Sans;font-size:6px;font-stretch:normal;font-style:normal;font-weight:normal;text-anchor:middle;" transform="rotate(-0, 108, 180.859062)" x="108" y="180.859062">Lm</text>
     </g>
    </g>
    <g id="xtick_3">
     <g id="line2d_3"/>
     <g id="text_3">
      <text style="font-family:DejaVu Sans;font-size:6px;font-stretch:normal;font-style:normal;font-weight:normal;text-anchor:middle;" transform="rotate(-0, 136.8, 180.859062)" x="136.8" y="180.859062">Li</text>
     </g>
    </g>
   </g>
   <g id="matplotlib.axis_2">
    <g id="ytick_1">
     <g id="line2d_4">
      <defs>
       <path d="M 0 0 
L -3.5 0 
" id="m1263ce92a4" style="stroke:#000000;stroke-width:0.25;"/>
      </defs>
      <g>
       <use style="stroke:#000000;stroke-width:0.25;" x="62.8" xlink:href="#m1263ce92a4" y="164.069522"/>
      </g>
     </g>
     <g id="text_4">
      <text style="font-family:DejaVu Sans;font-size:6px;font-stretch:normal;font-style:normal;font-weight:normal;text-anchor:end;" transform="rotate(-0, 55.8, 166.349053)" x="55.8" y="166.349053">−0.05</text>
     </g>
    </g>
    <g id="ytick_2">
     <g id="line2d_5">
      <g>
       <use style="stroke:#000000;stroke-width:0.25;" x="62.8" xlink:href="#m1263ce92a4" y="146.793568"/>
      </g>
     </g>
     <g id="text_5">
      <text style="font-family:DejaVu Sans;font-size:6px;font-stretch:normal;font-style:normal;font-weight:normal;text-anchor:end;" transform="rotate(-0, 55.8, 149.073099)" x="55.8" y="149.073099">0.00</text>
     </g>
    </g>
    <g id="ytick_3">
     <g id="line2d_6">
      <g>
       <use style="stroke:#000000;stroke-width:0.25;" x="62.8" xlink:href="#m1263ce92a4" y="129.517614"/>
      </g>
     </g>
     <g id="text_6">
      <text style="font-family:DejaVu Sans;font-size:6px;font-stretch:normal;font-style:normal;font-weight:normal;text-anchor:end;" transform="rotate(-0, 55.8, 131.797145)" x="55.8" y="131.797145">0.05</text>
     </g>
    </g>
    <g id="ytick_4">
     <g id="line2d_7">
      <g>
       <use style="stroke:#000000;stroke-width:0.25;" x="62.8" xlink:href="#m1263ce92a4" y="112.241659"/>
      </g>
     </g>
     <g id="text_7">
      <text style="font-family:DejaVu Sans;font-size:6px;font-stretch:normal;font-style:normal;font-weight:normal;text-anchor:end;" transform="rotate(-0, 55.8, 114.52119)" x="55.8" y="114.52119">0.10</text>
     </g>
    </g>
    <g id="ytick_5">
     <g id="line2d_8">
      <g>
       <use style="stroke:#000000;stroke-width:0.25;" x="62.8" xlink:href="#m1263ce92a4" y="94.965705"/>
      </g>
     </g>
     <g id="text_8">
      <text style="font-family:DejaVu Sans;font-size:6px;font-stretch:normal;font-style:normal;font-weight:normal;text-anchor:end;" transform="rotate(-0, 55.8, 97.245236)" x="55.8" y="97.245236">0.15</text>
     </g>
    </g>
    <g id="ytick_6">
     <g id="line2d_9">
      <g>
       <use style="stroke:#000000;stroke-width:0.25;" x="62.8" xlink:href="#m1263ce92a4" y="77.68975"/>
      </g>
     </g>
     <g id="text_9">
      <text style="font-family:DejaVu Sans;font-size:6px;font-stretch:normal;font-style:normal;font-weight:normal;text-anchor:end;" transform="rotate(-0, 55.8, 79.969282)" x="55.8" y="79.969282">0.20</text>
     </g>
    </g>
    <g id="ytick_7">
     <g id="line2d_10">
      <g>
       <use style="stroke:#000000;stroke-width:0.25;" x="62.8" xlink:href="#m1263ce92a4" y="60.413796"/>
      </g>
     </g>
     <g id="text_10">
      <text style="font-family:DejaVu Sans;font-size:6px;font-stretch:normal;font-style:normal;font-weight:normal;text-anchor:end;" transform="rotate(-0, 55.8, 62.693327)" x="55.8" y="62.693327">0.25</text>
     </g>
    </g>
    <g id="text_11">
     <text style="font-family:DejaVu Sans;font-size:7px;font-stretch:normal;font-style:normal;font-weight:normal;" transform="translate(24.118562 147.604141)rotate(-90)">decoding performance</text>
     <text style="font-family:DejaVu Sans;font-size:7px;font-stretch:normal;font-style:normal;font-weight:normal;" transform="translate(31.957031 155.873984)rotate(-90)">([shuff-intact] over chance)</text>
    </g>
   </g>
   <g id="patch_6">
    <path d="M 62.8 172.8 
L 62.8 43.2 
" style="fill:none;stroke:#000000;stroke-linecap:square;stroke-linejoin:miter;stroke-width:0.25;"/>
   </g>
  </g>
  <g id="text_12">
   <text style="font-family:DejaVu Sans;font-size:7px;font-stretch:normal;font-style:normal;font-weight:normal;" transform="translate(2.16 13.566844)">[blobs] Relative scores, shuffled_v_intact</text>
   <text style="font-family:DejaVu Sans;font-size:7px;font-stretch:normal;font-style:normal;font-weight:normal;" transform="translate(2.16 21.6)">(unique data, min_ncells=10)</text>
  </g>
  <g id="text_13">
   <text style="font-family:DejaVu Sans;font-size:8px;font-stretch:normal;font-style:normal;font-weight:normal;text-anchor:start;" transform="rotate(-0, 0, 6.11375)" x="0" y="6.11375">traces001|dff_responsive-ROC-thr0.05</text>
  </g>
 </g>
 <defs>
  <clipPath id="p2e822d32e2">
   <rect height="129.6" width="86.4" x="64.8" y="43.2"/>
  </clipPath>
 </defs>
</svg>
