<?xml version="1.0" encoding="utf-8" standalone="no"?>
<!DOCTYPE svg PUBLIC "-//W3C//DTD SVG 1.1//EN"
  "http://www.w3.org/Graphics/SVG/1.1/DTD/svg11.dtd">
<!-- Created with matplotlib (https://matplotlib.org/) -->
<svg height="216pt" version="1.1" viewBox="0 0 216 216" width="216pt" xmlns="http://www.w3.org/2000/svg" xmlns:xlink="http://www.w3.org/1999/xlink">
 <metadata>
  <rdf:RDF xmlns:cc="http://creativecommons.org/ns#" xmlns:dc="http://purl.org/dc/elements/1.1/" xmlns:rdf="http://www.w3.org/1999/02/22-rdf-syntax-ns#">
   <cc:Work>
    <dc:type rdf:resource="http://purl.org/dc/dcmitype/StillImage"/>
    <dc:date>2021-12-17T18:03:24.856391</dc:date>
    <dc:format>image/svg+xml</dc:format>
    <dc:creator>
     <cc:Agent>
      <dc:title>Matplotlib v3.3.4, https://matplotlib.org/</dc:title>
     </cc:Agent>
    </dc:creator>
   </cc:Work>
  </rdf:RDF>
 </metadata>
 <defs>
  <style type="text/css">*{stroke-linecap:butt;stroke-linejoin:round;}</style>
 </defs>
 <g id="figure_1">
  <g id="patch_1">
   <path d="M 0 216 
L 216 216 
L 216 0 
L 0 0 
z
" style="fill:#ffffff;"/>
  </g>
  <g id="axes_1">
   <g id="patch_2">
    <path d="M 64.8 172.8 
L 151.2 172.8 
L 151.2 43.2 
L 64.8 43.2 
z
" style="fill:#ffffff;"/>
   </g>
   <g id="patch_3">
    <path clip-path="url(#p20bd253d74)" d="M 68.727273 172.8 
L 91.168831 172.8 
L 91.168831 90.307903 
L 68.727273 90.307903 
z
" style="fill:#cccccc;"/>
   </g>
   <g id="patch_4">
    <path clip-path="url(#p20bd253d74)" d="M 96.779221 172.8 
L 119.220779 172.8 
L 119.220779 100.524733 
L 96.779221 100.524733 
z
" style="fill:#cccccc;"/>
   </g>
   <g id="patch_5">
    <path clip-path="url(#p20bd253d74)" d="M 124.831169 172.8 
L 147.272727 172.8 
L 147.272727 104.053866 
L 124.831169 104.053866 
z
" style="fill:#cccccc;"/>
   </g>
   <g id="PathCollection_1">
    <defs>
     <path d="M 0 1.25 
C 0.331504 1.25 0.649475 1.118292 0.883883 0.883883 
C 1.118292 0.649475 1.25 0.331504 1.25 -0 
C 1.25 -0.331504 1.118292 -0.649475 0.883883 -0.883883 
C 0.649475 -1.118292 0.331504 -1.25 0 -1.25 
C -0.331504 -1.25 -0.649475 -1.118292 -0.883883 -0.883883 
C -1.118292 -0.649475 -1.25 -0.331504 -1.25 0 
C -1.25 0.331504 -1.118292 0.649475 -0.883883 0.883883 
C -0.649475 1.118292 -0.331504 1.25 0 1.25 
z
" id="C0_0_a31d410a63"/>
    </defs>
    <g clip-path="url(#p20bd253d74)">
     <use style="fill:#ff00ff;" x="79.948052" xlink:href="#C0_0_a31d410a63" y="100.990273"/>
    </g>
    <g clip-path="url(#p20bd253d74)">
     <use style="fill:#ff00ff;" x="79.948052" xlink:href="#C0_0_a31d410a63" y="69.942857"/>
    </g>
    <g clip-path="url(#p20bd253d74)">
     <use style="fill:#ff00ff;" x="79.948052" xlink:href="#C0_0_a31d410a63" y="104.693806"/>
    </g>
    <g clip-path="url(#p20bd253d74)">
     <use style="fill:#ff00ff;" x="79.948052" xlink:href="#C0_0_a31d410a63" y="83.633211"/>
    </g>
    <g clip-path="url(#p20bd253d74)">
     <use style="fill:#ff00ff;" x="79.948052" xlink:href="#C0_0_a31d410a63" y="92.046561"/>
    </g>
    <g clip-path="url(#p20bd253d74)">
     <use style="fill:#ff00ff;" x="79.948052" xlink:href="#C0_0_a31d410a63" y="88.765141"/>
    </g>
    <g clip-path="url(#p20bd253d74)">
     <use style="fill:#ff00ff;" x="79.948052" xlink:href="#C0_0_a31d410a63" y="89.598501"/>
    </g>
    <g clip-path="url(#p20bd253d74)">
     <use style="fill:#ff00ff;" x="79.948052" xlink:href="#C0_0_a31d410a63" y="91.921032"/>
    </g>
    <g clip-path="url(#p20bd253d74)">
     <use style="fill:#ff00ff;" x="79.948052" xlink:href="#C0_0_a31d410a63" y="91.179747"/>
    </g>
   </g>
   <g id="PathCollection_2">
    <defs>
     <path d="M 0 1.25 
C 0.331504 1.25 0.649475 1.118292 0.883883 0.883883 
C 1.118292 0.649475 1.25 0.331504 1.25 -0 
C 1.25 -0.331504 1.118292 -0.649475 0.883883 -0.883883 
C 0.649475 -1.118292 0.331504 -1.25 0 -1.25 
C -0.331504 -1.25 -0.649475 -1.118292 -0.883883 -0.883883 
C -1.118292 -0.649475 -1.25 -0.331504 -1.25 0 
C -1.25 0.331504 -1.118292 0.649475 -0.883883 0.883883 
C -0.649475 1.118292 -0.331504 1.25 0 1.25 
z
" id="C1_0_f737bd9dc3"/>
    </defs>
    <g clip-path="url(#p20bd253d74)">
     <use style="fill:#ffa500;" x="108" xlink:href="#C1_0_f737bd9dc3" y="108.229698"/>
    </g>
    <g clip-path="url(#p20bd253d74)">
     <use style="fill:#ffa500;" x="108" xlink:href="#C1_0_f737bd9dc3" y="104.825749"/>
    </g>
    <g clip-path="url(#p20bd253d74)">
     <use style="fill:#ffa500;" x="108" xlink:href="#C1_0_f737bd9dc3" y="99.933403"/>
    </g>
    <g clip-path="url(#p20bd253d74)">
     <use style="fill:#ffa500;" x="108" xlink:href="#C1_0_f737bd9dc3" y="96.372263"/>
    </g>
    <g clip-path="url(#p20bd253d74)">
     <use style="fill:#ffa500;" x="108" xlink:href="#C1_0_f737bd9dc3" y="96.42271"/>
    </g>
    <g clip-path="url(#p20bd253d74)">
     <use style="fill:#ffa500;" x="108" xlink:href="#C1_0_f737bd9dc3" y="92.127467"/>
    </g>
    <g clip-path="url(#p20bd253d74)">
     <use style="fill:#ffa500;" x="108" xlink:href="#C1_0_f737bd9dc3" y="94.642301"/>
    </g>
    <g clip-path="url(#p20bd253d74)">
     <use style="fill:#ffa500;" x="108" xlink:href="#C1_0_f737bd9dc3" y="108.896693"/>
    </g>
    <g clip-path="url(#p20bd253d74)">
     <use style="fill:#ffa500;" x="108" xlink:href="#C1_0_f737bd9dc3" y="103.27231"/>
    </g>
   </g>
   <g id="PathCollection_3">
    <defs>
     <path d="M 0 1.25 
C 0.331504 1.25 0.649475 1.118292 0.883883 0.883883 
C 1.118292 0.649475 1.25 0.331504 1.25 -0 
C 1.25 -0.331504 1.118292 -0.649475 0.883883 -0.883883 
C 0.649475 -1.118292 0.331504 -1.25 0 -1.25 
C -0.331504 -1.25 -0.649475 -1.118292 -0.883883 -0.883883 
C -1.118292 -0.649475 -1.25 -0.331504 -1.25 0 
C -1.25 0.331504 -1.118292 0.649475 -0.883883 0.883883 
C -0.649475 1.118292 -0.331504 1.25 0 1.25 
z
" id="C2_0_47c213c8aa"/>
    </defs>
    <g clip-path="url(#p20bd253d74)">
     <use style="fill:#1e90ff;" x="136.051948" xlink:href="#C2_0_47c213c8aa" y="108.80452"/>
    </g>
    <g clip-path="url(#p20bd253d74)">
     <use style="fill:#1e90ff;" x="136.051948" xlink:href="#C2_0_47c213c8aa" y="106.336576"/>
    </g>
    <g clip-path="url(#p20bd253d74)">
     <use style="fill:#1e90ff;" x="136.051948" xlink:href="#C2_0_47c213c8aa" y="104.473627"/>
    </g>
    <g clip-path="url(#p20bd253d74)">
     <use style="fill:#1e90ff;" x="136.051948" xlink:href="#C2_0_47c213c8aa" y="83.518568"/>
    </g>
    <g clip-path="url(#p20bd253d74)">
     <use style="fill:#1e90ff;" x="136.051948" xlink:href="#C2_0_47c213c8aa" y="106.70787"/>
    </g>
    <g clip-path="url(#p20bd253d74)">
     <use style="fill:#1e90ff;" x="136.051948" xlink:href="#C2_0_47c213c8aa" y="104.731819"/>
    </g>
    <g clip-path="url(#p20bd253d74)">
     <use style="fill:#1e90ff;" x="136.051948" xlink:href="#C2_0_47c213c8aa" y="106.033338"/>
    </g>
    <g clip-path="url(#p20bd253d74)">
     <use style="fill:#1e90ff;" x="136.051948" xlink:href="#C2_0_47c213c8aa" y="111.824612"/>
    </g>
   </g>
   <g id="PathCollection_4"/>
   <g id="PathCollection_5"/>
   <g id="PathCollection_6"/>
   <g id="matplotlib.axis_1">
    <g id="xtick_1">
     <g id="line2d_1"/>
     <g id="text_1">
      <text style="font-family:DejaVu Sans;font-size:6px;font-stretch:normal;font-style:normal;font-weight:normal;text-anchor:middle;" transform="rotate(-0, 79.948052, 180.859062)" x="79.948052" y="180.859062">V1</text>
     </g>
    </g>
    <g id="xtick_2">
     <g id="line2d_2"/>
     <g id="text_2">
      <text style="font-family:DejaVu Sans;font-size:6px;font-stretch:normal;font-style:normal;font-weight:normal;text-anchor:middle;" transform="rotate(-0, 108, 180.859062)" x="108" y="180.859062">Lm</text>
     </g>
    </g>
    <g id="xtick_3">
     <g id="line2d_3"/>
     <g id="text_3">
      <text style="font-family:DejaVu Sans;font-size:6px;font-stretch:normal;font-style:normal;font-weight:normal;text-anchor:middle;" transform="rotate(-0, 136.051948, 180.859062)" x="136.051948" y="180.859062">Li</text>
     </g>
    </g>
   </g>
   <g id="matplotlib.axis_2">
    <g id="ytick_1">
     <g id="line2d_4">
      <defs>
       <path d="M 0 0 
L -3.5 0 
" id="m05bf507000" style="stroke:#000000;stroke-width:0.25;"/>
      </defs>
      <g>
       <use style="stroke:#000000;stroke-width:0.25;" x="62.8" xlink:href="#m05bf507000" y="172.8"/>
      </g>
     </g>
     <g id="text_4">
      <text style="font-family:DejaVu Sans;font-size:6px;font-stretch:normal;font-style:normal;font-weight:normal;text-anchor:end;" transform="rotate(-0, 55.8, 175.079531)" x="55.8" y="175.079531">0.00</text>
     </g>
    </g>
    <g id="ytick_2">
     <g id="line2d_5">
      <g>
       <use style="stroke:#000000;stroke-width:0.25;" x="62.8" xlink:href="#m05bf507000" y="158.1188"/>
      </g>
     </g>
     <g id="text_5">
      <text style="font-family:DejaVu Sans;font-size:6px;font-stretch:normal;font-style:normal;font-weight:normal;text-anchor:end;" transform="rotate(-0, 55.8, 160.398331)" x="55.8" y="160.398331">0.25</text>
     </g>
    </g>
    <g id="ytick_3">
     <g id="line2d_6">
      <g>
       <use style="stroke:#000000;stroke-width:0.25;" x="62.8" xlink:href="#m05bf507000" y="143.437599"/>
      </g>
     </g>
     <g id="text_6">
      <text style="font-family:DejaVu Sans;font-size:6px;font-stretch:normal;font-style:normal;font-weight:normal;text-anchor:end;" transform="rotate(-0, 55.8, 145.717131)" x="55.8" y="145.717131">0.50</text>
     </g>
    </g>
    <g id="ytick_4">
     <g id="line2d_7">
      <g>
       <use style="stroke:#000000;stroke-width:0.25;" x="62.8" xlink:href="#m05bf507000" y="128.756399"/>
      </g>
     </g>
     <g id="text_7">
      <text style="font-family:DejaVu Sans;font-size:6px;font-stretch:normal;font-style:normal;font-weight:normal;text-anchor:end;" transform="rotate(-0, 55.8, 131.03593)" x="55.8" y="131.03593">0.75</text>
     </g>
    </g>
    <g id="ytick_5">
     <g id="line2d_8">
      <g>
       <use style="stroke:#000000;stroke-width:0.25;" x="62.8" xlink:href="#m05bf507000" y="114.075199"/>
      </g>
     </g>
     <g id="text_8">
      <text style="font-family:DejaVu Sans;font-size:6px;font-stretch:normal;font-style:normal;font-weight:normal;text-anchor:end;" transform="rotate(-0, 55.8, 116.35473)" x="55.8" y="116.35473">1.00</text>
     </g>
    </g>
    <g id="ytick_6">
     <g id="line2d_9">
      <g>
       <use style="stroke:#000000;stroke-width:0.25;" x="62.8" xlink:href="#m05bf507000" y="99.393998"/>
      </g>
     </g>
     <g id="text_9">
      <text style="font-family:DejaVu Sans;font-size:6px;font-stretch:normal;font-style:normal;font-weight:normal;text-anchor:end;" transform="rotate(-0, 55.8, 101.67353)" x="55.8" y="101.67353">1.25</text>
     </g>
    </g>
    <g id="ytick_7">
     <g id="line2d_10">
      <g>
       <use style="stroke:#000000;stroke-width:0.25;" x="62.8" xlink:href="#m05bf507000" y="84.712798"/>
      </g>
     </g>
     <g id="text_10">
      <text style="font-family:DejaVu Sans;font-size:6px;font-stretch:normal;font-style:normal;font-weight:normal;text-anchor:end;" transform="rotate(-0, 55.8, 86.992329)" x="55.8" y="86.992329">1.50</text>
     </g>
    </g>
    <g id="ytick_8">
     <g id="line2d_11">
      <g>
       <use style="stroke:#000000;stroke-width:0.25;" x="62.8" xlink:href="#m05bf507000" y="70.031598"/>
      </g>
     </g>
     <g id="text_11">
      <text style="font-family:DejaVu Sans;font-size:6px;font-stretch:normal;font-style:normal;font-weight:normal;text-anchor:end;" transform="rotate(-0, 55.8, 72.311129)" x="55.8" y="72.311129">1.75</text>
     </g>
    </g>
    <g id="ytick_9">
     <g id="line2d_12">
      <g>
       <use style="stroke:#000000;stroke-width:0.25;" x="62.8" xlink:href="#m05bf507000" y="55.350397"/>
      </g>
     </g>
     <g id="text_12">
      <text style="font-family:DejaVu Sans;font-size:6px;font-stretch:normal;font-style:normal;font-weight:normal;text-anchor:end;" transform="rotate(-0, 55.8, 57.629929)" x="55.8" y="57.629929">2.00</text>
     </g>
    </g>
    <g id="text_13">
     <text style="font-family:DejaVu Sans;font-size:7px;font-stretch:normal;font-style:normal;font-weight:normal;" transform="translate(29.146375 147.604141)rotate(-90)">decoding performance</text>
     <text style="font-family:DejaVu Sans;font-size:7px;font-stretch:normal;font-style:normal;font-weight:normal;" transform="translate(36.984844 143.348906)rotate(-90)">(intact over chance)</text>
    </g>
   </g>
   <g id="line2d_13">
    <path clip-path="url(#p20bd253d74)" d="M 136.051948 56.228571 
L 136.051948 56.228571 
L 79.948052 56.228571 
L 79.948052 56.228571 
" style="fill:none;stroke:#000000;stroke-linecap:square;stroke-width:0.25;"/>
   </g>
   <g id="line2d_14">
    <path clip-path="url(#p20bd253d74)" d="M 108 49.371429 
L 108 49.371429 
L 79.948052 49.371429 
L 79.948052 49.371429 
" style="fill:none;stroke:#000000;stroke-linecap:square;stroke-width:0.25;"/>
   </g>
   <g id="patch_6">
    <path d="M 62.8 172.8 
L 62.8 43.2 
" style="fill:none;stroke:#000000;stroke-linecap:square;stroke-linejoin:miter;stroke-width:0.25;"/>
   </g>
   <g id="text_14">
    <text style="font-family:DejaVu Sans;font-size:4px;font-stretch:normal;font-style:normal;font-weight:normal;text-anchor:start;" transform="rotate(-0, 108, 55.371429)" x="108" y="55.371429">*</text>
   </g>
   <g id="text_15">
    <text style="font-family:DejaVu Sans;font-size:4px;font-stretch:normal;font-style:normal;font-weight:normal;text-anchor:start;" transform="rotate(-0, 93.974026, 48.514286)" x="93.974026" y="48.514286">*</text>
   </g>
  </g>
  <g id="text_16">
   <text style="font-family:DejaVu Sans;font-size:7px;font-stretch:normal;font-style:normal;font-weight:normal;" transform="translate(2.16 13.566844)">[blobs] Relative scores, intact_rel</text>
   <text style="font-family:DejaVu Sans;font-size:7px;font-stretch:normal;font-style:normal;font-weight:normal;" transform="translate(2.16 21.6)">(unique data, min_ncells=10)</text>
  </g>
  <g id="text_17">
   <text style="font-family:DejaVu Sans;font-size:8px;font-stretch:normal;font-style:normal;font-weight:normal;text-anchor:start;" transform="rotate(-0, 0, 6.11375)" x="0" y="6.11375">traces001|dff_responsive-ROC-thr0.05</text>
  </g>
 </g>
 <defs>
  <clipPath id="p20bd253d74">
   <rect height="129.6" width="86.4" x="64.8" y="43.2"/>
  </clipPath>
 </defs>
</svg>
