<?xml version="1.0" encoding="utf-8" standalone="no"?>
<!DOCTYPE svg PUBLIC "-//W3C//DTD SVG 1.1//EN"
  "http://www.w3.org/Graphics/SVG/1.1/DTD/svg11.dtd">
<!-- Created with matplotlib (https://matplotlib.org/) -->
<svg height="216pt" version="1.1" viewBox="0 0 216 216" width="216pt" xmlns="http://www.w3.org/2000/svg" xmlns:xlink="http://www.w3.org/1999/xlink">
 <metadata>
  <rdf:RDF xmlns:cc="http://creativecommons.org/ns#" xmlns:dc="http://purl.org/dc/elements/1.1/" xmlns:rdf="http://www.w3.org/1999/02/22-rdf-syntax-ns#">
   <cc:Work>
    <dc:type rdf:resource="http://purl.org/dc/dcmitype/StillImage"/>
    <dc:date>2021-12-18T15:11:24.783745</dc:date>
    <dc:format>image/svg+xml</dc:format>
    <dc:creator>
     <cc:Agent>
      <dc:title>Matplotlib v3.3.4, https://matplotlib.org/</dc:title>
     </cc:Agent>
    </dc:creator>
   </cc:Work>
  </rdf:RDF>
 </metadata>
 <defs>
  <style type="text/css">*{stroke-linecap:butt;stroke-linejoin:round;}</style>
 </defs>
 <g id="figure_1">
  <g id="patch_1">
   <path d="M 0 216 
L 216 216 
L 216 0 
L 0 0 
z
" style="fill:#ffffff;"/>
  </g>
  <g id="axes_1">
   <g id="patch_2">
    <path d="M 64.8 172.8 
L 151.2 172.8 
L 151.2 43.2 
L 64.8 43.2 
z
" style="fill:#ffffff;"/>
   </g>
   <g id="patch_3">
    <path clip-path="url(#p388903b58b)" d="M 67.68 140.4 
L 90.72 140.4 
L 90.72 102.421763 
L 67.68 102.421763 
z
" style="fill:#cccccc;"/>
   </g>
   <g id="patch_4">
    <path clip-path="url(#p388903b58b)" d="M 96.48 140.4 
L 119.52 140.4 
L 119.52 115.561673 
L 96.48 115.561673 
z
" style="fill:#cccccc;"/>
   </g>
   <g id="patch_5">
    <path clip-path="url(#p388903b58b)" d="M 125.28 140.4 
L 148.32 140.4 
L 148.32 128.582516 
L 125.28 128.582516 
z
" style="fill:#cccccc;"/>
   </g>
   <g id="PathCollection_1">
    <defs>
     <path d="M 0 1.5 
C 0.397805 1.5 0.77937 1.341951 1.06066 1.06066 
C 1.341951 0.77937 1.5 0.397805 1.5 -0 
C 1.5 -0.397805 1.341951 -0.77937 1.06066 -1.06066 
C 0.77937 -1.341951 0.397805 -1.5 0 -1.5 
C -0.397805 -1.5 -0.77937 -1.341951 -1.06066 -1.06066 
C -1.341951 -0.77937 -1.5 -0.397805 -1.5 0 
C -1.5 0.397805 -1.341951 0.77937 -1.06066 1.06066 
C -0.77937 1.341951 -0.397805 1.5 0 1.5 
z
" id="C0_0_b2d22d967e"/>
    </defs>
    <g clip-path="url(#p388903b58b)">
     <use style="fill:#ff00ff;" x="79.2" xlink:href="#C0_0_b2d22d967e" y="145.930459"/>
    </g>
    <g clip-path="url(#p388903b58b)">
     <use style="fill:#ff00ff;" x="79.2" xlink:href="#C0_0_b2d22d967e" y="120.715342"/>
    </g>
    <g clip-path="url(#p388903b58b)">
     <use style="fill:#ff00ff;" x="79.2" xlink:href="#C0_0_b2d22d967e" y="157.261337"/>
    </g>
    <g clip-path="url(#p388903b58b)">
     <use style="fill:#ff00ff;" x="79.2" xlink:href="#C0_0_b2d22d967e" y="78.192864"/>
    </g>
    <g clip-path="url(#p388903b58b)">
     <use style="fill:#ff00ff;" x="79.2" xlink:href="#C0_0_b2d22d967e" y="91.476769"/>
    </g>
    <g clip-path="url(#p388903b58b)">
     <use style="fill:#ff00ff;" x="79.2" xlink:href="#C0_0_b2d22d967e" y="61.440384"/>
    </g>
    <g clip-path="url(#p388903b58b)">
     <use style="fill:#ff00ff;" x="79.2" xlink:href="#C0_0_b2d22d967e" y="86.663625"/>
    </g>
    <g clip-path="url(#p388903b58b)">
     <use style="fill:#ff00ff;" x="79.2" xlink:href="#C0_0_b2d22d967e" y="48.782308"/>
    </g>
    <g clip-path="url(#p388903b58b)">
     <use style="fill:#ff00ff;" x="79.2" xlink:href="#C0_0_b2d22d967e" y="131.332784"/>
    </g>
   </g>
   <g id="PathCollection_2">
    <defs>
     <path d="M 0 1.5 
C 0.397805 1.5 0.77937 1.341951 1.06066 1.06066 
C 1.341951 0.77937 1.5 0.397805 1.5 -0 
C 1.5 -0.397805 1.341951 -0.77937 1.06066 -1.06066 
C 0.77937 -1.341951 0.397805 -1.5 0 -1.5 
C -0.397805 -1.5 -0.77937 -1.341951 -1.06066 -1.06066 
C -1.341951 -0.77937 -1.5 -0.397805 -1.5 0 
C -1.5 0.397805 -1.341951 0.77937 -1.06066 1.06066 
C -0.77937 1.341951 -0.397805 1.5 0 1.5 
z
" id="C1_0_022b7b64dc"/>
    </defs>
    <g clip-path="url(#p388903b58b)">
     <use style="fill:#ffa500;" x="108" xlink:href="#C1_0_022b7b64dc" y="129.143398"/>
    </g>
    <g clip-path="url(#p388903b58b)">
     <use style="fill:#ffa500;" x="108" xlink:href="#C1_0_022b7b64dc" y="137.55013"/>
    </g>
    <g clip-path="url(#p388903b58b)">
     <use style="fill:#ffa500;" x="108" xlink:href="#C1_0_022b7b64dc" y="159.262719"/>
    </g>
    <g clip-path="url(#p388903b58b)">
     <use style="fill:#ffa500;" x="108" xlink:href="#C1_0_022b7b64dc" y="88.371434"/>
    </g>
    <g clip-path="url(#p388903b58b)">
     <use style="fill:#ffa500;" x="108" xlink:href="#C1_0_022b7b64dc" y="87.044932"/>
    </g>
    <g clip-path="url(#p388903b58b)">
     <use style="fill:#ffa500;" x="108" xlink:href="#C1_0_022b7b64dc" y="127.655544"/>
    </g>
    <g clip-path="url(#p388903b58b)">
     <use style="fill:#ffa500;" x="108" xlink:href="#C1_0_022b7b64dc" y="69.983023"/>
    </g>
    <g clip-path="url(#p388903b58b)">
     <use style="fill:#ffa500;" x="108" xlink:href="#C1_0_022b7b64dc" y="97.214388"/>
    </g>
    <g clip-path="url(#p388903b58b)">
     <use style="fill:#ffa500;" x="108" xlink:href="#C1_0_022b7b64dc" y="143.82949"/>
    </g>
   </g>
   <g id="PathCollection_3">
    <defs>
     <path d="M 0 1.5 
C 0.397805 1.5 0.77937 1.341951 1.06066 1.06066 
C 1.341951 0.77937 1.5 0.397805 1.5 -0 
C 1.5 -0.397805 1.341951 -0.77937 1.06066 -1.06066 
C 0.77937 -1.341951 0.397805 -1.5 0 -1.5 
C -0.397805 -1.5 -0.77937 -1.341951 -1.06066 -1.06066 
C -1.341951 -0.77937 -1.5 -0.397805 -1.5 0 
C -1.5 0.397805 -1.341951 0.77937 -1.06066 1.06066 
C -0.77937 1.341951 -0.397805 1.5 0 1.5 
z
" id="C2_0_68e5b6b6f0"/>
    </defs>
    <g clip-path="url(#p388903b58b)">
     <use style="fill:#1e90ff;" x="136.8" xlink:href="#C2_0_68e5b6b6f0" y="126.530617"/>
    </g>
    <g clip-path="url(#p388903b58b)">
     <use style="fill:#1e90ff;" x="136.8" xlink:href="#C2_0_68e5b6b6f0" y="150.320804"/>
    </g>
    <g clip-path="url(#p388903b58b)">
     <use style="fill:#1e90ff;" x="136.8" xlink:href="#C2_0_68e5b6b6f0" y="133.192327"/>
    </g>
    <g clip-path="url(#p388903b58b)">
     <use style="fill:#1e90ff;" x="136.8" xlink:href="#C2_0_68e5b6b6f0" y="62.365402"/>
    </g>
    <g clip-path="url(#p388903b58b)">
     <use style="fill:#1e90ff;" x="136.8" xlink:href="#C2_0_68e5b6b6f0" y="135.515901"/>
    </g>
    <g clip-path="url(#p388903b58b)">
     <use style="fill:#1e90ff;" x="136.8" xlink:href="#C2_0_68e5b6b6f0" y="139.642586"/>
    </g>
    <g clip-path="url(#p388903b58b)">
     <use style="fill:#1e90ff;" x="136.8" xlink:href="#C2_0_68e5b6b6f0" y="138.541598"/>
    </g>
    <g clip-path="url(#p388903b58b)">
     <use style="fill:#1e90ff;" x="136.8" xlink:href="#C2_0_68e5b6b6f0" y="142.550895"/>
    </g>
   </g>
   <g id="PathCollection_4"/>
   <g id="PathCollection_5"/>
   <g id="PathCollection_6"/>
   <g id="matplotlib.axis_1">
    <g id="xtick_1">
     <g id="line2d_1"/>
     <g id="text_1">
      <text style="font-family:DejaVu Sans;font-size:6px;font-stretch:normal;font-style:normal;font-weight:normal;text-anchor:middle;" transform="rotate(-0, 79.2, 180.859062)" x="79.2" y="180.859062">V1</text>
     </g>
    </g>
    <g id="xtick_2">
     <g id="line2d_2"/>
     <g id="text_2">
      <text style="font-family:DejaVu Sans;font-size:6px;font-stretch:normal;font-style:normal;font-weight:normal;text-anchor:middle;" transform="rotate(-0, 108, 180.859062)" x="108" y="180.859062">Lm</text>
     </g>
    </g>
    <g id="xtick_3">
     <g id="line2d_3"/>
     <g id="text_3">
      <text style="font-family:DejaVu Sans;font-size:6px;font-stretch:normal;font-style:normal;font-weight:normal;text-anchor:middle;" transform="rotate(-0, 136.8, 180.859062)" x="136.8" y="180.859062">Li</text>
     </g>
    </g>
   </g>
   <g id="matplotlib.axis_2">
    <g id="ytick_1">
     <g id="line2d_4">
      <defs>
       <path d="M 0 0 
L -3.5 0 
" id="m2e256a3be3" style="stroke:#000000;stroke-width:0.25;"/>
      </defs>
      <g>
       <use style="stroke:#000000;stroke-width:0.25;" x="62.8" xlink:href="#m2e256a3be3" y="172.8"/>
      </g>
     </g>
     <g id="text_4">
      <text style="font-family:DejaVu Sans;font-size:6px;font-stretch:normal;font-style:normal;font-weight:normal;text-anchor:end;" transform="rotate(-0, 55.8, 175.079531)" x="55.8" y="175.079531">−0.10</text>
     </g>
    </g>
    <g id="ytick_2">
     <g id="line2d_5">
      <g>
       <use style="stroke:#000000;stroke-width:0.25;" x="62.8" xlink:href="#m2e256a3be3" y="156.6"/>
      </g>
     </g>
     <g id="text_5">
      <text style="font-family:DejaVu Sans;font-size:6px;font-stretch:normal;font-style:normal;font-weight:normal;text-anchor:end;" transform="rotate(-0, 55.8, 158.879531)" x="55.8" y="158.879531">−0.05</text>
     </g>
    </g>
    <g id="ytick_3">
     <g id="line2d_6">
      <g>
       <use style="stroke:#000000;stroke-width:0.25;" x="62.8" xlink:href="#m2e256a3be3" y="140.4"/>
      </g>
     </g>
     <g id="text_6">
      <text style="font-family:DejaVu Sans;font-size:6px;font-stretch:normal;font-style:normal;font-weight:normal;text-anchor:end;" transform="rotate(-0, 55.8, 142.679531)" x="55.8" y="142.679531">0.00</text>
     </g>
    </g>
    <g id="ytick_4">
     <g id="line2d_7">
      <g>
       <use style="stroke:#000000;stroke-width:0.25;" x="62.8" xlink:href="#m2e256a3be3" y="124.2"/>
      </g>
     </g>
     <g id="text_7">
      <text style="font-family:DejaVu Sans;font-size:6px;font-stretch:normal;font-style:normal;font-weight:normal;text-anchor:end;" transform="rotate(-0, 55.8, 126.479531)" x="55.8" y="126.479531">0.05</text>
     </g>
    </g>
    <g id="ytick_5">
     <g id="line2d_8">
      <g>
       <use style="stroke:#000000;stroke-width:0.25;" x="62.8" xlink:href="#m2e256a3be3" y="108"/>
      </g>
     </g>
     <g id="text_8">
      <text style="font-family:DejaVu Sans;font-size:6px;font-stretch:normal;font-style:normal;font-weight:normal;text-anchor:end;" transform="rotate(-0, 55.8, 110.279531)" x="55.8" y="110.279531">0.10</text>
     </g>
    </g>
    <g id="ytick_6">
     <g id="line2d_9">
      <g>
       <use style="stroke:#000000;stroke-width:0.25;" x="62.8" xlink:href="#m2e256a3be3" y="91.8"/>
      </g>
     </g>
     <g id="text_9">
      <text style="font-family:DejaVu Sans;font-size:6px;font-stretch:normal;font-style:normal;font-weight:normal;text-anchor:end;" transform="rotate(-0, 55.8, 94.079531)" x="55.8" y="94.079531">0.15</text>
     </g>
    </g>
    <g id="ytick_7">
     <g id="line2d_10">
      <g>
       <use style="stroke:#000000;stroke-width:0.25;" x="62.8" xlink:href="#m2e256a3be3" y="75.6"/>
      </g>
     </g>
     <g id="text_10">
      <text style="font-family:DejaVu Sans;font-size:6px;font-stretch:normal;font-style:normal;font-weight:normal;text-anchor:end;" transform="rotate(-0, 55.8, 77.879531)" x="55.8" y="77.879531">0.20</text>
     </g>
    </g>
    <g id="ytick_8">
     <g id="line2d_11">
      <g>
       <use style="stroke:#000000;stroke-width:0.25;" x="62.8" xlink:href="#m2e256a3be3" y="59.4"/>
      </g>
     </g>
     <g id="text_11">
      <text style="font-family:DejaVu Sans;font-size:6px;font-stretch:normal;font-style:normal;font-weight:normal;text-anchor:end;" transform="rotate(-0, 55.8, 61.679531)" x="55.8" y="61.679531">0.25</text>
     </g>
    </g>
    <g id="ytick_9">
     <g id="line2d_12">
      <g>
       <use style="stroke:#000000;stroke-width:0.25;" x="62.8" xlink:href="#m2e256a3be3" y="43.2"/>
      </g>
     </g>
     <g id="text_12">
      <text style="font-family:DejaVu Sans;font-size:6px;font-stretch:normal;font-style:normal;font-weight:normal;text-anchor:end;" transform="rotate(-0, 55.8, 45.479531)" x="55.8" y="45.479531">0.30</text>
     </g>
    </g>
    <g id="text_13">
     <text style="font-family:DejaVu Sans;font-size:7px;font-stretch:normal;font-style:normal;font-weight:normal;" transform="translate(24.118562 147.604141)rotate(-90)">decoding performance</text>
     <text style="font-family:DejaVu Sans;font-size:7px;font-stretch:normal;font-style:normal;font-weight:normal;" transform="translate(31.957031 155.873984)rotate(-90)">([shuff-intact] over chance)</text>
    </g>
   </g>
   <g id="patch_6">
    <path d="M 62.8 172.8 
L 62.8 43.2 
" style="fill:none;stroke:#000000;stroke-linecap:square;stroke-linejoin:miter;stroke-width:0.25;"/>
   </g>
  </g>
  <g id="text_14">
   <text style="font-family:DejaVu Sans;font-size:7px;font-stretch:normal;font-style:normal;font-weight:normal;" transform="translate(2.16 13.566844)">[blobs] Relative scores, shuffled_v_intact</text>
   <text style="font-family:DejaVu Sans;font-size:7px;font-stretch:normal;font-style:normal;font-weight:normal;" transform="translate(2.16 21.6)">(unique data, min_ncells=10)</text>
  </g>
  <g id="text_15">
   <text style="font-family:DejaVu Sans;font-size:8px;font-stretch:normal;font-style:normal;font-weight:normal;text-anchor:start;" transform="rotate(-0, 0, 6.11375)" x="0" y="6.11375">traces001|dff_responsive-ROC-thr0.05</text>
  </g>
 </g>
 <defs>
  <clipPath id="p388903b58b">
   <rect height="129.6" width="86.4" x="64.8" y="43.2"/>
  </clipPath>
 </defs>
</svg>
